<svg width="221" height="161" viewBox="0 0 221 161" fill="none" xmlns="http://www.w3.org/2000/svg">
<path d="M216.165 35.47C216.165 35.0059 215.981 34.5608 215.652 34.2326C215.324 33.9044 214.879 33.72 214.415 33.72H195.2C194.736 33.72 194.291 33.9044 193.963 34.2326C193.634 34.5608 193.45 35.0059 193.45 35.47V53.25C193.45 53.7141 193.634 54.1592 193.963 54.4874C194.291 54.8156 194.736 55 195.2 55H209.45C209.84 54.9997 210.226 54.92 210.584 54.7656C210.942 54.6113 211.265 54.3857 211.532 54.1025L215.39 50.02C215.893 49.4892 216.173 48.786 216.173 48.055L216.165 35.47Z" fill="#FEC272"/>
<path d="M214.357 138.2H176.327C175.176 138.2 174.242 139.133 174.242 140.285V145.992C174.242 147.144 175.176 148.078 176.327 148.078H214.357C215.509 148.078 216.442 147.144 216.442 145.992V140.285C216.442 139.133 215.509 138.2 214.357 138.2Z" fill="#E1ECFF"/>
<path d="M217.76 128.322H179.73C178.578 128.322 177.645 129.256 177.645 130.408V136.115C177.645 137.267 178.578 138.2 179.73 138.2H217.76C218.912 138.2 219.845 137.267 219.845 136.115V130.408C219.845 129.256 218.912 128.322 217.76 128.322Z" fill="#C7DCF9"/>
<path d="M214.357 118.445H176.327C175.176 118.445 174.242 119.378 174.242 120.53V126.238C174.242 127.389 175.176 128.322 176.327 128.322H214.357C215.509 128.322 216.442 127.389 216.442 126.238V120.53C216.442 119.378 215.509 118.445 214.357 118.445Z" fill="#E1ECFF"/>
<path d="M218.418 108.568H180.388C179.236 108.568 178.303 109.501 178.303 110.652V116.36C178.303 117.512 179.236 118.445 180.388 118.445H218.418C219.569 118.445 220.503 117.512 220.503 116.36V110.652C220.503 109.501 219.569 108.568 218.418 108.568Z" fill="#C7DCF9"/>
<path d="M66.4575 16.75C45.02 16.75 35.3425 39.6975 25.3 65.985C15.2575 92.2725 16.08 120.585 29.75 135.567C43.42 150.55 56.9675 149.89 90.9375 149.89H172.487C193.89 149.89 199.652 115.39 192.572 97.405C185.492 79.42 168.37 73.0575 152.237 66.8575C136.105 60.6575 111.25 16.75 66.4575 16.75Z" fill="#FFD3B3"/>
<g style="mix-blend-mode:multiply" opacity="0.36">
<path d="M152.233 66.8575C147.605 65.08 142.26 60.2 135.932 54.145V149.895H172.483C193.885 149.895 199.648 115.395 192.568 97.41C185.488 79.425 168.365 73.0575 152.233 66.8575Z" fill="#FFD3B3"/>
</g>
<g style="mix-blend-mode:multiply" opacity="0.36">
<path d="M29.75 135.567C43.4125 150.55 56.9675 149.89 90.9375 149.89H96.6C91.6475 133.7 77.2925 96.55 46.5375 82.06C52.8535 91.4829 56.7351 102.325 57.835 113.615C58.6825 122.077 48.4675 127.015 42.3925 121.062C20.1225 99.25 25.3 65.9825 25.3 65.9825C15.25 92.2675 16.08 120.585 29.75 135.567Z" fill="#FFD3B3"/>
</g>
<path d="M125.96 7.33C131.25 11.03 137.385 16.9575 139.732 22.5925C142.08 28.2275 141.787 32.1775 137.907 32.7625C134.027 33.3475 125.25 31.75 125.25 31.75L125.96 7.33Z" fill="#FF8D76"/>
<path d="M125.96 7.33C131.25 11.03 137.385 16.9575 139.732 22.5925C142.08 28.2275 141.787 32.1775 137.907 32.7625C134.027 33.3475 125.25 31.75 125.25 31.75L125.96 7.33Z" fill="#F4624E"/>
<path d="M125.25 57.805H82.98V65.9825H125.25V57.805Z" fill="#FF8D76"/>
<path d="M36.7125 78.9325C36.7125 78.9325 47.36 65.9825 64.0425 65.9825H129.25C129.25 65.9825 163.92 88.81 176.102 106.7C184.645 119.245 189.517 135.565 191.705 147.833C192.317 151.258 193.565 155.083 196.152 157.72C196.395 157.965 196.559 158.276 196.625 158.614C196.691 158.952 196.656 159.302 196.524 159.62C196.393 159.938 196.17 160.21 195.884 160.402C195.598 160.595 195.262 160.698 194.917 160.7H83.58C83.58 160.7 68.42 153.45 63.9825 132.932C59.545 112.415 56.14 89.36 36.7125 78.9325Z" fill="#FEC272"/>
<g style="mix-blend-mode:multiply" opacity="0.37">
<path d="M175.47 105.795C169.518 97.48 159 88.2175 149.5 80.72L107.102 90.2C107.102 90.2 145.862 93.805 175.47 105.795Z" fill="#FEC272"/>
</g>
<path d="M158.93 90.2H107.102L84.96 69.5C84.6629 69.2214 84.4564 68.8599 84.3672 68.4625C84.278 68.0651 84.3103 67.6501 84.4599 67.2712C84.6094 66.8924 84.8693 66.5672 85.2059 66.3379C85.5425 66.1085 85.9402 65.9856 86.3475 65.985H143.397L161.725 83.1225C164.437 85.655 162.642 90.2 158.93 90.2Z" fill="#738DE0"/>
<path d="M64.0425 65.9825C64.0425 65.9825 62.835 52.5925 71.1775 33.8225C79.52 15.0525 86.7625 3.0925 94.885 1.775C103.007 0.457497 115.75 -1.5175 125.5 6.9325C135.25 15.3825 135.195 21.7875 135.122 26.9825C135.05 32.1775 133.465 38.3225 135.122 41.3975C136.78 44.4725 140.817 45.275 139.427 51.42C138.037 57.565 135.11 63.86 120.177 64.81C105.245 65.76 101.835 62.47 101.835 62.47V65.9825H64.0425Z" fill="#FF8D76"/>
<path d="M109.428 48.805C115.519 48.805 120.458 44.4812 120.458 39.1475C120.458 33.8138 115.519 29.49 109.428 29.49C103.336 29.49 98.3975 33.8138 98.3975 39.1475C98.3975 44.4812 103.336 48.805 109.428 48.805Z" fill="#C7DCF9"/>
<path d="M132.695 48.805C138.181 48.805 142.628 44.4812 142.628 39.1475C142.628 33.8138 138.181 29.49 132.695 29.49C127.209 29.49 122.762 33.8138 122.762 39.1475C122.762 44.4812 127.209 48.805 132.695 48.805Z" fill="#C7DCF9"/>
<path d="M98.6975 1.1925C92.305 1.4425 86.1575 1.33501 82.5375 4.46251C78.9175 7.59001 66.7325 18.5675 67.2875 24.8775C67.8425 31.1875 77.0575 33.275 82.6 31.9025C88.1425 30.53 91.1 17.525 96.045 13.4625C98.3425 6.00001 98.6975 1.1925 98.6975 1.1925Z" fill="#FF8D76"/>
<path d="M101.857 62.47C96.4575 60.39 91.2625 54.7875 89.725 49.8475C84.7875 61.8925 93.25 65.9825 93.25 65.9825H121.115L119.803 64.67C119.803 64.67 109.27 65.3225 101.857 62.47Z" fill="#F4624E"/>
<path d="M166.75 90.2H107.102L123.782 56.43C124.092 55.8056 124.57 55.2799 125.163 54.912C125.755 54.5442 126.438 54.3487 127.135 54.3475H184.433C184.704 54.3475 184.972 54.4168 185.21 54.549C185.447 54.6811 185.648 54.8716 185.791 55.1025C185.935 55.3335 186.017 55.5972 186.031 55.8689C186.044 56.1405 185.988 56.4111 185.868 56.655L170.425 87.92C170.086 88.6053 169.563 89.1821 168.913 89.5851C168.264 89.9881 167.514 90.2011 166.75 90.2Z" fill="#99ADF9"/>
<path d="M82.98 65.915C82.98 65.915 83.365 61.915 89.5 60.525C95.635 59.135 101.105 60.07 104.398 62.7475C107.69 65.425 110.45 70.9775 109.46 73.4475C108.47 75.9175 102.3 77.3175 98.555 74.23C94.81 71.1425 86.9475 65.915 86.9475 65.915H82.98Z" fill="#FF8D76"/>
<path d="M127.537 48.8325C127.537 50.62 125.202 52.07 122.322 52.07C119.442 52.07 117.11 50.62 117.11 48.8325C117.11 47.045 119.445 46.3325 122.322 46.3325C125.2 46.3325 127.537 47.045 127.537 48.8325Z" fill="#1C3177"/>
<path d="M110.21 42.6325C111.339 42.6325 112.255 41.7169 112.255 40.5875C112.255 39.4581 111.339 38.5425 110.21 38.5425C109.081 38.5425 108.165 39.4581 108.165 40.5875C108.165 41.7169 109.081 42.6325 110.21 42.6325Z" fill="#1C3177"/>
<path d="M129.58 42.6325C130.709 42.6325 131.625 41.7169 131.625 40.5875C131.625 39.4581 130.709 38.5425 129.58 38.5425C128.451 38.5425 127.535 39.4581 127.535 40.5875C127.535 41.7169 128.451 42.6325 129.58 42.6325Z" fill="#1C3177"/>
<path d="M86.25 61C86.25 61 97.335 54.855 107.102 64.3575" stroke="#F4624E" stroke-width="8" stroke-miterlimit="10" stroke-linecap="round"/>
<path d="M72.6025 31.6275C74.9625 32.56 80.085 33.11 83.3675 31.6275C86.65 30.145 87.0375 23.2325 90.9325 19.39" stroke="#F4624E" stroke-width="8" stroke-miterlimit="10" stroke-linecap="round"/>
<path d="M120.158 41.38C120.356 40.6524 120.457 39.9017 120.458 39.1475C120.458 33.8125 115.52 29.4875 109.428 29.4875C108.632 29.4876 107.838 29.5637 107.057 29.715L120.158 41.38Z" fill="white"/>
<path d="M132.695 29.5C132.084 29.5002 131.474 29.5555 130.873 29.665L142.528 40.5C142.594 40.0505 142.627 39.5968 142.628 39.1425C142.628 33.8125 138.18 29.5 132.695 29.5Z" fill="white"/>
<g style="mix-blend-mode:multiply" opacity="0.31">
<path d="M69.9275 36.77C62.9625 53.9775 64.0425 65.9825 64.0425 65.9825H81.7675C65.7 56.11 69.92 36.8 69.9275 36.77Z" fill="#FF8D76"/>
</g>
<path d="M149.052 74.7632C151.443 74.6296 153.304 73.1601 153.211 71.481C153.117 69.8019 151.103 68.5491 148.712 68.6827C146.322 68.8164 144.46 70.2859 144.554 71.965C144.648 73.644 146.662 74.8968 149.052 74.7632Z" fill="#738DE0"/>
<g style="mix-blend-mode:multiply" opacity="0.37">
<path d="M60.9325 118.798C62.0275 123.52 62.9775 128.297 63.9825 132.932C68.42 153.457 83.58 160.7 83.58 160.7H141.86C77.38 153.08 60.96 118.858 60.9325 118.798Z" fill="#FEC272"/>
</g>
<path d="M41.0475 138.2H3.01749C1.86598 138.2 0.932495 139.133 0.932495 140.285V145.992C0.932495 147.144 1.86598 148.078 3.01749 148.078H41.0475C42.199 148.078 43.1325 147.144 43.1325 145.992V140.285C43.1325 139.133 42.199 138.2 41.0475 138.2Z" fill="#C7DCF9"/>
<path d="M44.45 128.322H6.41999C5.26848 128.322 4.33499 129.256 4.33499 130.408V136.115C4.33499 137.267 5.26848 138.2 6.41999 138.2H44.45C45.6015 138.2 46.535 137.267 46.535 136.115V130.408C46.535 129.256 45.6015 128.322 44.45 128.322Z" fill="#E1ECFF"/>
<path d="M41.0475 118.445H3.01749C1.86598 118.445 0.932495 119.378 0.932495 120.53V126.238C0.932495 127.389 1.86598 128.322 3.01749 128.322H41.0475C42.199 128.322 43.1325 127.389 43.1325 126.238V120.53C43.1325 119.378 42.199 118.445 41.0475 118.445Z" fill="#C7DCF9"/>
<path d="M45.11 108.568H7.07999C5.92848 108.568 4.995 109.501 4.995 110.652V116.36C4.995 117.512 5.92848 118.445 7.07999 118.445H45.11C46.2615 118.445 47.195 117.512 47.195 116.36V110.652C47.195 109.501 46.2615 108.568 45.11 108.568Z" fill="#E1ECFF"/>
<path d="M179.067 21.1525H156.292C155.202 21.1525 154.318 22.0367 154.318 23.1275V36.97C154.318 38.0608 155.202 38.945 156.292 38.945H179.067C180.158 38.945 181.042 38.0608 181.042 36.97V23.1275C181.042 22.0367 180.158 21.1525 179.067 21.1525Z" fill="#C7DCF9"/>
<path d="M209.223 1.4525H190.453C189.362 1.4525 188.478 2.33674 188.478 3.4275V20.77C188.478 21.8608 189.362 22.745 190.453 22.745H209.223C210.313 22.745 211.198 21.8608 211.198 20.77V3.4275C211.198 2.33674 210.313 1.4525 209.223 1.4525Z" fill="#E1ECFF"/>
<path d="M169 31.3925L180.768 22.0175C180.604 21.7526 180.376 21.534 180.104 21.3826C179.832 21.2312 179.526 21.1519 179.215 21.1525H156.145C155.834 21.1524 155.529 21.2318 155.257 21.3832C154.986 21.5346 154.758 21.753 154.595 22.0175L166.363 31.3925C166.738 31.6904 167.202 31.8526 167.681 31.8526C168.16 31.8526 168.625 31.6904 169 31.3925V31.3925Z" fill="#99ADF9"/>
<path d="M209.223 1.4525H190.455C189.931 1.4525 189.428 1.6605 189.058 2.03081C188.687 2.40112 188.478 2.90347 188.478 3.4275V7.16H211.198V3.4275C211.198 3.16814 211.146 2.91132 211.047 2.6717C210.948 2.43208 210.803 2.21436 210.619 2.03096C210.436 1.84757 210.218 1.70209 209.978 1.60284C209.739 1.50358 209.482 1.4525 209.223 1.4525V1.4525Z" fill="#F774B9"/>
<g style="mix-blend-mode:multiply" opacity="0.77">
<path d="M210.25 49.77V54.89C210.734 54.7471 211.172 54.4789 211.52 54.1125L215.378 50.03C215.782 49.6013 216.044 49.0582 216.128 48.475H211.55C211.38 48.4743 211.211 48.5074 211.053 48.5721C210.895 48.6369 210.752 48.7322 210.631 48.8525C210.51 48.9728 210.414 49.1158 210.349 49.2733C210.284 49.4307 210.25 49.5995 210.25 49.77V49.77Z" fill="#FEC272"/>
</g>
<g style="mix-blend-mode:multiply" opacity="0.77">
<path d="M210.17 39.3375H199.44C199.175 39.3375 198.96 39.5524 198.96 39.8175V41.19C198.96 41.4551 199.175 41.67 199.44 41.67H210.17C210.435 41.67 210.65 41.4551 210.65 41.19V39.8175C210.65 39.5524 210.435 39.3375 210.17 39.3375Z" fill="#FEC272"/>
</g>
<g style="mix-blend-mode:multiply" opacity="0.77">
<path d="M210.17 44.3625H199.44C199.175 44.3625 198.96 44.5774 198.96 44.8425V46.215C198.96 46.4801 199.175 46.695 199.44 46.695H210.17C210.435 46.695 210.65 46.4801 210.65 46.215V44.8425C210.65 44.5774 210.435 44.3625 210.17 44.3625Z" fill="#FEC272"/>
</g>
</svg>
