<svg width="171" height="1" viewBox="0 0 171 1" fill="none" xmlns="http://www.w3.org/2000/svg">
<path fill-rule="evenodd" clip-rule="evenodd" d="M0 1H3V0H0V1Z" fill="#C4C4C4"/>
<path fill-rule="evenodd" clip-rule="evenodd" d="M16 1H19V0H16V1Z" fill="#C4C4C4"/>
<path fill-rule="evenodd" clip-rule="evenodd" d="M52 1H55V0H52V1Z" fill="#C4C4C4"/>
<path fill-rule="evenodd" clip-rule="evenodd" d="M116 1H119V0H116V1Z" fill="#C4C4C4"/>
<path fill-rule="evenodd" clip-rule="evenodd" d="M32 1H35V0H32V1Z" fill="#C4C4C4"/>
<path fill-rule="evenodd" clip-rule="evenodd" d="M96 1H99V0H96V1Z" fill="#C4C4C4"/>
<path fill-rule="evenodd" clip-rule="evenodd" d="M68 1H71V0H68V1Z" fill="#C4C4C4"/>
<path fill-rule="evenodd" clip-rule="evenodd" d="M132 1H135V0H132V1Z" fill="#C4C4C4"/>
<path fill-rule="evenodd" clip-rule="evenodd" d="M156 1H159V0H156V1Z" fill="#C4C4C4"/>
<path fill-rule="evenodd" clip-rule="evenodd" d="M8 1H11V0H8V1Z" fill="#C4C4C4"/>
<path fill-rule="evenodd" clip-rule="evenodd" d="M24 1H27V0H24V1Z" fill="#C4C4C4"/>
<path fill-rule="evenodd" clip-rule="evenodd" d="M88 1H91V0H88V1Z" fill="#C4C4C4"/>
<path fill-rule="evenodd" clip-rule="evenodd" d="M60 1H63V0H60V1Z" fill="#C4C4C4"/>
<path fill-rule="evenodd" clip-rule="evenodd" d="M124 1H127V0H124V1Z" fill="#C4C4C4"/>
<path fill-rule="evenodd" clip-rule="evenodd" d="M148 1H151V0H148V1Z" fill="#C4C4C4"/>
<path fill-rule="evenodd" clip-rule="evenodd" d="M40 1H43V0H40V1Z" fill="#C4C4C4"/>
<path fill-rule="evenodd" clip-rule="evenodd" d="M104 1H107V0H104V1Z" fill="#C4C4C4"/>
<path fill-rule="evenodd" clip-rule="evenodd" d="M76 1H79V0H76V1Z" fill="#C4C4C4"/>
<path fill-rule="evenodd" clip-rule="evenodd" d="M140 1H143V0H140V1Z" fill="#C4C4C4"/>
<path fill-rule="evenodd" clip-rule="evenodd" d="M164 1H167V0H164V1Z" fill="#C4C4C4"/>
<path fill-rule="evenodd" clip-rule="evenodd" d="M4 1H7V0H4V1Z" fill="#C4C4C4"/>
<path fill-rule="evenodd" clip-rule="evenodd" d="M20 1H23V0H20V1Z" fill="#C4C4C4"/>
<path fill-rule="evenodd" clip-rule="evenodd" d="M84 1H87V0H84V1Z" fill="#C4C4C4"/>
<path fill-rule="evenodd" clip-rule="evenodd" d="M56 1H59V0H56V1Z" fill="#C4C4C4"/>
<path fill-rule="evenodd" clip-rule="evenodd" d="M120 1H123V0H120V1Z" fill="#C4C4C4"/>
<path fill-rule="evenodd" clip-rule="evenodd" d="M36 1H39V0H36V1Z" fill="#C4C4C4"/>
<path fill-rule="evenodd" clip-rule="evenodd" d="M100 1H103V0H100V1Z" fill="#C4C4C4"/>
<path fill-rule="evenodd" clip-rule="evenodd" d="M72 1H75V0H72V1Z" fill="#C4C4C4"/>
<path fill-rule="evenodd" clip-rule="evenodd" d="M136 1H139V0H136V1Z" fill="#C4C4C4"/>
<path fill-rule="evenodd" clip-rule="evenodd" d="M160 1H163V0H160V1Z" fill="#C4C4C4"/>
<path fill-rule="evenodd" clip-rule="evenodd" d="M12 1H15V0H12V1Z" fill="#C4C4C4"/>
<path fill-rule="evenodd" clip-rule="evenodd" d="M48 1H51V0H48V1Z" fill="#C4C4C4"/>
<path fill-rule="evenodd" clip-rule="evenodd" d="M112 1H115V0H112V1Z" fill="#C4C4C4"/>
<path fill-rule="evenodd" clip-rule="evenodd" d="M28 1H31V0H28V1Z" fill="#C4C4C4"/>
<path fill-rule="evenodd" clip-rule="evenodd" d="M92 1H95V0H92V1Z" fill="#C4C4C4"/>
<path fill-rule="evenodd" clip-rule="evenodd" d="M64 1H67V0H64V1Z" fill="#C4C4C4"/>
<path fill-rule="evenodd" clip-rule="evenodd" d="M128 1H131V0H128V1Z" fill="#C4C4C4"/>
<path fill-rule="evenodd" clip-rule="evenodd" d="M152 1H155V0H152V1Z" fill="#C4C4C4"/>
<path fill-rule="evenodd" clip-rule="evenodd" d="M44 1H47V0H44V1Z" fill="#C4C4C4"/>
<path fill-rule="evenodd" clip-rule="evenodd" d="M108 1H111V0H108V1Z" fill="#C4C4C4"/>
<path fill-rule="evenodd" clip-rule="evenodd" d="M80 1H83V0H80V1Z" fill="#C4C4C4"/>
<path fill-rule="evenodd" clip-rule="evenodd" d="M144 1H147V0H144V1Z" fill="#C4C4C4"/>
<path fill-rule="evenodd" clip-rule="evenodd" d="M168 1H171V0H168V1Z" fill="#C4C4C4"/>
</svg>
