<svg width="14" height="14" viewBox="0 0 14 14" fill="none" xmlns="http://www.w3.org/2000/svg"><path fill-rule="evenodd" clip-rule="evenodd" d="M7.00002 1.3999C7.18568 1.3999 7.36372 1.47365 7.495 1.60493C7.62627 1.7362 7.70002 1.91425 7.70002 2.0999V2.7999C7.70002 2.98555 7.62627 3.1636 7.495 3.29488C7.36372 3.42615 7.18568 3.4999 7.00002 3.4999C6.81437 3.4999 6.63633 3.42615 6.50505 3.29488C6.37377 3.1636 6.30002 2.98555 6.30002 2.7999V2.0999C6.30002 1.91425 6.37377 1.7362 6.50505 1.60493C6.63633 1.47365 6.81437 1.3999 7.00002 1.3999ZM9.80002 6.9999C9.80002 7.74251 9.50502 8.4547 8.97992 8.9798C8.45482 9.5049 7.74263 9.7999 7.00002 9.7999C6.25742 9.7999 5.54523 9.5049 5.02013 8.9798C4.49502 8.4547 4.20002 7.74251 4.20002 6.9999C4.20002 6.2573 4.49502 5.5451 5.02013 5.02C5.54523 4.4949 6.25742 4.1999 7.00002 4.1999C7.74263 4.1999 8.45482 4.4949 8.97992 5.02C9.50502 5.5451 9.80002 6.2573 9.80002 6.9999ZM9.47522 10.4649L9.97012 10.9598C10.1021 11.0873 10.279 11.1579 10.4625 11.1563C10.646 11.1547 10.8216 11.0811 10.9514 10.9513C11.0812 10.8215 11.1548 10.6459 11.1564 10.4624C11.158 10.2788 11.0874 10.102 10.9599 9.97L10.465 9.4751C10.333 9.34759 10.1562 9.27704 9.97264 9.27863C9.78911 9.28023 9.61354 9.35384 9.48375 9.48363C9.35397 9.61341 9.28035 9.78898 9.27875 9.97252C9.27716 10.1561 9.34771 10.3329 9.47522 10.4649ZM10.9592 3.04C11.0905 3.17127 11.1642 3.34929 11.1642 3.5349C11.1642 3.72052 11.0905 3.89853 10.9592 4.0298L10.465 4.5247C10.4005 4.59156 10.3232 4.64489 10.2378 4.68157C10.1524 4.71826 10.0606 4.73757 9.9676 4.73838C9.87466 4.73919 9.78248 4.72147 9.69646 4.68628C9.61043 4.65108 9.53227 4.5991 9.46655 4.53338C9.40082 4.46765 9.34885 4.3895 9.31365 4.30347C9.27845 4.21744 9.26074 4.12527 9.26155 4.03232C9.26236 3.93938 9.28167 3.84752 9.31835 3.76212C9.35504 3.67672 9.40837 3.59948 9.47522 3.5349L9.97012 3.04C10.1014 2.90877 10.2794 2.83505 10.465 2.83505C10.6506 2.83505 10.8287 2.90877 10.9599 3.04H10.9592ZM11.9 7.6999C12.0857 7.6999 12.2637 7.62615 12.395 7.49488C12.5263 7.3636 12.6 7.18555 12.6 6.9999C12.6 6.81425 12.5263 6.6362 12.395 6.50493C12.2637 6.37365 12.0857 6.2999 11.9 6.2999H11.2C11.0144 6.2999 10.8363 6.37365 10.705 6.50493C10.5738 6.6362 10.5 6.81425 10.5 6.9999C10.5 7.18555 10.5738 7.3636 10.705 7.49488C10.8363 7.62615 11.0144 7.6999 11.2 7.6999H11.9ZM7.00002 10.4999C7.18568 10.4999 7.36372 10.5737 7.495 10.7049C7.62627 10.8362 7.70002 11.0143 7.70002 11.1999V11.8999C7.70002 12.0856 7.62627 12.2636 7.495 12.3949C7.36372 12.5262 7.18568 12.5999 7.00002 12.5999C6.81437 12.5999 6.63633 12.5262 6.50505 12.3949C6.37377 12.2636 6.30002 12.0856 6.30002 11.8999V11.1999C6.30002 11.0143 6.37377 10.8362 6.50505 10.7049C6.63633 10.5737 6.81437 10.4999 7.00002 10.4999ZM3.53502 4.5247C3.60002 4.58974 3.67718 4.64134 3.76211 4.67655C3.84705 4.71177 3.93808 4.72991 4.03003 4.72994C4.12197 4.72998 4.21302 4.7119 4.29798 4.67674C4.38294 4.64159 4.46014 4.59004 4.52517 4.52505C4.59021 4.46006 4.64181 4.3829 4.67703 4.29796C4.71224 4.21303 4.73038 4.12199 4.73042 4.03005C4.73045 3.93811 4.71237 3.84706 4.67722 3.7621C4.64206 3.67714 4.59052 3.59994 4.52552 3.5349L4.02992 3.04C3.8979 2.91249 3.72108 2.84194 3.53754 2.84353C3.35401 2.84513 3.17844 2.91874 3.04865 3.04853C2.91887 3.17831 2.84525 3.35388 2.84365 3.53742C2.84206 3.72096 2.91261 3.89778 3.04012 4.0298L3.53502 4.5247ZM4.52482 10.4649L4.02992 10.9598C3.8979 11.0873 3.72108 11.1579 3.53754 11.1563C3.35401 11.1547 3.17844 11.0811 3.04865 10.9513C2.91887 10.8215 2.84525 10.6459 2.84365 10.4624C2.84206 10.2788 2.91261 10.102 3.04012 9.97L3.53502 9.4751C3.66705 9.34759 3.84387 9.27704 4.02741 9.27863C4.21094 9.28023 4.38651 9.35384 4.5163 9.48363C4.64608 9.61341 4.7197 9.78898 4.7213 9.97252C4.72289 10.1561 4.65234 10.3329 4.52482 10.4649ZM2.80002 7.6999C2.98568 7.6999 3.16372 7.62615 3.295 7.49488C3.42627 7.3636 3.50002 7.18555 3.50002 6.9999C3.50002 6.81425 3.42627 6.6362 3.295 6.50493C3.16372 6.37365 2.98568 6.2999 2.80002 6.2999H2.10002C1.91437 6.2999 1.73633 6.37365 1.60505 6.50493C1.47377 6.6362 1.40002 6.81425 1.40002 6.9999C1.40002 7.18555 1.47377 7.3636 1.60505 7.49488C1.73633 7.62615 1.91437 7.6999 2.10002 7.6999H2.80002Z" fill="#CCCCCC" /></svg>