   <svg width="12" height="12" viewBox="0 0 12 12" fill="none" xmlns="http://www.w3.org/2000/svg"><path fill-rule="evenodd" clip-rule="evenodd" d="M2.99995 1.19995C3.15908 1.19995 3.31169 1.26317 3.42422 1.37569C3.53674 1.48821 3.59995 1.64082 3.59995 1.79995V2.39995H4.19995C4.35908 2.39995 4.51169 2.46317 4.62422 2.57569C4.73674 2.68821 4.79995 2.84082 4.79995 2.99995C4.79995 3.15908 4.73674 3.31169 4.62422 3.42422C4.51169 3.53674 4.35908 3.59995 4.19995 3.59995H3.59995V4.19995C3.59995 4.35908 3.53674 4.51169 3.42422 4.62422C3.31169 4.73674 3.15908 4.79995 2.99995 4.79995C2.84082 4.79995 2.68821 4.73674 2.57569 4.62422C2.46317 4.51169 2.39995 4.35908 2.39995 4.19995V3.59995H1.79995C1.64082 3.59995 1.48821 3.53674 1.37569 3.42422C1.26317 3.31169 1.19995 3.15908 1.19995 2.99995C1.19995 2.84082 1.26317 2.68821 1.37569 2.57569C1.48821 2.46317 1.64082 2.39995 1.79995 2.39995H2.39995V1.79995C2.39995 1.64082 2.46317 1.48821 2.57569 1.37569C2.68821 1.26317 2.84082 1.19995 2.99995 1.19995ZM2.99995 7.19995C3.15908 7.19995 3.31169 7.26317 3.42422 7.37569C3.53674 7.48821 3.59995 7.64082 3.59995 7.79995V8.39995H4.19995C4.35908 8.39995 4.51169 8.46317 4.62422 8.57569C4.73674 8.68821 4.79995 8.84082 4.79995 8.99995C4.79995 9.15908 4.73674 9.31169 4.62422 9.42422C4.51169 9.53674 4.35908 9.59995 4.19995 9.59995H3.59995V10.2C3.59995 10.3591 3.53674 10.5117 3.42422 10.6242C3.31169 10.7367 3.15908 10.8 2.99995 10.8C2.84082 10.8 2.68821 10.7367 2.57569 10.6242C2.46317 10.5117 2.39995 10.3591 2.39995 10.2V9.59995H1.79995C1.64082 9.59995 1.48821 9.53674 1.37569 9.42422C1.26317 9.31169 1.19995 9.15908 1.19995 8.99995C1.19995 8.84082 1.26317 8.68821 1.37569 8.57569C1.48821 8.46317 1.64082 8.39995 1.79995 8.39995H2.39995V7.79995C2.39995 7.64082 2.46317 7.48821 2.57569 7.37569C2.68821 7.26317 2.84082 7.19995 2.99995 7.19995ZM7.19995 1.19995C7.33237 1.19991 7.46107 1.24367 7.56602 1.32441C7.67097 1.40516 7.74625 1.51835 7.78015 1.64635L8.48755 4.31995L10.5 5.48035C10.5912 5.53301 10.6669 5.60876 10.7195 5.69996C10.7722 5.79117 10.7999 5.89463 10.7999 5.99995C10.7999 6.10527 10.7722 6.20873 10.7195 6.29994C10.6669 6.39115 10.5912 6.46689 10.5 6.51955L8.48755 7.68055L7.77955 10.3536C7.74559 10.4814 7.67032 10.5945 7.56544 10.6752C7.46056 10.7558 7.33196 10.7996 7.19965 10.7996C7.06734 10.7996 6.93874 10.7558 6.83386 10.6752C6.72899 10.5945 6.65371 10.4814 6.61975 10.3536L5.91235 7.67995L3.89995 6.51955C3.80875 6.46689 3.73301 6.39115 3.68035 6.29994C3.6277 6.20873 3.59998 6.10527 3.59998 5.99995C3.59998 5.89463 3.6277 5.79117 3.68035 5.69996C3.73301 5.60876 3.80875 5.53301 3.89995 5.48035L5.91235 4.31935L6.62035 1.64635C6.65422 1.51845 6.72942 1.40533 6.83425 1.3246C6.93907 1.24386 7.06764 1.20004 7.19995 1.19995Z" fill="black" fill-opacity="0.2" /></svg>