<svg width="34" height="25" viewBox="0 0 34 25" fill="none"
                                xmlns="http://www.w3.org/2000/svg">
                                <path
                                    d="M0.952 6.15C0.952 9.822 3.502 12.202 7.174 12.202C10.812 12.202 13.566 9.822 13.566 6.15C13.566 2.444 10.88 0.131999 7.276 0.131999C3.638 0.131999 0.952 2.444 0.952 6.15ZM10.472 6.15C10.472 8.7 8.84 9.924 7.174 9.924C5.474 9.924 4.012 8.7 4.012 6.15C4.012 3.634 5.542 2.342 7.208 2.342C8.908 2.342 10.472 3.634 10.472 6.15ZM15.7678 14.616C15.7678 20.498 19.5758 24.306 24.9478 24.306C29.5378 24.306 32.5298 21.756 33.5838 18.084H29.4018C28.6878 20.022 27.2598 21.042 24.9478 21.042C21.8198 21.042 19.7458 18.73 19.7458 14.616C19.7458 10.536 21.8198 8.224 24.9478 8.224C27.2598 8.224 28.7558 9.38 29.4018 11.182H33.5838C32.5298 7.238 29.5378 4.96 24.9478 4.96C19.5758 4.96 15.7678 8.768 15.7678 14.616Z"
                                    fill="#474747" />
                            </svg>