<svg width="23" height="23" viewBox="0 0 23 23" fill="none" xmlns="http://www.w3.org/2000/svg">
<path d="M11.5 1.375V2.5V1.375ZM11.5 20.5V21.625V20.5ZM21.625 11.5H20.5H21.625ZM2.5 11.5H1.375H2.5ZM18.6595 18.6595L17.8641 17.8641L18.6595 18.6595ZM5.13587 5.13587L4.3405 4.3405L5.13587 5.13587ZM18.6595 4.3405L17.8641 5.13587L18.6595 4.3405ZM5.13587 17.8641L4.3405 18.6595L5.13587 17.8641ZM16 11.5C16 12.6935 15.5259 13.8381 14.682 14.682C13.8381 15.5259 12.6935 16 11.5 16C10.3065 16 9.16193 15.5259 8.31802 14.682C7.47411 13.8381 7 12.6935 7 11.5C7 10.3065 7.47411 9.16193 8.31802 8.31802C9.16193 7.47411 10.3065 7 11.5 7C12.6935 7 13.8381 7.47411 14.682 8.31802C15.5259 9.16193 16 10.3065 16 11.5V11.5Z" stroke="#ADBBCF" stroke-width="2" stroke-linecap="round" stroke-linejoin="round"/>
</svg>
