<svg width="222" height="182" viewBox="0 0 222 182" fill="none" xmlns="http://www.w3.org/2000/svg">
<path d="M191 72.8C189.3 66.4 182.6 62.6 176.2 64.3L148.5 71.5L147.7 68.6L179.4 60.1C182.9 59.2 185 55.6 184 52.1L182.4 46.3C181.6 43.4 179 41.5 176.1 41.5C175.5 41.5 175 41.6 174.4 41.7L142.7 50.2L142.2 48.3L173.9 39.8C177.4 38.9 179.5 35.3 178.5 31.8L177 26C176.2 23.1 173.6 21.2 170.7 21.2C170.1 21.2 169.6 21.3 169 21.4L137.3 29.9L136.8 28L168.5 19.5C172 18.6 174.1 15 173.1 11.5L171.5 5.70004C170.7 2.80004 168.1 0.900024 165.2 0.900024C164.6 0.900024 164.1 1.00004 163.5 1.10004L131.5 9.70004C131 9.80004 130.6 10 130.1 10.2C129.4 10 128.6 9.90004 127.8 10.1C125.7 10.7 124.4 12.9 125 15L140.7 73.5L127.9 76.8C124.8 77.6 122.2 79.6 120.5 82.4C118.9 85.2 118.5 88.4 119.3 91.5L122.9 104.8C124.3 110.2 129.3 113.7 134.6 113.7C135.6 113.7 136.7 113.6 137.7 113.3L150.7 109.9C152.5 109.4 153.7 107.5 153.2 105.7C152.7 104 151 102.9 149.3 103.2L146.9 94.1C146.3 92 144.1 90.7 142 91.3C139.9 91.9 138.6 94.1 139.2 96.2L141.6 105.2L136 106.7C133.2 107.4 130.4 105.8 129.6 103L126 89.7C125.6 88.4 125.8 87 126.5 85.8C127.2 84.6 128.3 83.8 129.6 83.4L144.4 79.5C145 79.7 145.7 79.7 146.4 79.5C147.1 79.3 147.6 79 148.1 78.5L148.8 78.3L151.3 87.7C151.9 89.8 154.1 91.1 156.2 90.5C158.3 89.9 159.6 87.7 159 85.6L156.5 76.3L178 71C180.8 70.3 183.6 71.9 184.4 74.7L188 88C188.4 89.3 188.2 90.7 187.5 91.9C186.8 93.1 185.7 93.9 184.3 94.3C182.5 94.8 181.4 96.7 181.9 98.5C182.4 100.3 184.3 101.4 186.1 100.9C189.2 100.1 191.8 98.1 193.5 95.3C195.1 92.5 195.5 89.3 194.7 86.2L191 72.8ZM175.1 49.8L175.9 52.7L146.8 60.5L146 57.6L175.1 49.8ZM169.6 29.5L170.4 32.4L141.3 40.2L140.5 37.3L169.6 29.5ZM164.2 9.20004L165 12.1L135.9 19.9L135.1 17L164.2 9.20004Z" fill="#495FA9"/>
<path d="M160.2 107.5C160.5 107.5 160.8 107.5 161.1 107.4L174.2 104C176 103.5 177.2 101.6 176.7 99.8C176.2 98 174.3 96.9 172.5 97.3L159.4 100.7C157.6 101.2 156.4 103.1 156.9 104.9C157.3 106.5 158.7 107.5 160.2 107.5Z" fill="#EB7444"/>
<path d="M208.8 66.3C206.7 66.9 205.4 69.1 206 71.2L208.1 78.9C208.7 81 210.9 82.3 213 81.7C215.1 81.1 216.4 78.9 215.8 76.8L213.7 69.1C213.1 67 210.9 65.8 208.8 66.3Z" fill="#48A5DD"/>
<path d="M144.6 125.4L106.1 103.1C105.8 102.9 105.4 102.8 105 102.7C105.3 102.4 105.6 102.1 105.8 101.7L127.9 63.3C132.8 54.8 129.9 43.8 121.4 38.9C117.3 36.5 112.5 35.9 107.9 37.1C103.3 38.3 99.5 41.3 97.1 45.4L75 83.8C74.8 84.2 74.6 84.6 74.5 85C74.2 84.7 73.9 84.5 73.6 84.3L35.1 62C31 59.6 26.2 59 21.6 60.2C17 61.4 13.2 64.4 10.8 68.5C5.90002 77 8.80002 88 17.3 92.9L56.6 115.6L34 155.1C29.1 163.6 32 174.6 40.5 179.5C43.2 181.1 46.3001 181.9 49.4001 181.9C50.9001 181.9 52.5 181.7 54 181.3C58.6 180.1 62.4 177.1 64.8 173L87.5 133.6L126.8 156.3C130.9 158.7 135.7 159.3 140.3 158.1C144.9 156.9 148.7 153.9 151.1 149.8C156 141.2 153.1 130.3 144.6 125.4ZM104.1 49.4C105.4 47.1 107.5 45.5 110.1 44.8C112.6 44.1 115.3 44.5 117.5 45.8C122.2 48.5 123.8 54.5 121.1 59.2L102.4 91.6C100.3 89 97.8 86.8 94.8 85.1C91.8 83.4 88.7001 82.3 85.4001 81.8L104.1 49.4ZM55 105.5L21.4001 86C16.7001 83.3 15.1 77.3 17.8 72.6C19.1 70.3 21.2 68.7 23.8 68C24.6 67.8 25.5001 67.7 26.4001 67.7C28.1001 67.7 29.8 68.1 31.3 69L64.2 88C61.9 89.9 60 92.3 58.5 94.9C56.5 98.2 55.4 101.8 55 105.5ZM57.9001 168.9C56.6001 171.2 54.5001 172.8 51.9001 173.5C49.4001 174.2 46.7 173.8 44.5 172.5C39.8 169.8 38.2001 163.8 40.9001 159.1L60.5 125C62.6 127.6 65.1 129.8 68.1 131.5C71.1 133.2 74.2 134.3 77.5 134.8L57.9001 168.9ZM87.7 126C86.7 126.4 85.3 126.8 84.5 126.8C84.3 126.8 84.1 126.8 84 126.8C79.9 127.3 75.8 126.5 72.2 124.5C68.6 122.4 65.9 119.3 64.3 115.4C63.9 114.5 63.4 112.7 63.2 111.7C62.4 107.3 63.1001 102.7 65.4001 98.8C67.3001 95.5 70.1 92.9 73.5 91.3C75.6 90.3 77.1 89.9 79.1 89.6C83.2 89.1 87.3001 89.9 90.9001 91.9C94.5001 94 97.2 97.1 98.8 101C99.8 103.3 100 104.2 100.2 106.7C100.5 110.5 99.7 114.2 97.8 117.5C95.4 121.6 91.9 124.5 87.7 126ZM144.2 145.8C142.9 148.1 140.8 149.7 138.2 150.4C135.7 151.1 133 150.7 130.8 149.4L97.2 130C100.2 127.8 102.7 125 104.6 121.8C106.1 119.2 107.2 116.3 107.7 113.4L140.6 132.4C145.3 135 146.9 141.1 144.2 145.8Z" fill="#495FA9"/>
<path d="M77.7001 94.4C70.0001 96.5 65.4001 104.4 67.4001 112.2C69.1001 118.7 75.0001 123 81.4001 123C82.6001 123 83.9001 122.8 85.2001 122.5C92.9001 120.4 97.5001 112.5 95.5001 104.7C93.4001 96.9 85.5001 92.3 77.7001 94.4ZM88.9001 112.6C87.8001 114.6 85.9001 116 83.7001 116.6C79.1001 117.8 74.4001 115.1 73.2001 110.6C72.6001 108.4 72.9001 106.1 74.1001 104.1C75.2001 102.1 77.1001 100.7 79.3001 100.1C80.0001 99.9 80.8001 99.8 81.5001 99.8C85.3001 99.8 88.7001 102.3 89.8001 106.1C90.3001 108.4 90.0001 110.7 88.9001 112.6Z" fill="#EB7444"/>
<path d="M221 119.9C219.1 119.2 217.1 118.3 216.3 117.4C215.5 116.6 214.6 114.7 214 112.9C213.5 111.5 211.6 111.5 211.1 112.9C210.4 114.7 209.6 116.6 208.7 117.5C207.8 118.4 206 119.2 204.1 119.9C202.8 120.4 202.8 122.3 204.1 122.8C205.9 123.5 207.7 124.3 208.6 125.2C209.5 126.1 210.4 128 211.1 129.9C211.6 131.2 213.5 131.2 214 129.9C214.6 128.2 215.4 126.4 216.2 125.6C217.1 124.7 219.2 123.7 221.1 123C222.3 122.3 222.3 120.4 221 119.9Z" fill="#EB7444"/>
<path d="M59.0001 43.3C60.7001 43.9 62.4001 44.7 63.2001 45.5C64.0001 46.3 64.9001 48.1 65.5001 49.9C66.0001 51.2 67.8001 51.2 68.3001 49.9C68.9001 48.2 69.7001 46.6 70.4001 45.8C71.3001 44.9 73.2001 44 75.0001 43.3C76.3001 42.8 76.3001 41 75.0001 40.5C73.2001 39.8 71.3001 39 70.5001 38.1C69.7001 37.3 68.9001 35.5 68.3001 33.8C67.8001 32.5 66.0001 32.5 65.5001 33.8C64.8001 35.5 64.0001 37.3 63.2001 38.1C62.4001 38.9 60.6001 39.7 58.9001 40.4C57.7001 41 57.7001 42.8 59.0001 43.3Z" fill="#EB7444"/>
<path d="M148.1 168.2C146.5 167.6 144.9 166.9 144.1 166.2C143.4 165.5 142.7 164.1 142.1 162.6C141.7 161.5 140.1 161.5 139.6 162.6C139 164 138.3 165.5 137.6 166.2C136.9 166.9 135.3 167.6 133.8 168.1C132.7 168.5 132.7 170 133.8 170.4C135.3 170.9 136.9 171.6 137.6 172.3C138.3 173 139.1 174.5 139.7 176C140.1 177.1 141.7 177.1 142.2 176C142.7 174.6 143.4 173.2 144.1 172.6C144.9 171.9 146.6 171.1 148.2 170.5C149.3 170.1 149.3 168.6 148.1 168.2Z" fill="#48A5DD"/>
<path d="M16.1001 148.2C14.5001 147.6 12.9001 146.9 12.1001 146.2C11.4001 145.5 10.7001 144.1 10.1001 142.6C9.70009 141.5 8.10009 141.5 7.60009 142.6C7.00009 144 6.30009 145.5 5.60009 146.2C4.90009 146.9 3.3001 147.6 1.8001 148.1C0.700098 148.5 0.700098 150 1.8001 150.4C3.3001 150.9 4.90009 151.6 5.60009 152.3C6.30009 153 7.10012 154.5 7.70012 156C8.10012 157.1 9.70012 157.1 10.2001 156C10.7001 154.6 11.4001 153.2 12.1001 152.6C12.9001 151.9 14.6001 151.1 16.2001 150.5C17.3001 150.1 17.3001 148.6 16.1001 148.2Z" fill="#EB7444"/>
<path d="M175 147.9C173.3 147.9 172 149.2 172 150.9C172 152.6 173.3 153.9 175 153.9C176.7 153.9 178 152.6 178 150.9C178 149.2 176.7 147.9 175 147.9Z" fill="#DE4875"/>
<path d="M108.5 22.9C109.9 22.9 111 21.8 111 20.4C111 19 109.9 17.9 108.5 17.9C107.1 17.9 106 19 106 20.4C106 21.8 107.1 22.9 108.5 22.9Z" fill="#544E9E"/>
<path d="M89.5 164.9C88.7 164.9 88 165.6 88 166.4C88 167.2 88.7 167.9 89.5 167.9C90.3 167.9 91 167.2 91 166.4C91 165.5 90.3 164.9 89.5 164.9Z" fill="#DE4875"/>
<path d="M21 49.9C22.7 49.9 24 48.6 24 46.9C24 45.2 22.7 43.9 21 43.9C19.3 43.9 18 45.2 18 46.9C18 48.6 19.3 49.9 21 49.9Z" fill="#48A5DD"/>
<path d="M29 117.9C27.3 117.9 26 119.2 26 120.9C26 122.6 27.3 123.9 29 123.9C30.7 123.9 32 122.6 32 120.9C32 119.2 30.7 117.9 29 117.9Z" fill="#DE4875"/>
<path d="M206 53.9C206 55.6 207.3 56.9 209 56.9C210.7 56.9 212 55.6 212 53.9C212 52.2 210.7 50.9 209 50.9C207.3 50.9 206 52.2 206 53.9Z" fill="#DE4875"/>
<path d="M112 57.9C113.7 57.9 115 56.6 115 54.9C115 53.2 113.7 51.9 112 51.9C110.3 51.9 109 53.2 109 54.9C109 56.6 110.3 57.9 112 57.9Z" fill="#DE4875"/>
<path d="M159.5 123.9C158.1 123.9 157 125 157 126.4C157 127.8 158.1 128.9 159.5 128.9C160.9 128.9 162 127.8 162 126.4C162 125 160.9 123.9 159.5 123.9Z" fill="#EB7444"/>
<path d="M205 15.6C205.8 14.9 207.5 14.1 209.1 13.5C210.2 13.1 210.2 11.6 209.1 11.2C207.5 10.6 205.9 9.90003 205.1 9.20003C204.4 8.50003 203.7 7.10002 203.1 5.60002C202.7 4.50002 201.1 4.50002 200.6 5.60002C200 7.00002 199.3 8.50003 198.6 9.20003C197.9 9.90003 196.3 10.6 194.8 11.1C193.7 11.5 193.7 13 194.8 13.4C196.3 13.9 197.9 14.6 198.6 15.3C199.3 16 200.1 17.5 200.7 19C201.1 20.1 202.7 20.1 203.2 19C203.7 17.7 204.3 16.3 205 15.6Z" fill="#DE4875"/>
</svg>
