<svg width="181" height="154" viewBox="0 0 181 154" fill="none" xmlns="http://www.w3.org/2000/svg">
<path d="M91.5 35.7C70.2 35.7 53 52.9 53 74.2C53 95.5 70.2 112.7 91.5 112.7C105 112.7 116.9 105.7 123.8 95.2C124.2 95.2 124.5 95.3 124.9 95.3C130.5 95.3 135 90.7999 135 85.2C135 81.5 133 78.2 130 76.5C130 75.7 130.1 75 130.1 74.2C130 53 112.8 35.7 91.5 35.7ZM91.5 106.7C73.6 106.7 59 92.1 59 74.2C59 56.3 73.6 41.7 91.5 41.7C109.4 41.7 124 56.3 124 74.2C124 74.5 124 74.9 124 75.2C118.8 75.6 114.7 80 114.7 85.2C114.7 88.2 116 90.9 118.2 92.8C112.3 101.2 102.5 106.7 91.5 106.7Z" fill="#495FA9"/>
<path d="M92.3 93.3C102.793 93.3 111.3 84.8382 111.3 74.4C111.3 63.9618 102.793 55.5 92.3 55.5C81.8066 55.5 73.3 63.9618 73.3 74.4C73.3 84.8382 81.8066 93.3 92.3 93.3Z" fill="#48A5DD"/>
<path d="M24.9999 10.5C26.6999 11.1 28.3999 11.9 29.1999 12.6C29.9999 13.4 30.8999 15.1 31.4999 16.8C31.9999 18 33.8 18 34.3 16.8C34.9 15.2 35.7 13.7 36.4 12.9C37.3 12.1 39.1999 11.2 40.9999 10.5C42.2999 9.99998 42.2999 8.3 40.9999 7.9C39.1999 7.3 37.2999 6.39995 36.4999 5.59995C35.6999 4.79995 34.9 3.19995 34.3 1.59995C33.8 0.399951 31.9999 0.399951 31.4999 1.59995C30.7999 3.19995 29.9999 4.89993 29.1999 5.69993C28.3999 6.49993 26.6 7.3 24.9 7.9C23.7 8.3 23.6999 10.1 24.9999 10.5Z" fill="#DE4875"/>
<path d="M179.8 104C177.5 103.2 175.1 102.1 174 101.1C173 100.1 172 98.0001 171.2 95.9001C170.6 94.3001 168.3 94.3001 167.7 95.9001C166.9 98.0001 165.8 100.2 164.8 101.2C163.8 102.2 161.5 103.2 159.3 104C157.7 104.6 157.7 106.8 159.3 107.4C161.5 108.2 163.7 109.2 164.7 110.1C165.8 111.1 166.8 113.3 167.7 115.5C168.3 117.1 170.6 117 171.2 115.5C172 113.5 172.9 111.4 173.9 110.5C175 109.4 177.5 108.3 179.8 107.4C181.4 106.8 181.4 104.6 179.8 104Z" fill="#DE4875"/>
<path d="M145.8 33.4001C147.3 33.9001 148.9 34.6001 149.6 35.3001C150.3 36.0001 151.1 37.5 151.7 39C152.1 40.1 153.7 40.1 154.2 39C154.7 37.6 155.4 36.2 156.1 35.6C156.9 34.9 158.6 34.1 160.2 33.5C161.3 33.1 161.3 31.6 160.2 31.2C158.6 30.6 157 29.9 156.2 29.2C155.5 28.5 154.8 27.1 154.2 25.6C153.8 24.5 152.2 24.5 151.7 25.6C151.1 27 150.4 28.5 149.7 29.2C149 29.9 147.4 30.6 145.9 31.1C144.7 31.4 144.7 33.0001 145.8 33.4001Z" fill="#DE4875"/>
<path d="M39.1 116.1C37.5 115.5 35.9 114.8 35.1 114.1C34.4 113.4 33.7 112 33.1 110.5C32.7 109.4 31.1 109.4 30.6 110.5C30 111.9 29.3 113.4 28.6 114.1C27.9 114.8 26.3001 115.5 24.8001 116C23.7001 116.4 23.7001 117.9 24.8001 118.3C26.3001 118.8 27.9 119.5 28.6 120.2C29.3 120.9 30.1 122.4 30.7 123.9C31.1 125 32.7 125 33.2 123.9C33.7 122.5 34.4 121.1 35.1 120.5C35.9 119.8 37.6 119 39.2 118.4C40.3 118 40.3 116.5 39.1 116.1Z" fill="#EB7444"/>
<path d="M24 68.7C24 69.8 24.9 70.7 26 70.7C27.1 70.7 28 69.8 28 68.7C28 67.6 27.1 66.7 26 66.7C24.9 66.7 24 67.6 24 68.7Z" fill="#48A5DD"/>
<path d="M14 129.7C11.8 129.7 10 131.5 10 133.7C10 135.9 11.8 137.7 14 137.7C16.2 137.7 18 135.9 18 133.7C18 131.5 16.2 129.7 14 129.7Z" fill="#48A5DD"/>
<path d="M172 52.7C173.7 52.7 175 51.4 175 49.7C175 48 173.7 46.7 172 46.7C170.3 46.7 169 48 169 49.7C169 51.3 170.3 52.7 172 52.7Z" fill="#495FA9"/>
<path d="M138.5 130.7C137.1 130.7 136 131.8 136 133.2C136 134.6 137.1 135.7 138.5 135.7C139.9 135.7 141 134.6 141 133.2C141 131.8 139.9 130.7 138.5 130.7Z" fill="#495FA9"/>
<path d="M129.8 9.3001C131.3 9.8001 132.9 10.5 133.6 11.2C134.3 11.9 135.1 13.4001 135.7 14.9001C136.1 16.0001 137.7 16.0001 138.2 14.9001C138.7 13.5001 139.4 12.1 140.1 11.5C140.9 10.8 142.6 10.0001 144.2 9.40007C145.3 9.00007 145.3 7.50002 144.2 7.10002C142.6 6.50002 141 5.80002 140.2 5.10002C139.5 4.40002 138.8 3.00005 138.2 1.50005C137.8 0.400049 136.2 0.400049 135.7 1.50005C135.1 2.90005 134.4 4.40002 133.7 5.10002C133 5.80002 131.4 6.50005 129.9 7.00005C128.7 7.40005 128.7 8.9001 129.8 9.3001Z" fill="#EB7444"/>
<path d="M65 135.7C63.3 135.7 62 137 62 138.7C62 140.4 63.3 141.7 65 141.7C66.7 141.7 68 140.4 68 138.7C68 137.1 66.7 135.7 65 135.7Z" fill="#48A5DD"/>
<path d="M30 48.7C28.9 48.7 28 49.6 28 50.7C28 51.8 28.9 52.7 30 52.7C31.1 52.7 32 51.8 32 50.7C32 49.6 31.1 48.7 30 48.7Z" fill="#495FA9"/>
<path d="M101 7.69995C102.7 7.69995 104 6.39995 104 4.69995C104 2.99995 102.7 1.69995 101 1.69995C99.3 1.69995 98 2.99995 98 4.69995C98 6.39995 99.3 7.69995 101 7.69995Z" fill="#495FA9"/>
<path d="M161.1 145.1C159.5 144.5 157.9 143.8 157.1 143.1C156.4 142.4 155.7 141 155.1 139.5C154.7 138.4 153.1 138.4 152.6 139.5C152 140.9 151.3 142.4 150.6 143.1C149.9 143.8 148.3 144.5 146.8 145C145.7 145.4 145.7 146.9 146.8 147.3C148.3 147.8 149.9 148.5 150.6 149.2C151.3 149.9 152.1 151.4 152.7 152.9C153.1 154 154.7 154 155.2 152.9C155.7 151.5 156.4 150.1 157.1 149.5C157.9 148.8 159.6 148 161.2 147.4C162.3 147 162.3 145.5 161.1 145.1Z" fill="#EB7444"/>
<path d="M18 85.9C16.2 85.3 14.3 84.4 13.5 83.6C12.7 82.8 11.9001 81.2 11.3001 79.6C10.8001 78.4 9.00002 78.4 8.50002 79.6C7.80002 81.2 6.99998 82.8999 6.19998 83.6999C5.39998 84.4999 3.60005 85.3 1.90005 85.9C0.600049 86.4 0.600049 88.1 1.90005 88.5C3.60005 89.1 5.3 89.9 6.1 90.6C6.9 91.4 7.80005 93.1 8.40005 94.8C8.90005 96 10.7 96 11.2 94.8C11.8 93.2 12.6001 91.7 13.3001 90.9C14.2001 90.1 16.1 89.2 17.9 88.5C19.3 88.1 19.3 86.4 18 85.9Z" fill="#EB7444"/>
<path d="M79 54.7C80.7 54.7 82 53.4 82 51.7C82 50 80.7 48.7 79 48.7C77.3 48.7 76 50 76 51.7C76 53.3 77.3 54.7 79 54.7Z" fill="#495FA9"/>
<path d="M153 74.2C153 57.1 145.7 40.8 132.9 29.3C131.3 27.8 128.7 28 127.2 29.6C125.7 31.2 125.9 33.8 127.5 35.3C138.6 45.2 144.9 59.4 144.9 74.2C144.9 99.2 127.2 120.1 103.5 125.4C101.7 120.6 97 117.2 91.5 117.2C86.1 117.2 81.4 120.5 79.5 125.3C56.2 119.8 38.9 99 38.9 74.3C38.9 60.2001 44.6 47.4 53.7 37.9C55.5 38.8 57.4 39.3 59.5 39.3C66.6 39.3 72.4 33.6 72.4 26.5C72.4 26.1 72.4 25.8 72.3 25.4C78.3 23 84.9 21.7 91.8 21.7C94 21.7 95.8 19.9 95.8 17.7C95.8 15.5 94 13.7 91.8 13.7C83.8 13.7 76.1 15.3 69.1 18.1C66.7 15.4 63.3 13.7 59.4 13.7C52.3 13.7 46.5 19.4 46.5 26.5C46.5 28.6 47 30.5 47.9 32.2C37.3 43.1 30.7 57.9 30.7 74.2C30.7 103.2 51.4 127.5 78.9 133.4C80.4 138.8 85.4 142.7 91.3 142.7C97.1001 142.7 102.1 138.8 103.6 133.5C131.9 128 153 103.5 153 74.2Z" fill="#495FA9"/>
<path d="M99.8001 18.1C99.3001 20.3 100.7 22.4001 102.9 22.8001C107.7 23.8001 112.3 25.4 116.7 27.7C117.3 28 117.9 28.2 118.6 28.2C120 28.2 121.4 27.4 122.2 26.1C123.2 24.1 122.5 21.7 120.5 20.7C115.5 18.1 110.2 16.2 104.7 15C102.4 14.5 100.3 15.9 99.8001 18.1Z" fill="#495FA9"/>
</svg>
