<svg width="165" height="206" viewBox="0 0 165 206" fill="none" xmlns="http://www.w3.org/2000/svg">
<path fill-rule="evenodd" clip-rule="evenodd" d="M113.3 190.2L112 189.3V156.1C112 152.3 108.6 133.7 99.5 133.7C97.8 133.7 96.3 134.4 95 135.4V125.7C95 124.6 94.6 123.6 93.8 122.9C93 122.1 92 121.7 91 121.7H67C65.9 121.7 64.9 122.1 64.2 122.9C63.5 123.7 63 124.7 63 125.7V135.4C61.7 134.3 60.2 133.7 58.5 133.7C49.4 133.7 46 152.3 46 156.2V189.4L44.7 190.3C43.6 191 43 192.3 43 193.5V201.5C43 203.7 44.8 205.5 47 205.5H52.1C52.8 205.6 53.5 205.6 54.2 205.6C54.9 205.6 55.6 205.6 56.3 205.5C57.7 205.4 59.3 205.4 60.7 205.5C63.5 205.6 66.6 205.8 68.9 203.6C69.3 203.3 69.6 202.9 69.9 202.4H88.3C88.6 202.8 88.7999 203.1 89.2 203.4C91.5 205.6 94.6 205.4 97.4 205.3C98.8 205.2 100.4 205.2 101.8 205.3C102.5 205.3 103.2 205.4 103.9 205.4C104.6 205.4 105.3 205.4 106 205.3H111.1C113.3 205.3 115.1 203.5 115.1 201.3V193.3C115 192.2 114.4 190.9 113.3 190.2ZM103.9 154.9H95C95.4 150.8 97.7 144.2 99.4 142.1C101.2 144.2 103.5 150.8 103.9 154.9ZM87 129.7L86.9 154.9H71V129.7H87ZM62.9 154.9H54.1C54.5 150.8 56.8 144.2 58.5 142.1C60.2 144.2 62.5 150.8 62.9 154.9ZM61.1 197.6C60.3 197.6 59.4 197.5 58.5 197.5C57.6 197.5 56.7 197.5 55.9 197.6C54.8 197.6 53.7 197.7 53.2 197.6C52.9 197.6 52.7 197.5 52.4 197.5H51V195.6L52.3 194.7C53.4 194 54 192.7 54 191.5V163H63V197.8C62.4 197.7 61.7 197.7 61.1 197.6ZM86.9 194.5L71.2 194.6L71.1 194.5V178.6V162.9H87V178V194.5H86.9ZM107 197.4H105.6C105.3 197.4 105.1 197.4 104.8 197.5C104.3 197.6 103.2 197.6 102.1 197.5C100.5 197.4 98.6 197.4 96.9 197.5C96.3 197.5 95.6 197.6 95 197.6V162.9H104V191.3C104 192.6 104.6 193.8 105.7 194.6L107 195.5V197.4Z" fill="#495FA9"/>
<path fill-rule="evenodd" clip-rule="evenodd" d="M91.1 77.4H67.1C64.9 77.4 63.1 79.2 63.1 81.4V114.9C63.1 117.1 64.9 118.9 67.1 118.9H91.1C93.3 118.9 95.1 117.1 95.1 114.9V81.4C95.1 79.2 93.3 77.4 91.1 77.4ZM87.1 110.9H71.1V85.4H87.1V110.9Z" fill="#495FA9"/>
<path fill-rule="evenodd" clip-rule="evenodd" d="M66 70.8C66 73 67.8 74.8 70 74.8H90C92.2 74.8 94 73 94 70.8C96.2 70.8 98 69 98 66.8V55.8C98 53.6 96.2 51.8 94 51.8V51.7001C95.7 51.3001 97 49.7001 97 47.8V40.8C97 38.6 95.2 36.8 93 36.8C90.8 36.8 89 38.6 89 40.8V43.8C86.8 43.8 85 45.6 85 47.8V47.9001H75V47.8C75 45.6 73.2 43.8 71 43.8V41.9001L80 26.0001L82.3 30.0001C83.4 31.9001 85.8 32.6001 87.8 31.5001C89.7 30.4001 90.4 28.0001 89.3 26.1001L83.5 15.9001C83.4 15.7001 83.2 15.4001 83 15.2001V3.80005C83 2.10005 81.7 0.800049 80 0.800049C78.3 0.800049 77 2.10005 77 3.80005V15.2001C76.8 15.4001 76.7 15.6001 76.5 15.9001L63.5 38.9001C63.2 39.5001 63 40.2001 63 40.9001V47.9001C63 49.8001 64.3 51.3 66 51.8V51.9001C63.8 51.9001 62 53.7001 62 55.9001V66.9001C62 69.0001 63.8 70.8 66 70.8ZM90 62.8C87.8 62.8 86 64.6 86 66.8H74C74 64.6 72.2 62.8 70 62.8V59.8H71C73.2 59.8 74.9 58.1001 75 55.9001H85C85 58.1001 86.8 59.8 89 59.8H90V62.8Z" fill="#48A5DD"/>
<path fill-rule="evenodd" clip-rule="evenodd" d="M102 33.7C103.8 34.4 105.8 35.2 106.6 36.1C107.4 36.8 108.1 38.4 108.7 40C109.2 41.2 111 41.2 111.5 40C112.2 38.3 113 36.6 113.8 35.8C114.6 35 116.3 34.3 118 33.7C119.3 33.2 119.3 31.5 118 31.1C116.3 30.5 114.5 29.7 113.7 28.9C112.9 28.1 112.1 26.4 111.4 24.8C110.9 23.6 109.1 23.6 108.6 24.8C108 26.4 107.2 28.1 106.4 28.8C105.6 29.6 103.7 30.4 101.9 31.1C100.7 31.5 100.7 33.2 102 33.7Z" fill="#DE4875"/>
<path fill-rule="evenodd" clip-rule="evenodd" d="M21.8001 127.2C19.6001 126.4 17.3001 125.4 16.3001 124.4C15.3001 123.4 14.2001 121.2 13.4001 119.1C12.8001 117.5 10.5001 117.5 9.90007 119.1C9.10007 121.2 8.10002 123.3 7.10002 124.3C6.00002 125.3 3.6001 126.4 1.3001 127.2C-0.299902 127.8 -0.299902 130 1.3001 130.6C3.6001 131.5 6.1 132.6 7.2 133.7C8.2 134.6 9.10007 136.7 9.90007 138.7C10.5001 140.3 12.8001 140.3 13.4001 138.7C14.3001 136.6 15.3001 134.3 16.4001 133.3C17.4001 132.3 19.6001 131.3 21.8001 130.6C23.4001 130 23.4001 127.8 21.8001 127.2Z" fill="#EB7444"/>
<path fill-rule="evenodd" clip-rule="evenodd" d="M163.2 138.2C161.7 137.6 160.1 137 159.4 136.3C158.7 135.6 158 134.1 157.4 132.7C157 131.6 155.4 131.6 154.9 132.7C154.3 134.1 153.6 135.6 152.9 136.3C152.1 137 150.5 137.7 148.9 138.3C147.8 138.7 147.8 140.2 148.9 140.6C150.5 141.2 152.3 141.9 153 142.7C153.7 143.3 154.3 144.7 154.9 146.1C155.3 147.2 156.9 147.2 157.4 146.1C158 144.6 158.7 143.1 159.5 142.4C160.2 141.7 161.8 141.1 163.3 140.5C164.3 140.1 164.3 138.6 163.2 138.2Z" fill="#48A5DD"/>
<path fill-rule="evenodd" clip-rule="evenodd" d="M137.2 175.2C135.7 174.6 134.1 174 133.4 173.3C132.7 172.6 132 171.1 131.4 169.7C131 168.6 129.4 168.6 128.9 169.7C128.3 171.1 127.6 172.6 126.9 173.3C126.1 174 124.5 174.7 122.9 175.3C121.8 175.7 121.8 177.2 122.9 177.6C124.5 178.2 126.3 178.9 127 179.7C127.7 180.3 128.3 181.7 128.9 183.1C129.3 184.2 130.9 184.2 131.4 183.1C132 181.6 132.7 180.1 133.5 179.4C134.2 178.7 135.8 178.1 137.3 177.5C138.3 177.1 138.3 175.6 137.2 175.2Z" fill="#DE4875"/>
<path fill-rule="evenodd" clip-rule="evenodd" d="M109 64.9C109 66 109.9 66.9 111 66.9C112.1 66.9 113 66 113 64.9C113 63.8 112.1 62.9 111 62.9C109.9 62.9 109 63.8 109 64.9Z" fill="#DE4875"/>
<path fill-rule="evenodd" clip-rule="evenodd" d="M52 125.9C54.2 125.9 56 124.1 56 121.9C56 119.7 54.2 117.9 52 117.9C49.8 117.9 48 119.7 48 121.9C48 124.1 49.8 125.9 52 125.9Z" fill="#DE4875"/>
<path fill-rule="evenodd" clip-rule="evenodd" d="M51 52.9C52.7 52.9 54 51.6 54 49.9C54 48.2 52.7 46.9 51 46.9C49.3 46.9 48 48.2 48 49.9C48 51.6 49.3 52.9 51 52.9Z" fill="#48A5DD"/>
<path fill-rule="evenodd" clip-rule="evenodd" d="M39.5 77.9C38.1 77.9 37 79 37 80.4C37 81.8 38.1 82.9 39.5 82.9C40.9 82.9 42 81.8 42 80.4C42 79 40.9 77.9 39.5 77.9Z" fill="#48A5DD"/>
<path fill-rule="evenodd" clip-rule="evenodd" d="M42.2 46.2C40.7 45.6 39.1001 45 38.4001 44.3C37.7001 43.6 37.0001 42.1 36.4001 40.7C36.0001 39.6 34.4001 39.6 33.9001 40.7C33.3001 42.1 32.6001 43.6 31.9001 44.3C31.1001 45 29.5001 45.7 27.9001 46.3C26.8001 46.7 26.8001 48.2 27.9001 48.6C29.5001 49.2 31.3 49.9 32 50.7C32.7 51.3 33.3001 52.7 33.9001 54.1C34.3001 55.2 35.9001 55.2 36.4001 54.1C37.0001 52.6 37.7 51.1 38.5 50.4C39.2 49.7 40.8001 49.1 42.3001 48.5C43.3001 48.1 43.3 46.6 42.2 46.2Z" fill="#DE4875"/>
<path fill-rule="evenodd" clip-rule="evenodd" d="M127 83.9C127 82.2 125.7 80.9 124 80.9C122.3 80.9 121 82.2 121 83.9C121 85.6 122.3 86.9 124 86.9C125.7 86.9 127 85.5 127 83.9Z" fill="#DE4875"/>
<path fill-rule="evenodd" clip-rule="evenodd" d="M119 106.9C117.9 106.9 117 107.8 117 108.9C117 110 117.9 110.9 119 110.9C120.1 110.9 121 110 121 108.9C121 107.8 120.1 106.9 119 106.9Z" fill="#DE4875"/>
<path fill-rule="evenodd" clip-rule="evenodd" d="M19 142.9C17.3 142.9 16 144.2 16 145.9C16 147.6 17.3 148.9 19 148.9C20.7 148.9 22 147.6 22 145.9C22 144.2 20.7 142.9 19 142.9Z" fill="#DE4875"/>
<path fill-rule="evenodd" clip-rule="evenodd" d="M39.2 174.2C37.7 173.6 36.1001 173 35.4001 172.3C34.7001 171.6 34.0001 170.1 33.4001 168.7C33.0001 167.6 31.4001 167.6 30.9001 168.7C30.3001 170.1 29.6001 171.6 28.9001 172.3C28.1001 173 26.5001 173.7 24.9001 174.3C23.8001 174.7 23.8001 176.2 24.9001 176.6C26.5001 177.2 28.3 177.9 29 178.7C29.7 179.3 30.3001 180.7 30.9001 182.1C31.3001 183.2 32.9001 183.2 33.4001 182.1C34.0001 180.6 34.7 179.1 35.5 178.4C36.2 177.7 37.8001 177.1 39.3001 176.5C40.3001 176.1 40.3 174.6 39.2 174.2Z" fill="#48A5DD"/>
</svg>
