<svg width="169" height="144" viewBox="0 0 169 144" fill="none" xmlns="http://www.w3.org/2000/svg">
<path fill-rule="evenodd" clip-rule="evenodd" d="M103 6.6C101.9 7 100.7 7.50002 100.2 8.00002C99.5999 8.50002 99.1 9.70007 98.6 10.8001C98.3 11.6001 97.0999 11.6001 96.6999 10.8001C96.2999 9.80007 95.8 8.69998 95.3 8.19998C94.7 7.59998 93.3999 7.1 92.1999 6.6C91.2999 6.3 91.3999 5.20007 92.1999 4.80007C93.3999 4.40007 94.6999 3.80007 95.1999 3.30007C95.6999 2.80007 96.2999 1.7 96.6999 0.6C96.9999 -0.2 98.2 -0.2 98.6 0.6C99 1.7 99.6 2.80007 100.1 3.30007C100.6 3.80007 101.8 4.30007 103 4.80007C103.8 5.20007 103.8 6.3 103 6.6Z" fill="#EB7444"/>
<path fill-rule="evenodd" clip-rule="evenodd" d="M157.1 91.4C157.5 90.5 158.8 90.5 159.2 91.4C159.7 92.6 160.3 93.9 160.9 94.5C161.5 95.1 162.9 95.6999 164.2 96.0999C165.2 96.3999 165.2 97.6999 164.2 98.0999C162.9 98.5999 161.6 99.0999 161 99.6999C160.4 100.3 159.7 101.6 159.2 102.8C158.8 103.7 157.5 103.7 157.1 102.8C156.6 101.6 156.1 100.4 155.5 99.9C154.8 99.3 153.4 98.5999 152 98.0999C151 97.6999 151 96.4999 152 96.0999C153.3 95.5999 154.8 95 155.4 94.4C156.1 93.9 156.7 92.6 157.1 91.4Z" fill="#EB7444"/>
<path fill-rule="evenodd" clip-rule="evenodd" d="M145.3 116.9C145.3 118.6 143.9 119.9 142.3 119.9C140.6 119.9 139.3 118.5 139.3 116.9C139.3 115.2 140.7 113.9 142.3 113.9C144 113.9 145.3 115.2 145.3 116.9Z" fill="#495FA9"/>
<path fill-rule="evenodd" clip-rule="evenodd" d="M124.4 19.9C123.6 19.9 122.9 19.2 122.9 18.4C122.9 17.6 123.6 16.9 124.4 16.9C125.2 16.9 125.9 17.6 125.9 18.4C125.9 19.3 125.2 19.9 124.4 19.9Z" fill="#495FA9"/>
<path fill-rule="evenodd" clip-rule="evenodd" d="M52.9 12.9C51.6 12.9 50.6 11.9 50.6 10.6C50.6 9.29998 51.6 8.30005 52.9 8.30005C54.2 8.30005 55.2 9.29998 55.2 10.6C55.1 11.9 54.1 12.9 52.9 12.9Z" fill="#DE4875"/>
<path fill-rule="evenodd" clip-rule="evenodd" d="M167.8 40.6999C166.5 41.1999 165.2 41.7 164.6 42.3C164 42.9 163.3 44.2 162.8 45.4C162.4 46.3 161.1 46.3 160.7 45.4C160.2 44.2 159.7 43 159.1 42.5C158.4 41.9 157 41.1999 155.6 40.6999C154.6 40.2999 154.6 39.0999 155.6 38.6999C156.9 38.1999 158.4 37.6 159 37C159.6 36.4 160.2 35.2 160.7 34C161.1 33.1 162.4 33.1 162.8 34C163.3 35.2 163.9 36.4999 164.5 37.0999C165.1 37.6999 166.5 38.2999 167.8 38.6999C168.8 39.0999 168.8 40.3999 167.8 40.6999Z" fill="#495FA9"/>
<path fill-rule="evenodd" clip-rule="evenodd" d="M144.2 71.1C142.9 71.1 141.9 70.1 141.9 68.8C141.9 67.5 142.9 66.5 144.2 66.5C145.5 66.5 146.5 67.5 146.5 68.8C146.5 70.1 145.5 71.1 144.2 71.1Z" fill="#495FA9"/>
<path fill-rule="evenodd" clip-rule="evenodd" d="M30.9 12.1C30.1 12.1 29.4 11.4 29.4 10.6C29.4 9.79998 30.1 9.09998 30.9 9.09998C31.7 9.09998 32.4 9.79998 32.4 10.6C32.4 11.4 31.7 12.1 30.9 12.1Z" fill="#495FA9"/>
<path fill-rule="evenodd" clip-rule="evenodd" d="M2.59998 52.3C1.29998 52.3 0.300049 51.3 0.300049 50C0.300049 48.7 1.29998 47.7 2.59998 47.7C3.89998 47.7 4.90002 48.7 4.90002 50C4.90002 51.3 3.89998 52.3 2.59998 52.3Z" fill="#495FA9"/>
<path fill-rule="evenodd" clip-rule="evenodd" d="M10.8001 134C12.0001 133.6 13.3001 133 13.8001 132.5C14.3001 132 14.9001 130.9 15.3001 129.8C15.6001 129 16.8 129 17.2 129.8C17.6 130.9 18.2 132 18.7 132.5C19.2 133 20.4 133.5 21.6 134C22.5 134.3 22.4 135.5 21.6 135.8C20.5 136.2 19.3001 136.7 18.8001 137.2C18.2001 137.7 17.7 138.9 17.2 140C16.9 140.8 15.7001 140.8 15.3001 140C14.9001 139 14.4 137.9 13.9 137.4C13.3 136.8 12.0001 136.3 10.8001 135.8C10.0001 135.4 10.0001 134.3 10.8001 134Z" fill="#48A5DD"/>
<path fill-rule="evenodd" clip-rule="evenodd" d="M32.8 82.3C31.8 82.3 30.9 81.5 30.9 80.4C30.9 79.4 31.7 78.5 32.8 78.5C33.8 78.5 34.7 79.3 34.7 80.4C34.7 81.5 33.8 82.3 32.8 82.3Z" fill="#495FA9"/>
<path fill-rule="evenodd" clip-rule="evenodd" d="M28.4 68.6999C26.8 69.2999 25.1 70 24.3 70.8C23.5 71.6 22.7 73.2 22 74.9C21.5 76.1 19.8 76.1 19.3 74.9C18.7 73.4 18 71.8 17.3 71.1C16.5 70.3 14.6 69.5 12.8 68.8C11.6 68.3 11.6 66.6999 12.8 66.1999C14.5 65.5999 16.2999 64.8 17.1999 64C17.9999 63.3 18.7 61.6 19.4 60.1C19.9 58.9 21.6 58.9 22.1 60.1C22.7 61.7 23.5 63.4 24.3 64.1C25.1 64.9 26.8 65.5999 28.5 66.1999C29.6 66.4999 29.6 68.1999 28.4 68.6999Z" fill="#EB7444"/>
<path fill-rule="evenodd" clip-rule="evenodd" d="M12.6 96.7C13 97.8 13.6 98.9 14.1 99.4C14.6 99.9 15.8 100.4 17 100.9C17.9 101.2 17.8 102.4 17 102.7C15.9 103.1 14.6999 103.6 14.1999 104.1C13.5999 104.6 13.1 105.8 12.6 106.9C12.3 107.7 11.0999 107.7 10.6999 106.9C10.2999 105.9 9.80004 104.8 9.30004 104.3C8.70004 103.7 7.39994 103.2 6.19994 102.7C5.29994 102.4 5.39994 101.3 6.19994 100.9C7.39994 100.5 8.69994 99.9 9.19994 99.4C9.69994 98.9 10.2999 97.8 10.6999 96.7C11.0999 95.9 12.3 95.9 12.6 96.7Z" fill="#DE4875"/>
<path fill-rule="evenodd" clip-rule="evenodd" d="M115 136.6C116.2 136.2 117.5 135.6 118 135.1C118.5 134.6 119.1 133.5 119.5 132.4C119.8 131.6 121 131.6 121.4 132.4C121.8 133.5 122.4 134.6 122.9 135.1C123.4 135.6 124.6 136.1 125.8 136.6C126.7 136.9 126.6 138.1 125.8 138.4C124.7 138.8 123.5 139.3 123 139.8C122.4 140.3 121.9 141.5 121.4 142.6C121.1 143.4 119.9 143.4 119.5 142.6C119.1 141.6 118.6 140.5 118.1 140C117.5 139.4 116.2 138.9 115 138.4C114.1 138 114.2 136.9 115 136.6Z" fill="#EB7444"/>
<path fill-rule="evenodd" clip-rule="evenodd" d="M90.9 39.9C95.9 34.9 104.1 34.9 109.1 39.9C114.1 44.9 114.1 53.1 109.1 58.1L90.9 39.9Z" fill="#48A5DD"/>
<path fill-rule="evenodd" clip-rule="evenodd" d="M134.4 90.7L59.3 15.6C57.7 14 55.2 14 53.6 15.6C42.8 26.4 36.9 40.7001 36.9 56C36.9 71.3 42.8 85.6001 53.6 96.4001C64.4 107.2 78.7 113.1 94 113.1C109.2 113.1 123.6 107.2 134.4 96.4001C135.9 94.8001 135.9 92.3 134.4 90.7ZM94 105.1C80.9 105.1 68.6 100 59.3 90.7C50 81.4 44.9 69.1001 44.9 56C44.9 44.2001 49 33.1001 56.6 24.3001L125.8 93.5C116.9 101 105.8 105.1 94 105.1Z" fill="#495FA9"/>
<path fill-rule="evenodd" clip-rule="evenodd" d="M53.8 101.5C55.4 103 55.4 105.6 53.8 107.1L42 118.8V135H84C86.2 135 88 136.8 88 139C88 141.2 86.2 143 84 143H38C35.8 143 34 141.2 34 139V117.2C34 116.1 34.4 115.1 35.2 114.4L48.2 101.5C49.7 99.9 52.2 99.9 53.8 101.5Z" fill="#495FA9"/>
</svg>
