<svg width="191" height="151" viewBox="0 0 191 151" fill="none" xmlns="http://www.w3.org/2000/svg">
<path fill-rule="evenodd" clip-rule="evenodd" d="M169.6 119C167.9 119 166.6 117.6 166.6 116C166.6 114.3 168 113 169.6 113C171.3 113 172.6 114.4 172.6 116C172.6 117.6 171.3 119 169.6 119ZM159.5 70.6C157 78.1 145.9 82.3 126.9 82.3C116.4 82.3 101 81 89.1999 78.3C61.2999 71.8 37.2999 58.5 32.1999 46.7C30.1999 42.2 31.3 38.7 32.5 36.7C38.5 26.4 56.4999 26.9 63.6999 27.6C74.3999 14.2 90.9 8.50002 107.5 13.4C123.3 18 129.1 32.8 131.2 44C132 43.8 132.9 43.9 133.7 44.3C134 44.4 141.6 47.1 148.1 51.7C158.2 58.7999 161.2 65.5 159.5 70.6ZM143.9 57.4C139.6 54.4 134.7 52.2 132.1 51.2C132.4 54.7 132.3 57.1 132.3 57.5C132.2 59.4 130.6 60.9 128.7 60.9H128.6C128.5 60.9 128.5 60.9 128.4 60.9C128.3 60.9 128.2 61 128.1 61C125.1 61.5 122 61.7 119.1 61.7C106.8 61.7 95.7999 58.5 95.1999 58.3C93.2999 57.7001 92.2 55.8 92.8 53.9C93.4 52 95.4 51 97.3 51.6C97.5 51.6 112 55.9 125.2 54.4C124.8 46.5 122.2 25.1 105.5 20.2C91.7 16.2 78.5 20.7 69.6 31.7C69.6 31.8 69.6 31.9 69.6 31.9C69.4 33.2 68.5 34.2 67.4 34.7C66.2 36.5 65.0999 38.3 64.1999 40.4C63.3999 42.2 61.2 42.9 59.4 42.1C57.6 41.3 56.7999 39.2 57.6999 37.4C58.1999 36.4 58.6999 35.5 59.1999 34.5C51.7999 34.3 41.8 35.3 38.8 40.3C38.4 40.9 38 42 38.9 43.9C42.5 52.3 63 64.9 91 71.4C106.3 75 120.9 76.1 133.8 74.7C147.4 73.2 151.3 71.1 152 68.4C152.2 66.8 152.7 63.6 143.9 57.4ZM20.5 95.5C21 96 22.2 96.5 23.4 97C24.3 97.3 24.2 98.5 23.4 98.8C22.3 99.2001 21.1 99.7 20.6 100.2C20 100.7 19.5 101.9 19 103C18.7 103.8 17.5 103.8 17.1 103C16.7 102 16.1999 100.9 15.6999 100.4C15.0999 99.8 13.8 99.3 12.6 98.8C11.7 98.5 11.8 97.4 12.6 97C13.8 96.6 15.1 96 15.6 95.5C16.1 95 16.7 93.9 17.1 92.8C17.4 92 18.6 92 19 92.8C19.4 93.8 19.9 94.9 20.5 95.5ZM33.5 90.2C33.7 89.2 34.6999 88.5 35.6999 88.5C36.9999 88.5 38 89.5 38 90.8C38 91.6001 38 92.6001 19.4 122.3C19 123 18.2 123.4 17.4 123.4C17 123.4 16.5999 123.3 16.1999 123C15.0999 122.3 14.8 120.9 15.5 119.8C22 109.5 32.5 92.3999 33.5 90.2ZM25.4 79.2C24.9 79.7999 24.3 80.1 23.5 80.1C23 80.1 22.5 80 22.1 79.6C21.1 78.8 20.9 77.4 21.6 76.4L36.1999 56.7C36.9999 55.7 38.4 55.5 39.4 56.2C40.4 57 40.6 58.4 39.9 59.4L25.4 79.2ZM62.8 74.7C63.4 73.6 64.8 73.2001 65.9 73.8C67 74.4 67.4 75.8 66.8 76.9L51.8 104.5C51.4 105.3 50.6 105.7 49.8 105.7C49.4 105.7 49.0999 105.6 48.6999 105.4C47.5999 104.8 47.2 103.4 47.8 102.3L62.8 74.7ZM51.1 133.5C52.1 133.5 53 134.3 53 135.4C53 136.5 52.2 137.3 51.1 137.3C50 137.3 49.1999 136.5 49.1999 135.4C49.1999 134.3 50.1 133.5 51.1 133.5ZM51.3 126.9L76.8 79.1C77.4 78 78.8 77.5 79.9 78.1C81 78.7 81.5 80.1 80.9 81.2L55.4 129C55 129.8 54.2 130.2 53.4 130.2C53 130.2 52.7 130.1 52.3 129.9C51.2 129.4 50.7 128.1 51.3 126.9ZM89.3 98.4C89.5 97.1 90.6 96.2 91.9 96.4C93.2 96.6 94.1 97.7 93.9 99L89.8 133.1C89.7 134.3 88.7 135.1 87.5 135.1C87.4 135.1 87.2999 135.1 87.1999 135.1C85.8999 134.9 84.9999 133.8 85.1999 132.5L89.3 98.4ZM95.6999 139.6C96.9999 139.6 98 140.6 98 141.9C98 143.2 96.9999 144.2 95.6999 144.2C94.3999 144.2 93.4 143.2 93.4 141.9C93.5 140.7 94.4999 139.6 95.6999 139.6ZM104.7 82C106 81.9 107.1 82.8999 107.1 84.2L110.6 140.7C110.7 142 109.7 143.1 108.4 143.1H108.3C107.1 143.1 106.1 142.2 106 140.9L102.5 84.4C102.4 83.2 103.4 82.1 104.7 82ZM118.7 85.8C120 85.7001 121.1 86.6 121.2 87.9L123.5 113.6C123.6 114.9 122.7 116 121.4 116.1C121.3 116.1 121.3 116.1 121.2 116.1C120 116.1 119 115.2 118.9 114L116.6 88.3C116.5 87.1001 117.5 86 118.7 85.8ZM142.1 90.4C143.4 90.2 144.5 91.1 144.7 92.4L150.6 133C150.8 134.3 149.9 135.4 148.6 135.6C148.5 135.6 148.4 135.6 148.3 135.6C147.2 135.6 146.2 134.8 146 133.6L140.1 93C140 91.8 140.8 90.6 142.1 90.4Z" fill="#495FA9"/>
<path fill-rule="evenodd" clip-rule="evenodd" d="M84.6999 56.1999C84.4999 56.2999 83.4999 56.0999 81.6999 55.6999C80.2999 55.3999 77 54.2999 75.3 53.5999C71 51.7999 67.6 49.1999 67.4 49.0999C65.8 47.8999 65.3999 45.6 66.5999 44C67.6999 42.4 69.9999 41.9999 71.5999 43.1999C71.6999 43.1999 74.5 45.4 78 46.8C79 47.2 83.9 48.6999 85.8 49.0999C87.7 49.4999 88.6 51.9 87.9 53.8C87.5 55.3 86.0999 56.1999 84.6999 56.1999Z" fill="#48A5DD"/>
<path fill-rule="evenodd" clip-rule="evenodd" d="M39.8 115.6C40.4 114.5 41.8 114 42.9 114.6C44 115.2 44.5 116.6 43.9 117.7L40.0999 123.8C39.6999 124.6 38.8999 125 38.0999 125C37.6999 125 37.4 124.9 37 124.7C35.9 124.1 35.4 122.7 36 121.6L39.8 115.6Z" fill="#48A5DD"/>
<path fill-rule="evenodd" clip-rule="evenodd" d="M69.8 130.6C70.3 129.4 71.6 128.9 72.8 129.4C74 129.9 74.5 131.2 74 132.4L69.9 140.8C69.5 141.7 68.7 142.2 67.8 142.2C67.5 142.2 67.2 142.1 66.9 142C65.7 141.5 65.1999 140.2 65.6999 139L69.8 130.6Z" fill="#48A5DD"/>
<path fill-rule="evenodd" clip-rule="evenodd" d="M121.5 126.6C122.8 126.4 123.9 127.3 124.1 128.5L125.9 139.6C126.1 140.9 125.2 142 124 142.2C123.9 142.2 123.8 142.2 123.6 142.2C122.5 142.2 121.5 141.4 121.3 140.3L119.5 129.2C119.3 127.9 120.2 126.8 121.5 126.6Z" fill="#48A5DD"/>
<path fill-rule="evenodd" clip-rule="evenodd" d="M189.5 92.0999C188.2 92.5999 186.9 93.0999 186.3 93.6999C185.7 94.2999 185 95.6 184.5 96.8C184.1 97.7 182.8 97.7 182.4 96.8C181.9 95.6 181.4 94.4 180.8 93.9C180.1 93.3 178.7 92.5999 177.3 92.0999C176.3 91.6999 176.3 90.4999 177.3 90.0999C178.6 89.5999 180.1 89 180.7 88.4C181.3 87.8 181.9 86.6 182.4 85.4C182.8 84.5 184.1 84.5 184.5 85.4C185 86.6 185.6 87.9 186.2 88.5C186.8 89.1 188.2 89.6999 189.5 90.0999C190.5 90.4999 190.5 91.7999 189.5 92.0999Z" fill="#EB7444"/>
<path fill-rule="evenodd" clip-rule="evenodd" d="M179.6 56.1C178.3 56.1 177.3 55.1 177.3 53.8C177.3 52.5 178.3 51.5 179.6 51.5C180.9 51.5 181.9 52.5 181.9 53.8C181.8 55.1 180.8 56.1 179.6 56.1Z" fill="#DE4875"/>
<path fill-rule="evenodd" clip-rule="evenodd" d="M161.1 33.6999C159.8 34.1999 158.5 34.7 157.9 35.3C157.3 35.9 156.6 37.2 156.1 38.4C155.7 39.3 154.4 39.3 154 38.4C153.5 37.2 153 36 152.4 35.5C151.7 34.9 150.3 34.1999 148.9 33.6999C147.9 33.2999 147.9 32.0999 148.9 31.6999C150.2 31.1999 151.7 30.6 152.3 30C152.9 29.4 153.5 28.2 154 27C154.4 26.1 155.7 26.1 156.1 27C156.6 28.2 157.2 29.4999 157.8 30.0999C158.4 30.6999 159.8 31.2999 161.1 31.6999C162.1 32.0999 162.1 33.3999 161.1 33.6999Z" fill="#DE4875"/>
<path fill-rule="evenodd" clip-rule="evenodd" d="M135.7 16.9C134.9 16.9 134.2 16.2 134.2 15.4C134.2 14.6 134.9 13.9 135.7 13.9C136.5 13.9 137.2 14.6 137.2 15.4C137.2 16.3 136.5 16.9 135.7 16.9Z" fill="#495FA9"/>
<path fill-rule="evenodd" clip-rule="evenodd" d="M87.3 6.6C86.2 7 85 7.50002 84.5 8.00002C83.9 8.50002 83.4 9.70007 82.9 10.8001C82.6 11.6001 81.4 11.6001 81 10.8001C80.6 9.80007 80.1 8.69998 79.6 8.19998C79 7.59998 77.7 7.1 76.5 6.6C75.6 6.3 75.7 5.20007 76.5 4.80007C77.7 4.40007 79 3.80007 79.5 3.30007C80 2.80007 80.6 1.7 81 0.6C81.3 -0.2 82.5 -0.2 82.9 0.6C83.3 1.7 83.9 2.80007 84.4 3.30007C84.9 3.80007 86.1 4.30007 87.3 4.80007C88.2 5.20007 88.2 6.3 87.3 6.6Z" fill="#495FA9"/>
<path fill-rule="evenodd" clip-rule="evenodd" d="M49.2 20.9C47.9 20.9 46.9 19.9 46.9 18.6C46.9 17.3 47.9 16.3 49.2 16.3C50.5 16.3 51.5 17.3 51.5 18.6C51.5 19.9 50.4 20.9 49.2 20.9Z" fill="#495FA9"/>
<path fill-rule="evenodd" clip-rule="evenodd" d="M47 9.69998C45.9 10.1 44.6999 10.6 44.1999 11.1C43.5999 11.6 43.1 12.8 42.6 13.9C42.3 14.7 41.0999 14.7 40.6999 13.9C40.2999 12.9 39.8 11.8001 39.3 11.3001C38.7 10.7001 37.3999 10.2 36.1999 9.69998C35.2999 9.39998 35.3999 8.30005 36.1999 7.90005C37.3999 7.50005 38.6999 6.90005 39.1999 6.40005C39.6999 5.90005 40.2999 4.79998 40.6999 3.69998C40.9999 2.89998 42.2 2.89998 42.6 3.69998C43 4.79998 43.6 5.90005 44.1 6.40005C44.6 6.90005 45.8 7.40005 47 7.90005C47.8 8.20005 47.8 9.39998 47 9.69998Z" fill="#EB7444"/>
<path fill-rule="evenodd" clip-rule="evenodd" d="M29.2 18.1C28.4 18.1 27.7 17.4 27.7 16.6C27.7 15.8 28.4 15.1 29.2 15.1C30 15.1 30.7 15.8 30.7 16.6C30.7 17.4 30 18.1 29.2 18.1Z" fill="#495FA9"/>
<path fill-rule="evenodd" clip-rule="evenodd" d="M21 41.3C19.7 41.3 18.7 40.3 18.7 39C18.7 37.7 19.7 36.7 21 36.7C22.3 36.7 23.3 37.7 23.3 39C23.3 40.3 22.2 41.3 21 41.3Z" fill="#EB7444"/>
<path fill-rule="evenodd" clip-rule="evenodd" d="M16.6999 70.6999C15.0999 71.2999 13.4 72 12.6 72.8C11.8 73.6 11 75.2 10.3 76.9C9.80002 78.1 8.09995 78.1 7.59995 76.9C6.99995 75.4 6.29995 73.8 5.59995 73.1C4.79995 72.3 2.89995 71.5 1.09995 70.8C-0.100049 70.3 -0.100049 68.6999 1.09995 68.1999C2.79995 67.5999 4.59998 66.8 5.49998 66C6.29998 65.3 6.99993 63.6 7.69993 62.1C8.19993 60.9 9.9 60.9 10.4 62.1C11 63.7 11.8 65.4 12.6 66.1C13.4 66.9 15.1 67.5999 16.8 68.1999C18 68.4999 17.9999 70.1999 16.6999 70.6999Z" fill="#48A5DD"/>
<path fill-rule="evenodd" clip-rule="evenodd" d="M142.3 143.6C143.5 143.2 144.8 142.6 145.3 142.1C145.8 141.6 146.4 140.5 146.8 139.4C147.1 138.6 148.3 138.6 148.7 139.4C149.1 140.5 149.7 141.6 150.2 142.1C150.7 142.6 151.9 143.1 153.1 143.6C154 143.9 153.9 145.1 153.1 145.4C152 145.8 150.8 146.3 150.3 146.8C149.7 147.3 149.2 148.5 148.7 149.6C148.4 150.4 147.2 150.4 146.8 149.6C146.4 148.6 145.9 147.5 145.4 147C144.8 146.4 143.5 145.9 142.3 145.4C141.5 145 141.5 143.9 142.3 143.6Z" fill="#DE4875"/>
</svg>
