<svg width="153" height="202" viewBox="0 0 153 202" fill="none" xmlns="http://www.w3.org/2000/svg">
<path fill-rule="evenodd" clip-rule="evenodd" d="M81.9002 13.4001C80.5002 11.7001 80.7002 9.2001 82.5002 7.8001C84.2002 6.4001 86.7002 6.6001 88.1002 8.4001C92.1002 13.3001 94.9002 20.1001 96.2002 28.2001C96.5002 30.4001 95.1002 32.4001 92.9002 32.8001C92.7002 32.8001 92.5002 32.9001 92.3002 32.9001C90.4002 32.9001 88.7002 31.5001 88.4002 29.5001C86.9002 20.9001 84.1002 16.0001 81.9002 13.4001Z" fill="#EB7444"/>
<path fill-rule="evenodd" clip-rule="evenodd" d="M99.6002 103.2C99.2002 91.3 98.5002 75.7001 98.0002 63C97.6002 54 97.3002 46.3 97.2002 42.2001C97.1002 40 95.3002 38.3 93.1002 38.3C90.9002 38.4 89.2002 40.2001 89.2002 42.4001C89.3002 46.5 89.7002 54.3 90.0002 63.2001C90.1002 64.7001 90.1002 66.3 90.2002 67.8H60.0002C60.2002 64.8 60.3002 61.8 60.5002 58.8H66.7002C68.6002 58.8 70.1002 57.3001 70.1002 55.4001V55.2001C70.1002 53.3 68.6002 51.8 66.7002 51.8H60.8001C60.9001 49.2001 61.0002 46.5 61.0002 43.8H73.7002C75.6002 43.8 77.1002 42.3001 77.1002 40.4001V40.2001C77.1002 38.3 75.6002 36.8 73.7002 36.8H61.0002C61.7002 17.1 70.3002 8.80005 75.0002 8.80005C77.2002 8.80005 79.0002 7.00005 79.0002 4.80005C79.0002 2.60005 77.2002 0.800049 75.0002 0.800049C66.5002 0.800049 52.9001 11.2001 52.9001 39.2001C52.9001 51.8 52.2002 63.7 51.5002 75.1C50.9002 84.9 50.4001 94.1 50.3001 102.9C45.3001 108.2 27.9001 129.5 27.9001 170.9V172.3L28.8001 173.4C29.1001 173.7 30.2002 175 31.7002 176.2L29.8001 184.9L33.5002 185.9C35.1002 186.4 49.7002 190.4 55.1002 190.4H55.2002H58.6002L58.9001 188.6V194.8H91.0002V191.7C91.2002 191.3 91.4001 190.9 91.4001 190.4H94.7002H94.8001C100.3 190.4 114.8 186.4 116.4 185.9L120.1 184.9L118.2 176.2C119.7 175 120.8 173.8 121.1 173.4L122 172.3V170.9C122 129.7 104.5 108.4 99.6002 103.2ZM59.5002 75.9C59.5002 75.6 59.5002 75.3 59.6002 75H90.5002C90.6002 77 90.7002 79 90.7002 81H59.2002C59.3002 79.3 59.4002 77.6 59.5002 75.9ZM112.1 171L109.1 172.3L110.7 179.5C106.6 180.6 101.7 181.7 98.2002 182.3L97.2002 175.3L92.6002 176.9C92.6002 176.9 92.2002 177 91.6002 177.2C91.5002 173.3 91.4002 168.7 91.1002 163.7C90.8002 159 90.3002 154 89.7002 149.2C89.3002 145.3 88.8002 141.2 88.5002 137.3C88.3002 135.1 86.4002 133.4 84.2002 133.6C82.0002 133.8 80.3002 135.7 80.5002 137.9C80.8002 141.9 81.3002 146.1 81.7002 150.1C82.3002 155.1 82.8002 159.7 83.0002 164.2C83.3002 169.7 83.4002 174.8 83.5002 178.9L83.0002 179V187H67.3001C67.3001 182.7 67.3002 174 68.0002 163.9C68.3002 159.4 68.9002 154.7 69.5002 149.7C70.0002 145.7 70.5001 141.5 70.9001 137.5C71.1001 135.3 69.5002 133.3 67.2002 133.2C65.0002 133 63.0001 134.6 62.8001 136.9C62.5001 140.8 62.0002 144.9 61.5002 148.8C60.9002 153.7 60.3002 158.7 60.0002 163.4C59.7002 168.6 59.5001 173.4 59.4001 177.5C58.2001 177.2 57.5002 176.9 57.5002 176.9L52.9001 175.3L51.9001 182.4C48.5001 181.8 43.5001 180.7 39.4001 179.6L41.0002 172.4L38.0002 171.1C37.4002 170.9 36.7002 170.3 36.1002 169.7C36.6002 127.3 56.9002 108.1 57.1002 107.9L58.4001 106.7V104.9C58.4001 99.5 58.6001 93.8 58.9001 88H91.0002C91.2002 94.1 91.5002 100 91.6002 105L91.7002 106.7L93.0002 107.8C93.2001 108 113.5 126.9 114 169.6C113.4 170.1 112.7 170.7 112.1 171Z" fill="#495FA9"/>
<path fill-rule="evenodd" clip-rule="evenodd" d="M151.7 147.9C149.3 147 146.8 145.8 145.7 144.6C144.6 143.4 143.4 140.9 142.5 138.4C141.8 136.6 139.3 136.6 138.6 138.4C137.7 140.9 136.6 143.4 135.5 144.5C134.3 145.7 131.8 146.9 129.4 147.9C127.6 148.6 127.6 151.2 129.4 151.9C131.7 152.8 134 153.9 135.1 155C136.3 156.3 137.6 159.1 138.6 161.7C139.3 163.5 141.8 163.5 142.5 161.7C143.4 159.1 144.6 156.4 145.8 155.2C146.9 154.1 149.3 152.9 151.7 152C153.4 151.2 153.4 148.6 151.7 147.9Z" fill="#48A5DD"/>
<path fill-rule="evenodd" clip-rule="evenodd" d="M35.8001 20.2001C37.4001 19.6001 37.4001 17.3001 35.8001 16.7001C33.7001 15.9001 31.5001 14.8001 30.5001 13.8001C29.5001 12.8001 28.5002 10.5001 27.7002 8.3001C27.1002 6.7001 24.9001 6.7001 24.3001 8.3001C23.5001 10.5001 22.5001 12.7001 21.6001 13.7001C20.6001 14.8001 18.4002 15.8001 16.2002 16.7001C14.6002 17.3001 14.7002 19.6001 16.2002 20.2001C18.2002 21.0001 20.3002 21.9001 21.2002 22.9001C22.3002 24.0001 23.4001 26.5001 24.3001 28.8001C24.9001 30.4001 27.1002 30.4001 27.7002 28.8001C28.5002 26.5001 29.6002 24.1001 30.6002 23.0001C31.6002 22.0001 33.7001 21.0001 35.8001 20.2001Z" fill="#48A5DD"/>
<path fill-rule="evenodd" clip-rule="evenodd" d="M111.8 53.1001C113.2 53.6001 114.6 54.3001 115.2 55.0001C115.9 55.8001 116.7 57.5001 117.3 59.1001C117.7 60.2001 119.2 60.2001 119.6 59.1001C120.2 57.5001 120.9 55.9001 121.6 55.1001C122.3 54.4001 123.7 53.7001 125.2 53.1001C126.3 52.7001 126.3 51.1001 125.2 50.6001C123.8 50.0001 122.3 49.3001 121.6 48.6001C120.9 47.9001 120.2 46.3001 119.7 44.8001C119.3 43.7001 117.8 43.7001 117.4 44.8001C116.9 46.3001 116.2 47.9001 115.5 48.6001C114.8 49.3001 113.3 50.1001 111.8 50.7001C110.7 51.1001 110.7 52.7001 111.8 53.1001Z" fill="#4369B0"/>
<path fill-rule="evenodd" clip-rule="evenodd" d="M15.2001 139.7C13.8001 139.1 12.3001 138.4 11.6001 137.7C10.9001 137 10.2001 135.4 9.70012 133.9C9.30012 132.8 7.8001 132.8 7.4001 133.9C6.9001 135.4 6.20011 137 5.50011 137.7C4.80011 138.4 3.3001 139.2 1.8001 139.8C0.700098 140.2 0.700098 141.8 1.8001 142.3C3.2001 142.8 4.60012 143.5 5.20012 144.2C5.90012 145 6.7001 146.7 7.3001 148.3C7.7001 149.4 9.20012 149.4 9.60012 148.3C10.2001 146.7 10.9001 145.1 11.6001 144.3C12.3001 143.6 13.7001 142.9 15.2001 142.3C16.2001 141.7 16.3001 140.1 15.2001 139.7Z" fill="#4369B0"/>
<path d="M33 202C34.1046 202 35 201.105 35 200C35 198.895 34.1046 198 33 198C31.8954 198 31 198.895 31 200C31 201.105 31.8954 202 33 202Z" fill="#B44694"/>
<path fill-rule="evenodd" clip-rule="evenodd" d="M122 110C119.8 110 118 111.8 118 114C118 116.2 119.8 118 122 118C124.2 118 126 116.2 126 114C126 111.8 124.2 110 122 110Z" fill="#DE4875"/>
<path fill-rule="evenodd" clip-rule="evenodd" d="M34 87C34 88.7 35.3 90 37 90C38.7 90 40 88.7 40 87C40 85.3 38.7 84 37 84C35.3 84 34 85.3 34 87Z" fill="#DE4875"/>
<path fill-rule="evenodd" clip-rule="evenodd" d="M18.5 55C17.1 55 16 56.1 16 57.5C16 58.9 17.1 60 18.5 60C19.9 60 21 58.9 21 57.5C21 56.1 19.9 55 18.5 55Z" fill="#B44694"/>
</svg>
