<svg width="180" height="157" viewBox="0 0 180 157" fill="none" xmlns="http://www.w3.org/2000/svg">
<path fill-rule="evenodd" clip-rule="evenodd" d="M179.1 127.9C177.6 128.4 176 129.1 175.3 129.8C174.6 130.5 173.8 132 173.2 133.5C172.8 134.6 171.2 134.6 170.7 133.5C170.2 132.1 169.5 130.7 168.8 130.1C168 129.4 166.3 128.6 164.7 128C163.6 127.6 163.6 126.1 164.7 125.7C166.3 125.1 167.9 124.4 168.7 123.7C169.4 123 170.1 121.6 170.7 120.1C171.1 119 172.7 119 173.2 120.1C173.8 121.5 174.5 123 175.2 123.7C175.9 124.4 177.5 125.1 179 125.6C180.3 125.9 180.3 127.5 179.1 127.9Z" fill="#48A5DD"/>
<path fill-rule="evenodd" clip-rule="evenodd" d="M169 53.6C167.3 54.2 165.6 55.0001 164.8 55.8001C164 56.6001 163.1 58.4 162.5 60.2C162 61.5 160.2 61.5 159.7 60.2C159.1 58.5 158.3 56.9 157.6 56.1C156.7 55.2 154.8 54.3 153 53.6C151.7 53.1 151.7 51.3001 153 50.8001C154.8 50.1001 156.7 49.3 157.5 48.4C158.3 47.6 159.1 45.8 159.7 44.1C160.2 42.8 162 42.8 162.5 44.1C163.2 45.8 164 47.6 164.8 48.4C165.6 49.2 167.4 50 169.1 50.7C170.3 51.3 170.3 53.1 169 53.6Z" fill="#EB7444"/>
<path fill-rule="evenodd" clip-rule="evenodd" d="M141.9 93.2C142 92.9 142 92.5 142 92.2C142 88.9 139.3 86.2 136 86.2C135.7 86.2 135.3 86.2 135 86.3V80.2C135.3 80.2 135.7 80.1 136 80.1C142.6 80.1 148 85.5 148 92.1C148 92.4 148 92.8 147.9 93.1H141.9V93.2Z" fill="#495FA9"/>
<path fill-rule="evenodd" clip-rule="evenodd" d="M138 72.2C136.3 72.2 135 70.9 135 69.2C135 67.5 136.3 66.2 138 66.2C139.7 66.2 141 67.5 141 69.2C141 70.9 139.7 72.2 138 72.2Z" fill="#495FA9"/>
<path fill-rule="evenodd" clip-rule="evenodd" d="M131 52.2H49C47.3 52.2 46 50.9 46 49.2C46 47.5 47.3 46.2 49 46.2H131C132.7 46.2 134 47.5 134 49.2C134 50.9 132.7 52.2 131 52.2Z" fill="#495FA9"/>
<path fill-rule="evenodd" clip-rule="evenodd" d="M111 25.2C109.3 25.2 108 23.9 108 22.2C108 20.5 109.3 19.2 111 19.2C112.7 19.2 114 20.5 114 22.2C114 23.9 112.7 25.2 111 25.2Z" fill="#B44694"/>
<path fill-rule="evenodd" clip-rule="evenodd" d="M68.5 5.19995C67.1 5.19995 66 4.09995 66 2.69995C66 1.29995 67.1 0.199951 68.5 0.199951C69.9 0.199951 71 1.29995 71 2.69995C71 4.09995 69.9 5.19995 68.5 5.19995Z" fill="#495FA9"/>
<path fill-rule="evenodd" clip-rule="evenodd" d="M70 33.2C70 34.9 68.7 36.2 67 36.2C65.3 36.2 64 34.9 64 33.2C64 31.5 65.3 30.2 67 30.2C68.7 30.2 70 31.5 70 33.2Z" fill="#DE4875"/>
<path fill-rule="evenodd" clip-rule="evenodd" d="M48.1 16.9001C46.6 17.4001 45 18.1001 44.3 18.8001C43.6 19.5001 42.8 21 42.2 22.5C41.8 23.6 40.2 23.6 39.7 22.5C39.2 21.1 38.5 19.7 37.8 19.1C37 18.4 35.3 17.6 33.7 17C32.6 16.6 32.6 15.1 33.7 14.7C35.3 14.1 36.9 13.4 37.7 12.7C38.4 12 39.1 10.6 39.7 9.10002C40.1 8.00002 41.7 8.00002 42.2 9.10002C42.8 10.5 43.5 12 44.2 12.7C44.9 13.4 46.5 14.1 48 14.6C49.3 14.9 49.3 16.5001 48.1 16.9001Z" fill="#B44694"/>
<path fill-rule="evenodd" clip-rule="evenodd" d="M29.1 72.9001C27.6 73.4001 26 74.1001 25.3 74.8001C24.6 75.5001 23.8 77 23.2 78.5C22.8 79.6 21.2 79.6 20.7 78.5C20.2 77.1 19.5 75.7 18.8 75.1C18 74.4 16.3 73.6 14.7 73C13.6 72.6 13.6 71.1 14.7 70.7C16.3 70.1 17.9 69.4 18.7 68.7C19.4 68 20.1 66.6 20.7 65.1C21.1 64 22.7 64 23.2 65.1C23.8 66.5 24.5 68 25.2 68.7C25.9 69.4 27.5 70.1 29 70.6C30.3 70.9 30.3 72.5001 29.1 72.9001Z" fill="#495FA9"/>
<path fill-rule="evenodd" clip-rule="evenodd" d="M17.9999 120.2C16.1999 120.9 14.3999 121.7 13.4999 122.6C12.5999 123.5 11.6999 125.4 10.9999 127.3C10.4999 128.6 8.59991 128.6 8.09991 127.3C7.49991 125.6 6.6999 123.8 5.8999 123C4.9999 122.1 2.8999 121.1 0.999902 120.4C-0.300098 119.9 -0.300098 118 0.999902 117.5C2.8999 116.8 4.89991 115.9 5.69991 115C6.49991 114.2 7.3999 112.3 7.9999 110.5C8.4999 109.1 10.3999 109.1 10.8999 110.5C11.5999 112.3 12.3999 114.2 13.2999 115.1C14.1999 116 15.9999 116.8 17.8999 117.5C19.2999 117.7 19.2999 119.7 17.9999 120.2Z" fill="#EB7444"/>
<path fill-rule="evenodd" clip-rule="evenodd" d="M22 104.2C23.7 104.2 25 105.5 25 107.2C25 108.9 23.7 110.2 22 110.2C20.3 110.2 19 108.9 19 107.2C19 105.5 20.3 104.2 22 104.2Z" fill="#48A5DD"/>
<path fill-rule="evenodd" clip-rule="evenodd" d="M36.9999 93.2C36.9999 92.9 36.8999 92.5 36.8999 92.2C36.8999 85.6 42.2999 80.2 48.8999 80.2C49.1999 80.2 49.5999 80.2 49.8999 80.3V86.4C49.5999 86.3 49.1999 86.3 48.8999 86.3C45.5999 86.3 42.8999 89 42.8999 92.3C42.8999 92.6 42.8999 93 42.9999 93.3H36.9999V93.2Z" fill="#495FA9"/>
<path fill-rule="evenodd" clip-rule="evenodd" d="M91 61.2C83.3 61.2 77 67.5 77 75.2C77 82.9 83.3 89.2 91 89.2C98.7 89.2 105 82.9 105 75.2C105 67.5 98.7 61.2 91 61.2ZM91 79.2C88.8 79.2 87 77.4 87 75.2C87 73 88.8 71.2 91 71.2C93.2 71.2 95 73 95 75.2C95 77.4 93.2 79.2 91 79.2Z" fill="#48A5DD"/>
<path fill-rule="evenodd" clip-rule="evenodd" d="M54 84.1V64.3C54 59.8 57.6 56.2 62.1 56.2H123C127.4 56.2 131.1 59.8 131.1 64.3V84.1C131.1 88.6 127.5 92.2 123 92.2H91C96.7 92.2 101.8 89.4 104.9 85H123C123.5 85 123.9 84.6 123.9 84.1V64.3C123.9 63.8 123.5 63.4 123 63.4H103.3C100.2 60.2 95.9 58.2 91.1 58.2C86.3 58.2 82 60.2 78.9 63.4H62.2C61.7 63.4 61.3 63.8 61.3 64.3V84.1C61.3 84.6 61.7 85 62.2 85H77.3C80.4 89.3 85.4 92.2 91.2 92.2H62.3C57.6 92.2 54 88.6 54 84.1Z" fill="#495FA9"/>
<path fill-rule="evenodd" clip-rule="evenodd" d="M29 96.2H153C154.7 96.2 156 97.5 156 99.2C156 100.9 154.7 102.2 153 102.2H29C27.3 102.2 26 100.9 26 99.2C26 97.5 27.3 96.2 29 96.2Z" fill="#495FA9"/>
<path fill-rule="evenodd" clip-rule="evenodd" d="M30.5 132.2C31.3 132.2 32 132.9 32 133.7C32 134.5 31.3 135.2 30.5 135.2C29.7 135.2 29 134.5 29 133.7C29 132.9 29.7 132.2 30.5 132.2Z" fill="#495FA9"/>
<path fill-rule="evenodd" clip-rule="evenodd" d="M144.8 109.2C144.3 108 143 107.2 141.5 107.2H39.4999C37.9999 107.2 36.5999 108 36.1999 109.3C35.6999 110.5 36.2999 111.9 37.5999 112.6L42.0999 115.2V143.2C42.0999 143.3 42.0999 143.4 42.0999 143.5C41.9999 144.2 42.2999 145 42.8999 145.5C43.2999 145.9 43.8999 146.1 44.4999 146.2C44.6999 146.2 44.8999 146.3 45.0999 146.3C45.3999 146.3 45.7999 146.2 46.0999 146.1C46.1999 146.1 46.1999 146.1 46.2999 146.1H46.3999C46.6999 146 46.9999 145.8 47.1999 145.6L67.2999 129.3C67.3999 129.3 67.4999 129.3 67.4999 129.3H113.9L134.1 145.6C134.3 145.8 134.6 145.9 134.9 146C135 146 135 146 135.1 146.1H135.2C135.5 146.2 135.8 146.3 136.2 146.3C136.4 146.3 136.6 146.3 136.8 146.2C137.4 146.1 137.9 145.9 138.3 145.5C139 145 139.2 144.2 139.1 143.5C139.1 143.4 139.1 143.3 139.1 143.2V115.2L143.6 112.5C144.8 111.8 145.3 110.5 144.8 109.2ZM47.9999 137.9V118.6L61.8999 126.6L47.9999 137.9ZM133 137.9L119.4 126.9L133 118.8V137.9Z" fill="#495FA9"/>
<path fill-rule="evenodd" clip-rule="evenodd" d="M44.9998 156.2C41.4998 156.2 38.5999 153.6 38.0999 150.2H51.8998C51.3998 153.6 48.4998 156.2 44.9998 156.2Z" fill="#495FA9"/>
<path fill-rule="evenodd" clip-rule="evenodd" d="M77.5 135.2C78.3 135.2 79 135.9 79 136.7C79 137.5 78.3 138.2 77.5 138.2C76.7 138.2 76 137.5 76 136.7C76 135.9 76.7 135.2 77.5 135.2Z" fill="#DE4875"/>
<path fill-rule="evenodd" clip-rule="evenodd" d="M117 140.2C118.7 140.2 120 141.5 120 143.2C120 144.9 118.7 146.2 117 146.2C115.3 146.2 114 144.9 114 143.2C114 141.5 115.3 140.2 117 140.2Z" fill="#EB7444"/>
<path fill-rule="evenodd" clip-rule="evenodd" d="M136.1 156.2C132.6 156.2 129.7 153.6 129.2 150.2H143C142.5 153.6 139.6 156.2 136.1 156.2Z" fill="#495FA9"/>
</svg>
