<svg width="193" height="150" viewBox="0 0 193 150" fill="none" xmlns="http://www.w3.org/2000/svg">
<path fill-rule="evenodd" clip-rule="evenodd" d="M130.3 8.69995C131.8 9.29995 133.4 9.99998 134.1 10.6C134.7 11.2 135.3 12.5 135.8 13.8C136.2 14.8 137.7 14.8 138.1 13.8C138.6 12.4 139.3 11 140 10.4C140.7 9.80002 142.1 9.19995 143.5 8.69995C144.5 8.29995 144.5 6.9 143.5 6.5C142.1 6 140.6 5.39995 139.9 4.69995C139.2 4.09995 138.6 2.70005 138 1.30005C137.6 0.300049 136.1 0.300049 135.7 1.30005C135.2 2.60005 134.5 3.99998 133.9 4.59998C133.2 5.29998 131.7 5.9 130.2 6.5C129.3 6.9 129.3 8.29995 130.3 8.69995Z" fill="#48A5DD"/>
<path fill-rule="evenodd" clip-rule="evenodd" d="M17.9 88.1C16.1 87.4 14.2 86.6001 13.4 85.8001C12.5 85.0001 11.7 83.2 11 81.5C10.5 80.2 8.6 80.2 8.1 81.5C7.4 83.2 6.59998 85.0001 5.79998 85.8001C4.89998 86.7001 2.9 87.5 1.1 88.2C-0.2 88.7 -0.2 90.5 1.1 91C3 91.7 5.09999 92.6 5.99999 93.5C6.79999 94.3 7.60001 95.9 8.20001 97.6C8.70001 98.9 10.6 98.9 11.1 97.6C11.8 95.8 12.7 94 13.5 93.2C14.3 92.4 16.2 91.6 17.9 91C19.2 90.4 19.2 88.6 17.9 88.1Z" fill="#DE4875"/>
<path fill-rule="evenodd" clip-rule="evenodd" d="M36.5001 43.9C37.8001 44.4 39.3001 44.9999 39.9001 45.5999C40.5001 46.0999 41.0001 47.3 41.4001 48.4C41.7001 49.3 43.1001 49.3 43.4001 48.4C43.9001 47.2 44.5001 46 45.1001 45.4C45.7001 44.9 47.0001 44.3 48.2001 43.9C49.1001 43.6 49.1001 42.3 48.2001 42C46.9001 41.5 45.6001 41 45.0001 40.4C44.4001 39.8 43.8001 38.6 43.3001 37.4C42.9001 36.5 41.6001 36.5 41.3001 37.4C40.8001 38.6 40.3001 39.8 39.7001 40.3C39.1001 40.9 37.7001 41.5 36.4001 41.9C35.6001 42.4 35.6001 43.6 36.5001 43.9Z" fill="#48A5DD"/>
<path fill-rule="evenodd" clip-rule="evenodd" d="M141.5 142.9C140.2 142.4 138.9 141.9 138.3 141.3C137.7 140.7 137.1 139.5 136.6 138.3C136.2 137.4 134.9 137.4 134.6 138.3C134.1 139.5 133.6 140.7 133 141.2C132.4 141.8 131 142.4 129.7 142.8C128.8 143.1 128.8 144.4 129.7 144.7C131 145.2 132.5 145.8 133.1 146.4C133.7 146.9 134.2 148.1 134.6 149.2C134.9 150.1 136.3 150.1 136.6 149.2C137.1 148 137.7 146.8 138.3 146.2C138.9 145.7 140.2 145.1 141.4 144.7C142.4 144.5 142.4 143.2 141.5 142.9Z" fill="#DE4875"/>
<path fill-rule="evenodd" clip-rule="evenodd" d="M129.9 72.1C129.9 71.2 129.2 70.5 128.3 70.5C127.4 70.5 126.7 71.2 126.7 72.1C126.7 73 127.4 73.7 128.3 73.7C129.1 73.7 129.9 73 129.9 72.1Z" fill="#48A5DD"/>
<path fill-rule="evenodd" clip-rule="evenodd" d="M153.4 120.3C151.6 120.3 150.1 121.8 150.1 123.6C150.1 125.4 151.6 126.9 153.4 126.9C155.2 126.9 156.7 125.4 156.7 123.6C156.7 121.8 155.2 120.3 153.4 120.3Z" fill="#B44694"/>
<path fill-rule="evenodd" clip-rule="evenodd" d="M13.8 54.8C15.2 54.8 16.3 53.7 16.3 52.3C16.3 50.9 15.2 49.8 13.8 49.8C12.4 49.8 11.3 50.9 11.3 52.3C11.3 53.7 12.4 54.8 13.8 54.8Z" fill="#495FA9"/>
<path fill-rule="evenodd" clip-rule="evenodd" d="M66.1001 143.9C65.0001 143.9 64.1001 144.8 64.1001 145.9C64.1001 147 65.0001 147.9 66.1001 147.9C67.2001 147.9 68.1001 147 68.1001 145.9C68.1001 144.8 67.2001 143.9 66.1001 143.9Z" fill="#48A5DD"/>
<path fill-rule="evenodd" clip-rule="evenodd" d="M70.5999 7.3C71.8999 7.8 73.3999 8.39995 73.9999 8.99995C74.5999 9.49995 75.0999 10.7 75.4999 11.8C75.7999 12.7 77.1999 12.7 77.4999 11.8C77.9999 10.6 78.5999 9.4 79.1999 8.8C79.7999 8.3 81.0999 7.7 82.2999 7.3C83.1999 7 83.1999 5.69998 82.2999 5.39998C80.9999 4.89998 79.6999 4.4 79.0999 3.8C78.4999 3.2 77.8999 2 77.3999 0.8C76.9999 -0.1 75.6999 -0.1 75.3999 0.8C74.8999 2 74.3999 3.1999 73.7999 3.6999C73.1999 4.2999 71.7999 4.9 70.4999 5.3C69.6999 5.7 69.6999 6.9 70.5999 7.3Z" fill="#DE4875"/>
<path fill-rule="evenodd" clip-rule="evenodd" d="M105.2 128.9C103.8 128.9 102.7 130 102.7 131.4C102.7 132.8 103.8 133.9 105.2 133.9C106.6 133.9 107.7 132.8 107.7 131.4C107.6 130 106.5 128.9 105.2 128.9Z" fill="#495FA9"/>
<path fill-rule="evenodd" clip-rule="evenodd" d="M64 21.8C65.4 21.8 66.5 20.7 66.5 19.3C66.5 17.9 65.4 16.8 64 16.8C62.6 16.8 61.5 17.9 61.5 19.3C61.5 20.7 62.6 21.8 64 21.8Z" fill="#495FA9"/>
<path fill-rule="evenodd" clip-rule="evenodd" d="M46.2999 141.1C44.9999 140.6 43.7 140.1 43.1 139.5C42.5 138.9 41.8999 137.7 41.3999 136.5C40.9999 135.6 39.6999 135.6 39.3999 136.5C38.8999 137.7 38.3999 138.9 37.7999 139.4C37.1999 140 35.8 140.6 34.5 141C33.6 141.3 33.6 142.6 34.5 142.9C35.8 143.4 37.2999 144 37.8999 144.6C38.4999 145.1 38.9999 146.3 39.3999 147.4C39.6999 148.3 41.0999 148.3 41.3999 147.4C41.8999 146.2 42.5 145 43.1 144.4C43.7 143.9 45 143.3 46.2 142.9C47.3 142.7 47.2999 141.4 46.2999 141.1Z" fill="#495FA9"/>
<path fill-rule="evenodd" clip-rule="evenodd" d="M72.6001 73.9C71.2001 73.9 70.1001 75 70.1001 76.4C70.1001 77.8 71.2001 78.9 72.6001 78.9C74.0001 78.9 75.1001 77.8 75.1001 76.4C75.1001 75 73.9001 73.9 72.6001 73.9Z" fill="#B44694"/>
<path fill-rule="evenodd" clip-rule="evenodd" d="M60.8999 55.8C40.4999 55.8 23.8999 72.4 23.8999 92.8C23.8999 113.2 40.4999 129.8 60.8999 129.8C81.2999 129.8 97.8999 113.2 97.8999 92.8C97.8999 72.4 81.3999 55.8 60.8999 55.8ZM60.8999 121.8C44.8999 121.8 31.8999 108.8 31.8999 92.8C31.8999 76.8 44.8999 63.8 60.8999 63.8C76.8999 63.8 89.8999 76.8 89.8999 92.8C89.8999 108.8 76.8999 121.8 60.8999 121.8Z" fill="#495FA9"/>
<path fill-rule="evenodd" clip-rule="evenodd" d="M191.5 17.4001C190.4 15.5001 187.9 14.8001 186 15.9001L107.2 61.4001C105.3 62.5001 104.6 65.0001 105.7 66.9001C106.8 68.8001 109.3 69.5001 111.2 68.4001L190 22.9001C191.9 21.8001 192.6 19.3001 191.5 17.4001Z" fill="#DE4875"/>
<path fill-rule="evenodd" clip-rule="evenodd" d="M157.6 64.7L112.6 90.7C110.7 91.8 110 94.3 111.1 96.2C112.2 98.1 114.7 98.8 116.6 97.7L161.6 71.7C163.5 70.6 164.2 68.1 163.1 66.2C161.9 64.2 159.5 63.6 157.6 64.7Z" fill="#48A5DD"/>
<path fill-rule="evenodd" clip-rule="evenodd" d="M90 51.7L135 25.7C136.9 24.6 137.6 22.1 136.5 20.2C135.4 18.3 132.9 17.6 131 18.7L86 44.7C84.1 45.8 83.4 48.3 84.5 50.2C85.7 52.2 88.1 52.8 90 51.7Z" fill="#B44694"/>
</svg>
