<svg width="164" height="158" viewBox="0 0 164 158" fill="none" xmlns="http://www.w3.org/2000/svg">
<path fill-rule="evenodd" clip-rule="evenodd" d="M74.7 11.5C36.9 11.5 6.19995 42.2 6.19995 80C6.19995 117.8 36.9 148.5 74.7 148.5C79.6 148.5 84.5999 148 89.3999 146.9C91.5999 146.4 92.9 144.3 92.5 142.1C92 139.9 89.8999 138.6 87.7 139C83.5 139.9 79.1 140.4 74.7 140.4C42.5 140.4 16.1 115.1 14.3 83.3C15.1 84.1001 15.8999 85 16.6999 86C22.0999 92 28.1999 97.8999 36.6999 98.2C40.0999 98.2999 42.4 99.5 42.8 104.5C43.6 113.5 53.1 113.6 58.9 113.6H59.1999C59.6999 114.4 60.4 116.7 60.9 118.2C62.1 122.2 63.6 127.1 67.3 131.3C70.4 134.8 73.7999 136.2 76.7 136.2C78.8999 136.2 80.9 135.4 82.3 134.1C85.3 131.4 85.7 127 83.2 124.1C82.1 122.9 83 119.2 86 115.7C90.9 109.9 90.4 104.1 89.8 96.1L89.7 94.6C89.5 92 88.1 88.4 82.5 85.6C74.2 81.5 59.0999 80.7999 53.6999 84.2C50.6999 86.1 48.2 85.7001 42.5 82.3C42.4 82.2001 42.2999 82.2 42.1999 82.1C42.3999 80.4 45.8 76.1 52.3 69.4C58.7 62.8 61.7 55.6 60.9 49.1C60.3 44.6 57.9999 40.9 54.1999 38.6C48.4999 35.1 35.4999 39.7 25.5999 44.2C36.5999 29 54.3999 19.2 74.5999 19.2C82.3999 19.2 89.9 20.7 96.8 23.4C96.6 23.6 96.4999 23.9 96.3999 24.1C96.3999 24.2 93.7 30.4 89 33.1C84.3 35.8 79.8 40.4 81.1 45C81.8 47.3 83.8999 49.9 90.2 49.7C93.5 49.6 95.8999 50.1 98.2 50.6C100.1 51 102.1 51.4 104.3 51.4C106.1 51.4 108 51.1 110.2 50.4C118 47.9 122.2 44.2999 122.4 44.2C122.6 44 122.8 43.8 123 43.6C124.1 45.1 125.2 46.7001 126.2 48.3C125.4 48.3 124.7 48.5 124 49C123.9 49 118.3 52.8 111.5 54.9C106.1 56.6 103.9 55.4 102.3 54.5L101.8 54.2C97.7 52.1 87.8 55.2 84 61C80 67 81.5999 78.4 86.8999 82C93.4999 86.4 99.1 87.4 103.7 84.9C104.9 84.2 106.5 84.1 108 84.5C108.9 84.8 110.2 85.4 111 86.9C111.6 88 112.2 89.7999 112.9 91.7C114.8 97.1 117.3 103.9 122.6 106.7C124.4 107.7 126 108.4 127.4 109C126 111.5 124.4 113.9 122.7 116.2C121.4 118 121.7 120.5 123.5 121.8C125.3 123.1 127.8 122.8 129.1 121C138.3 109 143.1 94.6 143.1 79.4C143.2 42.2 112.5 11.5 74.7 11.5ZM58.0999 91.3C60.5 89.8 72.4 89.8 79 93.1C81 94.1 81.7 95 81.8 95.5L81.8999 97C82.4999 105 82.6 107.6 80 110.8C74.9 116.9 73.5999 123.7 76.3999 128.4C75.7999 128.3 74.7999 127.8 73.3999 126.2C70.8999 123.3 69.6999 119.5 68.6999 116.1C67.2999 111.5 65.5999 105.8 59.5999 105.8H59.0999C53.8999 105.8 51 105.5 50.9 104C50.5 99 48.5 95.2 45.3 92.9C49 94.1 53.3999 94.3 58.0999 91.3ZM20.6999 56C33.5999 49.2 47.3999 44.5 50.1999 45.9C51.8999 46.9 52.8999 48.5 53.0999 50.6C53.5999 54.6 51.2999 59.6 46.6999 64.3C37.7999 73.4 33.7 78.7001 34.4 83.8C34.6 85.5 35.5 87.8999 38.5 89.7C39.0999 90.1 39.7999 90.5 40.5999 90.9C39.5 90.6 38.3999 90.5 37.0999 90.4C32.1999 90.2 28.0999 86.7001 22.6999 80.8C19.1999 76.9 16.3 73.8 14.8 72.1C15.5 66.7 17 61.5 19 56.6C19.6 56.4 20.1999 56.3 20.6999 56ZM117.6 38.4C117.6 38.4 114.3 41.1 108.1 43.1C105.1 44.1 103.2 43.7 100.1 43C97.7 42.5 94.7999 41.9 90.8999 41.9C91.4999 41.4 92.2999 40.8 93.2 40.3C100.3 36.2 103.8 27.8 103.9 27.5C104 27.3 104 27.2 104 27C109.2 29.9 114 33.6 118.1 37.9C118 38.1 117.8 38.3 117.6 38.4ZM131 102.2C130.2 101.9 128.8 101.4 126.5 100.2C123.9 98.7999 122 93.4 120.6 89.5C119.8 87.3 119.1 85.3 118.2 83.6C116.6 80.6 113.8 78.4 110.5 77.3C107 76.2001 103.2 76.6001 100.1 78.3C98.4 79.2001 95.4 78.3 91.6 75.8C90.3 74.9 88.9999 68.7 90.8999 65.9C92.4999 63.5 97.1 62 98.8 62C101 63.2 105.5 65.6 114.1 63C122.1 60.5 128.5 56.3 128.7 56.1C129.1 55.8 129.5 55.4 129.8 55C133.3 62.6 135.2 71.1 135.2 80C135.2 87.7 133.8 95.2 131 102.2Z" fill="#495FA9"/>
<path fill-rule="evenodd" clip-rule="evenodd" d="M119.3 126.7C117.9 125 115.3 124.8 113.6 126.2C110.2 129 106.5 131.5 102.6 133.6C100.6 134.6 99.8999 137 100.9 139C101.6 140.4 103 141.1 104.5 141.1C105.1 141.1 105.8 141 106.4 140.6C110.8 138.3 115 135.5 118.8 132.3C120.6 131 120.8 128.4 119.3 126.7Z" fill="#48A5DD"/>
<path fill-rule="evenodd" clip-rule="evenodd" d="M115.7 16.3C117.2 16.9 118.8 17.6 119.5 18.2C120.1 18.8 120.7 20.1 121.2 21.4C121.6 22.4 123.1 22.4 123.5 21.4C124 20 124.7 18.6 125.4 18C126.1 17.4 127.5 16.8 128.9 16.3C129.9 15.9 129.9 14.5 128.9 14.1C127.5 13.6 126 13 125.3 12.3C124.6 11.7 124 10.3 123.4 8.90002C123 7.90002 121.5 7.90002 121.1 8.90002C120.6 10.2 119.9 11.6 119.3 12.2C118.6 12.9 117.1 13.5 115.6 14.1C114.6 14.5 114.6 15.9 115.7 16.3Z" fill="#DE4875"/>
<path fill-rule="evenodd" clip-rule="evenodd" d="M7.8 41.0999C8.3 39.8999 8.9 38.6999 9.5 38.0999C10.1 37.5999 11.4 36.9999 12.6 36.5999C13.5 36.2999 13.5 34.9999 12.6 34.6999C11.3 34.1999 10 33.6999 9.4 33.0999C8.8 32.4999 8.2 31.2999 7.7 30.0999C7.3 29.1999 6 29.1999 5.7 30.0999C5.2 31.2999 4.7 32.5 4.1 33C3.5 33.6 2.1 34.1999 0.8 34.5999C-0.1 34.8999 -0.1 36.2 0.8 36.5C2.1 37 3.6 37.5999 4.2 38.1999C4.8 38.6999 5.3 39.9 5.7 41C6.1 42 7.4 41.9999 7.8 41.0999Z" fill="#EB7444"/>
<path fill-rule="evenodd" clip-rule="evenodd" d="M126.8 150.6C125.5 150.1 124.2 149.6 123.6 149C123 148.4 122.4 147.2 121.9 146C121.5 145.1 120.2 145.1 119.9 146C119.4 147.2 118.9 148.4 118.3 148.9C117.7 149.5 116.3 150.1 115 150.5C114.1 150.8 114.1 152.1 115 152.4C116.3 152.9 117.8 153.5 118.4 154.1C119 154.6 119.5 155.8 119.9 156.9C120.2 157.8 121.6 157.8 121.9 156.9C122.4 155.7 123 154.5 123.6 153.9C124.2 153.4 125.5 152.8 126.7 152.4C127.7 152.1 127.7 150.9 126.8 150.6Z" fill="#48A5DD"/>
<path fill-rule="evenodd" clip-rule="evenodd" d="M125.6 73.1C124.7 73.1 124 73.8 124 74.7C124 75.6 124.7 76.3 125.6 76.3C126.5 76.3 127.2 75.6 127.2 74.7C127.2 73.8 126.5 73.1 125.6 73.1Z" fill="#DE4875"/>
<path fill-rule="evenodd" clip-rule="evenodd" d="M138.7 128C136.9 128 135.4 129.5 135.4 131.3C135.4 133.1 136.9 134.6 138.7 134.6C140.5 134.6 142 133.1 142 131.3C142 129.5 140.5 128 138.7 128Z" fill="#495FA9"/>
<path fill-rule="evenodd" clip-rule="evenodd" d="M51.3999 151.6C50.2999 151.6 49.3999 152.5 49.3999 153.6C49.3999 154.7 50.2999 155.6 51.3999 155.6C52.4999 155.6 53.3999 154.7 53.3999 153.6C53.3999 152.5 52.4999 151.6 51.3999 151.6Z" fill="#EB7444"/>
<path fill-rule="evenodd" clip-rule="evenodd" d="M18.9 13.9C20.2 14.4 21.7 14.9999 22.3 15.5999C22.9 16.0999 23.4 17.3 23.8 18.4C24.1 19.3 25.5 19.3 25.8 18.4C26.3 17.2 26.9 16 27.5 15.4C28.1 14.9 29.4 14.3 30.6 13.9C31.5 13.6 31.5 12.3 30.6 12C29.3 11.5 28 11 27.4 10.4C26.8 9.79998 26.2 8.59998 25.7 7.39998C25.3 6.49998 24 6.49998 23.7 7.39998C23.2 8.59998 22.7 9.8 22.1 10.3C21.5 10.9 20.1 11.5 18.8 11.9C18 12.3 18 13.6 18.9 13.9Z" fill="#495FA9"/>
<path fill-rule="evenodd" clip-rule="evenodd" d="M84.5 152.6C83.1 152.6 82 153.7 82 155.1C82 156.5 83.1 157.6 84.5 157.6C85.9 157.6 87 156.5 87 155.1C87 153.7 85.8 152.6 84.5 152.6Z" fill="#495FA9"/>
<path fill-rule="evenodd" clip-rule="evenodd" d="M145.2 37.8C144.3 37.8 143.6 38.5 143.6 39.4C143.6 40.3 144.3 41 145.2 41C146.1 41 146.8 40.3 146.8 39.4C146.8 38.5 146.1 37.8 145.2 37.8Z" fill="#495FA9"/>
<path fill-rule="evenodd" clip-rule="evenodd" d="M60.3 5.40002C61.7 5.40002 62.8 4.30002 62.8 2.90002C62.8 1.50002 61.7 0.400024 60.3 0.400024C58.9 0.400024 57.8 1.50002 57.8 2.90002C57.8 4.30002 58.9 5.40002 60.3 5.40002Z" fill="#48A5DD"/>
<path fill-rule="evenodd" clip-rule="evenodd" d="M24.7001 139.7C23.4001 139.2 22.1001 138.7 21.5001 138.1C20.9001 137.5 20.3001 136.3 19.8001 135.1C19.4001 134.2 18.1001 134.2 17.8001 135.1C17.3001 136.3 16.8001 137.5 16.2001 138C15.6001 138.6 14.2001 139.2 12.9001 139.6C12.0001 139.9 12.0001 141.2 12.9001 141.5C14.2001 142 15.7001 142.6 16.3001 143.2C16.9001 143.7 17.4001 144.9 17.8001 146C18.1001 146.9 19.5001 146.9 19.8001 146C20.3001 144.8 20.9001 143.6 21.5001 143C22.1001 142.5 23.4001 141.9 24.6001 141.5C25.6001 141.3 25.6001 140.1 24.7001 139.7Z" fill="#DE4875"/>
<path fill-rule="evenodd" clip-rule="evenodd" d="M162.5 98.7C161.1 98.2 159.6 97.6 158.9 96.9C158.2 96.3 157.6 94.9 157 93.5C156.6 92.5 155.1 92.5 154.7 93.5C154.2 94.8 153.5 96.2 152.9 96.8C152.2 97.5 150.7 98.1 149.2 98.7C148.2 99.1 148.1 100.5 149.2 100.9C150.7 101.5 152.3 102.2 153 102.8C153.6 103.4 154.2 104.7 154.7 106C155.1 107 156.6 107 157 106C157.5 104.6 158.2 103.2 158.9 102.6C159.6 102 161 101.4 162.4 100.9C163.5 100.5 163.5 99.1 162.5 98.7Z" fill="#EB7444"/>
<path fill-rule="evenodd" clip-rule="evenodd" d="M66.3999 55C66.3999 56.4 67.4999 57.5 68.8999 57.5C70.2999 57.5 71.3999 56.4 71.3999 55C71.3999 53.6 70.2999 52.5 68.8999 52.5C67.4999 52.6 66.3999 53.7 66.3999 55Z" fill="#DE4875"/>
</svg>
