<svg width="195" height="166" viewBox="0 0 195 166" fill="none" xmlns="http://www.w3.org/2000/svg">
<path fill-rule="evenodd" clip-rule="evenodd" d="M57.9001 98.2H64.4001V132.4C64.4001 136.5 67.7001 139.8 71.8001 139.8H123.2C127.3 139.8 130.6 136.5 130.6 132.4V129.4C130.6 127.2 128.8 125.3 126.6 125.3C124.4 125.3 122.6 127.1 122.6 129.4V131.7H72.6V98.3H122.6V102.5C122.6 104.7 124.4 106.6 126.6 106.6C128.8 106.6 130.6 104.8 130.6 102.5V98.2H137.1C139.3 98.2 141.1 96.4 141.1 94.2V75.1C141.1 72.9 139.3 71.1 137.1 71.1H58.1C55.9 71.1 54.1 72.9 54.1 75.1V94.2C54 96.4 55.7001 98.2 57.9001 98.2ZM61.9001 79.1H133V90.2H123.3C123.2 90.2 123.2 90.2 123.1 90.2H71.7C71.6 90.2 71.6 90.2 71.5 90.2H61.8001V79.1H61.9001Z" fill="#495FA9"/>
<path fill-rule="evenodd" clip-rule="evenodd" d="M126.5 109.8C124.3 109.8 122.5 111.6 122.5 113.9V118.2C122.5 120.4 124.3 122.3 126.5 122.3C128.7 122.3 130.5 120.5 130.5 118.2V113.9C130.5 111.6 128.7 109.8 126.5 109.8Z" fill="#48A5DD"/>
<path fill-rule="evenodd" clip-rule="evenodd" d="M83 51.9C83 60.2 89.7 67 97.9 67C106.1 67 112.8 60.3 112.8 51.9C112.8 43.6 106.1 36.8 97.9 36.8C89.7 36.9 83 43.6 83 51.9ZM104.9 51.9C104.9 55.8 101.8 58.9 97.9 58.9C94.1 58.9 90.9 55.7 90.9 51.9C90.9 48 94 44.9 97.9 44.9C101.7 44.9 104.9 48 104.9 51.9Z" fill="#495FA9"/>
<path fill-rule="evenodd" clip-rule="evenodd" d="M57.6 137.6H45.4C43.2 137.6 41.4 139.4 41.4 141.6V161.8C41.4 164 43.2 165.8 45.4 165.8H57.6C59.8 165.8 61.6 164 61.6 161.8V141.6C61.6 139.4 59.8 137.6 57.6 137.6Z" fill="#495FA9"/>
<path fill-rule="evenodd" clip-rule="evenodd" d="M149.5 137.6H137.3C135.1 137.6 133.3 139.4 133.3 141.6V161.8C133.3 164 135.1 165.8 137.3 165.8H149.5C151.7 165.8 153.5 164 153.5 161.8V141.6C153.5 139.4 151.7 137.6 149.5 137.6Z" fill="#495FA9"/>
<path fill-rule="evenodd" clip-rule="evenodd" d="M70.8 141.3H65.8C64.7 141.3 63.8 142.2 63.8 143.3V149.1C63.8 150.2 64.7 151.1 65.8 151.1H70.8C71.9 151.1 72.8 150.2 72.8 149.1V143.3C72.8 142.2 71.9 141.3 70.8 141.3Z" fill="#495FA9"/>
<path fill-rule="evenodd" clip-rule="evenodd" d="M129.1 141.3H124.1C123 141.3 122.1 142.2 122.1 143.3V149.1C122.1 150.2 123 151.1 124.1 151.1H129.1C130.2 151.1 131.1 150.2 131.1 149.1V143.3C131.1 142.2 130.2 141.3 129.1 141.3Z" fill="#495FA9"/>
<path fill-rule="evenodd" clip-rule="evenodd" d="M59.2 70.1H64.2C65.3 70.1 66.2 69.2 66.2 68.1V62.3C66.2 61.2 65.3 60.3 64.2 60.3H59.2C58.1 60.3 57.2 61.2 57.2 62.3V68.1C57.2 69.2 58.1 70.1 59.2 70.1Z" fill="#495FA9"/>
<path fill-rule="evenodd" clip-rule="evenodd" d="M130.9 70.1H135.9C137 70.1 137.9 69.2 137.9 68.1V62.3C137.9 61.2 137 60.3 135.9 60.3H130.9C129.8 60.3 128.9 61.2 128.9 62.3V68.1C128.9 69.2 129.8 70.1 130.9 70.1Z" fill="#495FA9"/>
<path fill-rule="evenodd" clip-rule="evenodd" d="M49.3 88V84.2C49.3 82.5 48 81.2 46.3 81.2H3C1.3 81.2 0 82.5 0 84.2V88C0 89.7 1.3 91 3 91H46.3C48 91 49.3 89.6 49.3 88Z" fill="#495FA9"/>
<path fill-rule="evenodd" clip-rule="evenodd" d="M192 81.2H148.7C147 81.2 145.7 82.5 145.7 84.2V88C145.7 89.7 147 91 148.7 91H192C193.7 91 195 89.7 195 88V84.2C195 82.5 193.7 81.2 192 81.2Z" fill="#495FA9"/>
<path fill-rule="evenodd" clip-rule="evenodd" d="M78 33.9H118C119.7 33.9 121 32.6 121 30.9V26.9C121 25.2 119.7 23.9 118 23.9H78C76.3 23.9 75 25.2 75 26.9V30.9C75 32.5 76.3 33.9 78 33.9Z" fill="#495FA9"/>
<path fill-rule="evenodd" clip-rule="evenodd" d="M180 134.9C178.1 134.2 176.1 133.3 175.3 132.4C174.5 131.6 173.6 129.7 173 127.9C172.5 126.5 170.6 126.5 170.1 127.9C169.4 129.7 168.6 131.6 167.7 132.5C166.8 133.4 165 134.2 163.1 134.9C161.8 135.4 161.8 137.3 163.1 137.8C164.9 138.5 166.7 139.3 167.6 140.2C168.5 141.1 169.4 143 170.1 144.9C170.6 146.2 172.5 146.2 173 144.9C173.6 143.2 174.4 141.4 175.2 140.6C176.1 139.7 178.2 138.7 180.1 138C181.3 137.4 181.3 135.4 180 134.9Z" fill="#DE4875"/>
<path fill-rule="evenodd" clip-rule="evenodd" d="M16.9999 49.3001C18.6999 49.9001 20.3999 50.7 21.1999 51.5C21.9999 52.3 22.8999 54.1 23.4999 55.9C23.9999 57.2 25.8 57.2 26.3 55.9C26.9 54.2 27.7 52.6001 28.4 51.8001C29.3 50.9001 31.1999 50.0001 32.9999 49.3001C34.2999 48.8001 34.2999 47 32.9999 46.5C31.1999 45.8 29.2999 45 28.4999 44.1C27.6999 43.3 26.9 41.5001 26.3 39.8001C25.8 38.5001 23.9999 38.5001 23.4999 39.8001C22.7999 41.5001 21.9999 43.3 21.1999 44.1C20.3999 44.9 18.6 45.7 16.9 46.4C15.7 47 15.6999 48.8001 16.9999 49.3001Z" fill="#DE4875"/>
<path fill-rule="evenodd" clip-rule="evenodd" d="M40.1 110.2C38.5 109.6 36.9 108.9 36.1 108.2C35.4 107.5 34.7 106.1 34.1 104.6C33.7 103.5 32.1 103.5 31.6 104.6C31 106 30.3 107.5 29.6 108.2C28.9 108.9 27.3001 109.6 25.8001 110.1C24.7001 110.5 24.7001 112 25.8001 112.4C27.3001 112.9 28.9 113.6 29.6 114.3C30.3 115 31.1 116.5 31.7 118C32.1 119.1 33.7 119.1 34.2 118C34.7 116.6 35.4 115.2 36.1 114.6C36.9 113.9 38.6 113.1 40.2 112.5C41.3 112.1 41.3 110.6 40.1 110.2Z" fill="#48A5DD"/>
<path fill-rule="evenodd" clip-rule="evenodd" d="M158.8 56.5C160.3 57 161.9 57.7001 162.6 58.4001C163.3 59.1001 164.1 60.6 164.7 62.1C165.1 63.2 166.7 63.2 167.2 62.1C167.7 60.7 168.4 59.3 169.1 58.7C169.9 58 171.6 57.2 173.2 56.6C174.3 56.2 174.3 54.7001 173.2 54.3001C171.6 53.7001 170 53.0001 169.2 52.3001C168.5 51.6001 167.8 50.2 167.2 48.7C166.8 47.6 165.2 47.6 164.7 48.7C164.1 50.1 163.4 51.6001 162.7 52.3001C162 53.0001 160.4 53.7 158.9 54.2C157.7 54.6 157.7 56.1 158.8 56.5Z" fill="#48A5DD"/>
<path fill-rule="evenodd" clip-rule="evenodd" d="M136 35.9C137.7 35.9 139 34.6 139 32.9C139 31.2 137.7 29.9 136 29.9C134.3 29.9 133 31.2 133 32.9C133 34.5 134.3 35.9 136 35.9Z" fill="#495FA9"/>
<path fill-rule="evenodd" clip-rule="evenodd" d="M115.5 5.90002C116.9 5.90002 118 4.80002 118 3.40002C118 2.00002 116.9 0.900024 115.5 0.900024C114.1 0.900024 113 2.00002 113 3.40002C113 4.80002 114.1 5.90002 115.5 5.90002Z" fill="#495FA9"/>
<path fill-rule="evenodd" clip-rule="evenodd" d="M51.5 120.9C52.3 120.9 53 120.2 53 119.4C53 118.6 52.3 117.9 51.5 117.9C50.7 117.9 50 118.6 50 119.4C50 120.2 50.7 120.9 51.5 120.9Z" fill="#495FA9"/>
<path fill-rule="evenodd" clip-rule="evenodd" d="M68 13.9C69.7 13.9 71 12.6 71 10.9C71 9.20002 69.7 7.90002 68 7.90002C66.3 7.90002 65 9.20002 65 10.9C65 12.5 66.3 13.9 68 13.9Z" fill="#DE4875"/>
<path fill-rule="evenodd" clip-rule="evenodd" d="M45 73.9C46.7 73.9 48 72.6 48 70.9C48 69.2 46.7 67.9 45 67.9C43.3 67.9 42 69.2 42 70.9C42 72.5 43.3 73.9 45 73.9Z" fill="#495FA9"/>
<path fill-rule="evenodd" clip-rule="evenodd" d="M140 103.9C138.3 103.9 137 105.2 137 106.9C137 108.6 138.3 109.9 140 109.9C141.7 109.9 143 108.6 143 106.9C143 105.2 141.7 103.9 140 103.9Z" fill="#495FA9"/>
<path fill-rule="evenodd" clip-rule="evenodd" d="M135.8 17.5C137.3 18 138.9 18.7001 139.6 19.4001C140.3 20.1001 141.1 21.6 141.7 23.1C142.1 24.2 143.7 24.2 144.2 23.1C144.7 21.7 145.4 20.3 146.1 19.7C146.9 19 148.6 18.2 150.2 17.6C151.3 17.2 151.3 15.7001 150.2 15.3001C148.6 14.7001 147 14.0001 146.2 13.3001C145.5 12.6001 144.8 11.2 144.2 9.7C143.8 8.6 142.2 8.6 141.7 9.7C141.1 11.1 140.4 12.6001 139.7 13.3001C139 14.0001 137.4 14.7 135.9 15.2C134.7 15.6 134.7 17.1 135.8 17.5Z" fill="#EB7444"/>
<path d="M152.5 122.9C153.328 122.9 154 122.228 154 121.4C154 120.572 153.328 119.9 152.5 119.9C151.672 119.9 151 120.572 151 121.4C151 122.228 151.672 122.9 152.5 122.9Z" fill="#495FA9"/>
<path fill-rule="evenodd" clip-rule="evenodd" d="M31 130.9C29.3 130.9 28 132.2 28 133.9C28 135.6 29.3 136.9 31 136.9C32.7 136.9 34 135.6 34 133.9C34 132.2 32.7 130.9 31 130.9Z" fill="#EB7444"/>
<path fill-rule="evenodd" clip-rule="evenodd" d="M105.3 114C106.4 112.9 105.8 111.1 104.3 110.9L101.5 110.5C100.9 110.4 100.4 110 100.1 109.5L98.8001 107C98.1001 105.6 96.2 105.6 95.5 107L94.2 109.5C93.9 110 93.4001 110.4 92.8001 110.5L90 110.9C88.5 111.1 87.9 113 89 114L91 116C91.4 116.4 91.6 117 91.5 117.6L91 120.4C90.7 121.9 92.3 123.1 93.7 122.3L96.2 121C96.7 120.7 97.4 120.7 97.9 121L100.4 122.3C101.8 123 103.3 121.9 103.1 120.4L102.6 117.6C102.5 117 102.7 116.4 103.1 116L105.3 114Z" fill="#DE4875"/>
</svg>
