<svg width="153" height="151" viewBox="0 0 153 151" fill="none" xmlns="http://www.w3.org/2000/svg">
<path d="M29.6 49.3C38 34.8 51.8 25.5 61.9 22.9C80.8 17.8 114.1 21.9 122.8 54.3C126.2 66.8 125.2 77.8 120 86.8C114.1 97 103.8 102.8 96.8001 104.7C88.6001 106.9 66.1 107.6 60.1 84.9C54.7 64.8 73.0001 56.4 73.8001 56C75.8001 55.1 76.8 52.7999 75.9 50.7C75 48.7 72.7 47.7 70.6 48.6C61.8 52.4 46.6001 65.4 52.3001 86.9C57.7001 107.2 74.5 113.7 88.4 113.7C92.2 113.7 95.8001 113.2 98.8001 112.4C107.3 110.1 119.7 103.1 126.8 90.8C133.1 79.9 134.3 66.9 130.4 52.2C120.2 14.1 81.6 9.29997 59.7 15.1C48.1 18.2 32.1 28.8 22.6 45.3C14 60.3 11.9001 77.8 16.8001 95.8C17.4001 97.9 19.6 99.2 21.7 98.6C23.8 98 25.1 95.7999 24.5 93.7C20.2 77.5 21.9 62.6 29.6 49.3Z" fill="#495FA9"/>
<path d="M70 73.2C70 80.4 75.9 86.3 83.1 86.3C90.4 86.3 96.2 80.4 96.2 73.2C96.2 66 90.3 60.1 83.1 60.1C75.9 60.1 70 65.9 70 73.2Z" fill="#EB7444"/>
<path d="M26.4001 14C27.8001 14.5 29.2001 15.1 29.9001 15.7C30.6001 16.3 31.3001 17.8 31.8001 19.1C32.2001 20.1 33.7 20.1 34.1 19.1C34.6 17.8 35.2001 16.5 35.8001 15.9C36.5001 15.2 38.1 14.5 39.6 14C40.6 13.6 40.6 12.2 39.6 11.8C38.1 11.3 36.6001 10.6 35.9001 9.90002C35.2001 9.30002 34.6 7.89998 34.1 6.59998C33.7 5.59998 32.2001 5.59998 31.8001 6.59998C31.3001 7.89998 30.6001 9.3 29.9001 10C29.2001 10.6 27.8001 11.3 26.3001 11.8C25.4001 12.2 25.4001 13.6 26.4001 14Z" fill="#EB7444"/>
<path d="M134.7 39.3C135.9 39.7 137.2 40.3 137.8 40.8C138.4 41.4 139 42.6 139.5 43.8C139.9 44.7 141.2 44.7 141.5 43.8C141.9 42.7 142.5 41.5 143 41C143.6 40.4 145.1 39.8 146.4 39.3C147.3 39 147.3 37.7 146.4 37.4C145.1 36.9 143.7 36.3 143.1 35.8C142.5 35.3 141.9 34.1 141.5 32.9C141.2 32 139.8 32 139.5 32.9C139 34.1 138.4 35.3 137.8 35.9C137.2 36.5 135.9 37 134.6 37.5C133.8 37.7 133.8 38.9 134.7 39.3Z" fill="#48A5DD"/>
<path d="M51.1999 133.3C49.8999 132.8 48.5 132.2 47.9 131.7C47.3 131.2 46.7 130 46.3 128.8C46 127.9 44.6 127.9 44.3 128.8C43.8 130 43.1999 131.2 42.5999 131.8C41.9999 132.4 40.7 132.9 39.4 133.4C38.5 133.7 38.5 135 39.4 135.3C40.6 135.7 41.9 136.3 42.5 136.8C43.1 137.4 43.6999 138.6 44.1999 139.8C44.5999 140.7 45.8999 140.7 46.1999 139.8C46.5999 138.7 47.1999 137.5 47.6999 137C48.2999 136.4 49.7999 135.8 51.0999 135.3C52.1999 134.9 52.0999 133.6 51.1999 133.3Z" fill="#48A5DD"/>
<path d="M29.7 65.8C28.8 65.8 28.1 66.5 28.1 67.4C28.1 68.3 28.8 69 29.7 69C30.6 69 31.3 68.3 31.3 67.4C31.4 66.5 30.7 65.8 29.7 65.8Z" fill="#48A5DD"/>
<path d="M16.6 120.7C14.8 120.7 13.3 122.2 13.3 124C13.3 125.8 14.8 127.3 16.6 127.3C18.4 127.3 19.9 125.8 19.9 124C19.9 122.2 18.4 120.7 16.6 120.7Z" fill="#495FA9"/>
<path d="M104.9 136.3C103.8 136.3 102.8 137.2 102.8 138.3C102.8 139.4 103.7 140.3 104.9 140.3C106.1 140.3 107 139.4 107 138.3C107 137.2 106 136.3 104.9 136.3Z" fill="#495FA9"/>
<path d="M121.6 19.5999C122.8 19.9999 124.1 20.5999 124.7 21.0999C125.3 21.6999 125.9 22.8999 126.4 24.0999C126.8 24.9999 128.1 24.9999 128.4 24.0999C128.8 22.9999 129.4 21.8 129.9 21.3C130.5 20.7 132 20.0999 133.3 19.5999C134.2 19.2999 134.2 17.9999 133.3 17.6999C132 17.1999 130.6 16.5999 130 16.0999C129.4 15.5999 128.8 14.3999 128.4 13.1999C128.1 12.2999 126.7 12.2999 126.4 13.1999C125.9 14.3999 125.3 15.5999 124.7 16.1999C124.1 16.7999 122.8 17.3 121.5 17.8C120.7 18 120.7 19.2999 121.6 19.5999Z" fill="#495FA9"/>
<path d="M70.8 145.3C69.4 145.3 68.3 146.4 68.3 147.8C68.3 149.2 69.4 150.3 70.8 150.3C72.2 150.3 73.3 149.2 73.3 147.8C73.3 146.4 72.2 145.3 70.8 145.3Z" fill="#544E9E"/>
<path d="M10 33.8C10.9 33.8 11.6 33.1 11.6 32.2C11.6 31.3 10.9 30.6 10 30.6C9.1 30.6 8.40002 31.3 8.40002 32.2C8.40002 33.1 9.1 33.8 10 33.8Z" fill="#495FA9"/>
<path d="M102 5.09998C103.4 5.09998 104.5 3.99998 104.5 2.59998C104.5 1.19998 103.4 0.0999756 102 0.0999756C100.6 0.0999756 99.5 1.19998 99.5 2.59998C99.6 3.99998 100.7 5.09998 102 5.09998Z" fill="#544E9E"/>
<path d="M142.4 132.5C141.1 132 139.7 131.4 139.1 130.9C138.5 130.4 137.9 129.2 137.5 128C137.2 127.1 135.8 127.1 135.5 128C135 129.2 134.4 130.4 133.8 131C133.2 131.6 131.9 132.1 130.6 132.6C129.7 132.9 129.7 134.2 130.6 134.5C131.8 134.9 133.1 135.5 133.7 136C134.3 136.6 134.9 137.8 135.4 139C135.8 139.9 137.1 139.9 137.4 139C137.8 137.9 138.4 136.7 138.9 136.2C139.5 135.6 141 135 142.3 134.5C143.3 134 143.3 132.8 142.4 132.5Z" fill="#EB7444"/>
<path d="M15 95.5C13.5 95 12 94.3 11.3 93.6C10.6 93 10 91.6 9.5 90.3C9.1 89.3 7.59995 89.3 7.19995 90.3C6.69995 91.6 6.00005 93 5.30005 93.7C4.60005 94.3 3.19995 95 1.69995 95.5C0.699951 95.9 0.699951 97.3 1.69995 97.7C3.09995 98.2 4.49995 98.8 5.19995 99.4C5.89995 100 6.59998 101.5 7.09998 102.8C7.49998 103.8 9.00002 103.8 9.40002 102.8C9.90002 101.5 10.5 100.2 11.1 99.6C11.8 98.9 13.4 98.2 14.9 97.7C16 97.2 16 95.8 15 95.5Z" fill="#48A5DD"/>
<path d="M88.9 47.7C88.9 46.3 87.8 45.2 86.4 45.2C85 45.2 83.9 46.3 83.9 47.7C83.9 49.1 85 50.2 86.4 50.2C87.8 50.2 88.9 49.1 88.9 47.7Z" fill="#495FA9"/>
<path d="M149 63.8C146.8 63.8 145 65.6 145 67.8C145 70.9 144.8 73.9 144.4 76.8C144.1 79 145.6 81 147.8 81.3C148 81.3 148.2 81.3 148.3 81.3C150.3 81.3 152 79.8 152.3 77.8C152.7 74.5 153 71.1 153 67.7C153 65.6 151.2 63.8 149 63.8Z" fill="#B44694"/>
<path d="M147 84.9C144.9 84.2 142.6 85.3 141.9 87.4C141.2 89.5 140.3 91.6 139.3 93.7C138.3 95.7 139.2 98.1 141.1 99.1C141.7 99.4 142.3 99.5 142.8 99.5C144.3 99.5 145.7 98.7 146.4 97.2C147.5 94.9 148.5 92.5 149.3 90C150.2 87.9 149.1 85.7 147 84.9Z" fill="#DE4875"/>
<path d="M140.3 107.4C141.6 105.6 141.3 103.1 139.5 101.8C137.7 100.5 135.2 100.8 133.9 102.6C120.8 119.9 99.9 126.2 89 126.2C71 126.2 40.4 116.8 40.4 81.8C40.4 40.3 78.7 39.8 79.1 39.8C86.8 39.8 108.8 45.3 108.8 69.5C108.8 90.2 90.2 92.5 89.4 92.6C87.2 92.8 85.6 94.8 85.8 97C86 99.2 88 100.8 90.2 100.6C99.3999 99.6 116.8 91.9 116.8 69.5C116.8 43.5 94.8 31.8 79.1 31.8C66.1 31.8 32.4 40.8 32.4 81.8C32.4 99.7001 39.5 114.1 52.9 123.4C67 133.2 82.8 134.2 88.9 134.2C104 134.2 126.4 125.8 140.3 107.4Z" fill="#495FA9"/>
</svg>
