<svg width="167" height="145" viewBox="0 0 167 145" fill="none" xmlns="http://www.w3.org/2000/svg">
<path fill-rule="evenodd" clip-rule="evenodd" d="M156.5 46.6999C155.6 46.6999 154.9 45.9999 154.9 45.0999C154.9 44.1999 155.6 43.5 156.5 43.5C157.4 43.5 158.1 44.1999 158.1 45.0999C158.1 45.8999 157.4 46.6999 156.5 46.6999ZM142.9 95.5999C141.8 96.1999 140.5 96.2 139.4 95.5C139.3 95.4 129.4 89.1999 119.2 90.5999C120.6 95.0999 121 97.9 121 98.3C121.1 99.3 120.8 100.3 120 101L113 108L122.4 117.4C123.7 118.7 123.7 120.8 122.4 122.1C121.1 123.4 119 123.4 117.7 122.1L108.3 112.7L101.3 119.7C100.6 120.4 99.6 120.8 98.6 120.7C98.3 120.7 95.5001 120.3 91.0001 118.9C89.7001 129 95.8001 138.9 95.9001 139C96.6001 140.1 96.6001 141.4 96.0001 142.5C95.9001 142.7 95.7001 142.9 95.5001 143.1C94.8001 143.8 93.9001 144.1 92.9001 144.1C92.5001 144.1 82.6 143.1 71.6 132C61.7 122.1 62.5001 107.9 62.9001 103.9C58.2001 100.4 53.3 96.1999 48.3 91.1999C21.4 64.2999 23.4001 27.8 23.5001 26.3C23.6001 24.6 24.9 23.2999 26.6 23.1999C28.1 23.0999 64.7001 21.1 91.5001 48C96.6001 53.0999 100.8 57.9999 104.3 62.6999C108.1 62.2999 122.4 61.4 132.4 71.4C143.5 82.5 144.4 92.1999 144.5 92.5999C144.6 93.5999 144.2 94.4999 143.6 95.1999C143.3 95.2999 143.1 95.4999 142.9 95.5999ZM76.3001 127.3C80.2001 131.2 83.9001 133.7 86.9001 135.1C85.1001 130.3 83.5001 123.6 84.8001 116.7L82.3001 115.4C79.4001 114.1 76.1 112.4 72.7 110.3L69.4001 108.6C69.4001 113.7 70.6001 121.6 76.3001 127.3ZM86.9001 52.5999C73.9001 39.5999 58.1001 33.9 46.0001 31.5L31.9001 45.5999C34.3001 57.6999 40.0001 73.5 53.0001 86.5C61.3001 94.8 69.2001 100.6 76.0001 104.7L85.0001 109.4C91.1001 112.2 95.7001 113.4 97.9001 113.8L103.7 108L84.4001 88.6999C83.1001 87.3999 83.1001 85.3 84.4001 84C85.7001 82.7 87.8 82.7 89.1 84L108.4 103.3L114.2 97.5C113.2 92.3 108 73.7999 86.9001 52.5999ZM127.8 75.9C122.1 70.2 114.2 69 109.3 68.9L117.4 84.1999C124.3 82.9999 130.9 84.6 135.7 86.4C134.1 83.6 131.7 79.9 127.8 75.9ZM129.4 62.3C129.4 63.2 128.7 63.9 127.8 63.9C126.9 63.9 126.2 63.2 126.2 62.3C126.2 61.4 126.9 60.6999 127.8 60.6999C128.7 60.6999 129.4 61.4 129.4 62.3ZM48.8 9.1999C47.6 9.5999 46.3001 10.1999 45.7001 10.6999C45.1001 11.2999 44.5001 12.4999 44.0001 13.6999C43.6001 14.5999 42.3001 14.5999 42.0001 13.6999C41.6001 12.5999 41.0001 11.4 40.5001 10.9C39.9001 10.3 38.4 9.6999 37.1 9.1999C36.2 8.8999 36.2 7.6 37.1 7.3C38.4 6.8 39.8001 6.1999 40.4001 5.6999C41.0001 5.1999 41.6001 4 42.0001 2.8C42.3001 1.9 43.7001 1.9 44.0001 2.8C44.5001 4 45.1001 5.2 45.7001 5.8C46.3001 6.4 47.6001 6.89998 48.9001 7.39998C49.7001 7.59998 49.7001 8.7999 48.8 9.1999ZM25.6 104.6C25.6 106 24.5 107.1 23.1 107.1C21.7 107.1 20.6 106 20.6 104.6C20.6 103.2 21.7 102.1 23.1 102.1C24.5 102.1 25.6 103.2 25.6 104.6ZM14.3 48C12.9 48 11.8 46.9 11.8 45.5C11.8 44.0999 12.9 43 14.3 43C15.7 43 16.8 44.0999 16.8 45.5C16.8 46.9 15.6 48 14.3 48ZM126.3 130.2C127.6 129.7 129 129.1 129.6 128.6C130.2 128.1 130.8 126.9 131.2 125.7C131.5 124.8 132.9 124.8 133.2 125.7C133.7 126.9 134.3 128.1 134.9 128.7C135.5 129.3 136.8 129.8 138.1 130.3C139 130.6 139 131.9 138.1 132.2C136.9 132.6 135.6 133.2 135 133.7C134.4 134.3 133.8 135.5 133.3 136.7C132.9 137.6 131.6 137.6 131.3 136.7C130.9 135.6 130.3 134.4 129.8 133.9C129.2 133.3 127.7 132.7 126.4 132.2C125.3 131.7 125.4 130.5 126.3 130.2Z" fill="#495FA9"/>
<path fill-rule="evenodd" clip-rule="evenodd" d="M74.3001 51.7C68.0001 45.4 57.8 45.4 51.5 51.7C45.2 58 45.2 68.2 51.5 74.5C57.8 80.8 68.0001 80.8 74.3001 74.5C80.5001 68.2 80.5001 58 74.3001 51.7ZM69.6 69.8001C65.9 73.5001 59.8 73.5001 56.1 69.8001C52.4 66.1001 52.4 60.0001 56.1 56.3001C59.8 52.6001 65.9 52.6001 69.6 56.3001C73.3 60.0001 73.3 66.1001 69.6 69.8001Z" fill="#DE4875"/>
<path fill-rule="evenodd" clip-rule="evenodd" d="M165.7 94.5C164.3 95 162.9 95.6 162.2 96.2C161.5 96.8 160.8 98.3 160.3 99.6C159.9 100.6 158.4 100.6 158 99.6C157.5 98.3 156.9 97 156.3 96.4C155.6 95.7 154 95 152.5 94.5C151.5 94.1 151.5 92.7 152.5 92.3C154 91.8 155.5 91.1 156.2 90.4C156.9 89.8 157.5 88.4 158 87.1C158.4 86.1 159.9 86.1 160.3 87.1C160.8 88.4 161.5 89.8 162.2 90.5C162.9 91.1 164.3 91.8 165.8 92.3C166.8 92.7 166.8 94.1 165.7 94.5Z" fill="#48A5DD"/>
<path fill-rule="evenodd" clip-rule="evenodd" d="M157.2 116.9C157.2 118.7 155.7 120.2 153.9 120.2C152.1 120.2 150.6 118.7 150.6 116.9C150.6 115.1 152.1 113.6 153.9 113.6C155.7 113.6 157.2 115 157.2 116.9Z" fill="#495FA9"/>
<path fill-rule="evenodd" clip-rule="evenodd" d="M135.1 32.9C133.7 33.4 132.3 34 131.6 34.6C130.9 35.2 130.2 36.7 129.7 38C129.3 39 127.8 39 127.4 38C126.9 36.7 126.3 35.4 125.7 34.8C125 34.1 123.4 33.4 121.9 32.9C120.9 32.5 120.9 31.1 121.9 30.7C123.4 30.2 124.9 29.5 125.6 28.8C126.3 28.2 126.9 26.8 127.4 25.5C127.8 24.5 129.3 24.5 129.7 25.5C130.2 26.8 130.9 28.2 131.6 28.9C132.3 29.5 133.7 30.2 135.2 30.7C136.1 31.1 136.1 32.5 135.1 32.9Z" fill="#DE4875"/>
<path fill-rule="evenodd" clip-rule="evenodd" d="M96.9 7.49995C95.7 7.89995 94.4 8.49995 93.8 8.99995C93.2 9.59995 92.5999 10.8 92.0999 12C91.6999 12.9 90.3999 12.9 90.0999 12C89.6999 10.9 89.0999 9.6999 88.5999 9.1999C87.9999 8.5999 86.4999 7.99995 85.1999 7.49995C84.2999 7.19995 84.2999 5.89993 85.1999 5.59993C86.4999 5.09993 87.9 4.49995 88.5 3.99995C89.1 3.49995 89.6999 2.29993 90.0999 1.09993C90.3999 0.199927 91.7999 0.199927 92.0999 1.09993C92.5999 2.29993 93.2 3.49993 93.8 4.09993C94.4 4.69993 95.7 5.1999 97 5.6999C97.8 5.8999 97.8 7.09995 96.9 7.49995Z" fill="#48A5DD"/>
<path fill-rule="evenodd" clip-rule="evenodd" d="M64.5 15C63.1 15 62 13.9 62 12.5C62 11.1 63.1 10 64.5 10C65.9 10 67 11.1 67 12.5C66.9 13.9 65.8 15 64.5 15Z" fill="#495FA9"/>
<path fill-rule="evenodd" clip-rule="evenodd" d="M18.4 84.1C16.6 84.7 14.8 85.5001 14 86.3001C13.1 87.1001 12.3 89 11.6 90.7C11.1 92 9.20004 92 8.70004 90.7C8.10004 89 7.30002 87.4 6.50002 86.6C5.60002 85.7 3.5 84.8 1.6 84.1C0.3 83.6 0.3 81.8001 1.6 81.3001C3.5 80.6001 5.40001 79.8 6.30001 78.9C7.10001 78.1 8 76.3 8.6 74.6C9.1 73.3 11 73.3 11.5 74.6C12.2 76.3 13 78.1 13.9 78.9C14.8 79.7 16.6 80.5 18.4 81.2C19.7 81.8 19.7 83.6 18.4 84.1Z" fill="#DE4875"/>
<path fill-rule="evenodd" clip-rule="evenodd" d="M35.1 134.3C36.4 133.8 37.8 133.2 38.4 132.7C39 132.2 39.6 131 40 129.8C40.3 128.9 41.7 128.9 42 129.8C42.5 131 43.1 132.2 43.7 132.8C44.3 133.4 45.6 133.9 46.9 134.4C47.8 134.7 47.8 136 46.9 136.3C45.7 136.7 44.4 137.3 43.8 137.8C43.2 138.4 42.6 139.6 42.1 140.8C41.7 141.7 40.4 141.7 40.1 140.8C39.7 139.7 39.1 138.5 38.6 138C38 137.4 36.5 136.8 35.2 136.3C34.2 135.9 34.2 134.7 35.1 134.3Z" fill="#DE4875"/>
<path fill-rule="evenodd" clip-rule="evenodd" d="M66.6 137.1C67.7 137.1 68.6 138 68.6 139.1C68.6 140.2 67.7 141.1 66.6 141.1C65.5 141.1 64.6 140.2 64.6 139.1C64.6 138.1 65.5 137.1 66.6 137.1Z" fill="#544E9E"/>
<path fill-rule="evenodd" clip-rule="evenodd" d="M105.7 122.2C107.1 122.2 108.2 123.3 108.2 124.7C108.2 126.1 107.1 127.2 105.7 127.2C104.3 127.2 103.2 126.1 103.2 124.7C103.2 123.3 104.3 122.2 105.7 122.2Z" fill="#495FA9"/>
</svg>
