<svg width="186" height="158" viewBox="0 0 186 158" fill="none" xmlns="http://www.w3.org/2000/svg">
<path fill-rule="evenodd" clip-rule="evenodd" d="M35.0001 25.5C36.7001 26.1 38.4001 26.9 39.2001 27.6C40.0001 28.4 40.9001 30.1 41.5001 31.8C42.0001 33 43.8001 33 44.3001 31.8C44.9001 30.2 45.7001 28.7 46.4001 27.9C47.3001 27.1 49.2001 26.2 51.0001 25.5C52.3001 25 52.3001 23.3 51.0001 22.9C49.2001 22.3 47.3001 21.4 46.5001 20.6C45.7001 19.8 44.9001 18.2 44.3001 16.6C43.8001 15.4 42.0001 15.4 41.5001 16.6C40.8001 18.2 40.0001 19.8999 39.2001 20.6999C38.4001 21.4999 36.6001 22.3 34.9001 22.9C33.7001 23.3 33.7001 25.1 35.0001 25.5Z" fill="#EB7444"/>
<path fill-rule="evenodd" clip-rule="evenodd" d="M184.8 101C182.5 100.2 180.1 99.1 179 98.1C178 97.1 177 95.0001 176.2 92.9001C175.6 91.3001 173.3 91.3001 172.7 92.9001C171.9 95.0001 170.8 97.2 169.8 98.2C168.8 99.2 166.5 100.2 164.3 101C162.7 101.6 162.7 103.8 164.3 104.4C166.5 105.2 168.7 106.2 169.7 107.1C170.8 108.1 171.8 110.3 172.7 112.5C173.3 114.1 175.6 114 176.2 112.5C177 110.5 177.9 108.4 178.9 107.5C180 106.4 182.5 105.3 184.8 104.4C186.4 103.8 186.4 101.6 184.8 101Z" fill="#439BCF"/>
<path fill-rule="evenodd" clip-rule="evenodd" d="M115.8 47.4001C117.3 47.9001 118.9 48.6001 119.6 49.3001C120.3 50.0001 121.1 51.5 121.7 53C122.1 54.1 123.7 54.1 124.2 53C124.7 51.6 125.4 50.2 126.1 49.6C126.9 48.9 128.6 48.1 130.2 47.5C131.3 47.1 131.3 45.6 130.2 45.2C128.6 44.6 127 43.9 126.2 43.2C125.5 42.5 124.8 41.1 124.2 39.6C123.8 38.5 122.2 38.5 121.7 39.6C121.1 41 120.4 42.5 119.7 43.2C119 43.9 117.4 44.6 115.9 45.1C114.7 45.4 114.7 47.0001 115.8 47.4001Z" fill="#439BCF"/>
<path fill-rule="evenodd" clip-rule="evenodd" d="M71.1001 141.1C69.5001 140.5 67.9001 139.8 67.1001 139.1C66.4001 138.4 65.7001 137 65.1001 135.5C64.7001 134.4 63.1001 134.4 62.6001 135.5C62.0001 136.9 61.3001 138.4 60.6001 139.1C59.9001 139.8 58.3001 140.5 56.8001 141C55.7001 141.4 55.7001 142.9 56.8001 143.3C58.3001 143.8 59.9001 144.5 60.6001 145.2C61.3001 145.9 62.1001 147.4 62.7001 148.9C63.1001 150 64.7001 150 65.2001 148.9C65.7001 147.5 66.4001 146.1 67.1001 145.5C67.9001 144.8 69.6001 144 71.2001 143.4C72.3001 143 72.3001 141.5 71.1001 141.1Z" fill="#439BCF"/>
<path fill-rule="evenodd" clip-rule="evenodd" d="M2 68.7C0.9 68.7 0 69.6 0 70.7C0 71.8 0.9 72.7 2 72.7C3.1 72.7 4 71.8 4 70.7C4 69.6 3.1 68.7 2 68.7Z" fill="#495FA9"/>
<path fill-rule="evenodd" clip-rule="evenodd" d="M9 113.7C6.8 113.7 5 115.5 5 117.7C5 119.9 6.8 121.7 9 121.7C11.2 121.7 13 119.9 13 117.7C13 115.5 11.2 113.7 9 113.7Z" fill="#495FA9"/>
<path fill-rule="evenodd" clip-rule="evenodd" d="M177 49.7C178.7 49.7 180 48.4 180 46.7C180 45 178.7 43.7 177 43.7C175.3 43.7 174 45 174 46.7C174 48.3 175.3 49.7 177 49.7Z" fill="#495FA9"/>
<path fill-rule="evenodd" clip-rule="evenodd" d="M117.5 152.7C116.1 152.7 115 153.8 115 155.2C115 156.6 116.1 157.7 117.5 157.7C118.9 157.7 120 156.6 120 155.2C120 153.8 118.9 152.7 117.5 152.7Z" fill="#495FA9"/>
<path fill-rule="evenodd" clip-rule="evenodd" d="M147.8 9.3001C149.3 9.8001 150.9 10.5 151.6 11.2C152.3 11.9 153.1 13.4001 153.7 14.9001C154.1 16.0001 155.7 16.0001 156.2 14.9001C156.7 13.5001 157.4 12.1 158.1 11.5C158.9 10.8 160.6 10.0001 162.2 9.40007C163.3 9.00007 163.3 7.50002 162.2 7.10002C160.6 6.50002 159 5.80002 158.2 5.10002C157.5 4.40002 156.8 3.00005 156.2 1.50005C155.8 0.400049 154.2 0.400049 153.7 1.50005C153.1 2.90005 152.4 4.40002 151.7 5.10002C151 5.80002 149.4 6.50005 147.9 7.00005C146.7 7.40005 146.7 8.9001 147.8 9.3001Z" fill="#B44694"/>
<path fill-rule="evenodd" clip-rule="evenodd" d="M36 140.7C34.3 140.7 33 142 33 143.7C33 145.4 34.3 146.7 36 146.7C37.7 146.7 39 145.4 39 143.7C39 142.1 37.7 140.7 36 140.7Z" fill="#495FA9"/>
<path fill-rule="evenodd" clip-rule="evenodd" d="M30 66.7C30 65.6 29.1 64.7 28 64.7C26.9 64.7 26 65.6 26 66.7C26 67.8 26.9 68.7 28 68.7C29.1 68.7 30 67.8 30 66.7Z" fill="#495FA9"/>
<path fill-rule="evenodd" clip-rule="evenodd" d="M113 10.7C114.7 10.7 116 9.39995 116 7.69995C116 5.99995 114.7 4.69995 113 4.69995C111.3 4.69995 110 5.99995 110 7.69995C110 9.29995 111.3 10.7 113 10.7Z" fill="#495FA9"/>
<path fill-rule="evenodd" clip-rule="evenodd" d="M151.1 138.1C149.5 137.5 147.9 136.8 147.1 136.1C146.4 135.4 145.7 134 145.1 132.5C144.7 131.4 143.1 131.4 142.6 132.5C142 133.9 141.3 135.4 140.6 136.1C139.9 136.8 138.3 137.5 136.8 138C135.7 138.4 135.7 139.9 136.8 140.3C138.3 140.8 139.9 141.5 140.6 142.2C141.3 142.9 142.1 144.4 142.7 145.9C143.1 147 144.7 147 145.2 145.9C145.7 144.5 146.4 143.1 147.1 142.5C147.9 141.8 149.6 141 151.2 140.4C152.3 140 152.3 138.5 151.1 138.1Z" fill="#EB7444"/>
<path fill-rule="evenodd" clip-rule="evenodd" d="M23 82.9C21.2 82.3 19.3 81.4 18.5 80.6C17.7 79.8 16.9 78.2 16.3 76.6C15.8 75.4 14 75.4 13.5 76.6C12.8 78.2 12 79.8999 11.2 80.6999C10.4 81.4999 8.60005 82.3 6.90005 82.9C5.60005 83.4 5.60005 85.1 6.90005 85.5C8.60005 86.1 10.3 86.9 11.1 87.6C11.9 88.4 12.8 90.1 13.4 91.8C13.9 93 15.7 93 16.2 91.8C16.8 90.2 17.6 88.7 18.3 87.9C19.2 87.1 21.1 86.2 22.9 85.5C24.3 85.1 24.3 83.4 23 82.9Z" fill="#B44694"/>
<path fill-rule="evenodd" clip-rule="evenodd" d="M82 39.7C80.3 39.7 79 41 79 42.7C79 44.4 80.3 45.7 82 45.7C83.7 45.7 85 44.4 85 42.7C85 41 83.7 39.7 82 39.7Z" fill="#495FA9"/>
<path fill-rule="evenodd" clip-rule="evenodd" d="M166.2 26C162.7 21.2 155.2 20.4 143.8 23.7C141.8 24.3 140.7 26.4 141.2 28.4C141.8 30.4 143.9 31.6 145.8 31C155.4 28.2 159.3 29.4 160.1 30.5C161.6 32.6 159.1 38.9 152.2 48C141.8 29.4 121.8 16.8 99 16.8C65.3 16.8 38 44.1 38 77.8C38 93.8 44.2 108.4 54.3 119.3C43.1 123.2 37.2001 122.9 35.9001 121.2C35.1001 120.1 35.3 115.9 41.1 107.4C42.3 105.7 41.8 103.3 40.1 102.2C38.4 101 36.1001 101.4 34.9001 103.2C28.0001 113.2 26.3 120.8 29.8 125.7C32 128.8 35.7 130 40.2 130C46.1 130 53.3 127.9 60.3 125.2C70.8 133.8 84.3001 139 98.9001 139C132.6 139 159.9 111.7 159.9 78C159.9 70.2 158.4 62.7001 155.7 55.8C165.6 43.6 171 32.6 166.2 26ZM152 77.7C152 107 128.3 130.7 99 130.7C87.8 130.7 77.4 127.2 68.8 121.3C71.6 120 74.2 118.7 76.5 117.5C78.3 116.5 79.1 114.3 78.1 112.4C77.1 110.5 74.9 109.8 73 110.8C69.1 112.8 65.5 114.5 62.3 116C52.2 106.4 46 92.8 46 77.8C46 48.5 69.7 24.8 99 24.8C120 24.8 138.1 37 146.7 54.7C138 64.5 125.2 76.4 107.6 89.2C105.9 90.3999 105.5 92.8 106.8 94.5C107.5 95.5 108.7 96.1 109.8 96.1C110.6 96.1 111.3 95.9 112 95.4C124.4 86.4 138.7 74.4 149.7 62.6C151.2 67.2 152 72.4 152 77.7Z" fill="#495FA9"/>
<path fill-rule="evenodd" clip-rule="evenodd" d="M94.9 97.9001C92.6 99.4001 90.3 100.9 88 102.3C86.2 103.4 85.7 105.7 86.8 107.5C87.5 108.7 88.7 109.3 90 109.3C90.7 109.3 91.3 109.1 92 108.7C94.3 107.3 96.7 105.7 99.1 104.2C100.8 103.1 101.3 100.7 100.2 99C99 97.2 96.7 96.7001 94.9 97.9001Z" fill="#DE4875"/>
</svg>
