<svg width="234" height="156" viewBox="0 0 234 156" fill="none" xmlns="http://www.w3.org/2000/svg">
<path fill-rule="evenodd" clip-rule="evenodd" d="M43.8 125.2C45.7 126.3 47.9 126.9 50.1 126.9C51.2 126.9 52.3 126.8 53.4 126.5L83.4 118.5C86.7 117.6 89.4 115.5 91.1 112.6C92.8 109.7 93.2 106.3 92.4 103L89.9 93.7C89.3 91.6 87.1 90.3001 85 90.9001C82.9 91.5001 81.6 93.7001 82.2 95.8001L84.7 105.1C85 106.3 84.9 107.5 84.2 108.6C83.6 109.7 82.6 110.4 81.4 110.8L51.4 118.8C50.2 119.1 49 119 47.9 118.3C46.8 117.7 46.1 116.7 45.7 115.5L37.7 85.5C37.4 84.3 37.5 83.1 38.2 82C38.8 80.9 39.8 80.2001 41 79.8001L49.6 77.5C51.7 76.9 53 74.7 52.4 72.6C51.8 70.5 49.6 69.2001 47.5 69.8001L38.9 72.1C35.6 73 32.9 75.1 31.2 78C29.5 80.9 29.1 84.3 29.9 87.6L37.9 117.6C38.8 120.8 40.9 123.5 43.8 125.2Z" fill="#495FA9"/>
<path fill-rule="evenodd" clip-rule="evenodd" d="M63.7999 73.7L70.8999 71.8001C73.3999 71.1001 75.8999 72.6 76.5999 75.1C77.0999 76.9 78.6999 78.1 80.4999 78.1C80.7999 78.1 81.1999 78.1001 81.4999 78.0001C83.5999 77.4001 84.8999 75.2 84.2999 73.1C82.4999 66.4 75.5999 62.4 68.7999 64.2L61.6999 66.1C59.5999 66.7 58.2999 68.9001 58.8999 71.0001C59.3999 73.0001 61.5999 74.3 63.7999 73.7Z" fill="#495FA9"/>
<path fill-rule="evenodd" clip-rule="evenodd" d="M213.6 73L204.3 38.2C203.1 33.7 199.1 30.8 194.6 30.8C193.7 30.8 192.9 30.9 192 31.1L97.3001 56.5C92.0001 57.9 88.8001 63.4 90.2001 68.7L99.5001 103.5C100.7 108 104.7 110.9 109.2 110.9C110.1 110.9 110.9 110.8 111.8 110.6L206.5 85.2C211.8 83.9 215 78.4 213.6 73ZM144.4 93.6L134.1 55L160.2 48L170.6 86.6L144.4 93.6ZM109.7 102.9C109.5 102.9 109.3 103 109.2 103C108.5 103 107.5 102.5 107.3 101.5L98.0001 66.7C97.7001 65.6 98.3001 64.5 99.4001 64.3L126.3 57.1L136.6 95.7L109.7 102.9ZM204.4 77.6L178.2 84.6L167.8 46L194 39C194.2 39 194.4 38.9 194.5 38.9C195.2 38.9 196.2 39.4 196.4 40.4L205.7 75.2C206.1 76.2 205.5 77.3 204.4 77.6Z" fill="#495FA9"/>
<path fill-rule="evenodd" clip-rule="evenodd" d="M75.6 88.2L72.2 75.6C71.9 74.5 70.8 73.9 69.8 74.2L61.1 76.5001C60 76.8001 59.4 77.9001 59.7 78.9001L63.1 91.5001C63.4 92.6001 64.5 93.2001 65.5 92.9001L74.2 90.6C75.3 90.3 75.9 89.2 75.6 88.2Z" fill="#48A5DD"/>
<path fill-rule="evenodd" clip-rule="evenodd" d="M49.5 79.6L47.6 80.1C46.5 80.4 45.9 81.5 46.2 82.5L49.6 95.1C49.9 96.2 51 96.8 52 96.5L53.9 96C55 95.7 55.6 94.6 55.3 93.6L52 81C51.7 80 50.6 79.3 49.5 79.6Z" fill="#EB7444"/>
<path fill-rule="evenodd" clip-rule="evenodd" d="M68.2 95.3001L66.3 95.8001C65.2 96.1001 64.6 97.2 64.9 98.2L68.3 110.8C68.6 111.9 69.7 112.5 70.7 112.2L72.6 111.7C73.7 111.4 74.3 110.3 74 109.3L70.6 96.7C70.4 95.7 69.3 95.0001 68.2 95.3001Z" fill="#DE4875"/>
<path fill-rule="evenodd" clip-rule="evenodd" d="M58 134.3C61.6 133.3 64 130.1 63.9 126.5L49 130.5C50.7 133.6 54.4 135.3 58 134.3Z" fill="#DE4875"/>
<path fill-rule="evenodd" clip-rule="evenodd" d="M89.0001 119.8L74.1001 123.8C75.9001 126.9 79.5001 128.6 83.1001 127.6C86.7001 126.6 89.1001 123.3 89.0001 119.8Z" fill="#DE4875"/>
<path fill-rule="evenodd" clip-rule="evenodd" d="M34.3 54.9C34.9 53.3 35.7001 51.8 36.4001 51C37.3001 50.2 39.2 49.3 41 48.6C42.3 48.1 42.3 46.4 41 46C39.2 45.4 37.3 44.4999 36.5 43.6999C35.7 42.8999 34.9 41.2999 34.3 39.6999C33.8 38.4999 32 38.4999 31.5 39.6999C30.8 41.2999 30.0001 43 29.2 43.8C28.4 44.6 26.6 45.4 24.9 46C23.6 46.5 23.6 48.2 24.9 48.6C26.6 49.2 28.3 49.9999 29.1 50.6999C29.9 51.4999 30.8 53.2 31.4 54.9C32 56.2 33.8 56.2 34.3 54.9Z" fill="#EB7444"/>
<path fill-rule="evenodd" clip-rule="evenodd" d="M232.8 98.2C230.5 97.4 228.1 96.3001 227 95.3001C226 94.3001 225 92.2 224.2 90.1C223.6 88.5 221.3 88.5 220.7 90.1C219.9 92.2 218.8 94.4001 217.8 95.4001C216.8 96.4001 214.5 97.4 212.3 98.2C210.7 98.8 210.7 101 212.3 101.6C214.5 102.4 216.7 103.4 217.7 104.3C218.8 105.3 219.8 107.5 220.7 109.7C221.3 111.3 223.6 111.2 224.2 109.7C225 107.7 225.9 105.6 226.9 104.7C228 103.6 230.5 102.5 232.8 101.6C234.4 101 234.4 98.8 232.8 98.2Z" fill="#DE4875"/>
<path fill-rule="evenodd" clip-rule="evenodd" d="M119.8 22.5C121.3 23 122.9 23.7001 123.6 24.4001C124.3 25.1001 125.1 26.6 125.7 28.1C126.1 29.2 127.7 29.2 128.2 28.1C128.7 26.7 129.4 25.3 130.1 24.7C130.9 24 132.6 23.2 134.2 22.6C135.3 22.2 135.3 20.7001 134.2 20.3001C132.6 19.7001 131 19.0001 130.2 18.3001C129.5 17.6001 128.8 16.2 128.2 14.7C127.8 13.6 126.2 13.6 125.7 14.7C125.1 16.1 124.4 17.6001 123.7 18.3001C123 19.0001 121.4 19.7 119.9 20.2C118.7 20.6 118.7 22.1 119.8 22.5Z" fill="#495FA9"/>
<path fill-rule="evenodd" clip-rule="evenodd" d="M99.1001 147.2C97.5001 146.6 95.9001 145.9 95.1001 145.2C94.4001 144.5 93.7001 143.1 93.1001 141.6C92.7001 140.5 91.1001 140.5 90.6001 141.6C90.0001 143 89.3001 144.5 88.6001 145.2C87.9001 145.9 86.3001 146.6 84.8001 147.1C83.7001 147.5 83.7001 149 84.8001 149.4C86.3001 149.9 87.9001 150.6 88.6001 151.3C89.3001 152 90.1001 153.5 90.7001 155C91.1001 156.1 92.7001 156.1 93.2001 155C93.7001 153.6 94.4001 152.2 95.1001 151.6C95.9001 150.9 97.6001 150.1 99.2001 149.5C100.3 149.1 100.3 147.6 99.1001 147.2Z" fill="#B44694"/>
<path fill-rule="evenodd" clip-rule="evenodd" d="M4 76.9C4 75.8 3.1 74.9 2 74.9C0.9 74.9 0 75.8 0 76.9C0 78 0.9 78.9 2 78.9C3.1 78.9 4 78 4 76.9Z" fill="#495FA9"/>
<path fill-rule="evenodd" clip-rule="evenodd" d="M14 115.9C11.8 115.9 10 117.7 10 119.9C10 122.1 11.8 123.9 14 123.9C16.2 123.9 18 122.1 18 119.9C18 117.7 16.2 115.9 14 115.9Z" fill="#495FA9"/>
<path fill-rule="evenodd" clip-rule="evenodd" d="M223 47.8C224.7 47.8 226 46.5 226 44.8C226 43.1 224.7 41.8 223 41.8C221.3 41.8 220 43.1 220 44.8C220 46.5 221.3 47.8 223 47.8Z" fill="#495FA9"/>
<path d="M126.5 131.9C127.881 131.9 129 130.781 129 129.4C129 128.019 127.881 126.9 126.5 126.9C125.119 126.9 124 128.019 124 129.4C124 130.781 125.119 131.9 126.5 131.9Z" fill="#495FA9"/>
<path fill-rule="evenodd" clip-rule="evenodd" d="M184.8 9.50005C186.3 10 187.9 10.7001 188.6 11.4001C189.3 12.1001 190.1 13.6 190.7 15.1C191.1 16.2 192.7 16.2 193.2 15.1C193.7 13.7 194.4 12.3 195.1 11.7C195.9 11 197.6 10.2 199.2 9.60002C200.3 9.20002 200.3 7.7001 199.2 7.3001C197.6 6.7001 196 6.0001 195.2 5.3001C194.5 4.6001 193.8 3.2 193.2 1.7C192.8 0.6 191.2 0.6 190.7 1.7C190.1 3.1 189.4 4.6001 188.7 5.3001C188 6.0001 186.4 6.7 184.9 7.2C183.7 7.6 183.7 9.10005 184.8 9.50005Z" fill="#48A5DD"/>
<path fill-rule="evenodd" clip-rule="evenodd" d="M41 142.9C39.3 142.9 38 144.2 38 145.9C38 147.6 39.3 148.9 41 148.9C42.7 148.9 44 147.6 44 145.9C44 144.2 42.7 142.9 41 142.9Z" fill="#48A5DD"/>
<path fill-rule="evenodd" clip-rule="evenodd" d="M52 59.8C53.1 59.8 54 58.9 54 57.8C54 56.7 53.1 55.8 52 55.8C50.9 55.8 50 56.7 50 57.8C50 58.9 50.9 59.8 52 59.8Z" fill="#495FA9"/>
<path d="M152 20.8C153.657 20.8 155 19.4569 155 17.8C155 16.1432 153.657 14.8 152 14.8C150.343 14.8 149 16.1432 149 17.8C149 19.4569 150.343 20.8 152 20.8Z" fill="#495FA9"/>
<path fill-rule="evenodd" clip-rule="evenodd" d="M166.1 136.2C164.5 135.6 162.9 134.9 162.1 134.2C161.4 133.5 160.7 132.1 160.1 130.6C159.7 129.5 158.1 129.5 157.6 130.6C157 132 156.3 133.5 155.6 134.2C154.9 134.9 153.3 135.6 151.8 136.1C150.7 136.5 150.7 138 151.8 138.4C153.3 138.9 154.9 139.6 155.6 140.3C156.3 141 157.1 142.5 157.7 144C158.1 145.1 159.7 145.1 160.2 144C160.7 142.6 161.4 141.2 162.1 140.6C162.9 139.9 164.6 139.1 166.2 138.5C167.3 138.1 167.3 136.6 166.1 136.2Z" fill="#EB7444"/>
<path fill-rule="evenodd" clip-rule="evenodd" d="M19 98.1C17.2 97.5 15.3 96.6 14.5 95.8C13.7 95 12.9 93.4 12.3 91.8C11.8 90.6 10 90.6 9.50005 91.8C8.80005 93.4 8.00005 95.1 7.20005 95.9C6.40005 96.7 4.60005 97.5 2.90005 98.1C1.60005 98.6 1.60005 100.3 2.90005 100.7C4.60005 101.3 6.30005 102.1 7.10005 102.8C7.90005 103.6 8.80005 105.3 9.40005 107C9.90005 108.2 11.7 108.2 12.2 107C12.8 105.4 13.6 103.8 14.3 103.1C15.2 102.3 17.1 101.4 18.9 100.7C20.3 100.2 20.3 98.5 19 98.1Z" fill="#495FA9"/>
<path d="M93 41.8C94.6569 41.8 96 40.4569 96 38.8C96 37.1432 94.6569 35.8 93 35.8C91.3431 35.8 90 37.1432 90 38.8C90 40.4569 91.3431 41.8 93 41.8Z" fill="#DE4875"/>
</svg>
