<svg width="147" height="190" viewBox="0 0 147 190" fill="none" xmlns="http://www.w3.org/2000/svg">
<path fill-rule="evenodd" clip-rule="evenodd" d="M105.2 156.3V117.8C105.2 109.2 97.5 89.6 90 87.1V63.2C90 61 88.2 59.2 86 59.2C83.9 59.2 82.2 60.8 82 62.9H68V43.9H82V44C82 46.2 83.8 48 86 48C88.2 48 90 46.2 90 44V30.9C90 28.7 88.2 26.9 86 26.9C83.8 26.9 82 28.7 82 30.9V35.9H68V30.9C68 24.2 72.3 13.7 75 9.90002C75.9 11.2 77.3 13.6 78.7 17.2C79.5 19.3 81.8 20.2 83.9 19.4C86 18.6 86.9 16.2 86.1 14.2C80.8 0.899951 76.4 0.900024 75 0.900024C66.8 0.900024 60 22.7 60 30.9V87.2C52.5 89.7999 44.8 109.3 44.8 117.9V156.4L35 167.3C34.3 168 34 169 34 170V176C34 178.2 35.8 180 38 180H63.6C63.7 180 63.7 180 63.8 180C63.9 180 63.9 180 64 180H86C86.1 180 86.1 180 86.2 180C86.2999 180 86.3 180 86.4 180H112C114.2 180 116 178.2 116 176V170C116 169 115.6 168.1 115 167.3L105.2 156.3ZM90.4 151.9V116.9H97.1C97.1 117.2 97.1 117.6 97.1 117.9V151.9H90.4ZM52.8 117.9C52.8 117.6 52.8 117.2 52.8 116.9H52.9H59.5V151.9H53C52.9 151.9 52.9 151.9 52.8 151.9V117.9ZM68 116.9H82V151.9H68V116.9ZM69.7 108.9C71.4 104.3 73.2 99.7 74.7 96.7C76.3 99.7 78.2999 104.3 80.2 108.9H69.7ZM95.3 108.9H90.4V98.6C92.1 101.3 94 105 95.3 108.9ZM82 70.9V93.5C78.1 85.9 76.2 85.9 74.5 85.9C72.9 85.9 71.2 85.9 68 92V70.9H82ZM59.6 98.5V108.8H54.7C56 105 57.9 101.3 59.6 98.5ZM42 171.9V171.4L51.8 160.5C52 160.3 52.2 160 52.3 159.8C52.5 159.8 52.8 159.9 53 159.9H59.6V171.9H42ZM68 171.9V159.9H82V171.9H68ZM108 171.9H90.4V159.9H97.7C97.7999 160.1 98 160.4 98.2 160.6L108 171.5V171.9Z" fill="#495FA9"/>
<path fill-rule="evenodd" clip-rule="evenodd" d="M81 181.9H71C68.8 181.9 67 183.7 67 185.9C67 188.1 68.8 189.9 71 189.9H81C83.2 189.9 85 188.1 85 185.9C85 183.7 83.2 181.9 81 181.9Z" fill="#DE4875"/>
<path fill-rule="evenodd" clip-rule="evenodd" d="M56 181.9H46C43.8 181.9 42 183.7 42 185.9C42 188.1 43.8 189.9 46 189.9H56C58.2 189.9 60 188.1 60 185.9C60 183.7 58.2 181.9 56 181.9Z" fill="#DE4875"/>
<path fill-rule="evenodd" clip-rule="evenodd" d="M105 181.9H95C92.8 181.9 91 183.7 91 185.9C91 188.1 92.8 189.9 95 189.9H105C107.2 189.9 109 188.1 109 185.9C109 183.7 107.2 181.9 105 181.9Z" fill="#DE4875"/>
<path fill-rule="evenodd" clip-rule="evenodd" d="M146 119.9C144.1 119.2 142.1 118.3 141.3 117.4C140.5 116.6 139.6 114.7 139 112.9C138.5 111.5 136.6 111.5 136.1 112.9C135.4 114.7 134.6 116.6 133.7 117.5C132.8 118.4 131 119.2 129.1 119.9C127.8 120.4 127.8 122.3 129.1 122.8C130.9 123.5 132.7 124.3 133.6 125.2C134.5 126.1 135.4 128 136.1 129.9C136.6 131.2 138.5 131.2 139 129.9C139.6 128.2 140.4 126.4 141.2 125.6C142.1 124.7 144.2 123.7 146.1 123C147.3 122.4 147.3 120.4 146 119.9Z" fill="#48A5DD"/>
<path fill-rule="evenodd" clip-rule="evenodd" d="M39.1 49.3001C40.4 48.8001 40.4 47 39.1 46.5C37.3 45.8 35.4 45 34.6 44.1C33.8 43.3 33 41.5001 32.4 39.8001C31.9 38.5001 30.1 38.5001 29.6 39.8001C28.9 41.5001 28.1 43.3 27.3 44.1C26.5 44.9 24.7 45.7 23 46.4C21.7 46.9 21.7 48.7 23 49.2C24.7 49.8 26.4 50.6 27.2 51.4C28 52.2 28.9 54.0001 29.5 55.8001C30 57.1001 31.8 57.1001 32.3 55.8001C32.9 54.1001 33.7 52.5 34.4 51.7C35.3 50.9 37.2 50.0001 39.1 49.3001Z" fill="#DE4875"/>
<path fill-rule="evenodd" clip-rule="evenodd" d="M16.1 118.2C14.5 117.6 12.9 116.9 12.1 116.2C11.4 115.5 10.7 114.1 10.1 112.6C9.69996 111.5 8.09996 111.5 7.59996 112.6C6.99996 114 6.29996 115.5 5.59996 116.2C4.89996 116.9 3.29998 117.6 1.79998 118.1C0.699976 118.5 0.699976 120 1.79998 120.4C3.29998 120.9 4.89996 121.6 5.59996 122.3C6.29996 123 7.1 124.5 7.7 126C8.1 127.1 9.7 127.1 10.2 126C10.7 124.6 11.4 123.2 12.1 122.6C12.9 121.9 14.6 121.1 16.2 120.5C17.3 120.1 17.3 118.6 16.1 118.2Z" fill="#48A5DD"/>
<path fill-rule="evenodd" clip-rule="evenodd" d="M125.1 71.2C123.5 70.6 121.9 69.9 121.1 69.2C120.4 68.5 119.7 67.1 119.1 65.6C118.7 64.5 117.1 64.5 116.6 65.6C116 67 115.3 68.5 114.6 69.2C113.9 69.9 112.3 70.6 110.8 71.1C109.7 71.5 109.7 73.0001 110.8 73.4001C112.3 73.9001 113.9 74.6001 114.6 75.3001C115.3 76.0001 116.1 77.5 116.7 79C117.1 80.1 118.7 80.1 119.2 79C119.7 77.6 120.4 76.2 121.1 75.6C121.9 74.9 123.6 74.1 125.2 73.5C126.3 73.1 126.3 71.6 125.1 71.2Z" fill="#EB7444"/>
<path fill-rule="evenodd" clip-rule="evenodd" d="M100 56.9C101.7 56.9 103 55.6 103 53.9C103 52.2 101.7 50.9 100 50.9C98.3 50.9 97 52.2 97 53.9C97 55.5 98.3 56.9 100 56.9Z" fill="#495FA9"/>
<path fill-rule="evenodd" clip-rule="evenodd" d="M49 60.4C49 61.8 50.1 62.9 51.5 62.9C52.9 62.9 54 61.8 54 60.4C54 59 52.9 57.9 51.5 57.9C50.1 57.9 49 59 49 60.4Z" fill="#495FA9"/>
<path fill-rule="evenodd" clip-rule="evenodd" d="M29.5 146.9C28.7 146.9 28 147.6 28 148.4C28 149.2 28.7 149.9 29.5 149.9C30.3 149.9 31 149.2 31 148.4C31 147.5 30.3 146.9 29.5 146.9Z" fill="#495FA9"/>
<path fill-rule="evenodd" clip-rule="evenodd" d="M50 14.9C51.7 14.9 53 13.6 53 11.9C53 10.2 51.7 8.90002 50 8.90002C48.3 8.90002 47 10.2 47 11.9C47 13.5 48.3 14.9 50 14.9Z" fill="#EB7444"/>
<path fill-rule="evenodd" clip-rule="evenodd" d="M37 100.9C35.3 100.9 34 102.2 34 103.9C34 105.6 35.3 106.9 37 106.9C38.7 106.9 40 105.6 40 103.9C40 102.2 38.7 100.9 37 100.9Z" fill="#495FA9"/>
<path fill-rule="evenodd" clip-rule="evenodd" d="M122 95.9C120.3 95.9 119 97.2 119 98.9C119 100.6 120.3 101.9 122 101.9C123.7 101.9 125 100.6 125 98.9C125 97.2 123.7 95.9 122 95.9Z" fill="#495FA9"/>
<path fill-rule="evenodd" clip-rule="evenodd" d="M141.1 158.2C139.5 157.6 137.9 156.9 137.1 156.2C136.4 155.5 135.7 154.1 135.1 152.6C134.7 151.5 133.1 151.5 132.6 152.6C132 154 131.3 155.5 130.6 156.2C129.9 156.9 128.3 157.6 126.8 158.1C125.7 158.5 125.7 160 126.8 160.4C128.3 160.9 129.9 161.6 130.6 162.3C131.3 163 132.1 164.5 132.7 166C133.1 167.1 134.7 167.1 135.2 166C135.7 164.6 136.4 163.2 137.1 162.6C137.9 161.9 139.6 161.1 141.2 160.5C142.3 160.1 142.3 158.6 141.1 158.2Z" fill="#DE4875"/>
<path fill-rule="evenodd" clip-rule="evenodd" d="M120.5 144.9C119.7 144.9 119 145.6 119 146.4C119 147.2 119.7 147.9 120.5 147.9C121.3 147.9 122 147.2 122 146.4C122 145.5 121.3 144.9 120.5 144.9Z" fill="#495FA9"/>
<path fill-rule="evenodd" clip-rule="evenodd" d="M21 162.9C19.3 162.9 18 164.2 18 165.9C18 167.6 19.3 168.9 21 168.9C22.7 168.9 24 167.6 24 165.9C24 164.2 22.7 162.9 21 162.9Z" fill="#EB7444"/>
</svg>
