<svg width="198" height="144" viewBox="0 0 198 144" fill="none" xmlns="http://www.w3.org/2000/svg">
<path fill-rule="evenodd" clip-rule="evenodd" d="M109.5 54C108.4 52.1 105.9 51.5 104 52.7C102.1 53.8 101.5 56.3 102.7 58.2L109.4 69.2C109.7 69.8 109.8 70.5 109.7 71.2C109.5 71.9 109.1 72.4 108.5 72.8L98.2 78.7C97 79.4 95.4 79 94.6 77.7L87.9001 66.7C86.8001 64.8 84.3001 64.2 82.4001 65.4C80.5001 66.5 79.9 69 81.1 70.9L87.8001 81.9C89.8001 85.3 93.3001 87.2 97.0001 87.2C98.8001 87.2 100.6 86.7 102.3 85.8L112.6 79.9C115.1 78.5 116.8 76.2 117.5 73.5C118.2 70.8 117.9 67.9 116.4 65.4L109.5 54Z" fill="#495FA9"/>
<path fill-rule="evenodd" clip-rule="evenodd" d="M196.6 20.4L188.9 7.09998C187.3 4.39998 184.5 2.79999 181.5 2.79999C180.1 2.79999 178.6 3.20002 177.2 3.90002L115.2 39.7C111.1 42.1 109.7 47.3 112.1 51.3L119.8 64.6C121.4 67.3 124.2 68.9 127.2 68.9C128.6 68.9 130.1 68.5 131.5 67.8L193.5 32C197.6 29.7 199 24.5 196.6 20.4ZM150.5 47.7L142.3 33.5L158.6 24.1L166.8 38.3L150.5 47.7ZM127.5 60.9C127.4 61 127.3 61 127.2 61C127.1 61 126.9 61 126.7 60.7L119 47.4C119 47.4 118.9 47.2 118.9 47C119 46.8 119.1 46.7 119.1 46.7L136.2 36.9L144.4 51.1L127.5 60.9ZM189.8 24.8C189.7 25 189.6 25.1 189.6 25.1L172.7 34.8L164.5 20.6L181.4 10.9C181.5 10.8 181.6 10.8 181.7 10.8C181.8 10.8 182 10.8 182.2 11.1L189.9 24.4C189.8 24.5 189.8 24.6 189.8 24.8Z" fill="#495FA9"/>
<path fill-rule="evenodd" clip-rule="evenodd" d="M85.8001 84.3L78.1 71C76.5 68.3 73.7 66.7 70.7 66.7C69.3 66.7 67.8001 67.1 66.4001 67.8L4.40006 103.6C0.30006 106 -1.09992 111.2 1.30008 115.2L9.00004 128.5C10.6 131.2 13.4001 132.8 16.4001 132.8C17.8001 132.8 19.3 132.4 20.7 131.7L82.7 95.9C86.8 93.6 88.2001 88.4 85.8001 84.3ZM38 112.5L29.8001 98.3L46.1 88.9L54.3001 103.1L38 112.5ZM16.7 124.8C16.6 124.9 16.5001 124.9 16.4001 124.9C16.3001 124.9 16.1001 124.9 15.9001 124.6L8.19999 111.3C8.19999 111.3 8.10001 111.1 8.10001 110.9C8.20001 110.7 8.30008 110.6 8.30008 110.6L23.7 101.7L31.9001 115.9L16.7 124.8ZM79 88.7C78.9 88.9 78.8001 89 78.8001 89L60.3001 99.7L52.1 85.5L70.6 74.8C70.7 74.7 70.8001 74.7 70.9001 74.7C71.0001 74.7 71.2001 74.7 71.4001 75L79.1 88.3C79 88.4 79 88.5 79 88.7Z" fill="#495FA9"/>
<path fill-rule="evenodd" clip-rule="evenodd" d="M100 52.9C100 50.7 98.2 48.9 96 48.9C93.8 48.9 92 50.7 92 52.9C92 55.1 93.8 56.9 96 56.9C98.2 56.9 100 55.1 100 52.9Z" fill="#EB7444"/>
<path fill-rule="evenodd" clip-rule="evenodd" d="M87 61.9C89.2 61.9 91 60.1 91 57.9C91 55.7 89.2 53.9 87 53.9C84.8 53.9 83 55.7 83 57.9C83 60.1 84.8 61.9 87 61.9Z" fill="#EB7444"/>
<path fill-rule="evenodd" clip-rule="evenodd" d="M91.5 64.6C90.8 65 90.5 66 90.9 66.7C91.3 67.4 92.2 67.7 93 67.2L101 62.6C101.7 62.2 102 61.2 101.6 60.5C101.2 59.8 100.3 59.5 99.5 60L91.5 64.6Z" fill="#DE4875"/>
<path fill-rule="evenodd" clip-rule="evenodd" d="M115 16.7C116.8 17.4 118.8 18.2 119.6 19.1C120.4 19.8 121.1 21.4 121.7 23C122.2 24.2 124 24.2 124.5 23C125.2 21.3 126 19.6 126.8 18.8C127.6 18 129.3 17.3 131 16.7C132.3 16.2 132.3 14.5 131 14.1C129.3 13.5 127.5 12.7 126.7 11.9C125.9 11.1 125.1 9.39996 124.4 7.79996C123.9 6.59996 122.1 6.59996 121.6 7.79996C121 9.39996 120.2 11.1 119.4 11.8C118.6 12.6 116.7 13.4 114.9 14.1C113.7 14.6 113.7 16.3 115 16.7Z" fill="#48A5DD"/>
<path fill-rule="evenodd" clip-rule="evenodd" d="M12.2 74.6C14.5 75.5 17 76.6 18.1 77.7C19.1 78.6 20.0001 80.7 20.8001 82.7C21.4001 84.3 23.7001 84.3 24.3001 82.7C25.2001 80.6 26.2001 78.3 27.3001 77.3C28.3001 76.3 30.5 75.3 32.7 74.6C34.3 74 34.3 71.8 32.7 71.2C30.5 70.4 28.2 69.4 27.2 68.4C26.2 67.4 25.1001 65.2 24.3001 63.1C23.7001 61.5 21.4001 61.5 20.8001 63.1C20.0001 65.2 19 67.3 18 68.3C16.9 69.3 14.5 70.4 12.2 71.2C10.6 71.8 10.6 74 12.2 74.6Z" fill="#48A5DD"/>
<path fill-rule="evenodd" clip-rule="evenodd" d="M194.2 57.2C192.7 56.6 191.1 56 190.4 55.3C189.7 54.6 189 53.1 188.4 51.7C188 50.6 186.4 50.6 185.9 51.7C185.3 53.1 184.6 54.6 183.9 55.3C183.1 56 181.5 56.7 179.9 57.3C178.8 57.7 178.8 59.2 179.9 59.6C181.5 60.2 183.3 60.9 184 61.7C184.7 62.3 185.3 63.7 185.9 65.1C186.3 66.2 187.9 66.2 188.4 65.1C189 63.6 189.7 62.1 190.5 61.4C191.2 60.7 192.8 60.1 194.3 59.5C195.3 59.1 195.3 57.6 194.2 57.2Z" fill="#DE4875"/>
<path fill-rule="evenodd" clip-rule="evenodd" d="M88.2 135.2C86.7 134.6 85.1001 134 84.4001 133.3C83.7001 132.6 83.0001 131.1 82.4001 129.7C82.0001 128.6 80.4001 128.6 79.9001 129.7C79.3001 131.1 78.6001 132.6 77.9001 133.3C77.1001 134 75.5001 134.7 73.9001 135.3C72.8001 135.7 72.8001 137.2 73.9001 137.6C75.5001 138.2 77.3 138.9 78 139.7C78.7 140.3 79.3001 141.7 79.9001 143.1C80.3001 144.2 81.9001 144.2 82.4001 143.1C83.0001 141.6 83.7 140.1 84.5 139.4C85.2 138.7 86.8001 138.1 88.3001 137.5C89.3001 137.1 89.3 135.6 88.2 135.2Z" fill="#EB7444"/>
<path fill-rule="evenodd" clip-rule="evenodd" d="M39 59.9C40.1 59.9 41 59 41 57.9C41 56.8 40.1 55.9 39 55.9C37.9 55.9 37 56.8 37 57.9C37 59 37.9 59.9 39 59.9Z" fill="#495FA9"/>
<path fill-rule="evenodd" clip-rule="evenodd" d="M134 78.9C131.8 78.9 130 80.7 130 82.9C130 85.1 131.8 86.9 134 86.9C136.2 86.9 138 85.1 138 82.9C138 80.7 136.2 78.9 134 78.9Z" fill="#DE4875"/>
<path fill-rule="evenodd" clip-rule="evenodd" d="M55 66.9C56.7 66.9 58 65.6 58 63.9C58 62.2 56.7 60.9 55 60.9C53.3 60.9 52 62.2 52 63.9C52 65.6 53.3 66.9 55 66.9Z" fill="#495FA9"/>
<path fill-rule="evenodd" clip-rule="evenodd" d="M76 120.4C76 119 74.9 117.9 73.5 117.9C72.1 117.9 71 119 71 120.4C71 121.8 72.1 122.9 73.5 122.9C74.9 122.9 76 121.8 76 120.4Z" fill="#495FA9"/>
<path fill-rule="evenodd" clip-rule="evenodd" d="M84.8001 9.59996C86.4001 10.2 88.2001 10.9 88.9001 11.7C89.6001 12.3 90.2001 13.7 90.8001 15.1C91.2001 16.2 92.8001 16.2 93.3001 15.1C93.9001 13.6 94.6001 12.1 95.4001 11.4C96.1001 10.7 97.7 10.1 99.2 9.49999C100.3 9.09999 100.3 7.6 99.2 7.2C97.7 6.6 96.1001 5.99998 95.4001 5.29998C94.7001 4.59998 94.0001 3.1 93.4001 1.7C93.0001 0.6 91.4001 0.6 90.9001 1.7C90.3001 3.1 89.6001 4.59998 88.9001 5.29998C88.1001 5.99998 86.5001 6.69998 84.9001 7.29998C83.7001 7.59998 83.7001 9.09996 84.8001 9.59996Z" fill="#EB7444"/>
<path fill-rule="evenodd" clip-rule="evenodd" d="M165 58.9C163.3 58.9 162 60.2 162 61.9C162 63.6 163.3 64.9 165 64.9C166.7 64.9 168 63.6 168 61.9C168 60.2 166.7 58.9 165 58.9Z" fill="#495FA9"/>
<path fill-rule="evenodd" clip-rule="evenodd" d="M146 13.9C147.1 13.9 148 13 148 11.9C148 10.8 147.1 9.90002 146 9.90002C144.9 9.90002 144 10.8 144 11.9C144 13 144.9 13.9 146 13.9Z" fill="#495FA9"/>
<path fill-rule="evenodd" clip-rule="evenodd" d="M73 30.9C74.7 30.9 76 29.6 76 27.9C76 26.2 74.7 24.9 73 24.9C71.3 24.9 70 26.2 70 27.9C70 29.6 71.3 30.9 73 30.9Z" fill="#DE4875"/>
<path fill-rule="evenodd" clip-rule="evenodd" d="M101.2 103.2C99.7 102.6 98.1001 102 97.4001 101.3C96.7001 100.6 96.0001 99.1 95.4001 97.7C95.0001 96.6 93.4001 96.6 92.9001 97.7C92.3001 99.1 91.6001 100.6 90.9001 101.3C90.1001 102 88.5001 102.7 86.9001 103.3C85.8001 103.7 85.8001 105.2 86.9001 105.6C88.5001 106.2 90.3 106.9 91 107.7C91.7 108.3 92.3001 109.7 92.9001 111.1C93.3001 112.2 94.9001 112.2 95.4001 111.1C96.0001 109.6 96.7 108.1 97.5 107.4C98.2 106.7 99.8001 106.1 101.3 105.5C102.3 105.1 102.3 103.6 101.2 103.2Z" fill="#48A5DD"/>
</svg>
