<svg width="200" height="151" viewBox="0 0 200 151" fill="none" xmlns="http://www.w3.org/2000/svg">
<path fill-rule="evenodd" clip-rule="evenodd" d="M112.9 70.3C111 71.4 110.3 73.9 111.4 75.8C111.7 76.4 111.8 77.1 111.7 77.8C111.5 78.5 111.1 79 110.5 79.4L100.2 85.3C98.9 86 97.2999 85.6 96.5999 84.3L90.5999 74C90.2999 73.4 90.1999 72.7 90.2999 72C90.4999 71.3 90.9 70.8 91.5 70.4C93.4 69.3 94.1 66.9 93 64.9C91.9 63 89.5 62.3 87.5 63.4C85 64.8 83.2999 67.1 82.5999 69.8C81.8999 72.5 82.2 75.4 83.7 77.8L89.7 88.1C91.7 91.5 95.2 93.4 98.9 93.4C100.7 93.4 102.5 92.9 104.2 92L114.5 86.1C117 84.7 118.7 82.4 119.4 79.7C120.1 77 119.8 74.1 118.3 71.7C117.2 69.8 114.8 69.2 112.9 70.3Z" fill="#495FA9"/>
<path fill-rule="evenodd" clip-rule="evenodd" d="M97.8999 57.6C95.9999 58.7 95.2999 61.1 96.3999 63.1C97.4999 65 99.8999 65.7 101.9 64.6C103.2 63.9 104.8 64.3 105.5 65.6C106.2 66.9 107.6 67.6 109 67.6C109.7 67.6 110.4 67.4 111 67.1C112.9 66 113.6 63.5 112.5 61.6C109.4 56.4 102.9 54.6 97.8999 57.6Z" fill="#495FA9"/>
<path fill-rule="evenodd" clip-rule="evenodd" d="M198.6 27.4L190.9 14.1C189.3 11.4 186.5 9.79999 183.5 9.79999C182.1 9.79999 180.6 10.2 179.2 10.9L117.2 46.7C113.1 49.1 111.7 54.3 114.1 58.3L121.8 71.6C123.4 74.3 126.2 75.9 129.2 75.9C130.6 75.9 132.1 75.5 133.5 74.8L195.5 39C199.6 36.7 201 31.5 198.6 27.4ZM151.7 55.1L143.5 40.9L159.8 31.5L168 45.7L151.7 55.1ZM129.5 67.9C129.4 68 129.3 68 129.2 68C129.1 68 128.9 68 128.7 67.7L121 54.4C121 54.4 120.9 54.2 120.9 54C121 53.8 121.1 53.7 121.1 53.7L137.4 44.3L145.6 58.5L129.5 67.9ZM191.8 31.8C191.7 32 191.6 32.1 191.6 32.1L174 42.3L165.8 28.1L183.4 17.9C183.5 17.8 183.6 17.8 183.7 17.8C183.8 17.8 184 17.8 184.2 18.1L191.9 31.4C191.8 31.5 191.8 31.6 191.8 31.8Z" fill="#495FA9"/>
<path fill-rule="evenodd" clip-rule="evenodd" d="M80.1999 78C78.5999 75.3 75.7999 73.7 72.7999 73.7C71.3999 73.7 69.8999 74.1 68.4999 74.8L6.49991 110.6C2.39991 113 0.999937 118.2 3.39994 122.2L11.0999 135.5C12.6999 138.2 15.4999 139.8 18.4999 139.8C19.8999 139.8 21.3999 139.4 22.7999 138.7L84.7999 102.9C88.8999 100.5 90.2999 95.3 87.8999 91.3L80.1999 78ZM39.2999 119.9L31.0999 105.7L47.3999 96.3L55.5999 110.5L39.2999 119.9ZM18.6999 131.8C18.5999 131.9 18.4999 131.9 18.3999 131.9C18.2999 131.9 18.0999 131.9 17.8999 131.6L10.1999 118.3C10.1999 118.3 10.0999 118.1 10.0999 117.9C10.1999 117.7 10.2999 117.6 10.2999 117.6L24.9999 109.1L33.1999 123.3L18.6999 131.8ZM80.9999 95.7C80.8999 95.9 80.7999 96 80.7999 96L61.4999 107.1L53.2999 92.9L72.5999 81.8C72.6999 81.7 72.7999 81.7 72.8999 81.7C72.9999 81.7 73.1999 81.7 73.3999 82L81.0999 95.3C80.9999 95.4 80.9999 95.5 80.9999 95.7Z" fill="#495FA9"/>
<path fill-rule="evenodd" clip-rule="evenodd" d="M100 67.9C96.7 67.9 94 70.6 94 73.9C94 77.2 96.7 79.9 100 79.9C103.3 79.9 106 77.2 106 73.9C106 70.6 103.3 67.9 100 67.9Z" fill="#DE4875"/>
<path fill-rule="evenodd" clip-rule="evenodd" d="M85.9999 25.7C87.6999 26.3 89.4 27.1 90.2 27.8C91 28.6 91.8999 30.3 92.4999 32C92.9999 33.2 94.7999 33.2 95.2999 32C95.8999 30.4 96.7 28.9 97.4 28.1C98.3 27.3 100.2 26.4 102 25.7C103.3 25.2 103.3 23.5 102 23.1C100.2 22.5 98.2999 21.6 97.4999 20.8C96.6999 20 95.8999 18.4 95.2999 16.8C94.7999 15.6 92.9999 15.6 92.4999 16.8C91.7999 18.4 91 20.1 90.2 20.9C89.4 21.7 87.6 22.5 85.9 23.1C84.7 23.5 84.6999 25.2 85.9999 25.7Z" fill="#DE4875"/>
<path fill-rule="evenodd" clip-rule="evenodd" d="M193.8 80.2C191.5 79.4 189.1 78.3 188 77.3C187 76.3 186 74.2 185.2 72.1C184.6 70.5 182.3 70.5 181.7 72.1C180.9 74.2 179.8 76.4 178.8 77.4C177.8 78.4 175.5 79.4 173.3 80.2C171.7 80.8 171.7 83 173.3 83.6C175.5 84.4 177.7 85.4 178.7 86.3C179.8 87.3 180.8 89.5 181.7 91.7C182.3 93.3 184.6 93.2 185.2 91.7C186 89.7 186.9 87.6 187.9 86.7C189 85.6 191.5 84.5 193.8 83.6C195.4 83 195.4 80.8 193.8 80.2Z" fill="#EB7444"/>
<path fill-rule="evenodd" clip-rule="evenodd" d="M6.69994 98.1C7.09994 99.2 8.69994 99.2 9.19994 98.1C9.69994 96.7 10.3999 95.3 11.0999 94.7C11.8999 94 13.5999 93.2 15.1999 92.6C16.2999 92.2 16.2999 90.7 15.1999 90.3C13.5999 89.7 11.9999 89 11.1999 88.3C10.4999 87.6 9.79994 86.2 9.19994 84.7C8.79994 83.6 7.19994 83.6 6.69994 84.7C6.09994 86.1 5.39994 87.6 4.69994 88.3C3.99994 89 2.39995 89.7 0.899951 90.2C-0.200049 90.6 -0.200049 92.1 0.899951 92.5C2.39995 93 3.99994 93.7 4.69994 94.4C5.39994 95.1 6.09994 96.6 6.69994 98.1Z" fill="#48A5DD"/>
<path fill-rule="evenodd" clip-rule="evenodd" d="M65.0998 142.2C63.4998 141.6 61.8998 140.9 61.0998 140.2C60.3998 139.5 59.6998 138.1 59.0998 136.6C58.6998 135.5 57.0998 135.5 56.5998 136.6C55.9998 138 55.2998 139.5 54.5998 140.2C53.8998 140.9 52.2999 141.6 50.7999 142.1C49.6999 142.5 49.6999 144 50.7999 144.4C52.2999 144.9 53.8998 145.6 54.5998 146.3C55.2998 147 56.0999 148.5 56.6999 150C57.0999 151.1 58.6999 151.1 59.1999 150C59.6999 148.6 60.3998 147.2 61.0998 146.6C61.8998 145.9 63.5999 145.1 65.1999 144.5C66.2999 144.1 66.2998 142.6 65.0998 142.2Z" fill="#DE4875"/>
<path fill-rule="evenodd" clip-rule="evenodd" d="M174 67.9C174 66.8 173.1 65.9 172 65.9C170.9 65.9 170 66.8 170 67.9C170 69 170.9 69.9 172 69.9C173.1 69.9 174 69 174 67.9Z" fill="#495FA9"/>
<path fill-rule="evenodd" clip-rule="evenodd" d="M51 77.9C53.2 77.9 55 76.1 55 73.9C55 71.7 53.2 69.9 51 69.9C48.8 69.9 47 71.7 47 73.9C47 76.1 48.8 77.9 51 77.9Z" fill="#EB7444"/>
<path fill-rule="evenodd" clip-rule="evenodd" d="M145 88.9C143.3 88.9 142 90.2 142 91.9C142 93.6 143.3 94.9 145 94.9C146.7 94.9 148 93.6 148 91.9C148 90.2 146.7 88.9 145 88.9Z" fill="#DE4875"/>
<path fill-rule="evenodd" clip-rule="evenodd" d="M79.5 120.9C78.1 120.9 77 122 77 123.4C77 124.8 78.1 125.9 79.5 125.9C80.9 125.9 82 124.8 82 123.4C82 122 80.9 120.9 79.5 120.9Z" fill="#495FA9"/>
<path fill-rule="evenodd" clip-rule="evenodd" d="M132.8 10.5C134.3 11 135.9 11.7 136.6 12.4C137.3 13.1 138.1 14.6 138.7 16.1C139.1 17.2 140.7 17.2 141.2 16.1C141.7 14.7 142.4 13.3 143.1 12.7C143.9 12 145.6 11.2 147.2 10.6C148.3 10.2 148.3 8.69998 147.2 8.29998C145.6 7.69998 144 6.99998 143.2 6.29998C142.5 5.59998 141.8 4.2 141.2 2.7C140.8 1.6 139.2 1.6 138.7 2.7C138.1 4.1 137.4 5.59998 136.7 6.29998C136 6.99998 134.4 7.7 132.9 8.2C131.7 8.6 131.7 10.1 132.8 10.5Z" fill="#EB7444"/>
<path fill-rule="evenodd" clip-rule="evenodd" d="M30 76.9C31.7 76.9 33 75.6 33 73.9C33 72.2 31.7 70.9 30 70.9C28.3 70.9 27 72.2 27 73.9C27 75.6 28.3 76.9 30 76.9Z" fill="#495FA9"/>
<path fill-rule="evenodd" clip-rule="evenodd" d="M78 51.9C79.1 51.9 80 51 80 49.9C80 48.8 79.1 47.9 78 47.9C76.9 47.9 76 48.8 76 49.9C76 51 76.9 51.9 78 51.9Z" fill="#495FA9"/>
<path fill-rule="evenodd" clip-rule="evenodd" d="M168 6.90002C169.7 6.90002 171 5.60002 171 3.90002C171 2.20002 169.7 0.900024 168 0.900024C166.3 0.900024 165 2.20002 165 3.90002C165 5.50002 166.3 6.90002 168 6.90002Z" fill="#48A5DD"/>
<path fill-rule="evenodd" clip-rule="evenodd" d="M109.1 121.2C107.5 120.6 105.9 119.9 105.1 119.2C104.4 118.5 103.7 117.1 103.1 115.6C102.7 114.5 101.1 114.5 100.6 115.6C99.9998 117 99.2998 118.5 98.5998 119.2C97.8998 119.9 96.2999 120.6 94.7999 121.1C93.6999 121.5 93.6999 123 94.7999 123.4C96.2999 123.9 97.8998 124.6 98.5998 125.3C99.2998 126 100.1 127.5 100.7 129C101.1 130.1 102.7 130.1 103.2 129C103.7 127.6 104.4 126.2 105.1 125.6C105.9 124.9 107.6 124.1 109.2 123.5C110.3 123.1 110.3 121.6 109.1 121.2Z" fill="#48A5DD"/>
</svg>
