<svg width="169" height="150" viewBox="0 0 169 150" fill="none" xmlns="http://www.w3.org/2000/svg">
<path fill-rule="evenodd" clip-rule="evenodd" d="M142.7 97C135 121.6 112 139.6 84.9001 139.6C51.5001 139.6 24.4001 112.5 24.4001 79.1001C24.4001 78.0001 24.4001 76.7999 24.5001 75.7C25.0001 66.9 27.4001 58.6 31.3001 51.2C31.4001 50.9 31.5001 50.7 31.7001 50.5C41.9001 31.6 62.0001 18.7 85.0001 18.7C96.2001 18.7 106.7 21.8001 115.7 27.1001C116 27.2001 116.2 27.4001 116.5 27.6001C123.4 31.8001 129.4 37.4 134.1 44C134.3 44.2 134.5 44.5 134.6 44.8C141.4 54.6 145.4 66.5 145.4 79.3C145.4 85.4 144.5 91.4 142.8 97C142.7 96.8 142.7 96.9 142.7 97ZM84.9001 131.6C104.2 131.6 121.1 121.1 130.2 105.6C123.4 109.2 113.6 113.8 101 117.9C85.9001 122.9 71.4001 125.2 61.8001 126.2C68.8001 129.6 76.6001 131.6 84.9001 131.6ZM84.9001 26.5C67.4001 26.5 52.0001 35.1 42.4001 48.2C49.5001 47.7 61.0001 46.5 73.0001 43.5C85.7001 40.3 98.2001 34.5 105.4 30.7C99.1001 28 92.2001 26.5 84.9001 26.5ZM113.9 35.3C108.2 38.5 92.1001 47.1 75.0001 51.3C58.4001 55.4 43.3001 56.3 37.5001 56.5C35.2001 61.4 33.6001 66.7001 32.9001 72.3C40.5001 72.5 58.5001 72 82.8001 65.3C106.3 58.8 120.1 49.9999 125.6 45.8999C122.2 41.7999 118.3 38.2 113.9 35.3ZM130.1 52.3999C123.8 57.0999 109.3 66.1999 84.8001 72.8999C62.0001 79.1999 44.6001 80.2 35.3001 80.2C34.2001 80.2 33.2001 80.2 32.3001 80.2C32.5001 88.2999 34.5001 95.9001 37.9001 102.6C39.5001 102.5 62.5001 100.8 91.0001 93.3C117.7 86.3 136.2 73.1001 136.9 72.6001C136.1 65.4001 133.7 58.4999 130.1 52.3999ZM93.1001 101.2C70.1001 107.2 50.9001 109.6 42.7001 110.4C45.1001 113.6 47.9001 116.6 50.9001 119.1C55.3001 118.9 76.5001 117.5 98.5001 110.3C118.9 103.6 131.7 95.6001 135.4 93.1001C136.4 89.6001 137 85.9001 137.2 82.1001C130 86.7001 114.1 95.6 93.1001 101.2Z" fill="#495FA9"/>
<path fill-rule="evenodd" clip-rule="evenodd" d="M168.3 47.1999C167 47.6999 165.7 48.2 165.1 48.8C164.5 49.4 163.8 50.6999 163.3 51.8999C162.9 52.7999 161.6 52.7999 161.2 51.8999C160.7 50.6999 160.2 49.5 159.6 49C158.9 48.4 157.5 47.6999 156.1 47.1999C155.1 46.7999 155.1 45.5999 156.1 45.1999C157.4 44.6999 158.9 44.1 159.5 43.5C160.1 42.9 160.7 41.7 161.2 40.5C161.6 39.6 162.9 39.6 163.3 40.5C163.8 41.7 164.4 43 165 43.6C165.6 44.2 167 44.7999 168.3 45.1999C169.2 45.5999 169.2 46.8999 168.3 47.1999Z" fill="#EB7444"/>
<path fill-rule="evenodd" clip-rule="evenodd" d="M152.7 69.6001C151.4 69.6001 150.4 68.6 150.4 67.3C150.4 66 151.4 65 152.7 65C154 65 155 66 155 67.3C155 68.5 153.9 69.6001 152.7 69.6001Z" fill="#495FA9"/>
<path fill-rule="evenodd" clip-rule="evenodd" d="M142.8 126.4C141.1 126.4 139.8 125 139.8 123.4C139.8 121.7 141.2 120.4 142.8 120.4C144.5 120.4 145.8 121.8 145.8 123.4C145.8 125.1 144.4 126.4 142.8 126.4Z" fill="#EB7444"/>
<path fill-rule="evenodd" clip-rule="evenodd" d="M124.8 26.3999C124 26.3999 123.3 25.6999 123.3 24.8999C123.3 24.0999 124 23.3999 124.8 23.3999C125.6 23.3999 126.3 24.0999 126.3 24.8999C126.3 25.6999 125.7 26.3999 124.8 26.3999Z" fill="#495FA9"/>
<path fill-rule="evenodd" clip-rule="evenodd" d="M105.4 7.1C104.3 7.5 103.1 8.00002 102.6 8.50002C102 9.00002 101.5 10.2001 101 11.3001C100.7 12.1001 99.5 12.1001 99.1 11.3001C98.7 10.3001 98.2 9.19998 97.7 8.69998C97.1 8.09998 95.8 7.6 94.6 7.1C93.7 6.8 93.8 5.70007 94.6 5.30007C95.8 4.90007 97.1 4.30007 97.6 3.80007C98.1 3.30007 98.7 2.2 99.1 1.1C99.4 0.3 100.6 0.3 101 1.1C101.4 2.2 102 3.30007 102.5 3.80007C103 4.30007 104.2 4.80007 105.4 5.30007C106.3 5.60007 106.3 6.8 105.4 7.1Z" fill="#48A5DD"/>
<path fill-rule="evenodd" clip-rule="evenodd" d="M53.3 19.3999C52 19.3999 51 18.4 51 17.1C51 15.8 52 14.8 53.3 14.8C54.6 14.8 55.6 15.8 55.6 17.1C55.6 18.4 54.6 19.3999 53.3 19.3999Z" fill="#EB7444"/>
<path fill-rule="evenodd" clip-rule="evenodd" d="M31.3 18.6C30.5 18.6 29.8 17.9 29.8 17.1C29.8 16.3 30.5 15.6 31.3 15.6C32.1 15.6 32.8 16.3 32.8 17.1C32.8 17.9 32.2 18.6 31.3 18.6Z" fill="#DE4875"/>
<path fill-rule="evenodd" clip-rule="evenodd" d="M19.8999 46.1002C18.2999 46.7002 16.5999 47.4 15.7999 48.2C14.9999 49 14.1999 50.6001 13.4999 52.3001C12.9999 53.5001 11.2999 53.5001 10.7999 52.3001C10.1999 50.8001 9.4999 49.2001 8.7999 48.5001C7.9999 47.7001 6.0999 46.9 4.2999 46.2C3.0999 45.7 3.0999 44.1002 4.2999 43.6002C5.9999 43.0002 7.79993 42.2 8.69993 41.4C9.49993 40.7 10.1999 39.0001 10.7999 37.5001C11.2999 36.3001 12.9999 36.3001 13.4999 37.5001C14.0999 39.1001 14.8999 40.8001 15.6999 41.5001C16.4999 42.3001 18.1999 43.0002 19.8999 43.6002C21.0999 44.0002 21.0999 45.7002 19.8999 46.1002Z" fill="#DE4875"/>
<path fill-rule="evenodd" clip-rule="evenodd" d="M5.40009 56.5C5.40009 57.8 4.40004 58.8 3.10004 58.8C1.80004 58.8 0.800049 57.8 0.800049 56.5C0.800049 55.2 1.80004 54.2 3.10004 54.2C4.30004 54.3 5.40009 55.3 5.40009 56.5Z" fill="#495FA9"/>
<path fill-rule="evenodd" clip-rule="evenodd" d="M12.4001 76.8999C12.4001 75.8999 13.2001 75 14.3001 75C15.3001 75 16.2001 75.7999 16.2001 76.8999C16.2001 77.9999 15.4001 78.8 14.3001 78.8C13.2001 78.8 12.4001 77.8999 12.4001 76.8999Z" fill="#495FA9"/>
<path fill-rule="evenodd" clip-rule="evenodd" d="M6.70015 107.4C7.90015 107 9.20015 106.4 9.70015 105.9C10.2001 105.4 10.8001 104.3 11.2001 103.2C11.5001 102.4 12.7001 102.4 13.1001 103.2C13.5001 104.3 14.1001 105.4 14.6001 105.9C15.1001 106.4 16.3001 106.9 17.5001 107.4C18.4001 107.7 18.3001 108.9 17.5001 109.2C16.4001 109.6 15.2001 110.1 14.7001 110.6C14.1001 111.1 13.6001 112.3 13.1001 113.4C12.8001 114.2 11.6001 114.2 11.2001 113.4C10.8001 112.4 10.3001 111.3 9.80012 110.8C9.20012 110.2 7.90015 109.7 6.70015 109.2C5.80015 108.8 5.80015 107.7 6.70015 107.4Z" fill="#EB7444"/>
<path fill-rule="evenodd" clip-rule="evenodd" d="M25.3 138.4C26.5 138 27.8 137.4 28.3 136.9C28.8 136.4 29.4 135.3 29.8 134.2C30.1 133.4 31.3 133.4 31.7 134.2C32.1 135.3 32.7 136.4 33.2 136.9C33.7 137.4 34.9 137.9 36.1 138.4C37 138.7 36.9 139.9 36.1 140.2C35 140.6 33.8 141.1 33.3 141.6C32.7 142.1 32.2 143.3 31.7 144.4C31.4 145.2 30.2 145.2 29.8 144.4C29.4 143.4 28.9 142.3 28.4 141.8C27.8 141.2 26.5 140.7 25.3 140.2C24.4 139.9 24.4 138.7 25.3 138.4Z" fill="#48A5DD"/>
<path fill-rule="evenodd" clip-rule="evenodd" d="M80.8 142.1C82.1 142.1 83.1 143.1 83.1 144.4C83.1 145.7 82.1 146.7 80.8 146.7C79.5 146.7 78.5 145.7 78.5 144.4C78.6 143.1 79.6 142.1 80.8 142.1Z" fill="#495FA9"/>
<path fill-rule="evenodd" clip-rule="evenodd" d="M115.5 143C116.7 142.6 118 142 118.5 141.5C119 141 119.6 139.9 120 138.8C120.3 138 121.5 138 121.9 138.8C122.3 139.9 122.9 141 123.4 141.5C123.9 142 125.1 142.5 126.3 143C127.2 143.3 127.1 144.5 126.3 144.8C125.2 145.2 124 145.7 123.5 146.2C122.9 146.7 122.4 147.9 121.9 149C121.6 149.8 120.4 149.8 120 149C119.6 148 119.1 146.9 118.6 146.4C118 145.8 116.7 145.3 115.5 144.8C114.6 144.5 114.6 143.3 115.5 143Z" fill="#DE4875"/>
<path fill-rule="evenodd" clip-rule="evenodd" d="M152.5 102.6C153.8 102.1 155.3 101.5 155.9 100.9C156.5 100.3 157.1 99.0999 157.6 97.8999C158 96.9999 159.3 96.9999 159.7 97.8999C160.2 99.0999 160.8 100.4 161.4 101C162 101.6 163.4 102.2 164.7 102.6C165.7 102.9 165.7 104.2 164.7 104.6C163.4 105.1 162.1 105.6 161.5 106.2C160.9 106.8 160.2 108.1 159.7 109.3C159.3 110.2 158 110.2 157.6 109.3C157.1 108.1 156.6 106.9 156 106.4C155.3 105.8 153.9 105.1 152.5 104.6C151.5 104.3 151.6 103 152.5 102.6Z" fill="#DE4875"/>
</svg>
