<svg width="198" height="197" viewBox="0 0 198 197" fill="none" xmlns="http://www.w3.org/2000/svg">
<path fill-rule="evenodd" clip-rule="evenodd" d="M43.5002 123.5C42.6002 122.5 41.2002 122.1 39.9002 122.4L26.5002 125.2C25.1002 125.5 23.9002 126.6 23.5002 128C23.1002 129.4 23.5002 130.9 24.5002 132L65.1002 172.7C65.9002 173.5 66.9002 173.9 67.9002 173.9C68.3002 173.9 68.7002 173.8 69.0002 173.7C70.4002 173.3 71.5002 172.1 71.8002 170.7L74.6002 157.2C74.9002 155.9 74.5002 154.5 73.5002 153.6L43.5002 123.5ZM65.4002 161.8L35.3002 131.6L39.4002 130.8L66.2002 157.7L65.4002 161.8Z" fill="#495FA9"/>
<path fill-rule="evenodd" clip-rule="evenodd" d="M108 124.5C107.4 123.9 106.6 123.5 105.7 123.4L75.8001 93.5L79.6002 89.7C83.3002 85.9 88.0002 84.1 93.1002 84.4C98.1002 84.7 103 87 107 91C109.7 93.7 111.7 96.9 112.7 100.3C113.4 102.4 115.6 103.6 117.7 102.9C119.8 102.2 121 100 120.3 97.9C120.2 97.5 120 97.2 119.9 96.8L123.8 92.9L127.2 96.3C128 97.1 129 97.5 130 97.5C131 97.5 132 97.1 132.8 96.3L151.2 77.8C151.8 77.2 152.2 76.4 152.3 75.5L153.6 66.2C153.8 65 153.4 63.7 152.5 62.8L135 45.2C134.1 44.3 132.9 43.9 131.7 44.1L122.4 45.3C121.5 45.4 120.7 45.8 120.1 46.4L101.7 64.9C100.1 66.5 100.1 69 101.7 70.6L104.5 73.4L100.3 77.6C98.1001 76.9 95.8002 76.5 93.5002 76.3C86.2002 75.9 79.3001 78.6 73.9001 84L43.6002 114.4C42.9002 115.2 42.4001 116.2 42.4001 117.2C42.4001 118.3 42.8002 119.3 43.6002 120L77.9001 154.5C78.7001 155.3 79.7002 155.7 80.7002 155.7C81.7002 155.7 82.7002 155.3 83.5002 154.5L107.8 130.1C109.6 128.6 109.6 126 108 124.5ZM124.9 53L130.9 52.2L145.7 67L144.9 73L130.2 87.7L126.6 84.1L113 70.6L110.2 67.8L124.9 53ZM108.4 80.9L110.2 79L118.3 87.1L116.5 89L112.8 85.3L108.4 80.9ZM80.9001 146L52.2002 117.2L54.0002 115.4L62.1002 123.5C63.7002 125.1 66.2002 125.1 67.7002 123.5C69.3002 121.9 69.3002 119.4 67.7002 117.9L59.5002 109.7L61.4001 107.8L69.6002 116C71.2002 117.6 73.7002 117.6 75.2002 116C76.8002 114.4 76.8002 111.9 75.2002 110.4L67.0002 102.2L70.1002 99.1L98.8001 127.8L80.9001 146Z" fill="#495FA9"/>
<path fill-rule="evenodd" clip-rule="evenodd" d="M118 106.5C115.9 106 113.7 107.4 113.3 109.6C112.7 112.2 111.6 114.6 109.9 116.8C108.5 118.5 108.8 121 110.5 122.4C111.2 123 112.1 123.3 113 123.3C114.2 123.3 115.3 122.8 116.1 121.8C118.6 118.7 120.3 115.1 121.1 111.3C121.5 109.1 120.2 107 118 106.5Z" fill="#DE4875"/>
<path fill-rule="evenodd" clip-rule="evenodd" d="M74.7002 124.8C73.1002 123.2 70.6001 123.2 69.1001 124.8C67.5001 126.4 67.5001 128.9 69.1001 130.4L72.2002 133.5C73.8002 135.1 76.3001 135.1 77.8001 133.5C79.4001 131.9 79.4001 129.4 77.8001 127.9L74.7002 124.8Z" fill="#DE4875"/>
<path fill-rule="evenodd" clip-rule="evenodd" d="M81.2 44.1L97.5 60.4C98.1 61 98.9 61.3 99.6 61.3C100.4 61.3 101.1 61 101.7 60.4L118 44.1C118.6 43.5 118.9 42.8 118.9 42C118.9 41.2 118.6 40.4 118 39.9L101.7 23.6C100.5 22.4 98.6 22.4 97.5 23.6L81.2 39.9C80 41.1 80 43 81.2 44.1ZM99.6 30L111.6 42L99.6 54L87.6 42L99.6 30Z" fill="#495FA9"/>
<path fill-rule="evenodd" clip-rule="evenodd" d="M74.9 37.9C75.5 38.5 76.3 38.8 77 38.8C77.8 38.8 78.5 38.5 79.1 37.9L95.4 21.6C96.6 20.4 96.6 18.5 95.4 17.4L79.2 0.999976C78 -0.200024 76.1 -0.200024 75 0.999976L58.7 17.3C57.5 18.5 57.5 20.4 58.7 21.5L74.9 37.9ZM77.1 7.4L89.1 19.4L77.1 31.4L65.1 19.4L77.1 7.4Z" fill="#495FA9"/>
<path fill-rule="evenodd" clip-rule="evenodd" d="M197.1 119L180.8 102.7C179.6 101.5 177.7 101.5 176.6 102.7L160.3 119C159.1 120.2 159.1 122.1 160.3 123.2L176.6 139.5C177.2 140.1 178 140.4 178.7 140.4C179.5 140.4 180.2 140.1 180.8 139.5L197.1 123.2C197.7 122.6 198 121.9 198 121.1C198 120.3 197.7 119.5 197.1 119ZM178.7 133.2L166.7 121.2L178.7 109.2L190.7 121.2L178.7 133.2Z" fill="#495FA9"/>
<path fill-rule="evenodd" clip-rule="evenodd" d="M174.6 96.4L158.3 80.1C157.1 78.9 155.2 78.9 154.1 80.1L137.8 96.4C136.6 97.6 136.6 99.5 137.8 100.6L154 117C154.6 117.6 155.4 117.9 156.1 117.9C156.9 117.9 157.6 117.6 158.2 117L174.5 100.7C175.7 99.5 175.7 97.6 174.6 96.4ZM156.1 110.6L144.1 98.6L156.1 86.6L168.1 98.6L156.1 110.6Z" fill="#495FA9"/>
<path fill-rule="evenodd" clip-rule="evenodd" d="M105.8 174C106.4 174.6 107.2 174.9 107.9 174.9C108.7 174.9 109.4 174.6 110 174L126.3 157.7C127.5 156.5 127.5 154.6 126.3 153.5L110 137.2C108.8 136 106.9 136 105.8 137.2L89.5001 153.5C88.3001 154.7 88.3001 156.6 89.5001 157.7L105.8 174ZM107.9 143.5L119.9 155.5L107.9 167.5L95.9001 155.5L107.9 143.5Z" fill="#495FA9"/>
<path fill-rule="evenodd" clip-rule="evenodd" d="M24.2 92.4L40.5 108.7C41.1 109.3 41.9 109.6 42.6 109.6C43.4 109.6 44.1 109.3 44.7 108.7L61 92.4C62.2 91.2 62.2 89.3 61 88.2L44.7 71.9C43.5 70.7 41.6 70.7 40.5 71.9L24.2 88.2C23 89.3 23 91.2 24.2 92.4ZM42.6 78.2L54.6 90.2L42.6 102.2L30.6 90.2L42.6 78.2Z" fill="#495FA9"/>
<path fill-rule="evenodd" clip-rule="evenodd" d="M132 159.2C130.8 158 128.9 158 127.8 159.2L111.5 175.5C110.3 176.7 110.3 178.6 111.5 179.7L127.8 196C128.4 196.6 129.2 196.9 129.9 196.9C130.7 196.9 131.4 196.6 132 196L148.3 179.7C149.5 178.5 149.5 176.6 148.3 175.5L132 159.2ZM129.9 189.6L117.9 177.6L129.9 165.6L141.9 177.6L129.9 189.6Z" fill="#495FA9"/>
<path fill-rule="evenodd" clip-rule="evenodd" d="M39 66.2L22.7 49.9C21.5 48.7 19.6 48.7 18.5 49.9L2.20005 66.2C1.00005 67.4 1.00005 69.3 2.20005 70.4L18.5 86.7C19.1 87.3 19.9 87.6 20.6 87.6C21.4 87.6 22.1 87.3 22.7 86.7L39 70.4C40.2 69.2 40.2 67.3 39 66.2ZM20.6 80.3L8.60004 68.3L20.6 56.3L32.6 68.3L20.6 80.3Z" fill="#495FA9"/>
<path fill-rule="evenodd" clip-rule="evenodd" d="M126.9 79.3C127.3 79.7 127.8 79.9 128.3 79.9C128.8 79.9 129.3 79.7 129.7 79.3L137.1 71.8C137.9 71 137.9 69.8 137.1 69L129.7 61.5C129.3 61.1 128.8 60.9 128.3 60.9C127.8 60.9 127.3 61.1 126.9 61.5L119.5 69C118.7 69.8 118.7 71 119.5 71.8L126.9 79.3ZM128.3 65.7L132.9 70.4L128.3 75.1L123.7 70.4L128.3 65.7Z" fill="#495FA9"/>
<path fill-rule="evenodd" clip-rule="evenodd" d="M46.0001 47.7C47.7001 48.3 49.4001 49.1 50.2001 49.8C51.0001 50.6 51.9001 52.3 52.5001 54C53.0001 55.2 54.8001 55.2 55.3001 54C55.9001 52.4 56.7001 50.9 57.4001 50.1C58.3001 49.3 60.2001 48.4 62.0001 47.7C63.3001 47.2 63.3001 45.5 62.0001 45.1C60.2001 44.5 58.3001 43.6 57.5001 42.8C56.7001 42 55.9001 40.4 55.3001 38.8C54.8001 37.6 53.0001 37.6 52.5001 38.8C51.8001 40.4 51.0001 42.1 50.2001 42.9C49.4001 43.7 47.6001 44.5 45.9001 45.1C44.7001 45.5 44.7001 47.2 46.0001 47.7Z" fill="#4369B0"/>
<path fill-rule="evenodd" clip-rule="evenodd" d="M151.8 131.2C149.5 130.4 147.1 129.3 146 128.3C145 127.3 144 125.2 143.2 123.1C142.6 121.5 140.3 121.5 139.7 123.1C138.9 125.2 137.8 127.4 136.8 128.4C135.8 129.4 133.5 130.4 131.3 131.2C129.7 131.8 129.7 134 131.3 134.6C133.5 135.4 135.7 136.4 136.7 137.3C137.8 138.3 138.8 140.5 139.7 142.7C140.3 144.3 142.6 144.2 143.2 142.7C144 140.7 144.9 138.6 145.9 137.7C147 136.6 149.5 135.5 151.8 134.6C153.4 134 153.4 131.8 151.8 131.2Z" fill="#EB7444"/>
<path fill-rule="evenodd" clip-rule="evenodd" d="M16.1001 113.2C14.5001 112.6 12.9001 111.9 12.1001 111.2C11.4001 110.5 10.7001 109.1 10.1001 107.6C9.70012 106.5 8.10012 106.5 7.60012 107.6C7.00012 109 6.30012 110.5 5.60012 111.2C4.90012 111.9 3.3001 112.6 1.8001 113.1C0.700098 113.5 0.700098 115 1.8001 115.4C3.3001 115.9 4.90012 116.6 5.60012 117.3C6.30012 118 7.10012 119.5 7.70012 121C8.10012 122.1 9.70012 122.1 10.2001 121C10.7001 119.6 11.4001 118.2 12.1001 117.6C12.9001 116.9 14.6001 116.1 16.2001 115.5C17.3001 115.1 17.3001 113.6 16.1001 113.2Z" fill="#EB7444"/>
<path fill-rule="evenodd" clip-rule="evenodd" d="M61.1001 186.2C59.5001 185.6 57.9001 184.9 57.1001 184.2C56.4001 183.5 55.7001 182.1 55.1001 180.6C54.7001 179.5 53.1001 179.5 52.6001 180.6C52.0001 182 51.3001 183.5 50.6001 184.2C49.9001 184.9 48.3001 185.6 46.8001 186.1C45.7001 186.5 45.7001 188 46.8001 188.4C48.3001 188.9 49.9001 189.6 50.6001 190.3C51.3001 191 52.1001 192.5 52.7001 194C53.1001 195.1 54.7001 195.1 55.2001 194C55.7001 192.6 56.4001 191.2 57.1001 190.6C57.9001 189.9 59.6001 189.1 61.2001 188.5C62.3001 188.1 62.3001 186.6 61.1001 186.2Z" fill="#4369B0"/>
<path fill-rule="evenodd" clip-rule="evenodd" d="M63 73.9C63 75 63.9 75.9 65 75.9C66.1 75.9 67 75 67 73.9C67 72.8 66.1 71.9 65 71.9C63.9 71.9 63 72.8 63 73.9Z" fill="#DE4875"/>
<path fill-rule="evenodd" clip-rule="evenodd" d="M190 88.9C192.2 88.9 194 87.1 194 84.9C194 82.7 192.2 80.9 190 80.9C187.8 80.9 186 82.7 186 84.9C186 87.1 187.8 88.9 190 88.9Z" fill="#4369B0"/>
<path fill-rule="evenodd" clip-rule="evenodd" d="M155 48.9C156.7 48.9 158 47.6 158 45.9C158 44.2 156.7 42.9 155 42.9C153.3 42.9 152 44.2 152 45.9C152 47.6 153.3 48.9 155 48.9Z" fill="#495FA9"/>
<path fill-rule="evenodd" clip-rule="evenodd" d="M166.5 76.9C167.9 76.9 169 75.8 169 74.4C169 73 167.9 71.9 166.5 71.9C165.1 71.9 164 73 164 74.4C164 75.8 165.1 76.9 166.5 76.9Z" fill="#48A5DD"/>
<path fill-rule="evenodd" clip-rule="evenodd" d="M128.8 33.5C130.3 34 131.9 34.7 132.6 35.4C133.3 36.1 134.1 37.6 134.7 39.1C135.1 40.2 136.7 40.2 137.2 39.1C137.7 37.7 138.4 36.3 139.1 35.7C139.9 35 141.6 34.2 143.2 33.6C144.3 33.2 144.3 31.7 143.2 31.3C141.6 30.7 140 30 139.2 29.3C138.5 28.6 137.8 27.2 137.2 25.7C136.8 24.6 135.2 24.6 134.7 25.7C134.1 27.1 133.4 28.6 132.7 29.3C132 30 130.4 30.7 128.9 31.2C127.7 31.6 127.7 33.1 128.8 33.5Z" fill="#EB7444"/>
<path fill-rule="evenodd" clip-rule="evenodd" d="M45 91.9C46.7 91.9 48 90.6 48 88.9C48 87.2 46.7 85.9 45 85.9C43.3 85.9 42 87.2 42 88.9C42 90.5 43.3 91.9 45 91.9Z" fill="#4369B0"/>
<path fill-rule="evenodd" clip-rule="evenodd" d="M13 141.9C11.9 141.9 11 142.8 11 143.9C11 145 11.9 145.9 13 145.9C14.1 145.9 15 145 15 143.9C15 142.8 14.1 141.9 13 141.9Z" fill="#DE4875"/>
<path fill-rule="evenodd" clip-rule="evenodd" d="M164 148.9C162.3 148.9 161 150.2 161 151.9C161 153.6 162.3 154.9 164 154.9C165.7 154.9 167 153.6 167 151.9C167 150.2 165.7 148.9 164 148.9Z" fill="#DE4875"/>
<path fill-rule="evenodd" clip-rule="evenodd" d="M110.1 188.2C108.5 187.6 106.9 186.9 106.1 186.2C105.4 185.5 104.7 184.1 104.1 182.6C103.7 181.5 102.1 181.5 101.6 182.6C101 184 100.3 185.5 99.6001 186.2C98.9001 186.9 97.3001 187.6 95.8001 188.1C94.7001 188.5 94.7001 190 95.8001 190.4C97.3001 190.9 98.9001 191.6 99.6001 192.3C100.3 193 101.1 194.5 101.7 196C102.1 197.1 103.7 197.1 104.2 196C104.7 194.6 105.4 193.2 106.1 192.6C106.9 191.9 108.6 191.1 110.2 190.5C111.3 190.1 111.3 188.6 110.1 188.2Z" fill="#48A5DD"/>
<path d="M92 184.9C93.6569 184.9 95 183.557 95 181.9C95 180.243 93.6569 178.9 92 178.9C90.3431 178.9 89 180.243 89 181.9C89 183.557 90.3431 184.9 92 184.9Z" fill="#DE4875"/>
</svg>
