<svg width="205" height="206" viewBox="0 0 205 206" fill="none" xmlns="http://www.w3.org/2000/svg">
<path fill-rule="evenodd" clip-rule="evenodd" d="M108.9 136.6C107.3 135.1 104.7 135.3 103.2 136.9L95.8001 144.2C94.2001 145.8 94.2001 148.3 95.8001 149.8C96.6001 150.6 97.6001 151 98.6001 151C99.6001 151 100.6 150.6 101.4 149.8L108.9 142.3C109.7 141.5 110.1 140.5 110.1 139.4C110.2 138.3 109.7 137.3 108.9 136.6Z" fill="#EB7444"/>
<path fill-rule="evenodd" clip-rule="evenodd" d="M60.8 137.1L57.9 139.2C56.3 140.3 56.7 142.7 58.5 143.3L61.9 144.3C62.6 144.5 63.2 145.1 63.4 145.8L64.4 149.2C65 151 67.4 151.4 68.5 149.8L70.6 146.9C71 146.3 71.8 145.9 72.5 145.9H76.1C78 145.9 79.1 143.7 78 142.2L75.9 139.4C75.4 138.8 75.3 138 75.6 137.3L76.8 133.9C77.4 132.1 75.7 130.4 73.9 131L70.5 132.2C69.8 132.4 69 132.3 68.4 131.9L65.6 129.8C64.1 128.7 61.9 129.8 61.9 131.7V135.3C61.8 135.9 61.4 136.6 60.8 137.1Z" fill="#DE4875"/>
<path fill-rule="evenodd" clip-rule="evenodd" d="M203.4 154.4L150.4 101.3C149.8 100.7 149.1 100.3 148.3 100.2C147.8 99.8 147.1 99.5 146.4 99.5H135L144.3 90.2C145.9 88.6 145.9 86.1 144.3 84.6L121.8 62C121 61.3 120 60.8 119 60.8C117.9 60.8 116.9 61.2 116.2 62L107 71.1V59.8C107 58.8 106.5 58 105.8 57.5C105.7 56.7 105.3 55.8 104.7 55.2L51.7002 2.09998C51.0002 1.29998 49.9002 0.900024 48.9002 0.900024C47.8002 0.900024 46.8002 1.29998 46.1002 2.09998L30.6002 17.7C29.0002 19.3 29.0002 21.8 30.6002 23.4L83.6002 76.5C84.3002 77.3 85.4002 77.7 86.4002 77.7C86.4002 77.7 86.4002 77.7 86.5002 77.7C87.0002 78.1 87.6002 78.3 88.3002 78.3H99.9002L98.0002 80.2C97.5002 80.4 97.1002 80.7 96.8002 81C96.4002 81.4 96.2002 81.8 96.0002 82.2L89.6002 88.6C89.4002 88.6 89.2002 88.7 89.0002 88.7L67.6002 95.6C67.0002 95.8 66.4002 96.1 66.0002 96.6L28.5002 134C28.1002 134.4 27.7002 135 27.5002 135.6L20.6002 156.9C20.5002 157.1 20.5002 157.3 20.5002 157.5L14.4002 163.6C13.6002 164.3 13.2002 165.4 13.2002 166.4C13.2002 167.5 13.6002 168.5 14.4002 169.2L37.1002 191.8C37.9002 192.5 38.9002 193 39.9002 193C41.0002 193 42.0002 192.6 42.7002 191.8L48.9002 185.7C49.0002 185.7 49.2002 185.7 49.3002 185.6L71.1002 179.5C71.9002 179.4 72.6002 179 73.1002 178.4L89.3002 162.3C90.9002 160.7 90.9002 158.2 89.3002 156.7C87.7002 155.1 85.2002 155.1 83.6002 156.7L70.0002 170.3L47.7002 148C46.1002 146.4 43.6002 146.4 42.0002 148C40.4002 149.6 40.4002 152.1 42.0002 153.7L62.0002 173.6L49.1002 177.2L47.5002 175.6L28.8002 157L34.7002 138.9L66.4002 107.3L88.8002 129.7C90.4002 131.3 92.9002 131.3 94.5002 129.7C96.1002 128.1 96.1002 125.6 94.5002 124L72.8002 102.3L89.1002 97.1L109.4 117.3L107.2 125C106.6 127.1 107.8 129.3 110 129.9C112.1 130.5 114.3 129.3 114.9 127.1L117.7 117.1C117.7 117 117.8 116.8 117.8 116.7L128.1 106.4V118.1C128.1 118.4 128.2 118.7 128.2 118.9C128 120.1 128.4 121.5 129.3 122.4L182.3 175.5C183 176.3 184.1 176.7 185.1 176.7C186.2 176.7 187.2 176.3 187.9 175.5L203.4 159.9C205 158.5 205 156 203.4 154.4ZM22.7002 166.3L24.8002 164.2L27.5002 166.8L41.8002 181.1L39.7002 183.2L22.7002 166.3ZM172.6 154.7L164.1 146.1C164.2 146 164.3 145.9 164.4 145.9L174 136.3L182.5 144.8L172.9 154.4C172.8 154.5 172.7 154.6 172.6 154.7ZM169.8 132L160.2 141.6C160.1 141.7 160 141.8 160 141.9L151.5 133.3C151.6 133.2 151.7 133.2 151.8 133.1L161.4 123.5L169.8 132ZM134.2 105.5H140.6L134.2 112V105.5ZM118.9 70.5L135.9 87.4L122.3 100.9L105.3 83.9L118.9 70.5ZM113.3 109.9L96.3002 93L99.7002 89.6L116.7 106.6L113.3 109.9ZM93.5002 72.1L100.9 64.6V72.1H93.5002ZM73.2002 54.7L64.7002 46.2L64.8002 46.1L74.6002 36.3L83.1002 44.8L73.3002 54.6C73.2002 54.6 73.2002 54.7 73.2002 54.7ZM70.4002 32.1L60.6002 41.9L60.5002 42L52.0002 33.5C52.0002 33.5 52.1002 33.5 52.1002 33.4L61.9002 23.6L70.4002 32.1ZM48.9002 10.5L57.6002 19.3L47.8002 29.1C47.8002 29.1 47.8002 29.2 47.7002 29.2L39.0002 20.4L48.9002 10.5ZM77.4002 59L77.5002 58.9L87.3002 49.1L96.2002 58L86.3002 67.9L77.4002 59ZM147.7 109.8L157.1 119.3L147.4 129C147.3 129.1 147.3 129.2 147.2 129.3L137.8 119.8L147.7 109.8ZM185.1 167.2L176.8 158.9C176.9 158.8 177 158.7 177.1 158.6L186.7 149L194.9 157.2L185.1 167.2Z" fill="#495FA9"/>
<path fill-rule="evenodd" clip-rule="evenodd" d="M105 40.7C106.8 41.4 108.8 42.2 109.6 43.1C110.4 43.8 111.1 45.4 111.7 47C112.2 48.2 114 48.2 114.5 47C115.2 45.3 116 43.6 116.8 42.8C117.6 42 119.3 41.3 121 40.7C122.3 40.2 122.3 38.5 121 38.1C119.3 37.5 117.5 36.7 116.7 35.9C115.9 35.1 115.1 33.4 114.4 31.8C113.9 30.6 112.1 30.6 111.6 31.8C111 33.4 110.2 35.1 109.4 35.8C108.6 36.6 106.7 37.4 104.9 38.1C103.7 38.5 103.7 40.2 105 40.7Z" fill="#DE4875"/>
<path fill-rule="evenodd" clip-rule="evenodd" d="M13.4001 139.7C14.3001 137.6 15.3001 135.3 16.4001 134.3C17.4001 133.3 19.6001 132.3 21.8001 131.6C23.4001 131 23.4001 128.8 21.8001 128.2C19.6001 127.4 17.3001 126.4 16.3001 125.4C15.3001 124.4 14.2001 122.2 13.4001 120.1C12.8001 118.5 10.5001 118.5 9.9001 120.1C9.1001 122.2 8.1001 124.3 7.1001 125.3C6.0001 126.3 3.6001 127.4 1.3001 128.2C-0.299902 128.8 -0.299902 131 1.3001 131.6C3.6001 132.5 6.1001 133.6 7.2001 134.7C8.2001 135.6 9.1001 137.7 9.9001 139.7C10.5001 141.2 12.8001 141.3 13.4001 139.7Z" fill="#48A5DD"/>
<path fill-rule="evenodd" clip-rule="evenodd" d="M183.8 116.5C185.4 117.1 187.2 117.8 187.9 118.6C188.6 119.2 189.2 120.6 189.8 122C190.2 123.1 191.8 123.1 192.3 122C192.9 120.5 193.6 119 194.4 118.3C195.1 117.6 196.7 117 198.2 116.4C199.3 116 199.3 114.5 198.2 114.1C196.7 113.5 195.1 112.9 194.4 112.2C193.7 111.5 193 110 192.4 108.6C192 107.5 190.4 107.5 189.9 108.6C189.3 110 188.6 111.5 187.9 112.2C187.1 112.9 185.5 113.6 183.9 114.2C182.7 114.6 182.7 116.1 183.8 116.5Z" fill="#DE4875"/>
<path fill-rule="evenodd" clip-rule="evenodd" d="M134.2 164.2C132.7 163.6 131.1 163 130.4 162.3C129.7 161.6 129 160.1 128.4 158.7C128 157.6 126.4 157.6 125.9 158.7C125.3 160.1 124.6 161.6 123.9 162.3C123.1 163 121.5 163.7 119.9 164.3C118.8 164.7 118.8 166.2 119.9 166.6C121.5 167.2 123.3 167.9 124 168.7C124.7 169.3 125.3 170.7 125.9 172.1C126.3 173.2 127.9 173.2 128.4 172.1C129 170.6 129.7 169.1 130.5 168.4C131.2 167.7 132.8 167.1 134.3 166.5C135.3 166.1 135.3 164.6 134.2 164.2Z" fill="#48A5DD"/>
<path fill-rule="evenodd" clip-rule="evenodd" d="M138 58.9C139.1 58.9 140 58 140 56.9C140 55.8 139.1 54.9 138 54.9C136.9 54.9 136 55.8 136 56.9C136 58 136.9 58.9 138 58.9Z" fill="#4369B0"/>
<path d="M34 107.9C36.2091 107.9 38 106.109 38 103.9C38 101.691 36.2091 99.9 34 99.9C31.7909 99.9 30 101.691 30 103.9C30 106.109 31.7909 107.9 34 107.9Z" fill="#DE4875"/>
<path fill-rule="evenodd" clip-rule="evenodd" d="M52 56.9C52 55.2 50.7 53.9 49 53.9C47.3 53.9 46 55.2 46 56.9C46 58.6 47.3 59.9 49 59.9C50.7 59.9 52 58.5 52 56.9Z" fill="#DE4875"/>
<path fill-rule="evenodd" clip-rule="evenodd" d="M46 77.4C46 76 44.9 74.9 43.5 74.9C42.1 74.9 41 76 41 77.4C41 78.8 42.1 79.9 43.5 79.9C44.9 79.9 46 78.8 46 77.4Z" fill="#495FA9"/>
<path fill-rule="evenodd" clip-rule="evenodd" d="M20.8002 53.5C22.4002 54.1 24.2002 54.8 24.9002 55.6C25.6002 56.2 26.2002 57.6 26.8002 59C27.2002 60.1 28.8002 60.1 29.3002 59C29.9002 57.5 30.6002 56 31.4002 55.3C32.1002 54.6 33.7002 54 35.2002 53.4C36.3002 53 36.3002 51.5 35.2002 51.1C33.7002 50.5 32.1002 49.9 31.4002 49.2C30.7002 48.5 30.0002 47 29.4002 45.6C29.0002 44.5 27.4002 44.5 26.9002 45.6C26.3002 47 25.6002 48.5 24.9002 49.2C24.1002 49.9 22.5002 50.6 20.9002 51.2C19.7002 51.6 19.7002 53.1 20.8002 53.5Z" fill="#4369B0"/>
<path fill-rule="evenodd" clip-rule="evenodd" d="M165 94.9C166.7 94.9 168 93.6 168 91.9C168 90.2 166.7 88.9 165 88.9C163.3 88.9 162 90.2 162 91.9C162 93.5 163.3 94.9 165 94.9Z" fill="#48A5DD"/>
<path fill-rule="evenodd" clip-rule="evenodd" d="M125 128.9C125 127.8 124.1 126.9 123 126.9C121.9 126.9 121 127.8 121 128.9C121 130 121.9 130.9 123 130.9C124.1 130.9 125 130 125 128.9Z" fill="#495FA9"/>
<path fill-rule="evenodd" clip-rule="evenodd" d="M8 156.9C6.3 156.9 5 158.2 5 159.9C5 161.6 6.3 162.9 8 162.9C9.7 162.9 11 161.6 11 159.9C11 158.2 9.7 156.9 8 156.9Z" fill="#DE4875"/>
<path fill-rule="evenodd" clip-rule="evenodd" d="M66.2002 197.2C64.7002 196.6 63.1002 196 62.4002 195.3C61.7002 194.6 61.0002 193.1 60.4002 191.7C60.0002 190.6 58.4002 190.6 57.9002 191.7C57.3002 193.1 56.6002 194.6 55.9002 195.3C55.1002 196 53.5002 196.7 51.9002 197.3C50.8002 197.7 50.8002 199.2 51.9002 199.6C53.5002 200.2 55.3002 200.9 56.0002 201.7C56.7002 202.3 57.3002 203.7 57.9002 205.1C58.3002 206.2 59.9002 206.2 60.4002 205.1C61.0002 203.6 61.7002 202.1 62.5002 201.4C63.2002 200.7 64.8002 200.1 66.3002 199.5C67.3002 199.1 67.3002 197.6 66.2002 197.2Z" fill="#DE4875"/>
</svg>
