<svg width="165" height="190" viewBox="0 0 165 190" fill="none" xmlns="http://www.w3.org/2000/svg">
<path fill-rule="evenodd" clip-rule="evenodd" d="M95.8 56.5H70.3C68.1 56.5 66.3 58.3 66.3 60.5V94.1C66.3 96.3 68.1 98.1 70.3 98.1H95.8C98 98.1 99.8 96.3 99.8 94.1V60.5C99.8 58.3 98.1 56.5 95.8 56.5ZM91.8 90.1H74.3V64.5H91.8V90.1Z" fill="#495FA9"/>
<path fill-rule="evenodd" clip-rule="evenodd" d="M95 127.4V143.2C95 145.4 96.8 147.2 99 147.2C101.2 147.2 103 145.4 103 143.2V127.4C103 125.2 101.2 123.4 99 123.4C96.8 123.4 95 125.2 95 127.4Z" fill="#48A5DD"/>
<path fill-rule="evenodd" clip-rule="evenodd" d="M67.6 48.8C68 50.6 69.6 51.9 71.5 51.9H95.4C97.3 51.9 98.9 50.6 99.3 48.8L100.8 42.2C100.9 41.9 100.9 41.6 100.9 41.3V22.3C100.9 20.5 99.7 16.6 99 14.4C96.6 7.20002 95.2 5.70004 94.8 5.20004C92.3 2.40004 88.3 0.900024 83.5 0.900024C78.7 0.900024 74.6 2.40004 72.2 5.20004C69.5 8.10004 66 20 66 22.3V41.3C66 41.6 66 41.9 66.1 42.2L67.6 48.8ZM74 22.4C74.3 20.4 77 12 78.1 10.5C79 9.50003 81 8.90002 83.5 8.90002C86 8.90002 88 9.50003 88.8 10.5C89.1 11 90.2 13.1 91.4 16.9C92.4 19.9 92.9 21.9 92.9 22.4V40.8L92.2 43.9H74.6L73.9 40.8V22.4H74Z" fill="#495FA9"/>
<path fill-rule="evenodd" clip-rule="evenodd" d="M109.3 167.6L103.1 163.3V159.8C103.1 157.6 101.3 155.8 99.1 155.8C96.9 155.8 95.1 157.6 95.1 159.8V165.4C95.1 166.7 95.7001 167.9 96.8 168.7L103 173V179.6H99C98.2 179.6 97.4 179.9 96.7 180.3L94.4 181.9H71.8L69.5 180.3C68.8 179.8 68 179.6 67.2 179.6H64V173L69.5 169.2C70.6 168.5 71.2 167.2 71.2 165.9V158.9H79C81.2 158.9 83 157.1 83 154.9C83 152.7 81.2 150.9 79 150.9H71.2V146.9H79C81.2 146.9 83 145.1 83 142.9C83 140.7 81.2 138.9 79 138.9H71.2V135.9H79C81.2 135.9 83 134.1 83 131.9C83 129.7 81.2 127.9 79 127.9H71.2V127.7L73.6 110.1H92.6L93.6 117.3C93.9 119.5 95.9 121 98.1 120.7C100.3 120.4 101.8 118.4 101.5 116.2L100 105.5C99.7 103.5 98 102 96 102H70C68 102 66.3 103.5 66 105.5L63 126.8C63 127 63 127.2 63 127.3V163.7L57.5 167.5C56.4 168.2 55.8 169.5 55.8 170.8V183.4C55.8 185.6 57.6 187.4 59.8 187.4H65.7L68 189C68.7 189.5 69.5 189.7 70.3 189.7H95.5C96.3 189.7 97.1 189.4 97.8 189L100.1 187.4H106.8C109 187.4 110.8 185.6 110.8 183.4V170.8C111 169.5 110.4 168.3 109.3 167.6Z" fill="#495FA9"/>
<path fill-rule="evenodd" clip-rule="evenodd" d="M54 30.1C52.2 29.5 50.3 28.6 49.5 27.8C48.7 27 47.9001 25.4 47.3001 23.8C46.8001 22.6 45 22.6 44.5 23.8C43.8 25.4 43 27.1 42.2 27.9C41.4 28.7 39.6 29.5 37.9 30.1C36.6 30.6 36.6 32.3 37.9 32.7C39.6 33.3 41.3 34.1 42.1 34.8C42.9 35.6 43.8 37.3 44.4 39C44.9 40.2 46.7 40.2 47.2 39C47.8 37.4 48.6001 35.9 49.3001 35.1C50.2001 34.3 52.1 33.4 53.9 32.7C55.3 32.3 55.3 30.6 54 30.1Z" fill="#DE4875"/>
<path fill-rule="evenodd" clip-rule="evenodd" d="M163.8 115.2C161.5 114.4 159.1 113.3 158 112.3C157 111.3 156 109.2 155.2 107.1C154.6 105.5 152.3 105.5 151.7 107.1C150.9 109.2 149.8 111.4 148.8 112.4C147.8 113.4 145.5 114.4 143.3 115.2C141.7 115.8 141.7 118 143.3 118.6C145.5 119.4 147.7 120.4 148.7 121.3C149.8 122.3 150.8 124.5 151.7 126.7C152.3 128.3 154.6 128.2 155.2 126.7C156 124.7 156.9 122.6 157.9 121.7C159 120.6 161.5 119.5 163.8 118.6C165.4 118 165.4 115.8 163.8 115.2Z" fill="#48A5DD"/>
<path fill-rule="evenodd" clip-rule="evenodd" d="M16.1 126.2C14.5 125.6 12.9 124.9 12.1 124.2C11.4 123.5 10.7 122.1 10.1 120.6C9.70002 119.5 8.10002 119.5 7.60002 120.6C7.00002 122 6.30002 123.5 5.60002 124.2C4.90002 124.9 3.3001 125.6 1.8001 126.1C0.700098 126.5 0.700098 128 1.8001 128.4C3.3001 128.9 4.90002 129.6 5.60002 130.3C6.30002 131 7.1 132.5 7.7 134C8.1 135.1 9.7 135.1 10.2 134C10.7 132.6 11.4 131.2 12.1 130.6C12.9 129.9 14.6 129.1 16.2 128.5C17.3 128.1 17.3 126.6 16.1 126.2Z" fill="#EB7444"/>
<path fill-rule="evenodd" clip-rule="evenodd" d="M42.1 163.2C40.5 162.6 38.9 161.9 38.1 161.2C37.4 160.5 36.7 159.1 36.1 157.6C35.7 156.5 34.1 156.5 33.6 157.6C33 159 32.3 160.5 31.6 161.2C30.9 161.9 29.3001 162.6 27.8001 163.1C26.7001 163.5 26.7001 165 27.8001 165.4C29.3001 165.9 30.9 166.6 31.6 167.3C32.3 168 33.1 169.5 33.7 171C34.1 172.1 35.7 172.1 36.2 171C36.7 169.6 37.4 168.2 38.1 167.6C38.9 166.9 40.6 166.1 42.2 165.5C43.3 165.1 43.3 163.6 42.1 163.2Z" fill="#DE4875"/>
<path fill-rule="evenodd" clip-rule="evenodd" d="M130 91.9C130 93 130.9 93.9 132 93.9C133.1 93.9 134 93 134 91.9C134 90.8 133.1 89.9 132 89.9C130.9 89.9 130 90.8 130 91.9Z" fill="#495FA9"/>
<path fill-rule="evenodd" clip-rule="evenodd" d="M113 57.9C110.8 57.9 109 59.7 109 61.9C109 64.1 110.8 65.9 113 65.9C115.2 65.9 117 64.1 117 61.9C117 59.7 115.2 57.9 113 57.9Z" fill="#48A5DD"/>
<path fill-rule="evenodd" clip-rule="evenodd" d="M114 130.9C112.3 130.9 111 132.2 111 133.9C111 135.6 112.3 136.9 114 136.9C115.7 136.9 117 135.6 117 133.9C117 132.2 115.7 130.9 114 130.9Z" fill="#DE4875"/>
<path fill-rule="evenodd" clip-rule="evenodd" d="M123 103.4C123 104.8 124.1 105.9 125.5 105.9C126.9 105.9 128 104.8 128 103.4C128 102 126.9 100.9 125.5 100.9C124.1 100.9 123 102 123 103.4Z" fill="#EB7444"/>
<path fill-rule="evenodd" clip-rule="evenodd" d="M115.8 18.5C117.3 19 118.9 19.7 119.6 20.4C120.3 21.1 121.1 22.6 121.7 24.1C122.1 25.2 123.7 25.2 124.2 24.1C124.7 22.7 125.4 21.3 126.1 20.7C126.9 20 128.6 19.2 130.2 18.6C131.3 18.2 131.3 16.7 130.2 16.3C128.6 15.7 127 15 126.2 14.3C125.5 13.6 124.8 12.2 124.2 10.7C123.8 9.6 122.2 9.6 121.7 10.7C121.1 12.1 120.4 13.6 119.7 14.3C119 15 117.4 15.7 115.9 16.2C114.7 16.6 114.7 18.1 115.8 18.5Z" fill="#EB7444"/>
<path fill-rule="evenodd" clip-rule="evenodd" d="M32 95.9C32 94.2 30.7 92.9 29 92.9C27.3 92.9 26 94.2 26 95.9C26 97.6 27.3 98.9 29 98.9C30.7 98.9 32 97.5 32 95.9Z" fill="#48A5DD"/>
<path fill-rule="evenodd" clip-rule="evenodd" d="M46 72.9C44.9 72.9 44 73.8 44 74.9C44 76 44.9 76.9 46 76.9C47.1 76.9 48 76 48 74.9C48 73.8 47.1 72.9 46 72.9Z" fill="#48A5DD"/>
<path fill-rule="evenodd" clip-rule="evenodd" d="M146 40.9C147.7 40.9 149 39.6 149 37.9C149 36.2 147.7 34.9 146 34.9C144.3 34.9 143 36.2 143 37.9C143 39.6 144.3 40.9 146 40.9Z" fill="#DE4875"/>
<path fill-rule="evenodd" clip-rule="evenodd" d="M133.1 155.2C131.5 154.6 129.9 153.9 129.1 153.2C128.4 152.5 127.7 151.1 127.1 149.6C126.7 148.5 125.1 148.5 124.6 149.6C124 151 123.3 152.5 122.6 153.2C121.9 153.9 120.3 154.6 118.8 155.1C117.7 155.5 117.7 157 118.8 157.4C120.3 157.9 121.9 158.6 122.6 159.3C123.3 160 124.1 161.5 124.7 163C125.1 164.1 126.7 164.1 127.2 163C127.7 161.6 128.4 160.2 129.1 159.6C129.9 158.9 131.6 158.1 133.2 157.5C134.3 157.1 134.3 155.6 133.1 155.2Z" fill="#EB7444"/>
</svg>
