<svg width="198" height="149" viewBox="0 0 198 149" fill="none" xmlns="http://www.w3.org/2000/svg">
<path fill-rule="evenodd" clip-rule="evenodd" d="M104.3 95.2L114.1 89.5C116.5 88.1 118.2 85.9 118.9 83.2C119.6 80.5 119.2 77.8 117.9 75.4C116.8 73.5 114.4 72.8 112.4 73.9C110.5 75 109.8 77.5 110.9 79.4C111.2 79.9 111.3 80.5 111.1 81.1C110.9 81.7 110.6 82.2 110 82.5L100.2 88.2C99.1 88.8 97.7 88.5 97 87.3L86.9 70.1C86.6 69.6 86.5 69 86.7 68.4C86.9 67.8 87.2 67.3 87.8 67C89.7 65.9 90.4 63.5 89.3 61.5C88.2 59.6 85.8 58.9 83.8 60C81.4 61.4 79.7 63.6 79 66.3C78.3 69 78.7 71.7 80 74.1L90.1 91.3C92 94.6 95.5 96.4 99 96.4C100.9 96.6 102.7 96.1 104.3 95.2Z" fill="#495FA9"/>
<path fill-rule="evenodd" clip-rule="evenodd" d="M196.6 27.4L188.9 14.1C187.3 11.4 184.5 9.79999 181.5 9.79999C180.1 9.79999 178.6 10.2 177.2 10.9L115.2 46.7C111.1 49.1 109.7 54.3 112.1 58.3L119.8 71.6C121.4 74.3 124.2 75.9 127.2 75.9C128.6 75.9 130.1 75.5 131.5 74.8L193.5 39C197.6 36.7 199 31.5 196.6 27.4ZM152.1 53.7L143.9 39.5L160.2 30.1L168.4 44.3L152.1 53.7ZM127.5 67.9C127.4 68 127.3 68 127.2 68C127.1 68 126.9 68 126.7 67.7L119 54.4C119 54.4 118.9 54.2 118.9 54C119 53.8 119.1 53.7 119.1 53.7L137.8 42.9L146 57.1L127.5 67.9ZM189.8 31.8C189.7 32 189.6 32.1 189.6 32.1L174.3 40.9L166.1 26.7L181.4 17.9C181.5 17.8 181.6 17.8 181.7 17.8C181.8 17.8 182 17.8 182.2 18.1L189.9 31.4C189.8 31.5 189.8 31.6 189.8 31.8Z" fill="#495FA9"/>
<path fill-rule="evenodd" clip-rule="evenodd" d="M78.1999 78C76.5999 75.3 73.7999 73.7 70.7999 73.7C69.3999 73.7 67.8999 74.1 66.4999 74.8L4.49991 110.6C0.399913 113 -1.00006 118.2 1.39994 122.2L9.09989 135.5C10.6999 138.2 13.4999 139.8 16.4999 139.8C17.8999 139.8 19.3999 139.4 20.7999 138.7L82.7999 102.9C86.8999 100.5 88.2999 95.3 85.8999 91.3L78.1999 78ZM39.5999 118.6L31.3999 104.4L47.6999 95L55.8999 109.2L39.5999 118.6ZM16.6999 131.8C16.5999 131.9 16.4999 131.9 16.3999 131.9C16.2999 131.9 16.0999 131.9 15.8999 131.6L8.19993 118.3C8.19993 118.3 8.09989 118.1 8.09989 117.9C8.19989 117.7 8.2999 117.6 8.2999 117.6L25.2999 107.8L33.4999 122L16.6999 131.8ZM78.9999 95.7C78.8999 95.9 78.7999 96 78.7999 96L61.8999 105.8L53.6999 91.6L70.5999 81.9C70.6999 81.8 70.7999 81.8 70.8999 81.8C70.9999 81.8 71.1999 81.8 71.3999 82.1L79.0999 95.4C78.9999 95.4 78.9999 95.5 78.9999 95.7Z" fill="#495FA9"/>
<path fill-rule="evenodd" clip-rule="evenodd" d="M107 72.9C110.3 72.9 113 70.2 113 66.9C113 63.6 110.3 60.9 107 60.9C103.7 60.9 101 63.6 101 66.9C101 70.2 103.7 72.9 107 72.9Z" fill="#DE4875"/>
<path fill-rule="evenodd" clip-rule="evenodd" d="M97 55.9C94.8 55.9 93 57.7 93 59.9C93 62.1 94.8 63.9 97 63.9C99.2 63.9 101 62.1 101 59.9C101 57.7 99.2 55.9 97 55.9Z" fill="#EB7444"/>
<path fill-rule="evenodd" clip-rule="evenodd" d="M93.9999 34.7C95.6999 35.3 97.4 36.1 98.2 36.8C99 37.6 99.8999 39.3 100.5 41C101 42.2 102.8 42.2 103.3 41C103.9 39.4 104.7 37.9 105.4 37.1C106.3 36.3 108.2 35.4 110 34.7C111.3 34.2 111.3 32.5 110 32.1C108.2 31.5 106.3 30.6 105.5 29.8C104.7 29 103.9 27.4 103.3 25.8C102.8 24.6 101 24.6 100.5 25.8C99.7999 27.4 99 29.1 98.2 29.9C97.4 30.7 95.6 31.5 93.9 32.1C92.7 32.5 92.6999 34.2 93.9999 34.7Z" fill="#48A5DD"/>
<path fill-rule="evenodd" clip-rule="evenodd" d="M120.8 113.2C118.5 112.4 116.1 111.3 115 110.3C114 109.3 113 107.2 112.2 105.1C111.6 103.5 109.3 103.5 108.7 105.1C107.9 107.2 106.8 109.4 105.8 110.4C104.8 111.4 102.5 112.4 100.3 113.2C98.6999 113.8 98.6999 116 100.3 116.6C102.5 117.4 104.7 118.4 105.7 119.3C106.8 120.3 107.8 122.5 108.7 124.7C109.3 126.3 111.6 126.2 112.2 124.7C113 122.7 113.9 120.6 114.9 119.7C116 118.6 118.5 117.5 120.8 116.6C122.4 116 122.4 113.8 120.8 113.2Z" fill="#48A5DD"/>
<path fill-rule="evenodd" clip-rule="evenodd" d="M42.8 67.5C44.3 68 45.8999 68.7 46.5999 69.4C47.2999 70.1 48.1 71.6 48.7 73.1C49.1 74.2 50.7 74.2 51.2 73.1C51.7 71.7 52.3999 70.3 53.0999 69.7C53.8999 69 55.6 68.2 57.2 67.6C58.3 67.2 58.3 65.7 57.2 65.3C55.6 64.7 54 64 53.2 63.3C52.5 62.6 51.8 61.2 51.2 59.7C50.8 58.6 49.2 58.6 48.7 59.7C48.1 61.1 47.4 62.6 46.7 63.3C46 64 44.4 64.7 42.9 65.2C41.7 65.6 41.7 67.1 42.8 67.5Z" fill="#544E9E"/>
<path fill-rule="evenodd" clip-rule="evenodd" d="M65.0998 140.2C63.4998 139.6 61.8998 138.9 61.0998 138.2C60.3998 137.5 59.6998 136.1 59.0998 134.6C58.6998 133.5 57.0998 133.5 56.5998 134.6C55.9998 136 55.2998 137.5 54.5998 138.2C53.8998 138.9 52.2999 139.6 50.7999 140.1C49.6999 140.5 49.6999 142 50.7999 142.4C52.2999 142.9 53.8998 143.6 54.5998 144.3C55.2998 145 56.0999 146.5 56.6999 148C57.0999 149.1 58.6999 149.1 59.1999 148C59.6999 146.6 60.3998 145.2 61.0998 144.6C61.8998 143.9 63.5999 143.1 65.1999 142.5C66.2999 142.1 66.2998 140.6 65.0998 140.2Z" fill="#544E9E"/>
<path fill-rule="evenodd" clip-rule="evenodd" d="M172 63.9C170.9 63.9 170 64.8 170 65.9C170 67 170.9 67.9 172 67.9C173.1 67.9 174 67 174 65.9C174 64.8 173.1 63.9 172 63.9Z" fill="#B44694"/>
<path fill-rule="evenodd" clip-rule="evenodd" d="M29 83.9C31.2 83.9 33 82.1 33 79.9C33 77.7 31.2 75.9 29 75.9C26.8 75.9 25 77.7 25 79.9C25 82.1 26.8 83.9 29 83.9Z" fill="#EB7444"/>
<path fill-rule="evenodd" clip-rule="evenodd" d="M145 86.9C143.3 86.9 142 88.2 142 89.9C142 91.6 143.3 92.9 145 92.9C146.7 92.9 148 91.6 148 89.9C148 88.2 146.7 86.9 145 86.9Z" fill="#495FA9"/>
<path fill-rule="evenodd" clip-rule="evenodd" d="M79.5 118.9C78.1 118.9 77 120 77 121.4C77 122.8 78.1 123.9 79.5 123.9C80.9 123.9 82 122.8 82 121.4C82 120 80.9 118.9 79.5 118.9Z" fill="#495FA9"/>
<path fill-rule="evenodd" clip-rule="evenodd" d="M115.8 9.49999C117.3 9.99999 118.9 10.7 119.6 11.4C120.3 12.1 121.1 13.6 121.7 15.1C122.1 16.2 123.7 16.2 124.2 15.1C124.7 13.7 125.4 12.3 126.1 11.7C126.9 11 128.6 10.2 130.2 9.59996C131.3 9.19996 131.3 7.69998 130.2 7.29998C128.6 6.69998 127 5.99998 126.2 5.29998C125.5 4.59998 124.8 3.2 124.2 1.7C123.8 0.6 122.2 0.6 121.7 1.7C121.1 3.1 120.4 4.59998 119.7 5.29998C119 5.99998 117.4 6.7 115.9 7.2C114.7 7.6 114.7 9.09999 115.8 9.49999Z" fill="#48A5DD"/>
<path fill-rule="evenodd" clip-rule="evenodd" d="M8 84.9C9.7 84.9 11 83.6 11 81.9C11 80.2 9.7 78.9 8 78.9C6.3 78.9 5 80.2 5 81.9C5 83.6 6.3 84.9 8 84.9Z" fill="#B44694"/>
<path fill-rule="evenodd" clip-rule="evenodd" d="M72 52.9C73.1 52.9 74 52 74 50.9C74 49.8 73.1 48.9 72 48.9C70.9 48.9 70 49.8 70 50.9C70 52 70.9 52.9 72 52.9Z" fill="#495FA9"/>
<path fill-rule="evenodd" clip-rule="evenodd" d="M161 6.90002C162.7 6.90002 164 5.60002 164 3.90002C164 2.20002 162.7 0.900024 161 0.900024C159.3 0.900024 158 2.20002 158 3.90002C158 5.60002 159.3 6.90002 161 6.90002Z" fill="#544E9E"/>
<path fill-rule="evenodd" clip-rule="evenodd" d="M166.1 83.2C164.5 82.6 162.9 81.9 162.1 81.2C161.4 80.5 160.7 79.1 160.1 77.6C159.7 76.5 158.1 76.5 157.6 77.6C157 79 156.3 80.5 155.6 81.2C154.9 81.9 153.3 82.6 151.8 83.1C150.7 83.5 150.7 85 151.8 85.4C153.3 85.9 154.9 86.6 155.6 87.3C156.3 88 157.1 89.5 157.7 91C158.1 92.1 159.7 92.1 160.2 91C160.7 89.6 161.4 88.2 162.1 87.6C162.9 86.9 164.6 86.1 166.2 85.5C167.3 85.1 167.3 83.6 166.1 83.2Z" fill="#EB7444"/>
</svg>
