<svg width="229" height="144" viewBox="0 0 229 144" fill="none" xmlns="http://www.w3.org/2000/svg">
<path fill-rule="evenodd" clip-rule="evenodd" d="M136.8 76.1L132.4 70.1C133 69.9 133.6 69.6 134.2 69.3C137.9 67.2001 140.7 62.8 142.4 56.5C143 54.4 141.7 52.2 139.6 51.6C137.5 51 135.3 52.3 134.7 54.4C133.6 58.5 132 61.3 130.2 62.4C129.2 63 128.3 62.9 127.7 62.7C127 62.1 125.6 60.8 124.1 58.9L123.6 58.3C124.1 57.4 124.3 56.3 124 55.3C123.5 53.5 124.1 51 124.7 48.5C125.7 44.7 126.8 39.9 123.1 36.6C121.4 35.1 119.3 34.5 117.2 35C116.8 35.1 116.4 35.3 116 35.4C116.1 34.4 116.3 33.4 116.6 32.4V32.3C117.6 28.5 119.1 27.1 119.8 26.7C120.3 26.4 121.1 26.1 122.7 26.5C124.8 27.1 127 25.8 127.6 23.7C128.2 21.6 126.9 19.4 124.8 18.8C121.5 17.9 118.4 18.3 115.8 19.8C113.5 21.1 110.5 24 108.9 30.3V30.4C107.7 35 107.6 39.4 108.2 43.4L97.1001 43.7L81.2001 49.3001C80.7001 49.5001 80.3001 49.7 80.0001 50C76.4001 50.2 73.2001 51.1 70.4001 52.5C70.4001 52.1 70.3001 51.6 70.1001 51.2C69.7001 50.1 68.8001 49.3 67.7001 48.9L50.9001 43C50.5001 42.7 50.1001 42.4001 49.7001 42.3001L33.7001 36.5C33.4001 36.4 33.1001 36.3001 32.8001 36.3001C32.7001 36.3001 32.7001 36.2 32.6001 36.2L17.3001 30.6C15.5001 29.9 13.4001 30.7 12.5001 32.4L1.4001 51.9C0.800099 52.9 0.700112 54.1 1.10011 55.2C1.50011 56.2999 2.3001 57.2 3.4001 57.6L18.8001 63.5C18.9001 63.5 19.0001 63.5 19.1001 63.6C19.1001 63.6 19.2001 63.6 19.2001 63.7L35.3001 70.6C35.6001 70.7 36.0001 70.8 36.3001 70.9L49.8001 76.6C49.6001 77.2 49.4001 77.8 49.2001 78.4C46.7001 87.7 46.5001 104.8 73.1001 114.6C77.5001 116.2 81.7001 117.1 85.7001 117.1C89.0001 117.1 92.1001 116.5 95.1001 115.4C95.3001 115.4 95.4001 115.4 95.6001 115.4C96.0001 115.4 96.3001 115.4 96.7001 115.2L116.3 109.7L129.1 103.6L136.8 76.1ZM98.8001 51.5L108.6 51.3L115.2 60.3C116 61.5 116.8 62.6 117.7 63.7L126 74.9L112.6 78.8C112.4 77.1 112.1 75.4 111.6 73.7C109.1 63.9 103.3 56.9 94.8001 53L98.8001 51.5ZM18.0001 39.2L25.8001 42L18.8001 54.7L11.0001 51.7L18.0001 39.2ZM34.4001 45.1L42.9001 48.2L35.5001 61.8L26.9001 58.1L34.4001 45.1ZM51.4001 51.5L60.9001 54.9L53.5001 69.2L43.9001 65.2L51.4001 51.5ZM76.4001 106.9C60.6001 101.1 54.2001 92.1 57.4001 80.2C58.6001 75.7999 61.8001 70.8 66.6001 65.6C70.5001 61.5 74.9001 57.9 81.6001 57.9C83.4001 57.9 85.3001 58.2 87.4001 58.7C96.0001 61 101.6 66.7 103.9 75.6C105.9 83.3 104.9 91.2 104.1 94.2C103 98.2999 99.8001 104.1 94.2001 106.9C89.3001 109.5 83.3001 109.5 76.4001 106.9ZM113.9 102L108.7 103.5C110.1 101.1 111.1 98.6 111.7 96.4C112.2 94.4 112.8 91 112.9 87L126.7 83L122.7 97.8L113.9 102Z" fill="#495FA9"/>
<path fill-rule="evenodd" clip-rule="evenodd" d="M134.7 43.7C135.1 45.6 136.8 46.8001 138.6 46.8001C138.9 46.8001 139.2 46.8 139.4 46.7C141.5 46.2 142.9 44.1 142.4 42C141.8 39 140.7 36.1001 139.4 33.3001C138.4 31.3001 136.1 30.5 134.1 31.4C132.1 32.4 131.3 34.7 132.2 36.7C133.4 39 134.2 41.3 134.7 43.7Z" fill="#DE4875"/>
<path fill-rule="evenodd" clip-rule="evenodd" d="M66.6001 80.3001C63.6001 79.5001 60.4 81.5001 59.5 84.8001C58.6 88.1001 60.3 91.5001 63.4 92.3001C66.4 93.1001 69.6 91.1001 70.5 87.8001C71.4 84.4001 69.6001 81.1001 66.6001 80.3001Z" fill="#48A5DD"/>
<path fill-rule="evenodd" clip-rule="evenodd" d="M228.5 107.4C228 106.4 227.2 105.7 226.2 105.3L198.1 95.1999C198 95.0999 197.8 95.0999 197.7 95.0999C197.4 94.7999 197 94.6 196.6 94.4L172 85.1999C171.8 85.0999 171.7 85.0999 171.5 85.0999C171.1 84.7999 170.8 84.6 170.3 84.4L146.3 75.6999C144.3 74.9999 142.1 75.9 141.3 77.9L130.6 103C130.2 104 130.2 105.1 130.6 106.1C131 107.1 131.8 107.9 132.8 108.3L156.6 118C156.7 118 156.8 118 156.9 118.1C157.2 118.4 157.5 118.6 157.9 118.7L183.3 129.2C183.6 129.3 183.9 129.4 184.2 129.4C184.5 129.7 184.8 129.9 185.2 130L212.9 141.5C213.4 141.7 213.9 141.8 214.4 141.8C214.9 141.8 215.5 141.7 216 141.5C217 141.1 217.8 140.2 218.1 139.2L228.7 110.4C229 109.5 229 108.4 228.5 107.4ZM147.1 84.5999L163.6 90.5999L155.8 109.2L139.5 102.5L147.1 84.5999ZM164.5 112.9L172.7 94.0999L190 100.5L182.3 120.2L164.5 112.9ZM211.9 132.6L191.6 124.2L199.1 104.1L219.6 111.5L211.9 132.6Z" fill="#495FA9"/>
<path fill-rule="evenodd" clip-rule="evenodd" d="M147 19.8C148.8 20.5 150.6 21.2999 151.5 22.1999C152.4 23.0999 153.3 25 154 26.9C154.5 28.2 156.4 28.2 156.9 26.9C157.5 25.2 158.3 23.3999 159.1 22.5999C160 21.6999 162.1 20.7 164 20C165.3 19.5 165.3 17.5999 164 17.0999C162.1 16.3999 160.1 15.4999 159.3 14.5999C158.5 13.7999 157.6 11.8999 157 10.0999C156.5 8.69993 154.6 8.69993 154.1 10.0999C153.4 11.8999 152.6 13.7999 151.7 14.6999C150.8 15.5999 149 16.3999 147.1 17.0999C145.7 17.3999 145.7 19.3 147 19.8Z" fill="#EB7444"/>
<path fill-rule="evenodd" clip-rule="evenodd" d="M30.0001 20.3001C31.7001 20.9001 33.4001 21.7 34.2001 22.5C35.0001 23.3 35.9001 25.1 36.5001 26.9C37.0001 28.2 38.8001 28.2 39.3001 26.9C39.9001 25.2 40.7001 23.6001 41.4001 22.8001C42.3001 21.9001 44.2001 21.0001 46.0001 20.3001C47.3001 19.8001 47.3001 18 46.0001 17.5C44.2001 16.8 42.3001 16 41.5001 15.1C40.7001 14.3 39.9001 12.5001 39.3001 10.8001C38.8001 9.50007 37.0001 9.50007 36.5001 10.8001C35.8001 12.5001 35.0001 14.3 34.2001 15.1C33.4001 15.9 31.6001 16.7 29.9001 17.4C28.7001 18 28.7001 19.8001 30.0001 20.3001Z" fill="#EB7444"/>
<path fill-rule="evenodd" clip-rule="evenodd" d="M197.8 83.5C199.3 84 200.9 84.7001 201.6 85.4001C202.3 86.1001 203.1 87.6 203.7 89.1C204.1 90.2 205.7 90.2 206.2 89.1C206.7 87.7 207.4 86.3 208.1 85.7C208.9 85 210.6 84.2 212.2 83.6C213.3 83.2 213.3 81.7001 212.2 81.3001C210.6 80.7001 209 80.0001 208.2 79.3001C207.5 78.6001 206.8 77.2 206.2 75.7C205.8 74.6 204.2 74.6 203.7 75.7C203.1 77.1 202.4 78.6001 201.7 79.3001C201 80.0001 199.4 80.7 197.9 81.2C196.7 81.6 196.7 83.1 197.8 83.5Z" fill="#B44694"/>
<path fill-rule="evenodd" clip-rule="evenodd" d="M95.1001 130.2C93.5001 129.6 91.9001 128.9 91.1001 128.2C90.4001 127.5 89.7001 126.1 89.1001 124.6C88.7001 123.5 87.1001 123.5 86.6001 124.6C86.0001 126 85.3001 127.5 84.6001 128.2C83.9001 128.9 82.3001 129.6 80.8001 130.1C79.7001 130.5 79.7001 132 80.8001 132.4C82.3001 132.9 83.9001 133.6 84.6001 134.3C85.3001 135 86.1001 136.5 86.7001 138C87.1001 139.1 88.7001 139.1 89.2001 138C89.7001 136.6 90.4001 135.2 91.1001 134.6C91.9001 133.9 93.6001 133.1 95.2001 132.5C96.3001 132.1 96.3001 130.6 95.1001 130.2Z" fill="#B44694"/>
<path fill-rule="evenodd" clip-rule="evenodd" d="M168 134.9C166.3 134.9 165 136.2 165 137.9C165 139.6 166.3 140.9 168 140.9C169.7 140.9 171 139.6 171 137.9C171 136.2 169.7 134.9 168 134.9Z" fill="#48A5DD"/>
<path fill-rule="evenodd" clip-rule="evenodd" d="M75.5 32.9C76.9 32.9 78 31.8 78 30.4C78 29 76.9 27.9 75.5 27.9C74.1 27.9 73 29 73 30.4C73 31.8 74.1 32.9 75.5 32.9Z" fill="#495FA9"/>
<path d="M128.5 143.9C129.328 143.9 130 143.228 130 142.4C130 141.572 129.328 140.9 128.5 140.9C127.672 140.9 127 141.572 127 142.4C127 143.228 127.672 143.9 128.5 143.9Z" fill="#495FA9"/>
<path d="M65 6.90002C66.6569 6.90002 68 5.55688 68 3.90002C68 2.24317 66.6569 0.900024 65 0.900024C63.3431 0.900024 62 2.24317 62 3.90002C62 5.55688 63.3431 6.90002 65 6.90002Z" fill="#495FA9"/>
<path fill-rule="evenodd" clip-rule="evenodd" d="M30 86.9C28.3 86.9 27 88.2 27 89.9C27 91.6 28.3 92.9 30 92.9C31.7 92.9 33 91.6 33 89.9C33 88.2 31.7 86.9 30 86.9Z" fill="#495FA9"/>
<path fill-rule="evenodd" clip-rule="evenodd" d="M163 67.9C163 69.6 164.3 70.9 166 70.9C167.7 70.9 169 69.6 169 67.9C169 66.2 167.7 64.9 166 64.9C164.3 64.9 163 66.2 163 67.9Z" fill="#495FA9"/>
</svg>
