<svg width="152" height="159" viewBox="0 0 152 159" fill="none" xmlns="http://www.w3.org/2000/svg">
<path fill-rule="evenodd" clip-rule="evenodd" d="M97.3999 29.025H99.5999V30.225C99.5999 32.425 101.4 34.225 103.6 34.225C105.8 34.225 107.6 32.425 107.6 30.225V27.925C107.6 24.225 104.6 21.125 100.9 21.125H100.8H97.3999C95.1999 21.125 93.3999 22.925 93.3999 25.125C93.3999 27.225 95.1999 29.025 97.3999 29.025Z" fill="#48A5DD"/>
<path fill-rule="evenodd" clip-rule="evenodd" d="M81.9999 48.525H100.8C104.6 48.525 107.7 45.425 107.7 41.625V40.125C107.7 37.925 105.9 36.125 103.7 36.125C101.5 36.125 99.7 37.925 99.7 40.125V40.525H83.2V28.925H86.5999C88.7999 28.925 90.5999 27.125 90.5999 24.925C90.5999 22.725 88.7999 20.925 86.5999 20.925H82.0999C78.2999 20.925 75.2 24.025 75.2 27.825V41.725C75.1 45.525 78.1999 48.525 81.9999 48.525Z" fill="#495FA9"/>
<path fill-rule="evenodd" clip-rule="evenodd" d="M107.2 61.325H75.7C70.2 61.325 65.7 65.825 65.7 71.325V86.425C65.7 91.925 70.2 96.425 75.7 96.425H107.2C112.7 96.425 117.2 91.925 117.2 86.425V71.325C117.2 65.825 112.7 61.325 107.2 61.325ZM109.2 86.425C109.2 87.525 108.3 88.425 107.2 88.425H75.7C74.6 88.425 73.7 87.525 73.7 86.425V71.325C73.7 70.225 74.6 69.325 75.7 69.325H107.2C108.3 69.325 109.2 70.225 109.2 71.325V86.425Z" fill="#495FA9"/>
<path fill-rule="evenodd" clip-rule="evenodd" d="M171.2 152.125H168.7L142.5 106.825C144.6 104.825 146 101.925 146 98.725V73.225H146.1H179.6C181.5 73.225 183 71.725 183 69.825C183 67.925 181.5 66.425 179.6 66.425H146.1H146C145.6 60.625 140.7 55.925 134.8 55.925C132.7 55.925 130.8 56.525 129.1 57.525C127.5 55.625 125.2 54.425 122.5 54.425L107 50.125H76.4999L60.7 54.425C58 54.425 55.6999 55.625 54.0999 57.525C52.3999 56.525 50.4999 55.925 48.3999 55.925C42.3999 55.925 37.6 60.525 37.2 66.425H37.0999H3.59985C1.69985 66.425 0.199951 67.925 0.199951 69.825C0.199951 71.725 1.69985 73.225 3.59985 73.225H37.0999C37.0999 73.225 37.1 73.225 37.2 73.225V98.725C37.2 102.425 39 105.625 41.7 107.725L15.8999 152.125H11.4999C9.59988 152.125 8.09985 153.625 8.09985 155.525C8.09985 157.425 9.59988 158.925 11.4999 158.925H25.2999C27.1999 158.925 28.7 157.425 28.7 155.525C28.7 153.625 27.1999 152.125 25.2999 152.125H23.7999L47.9999 109.925C48.0999 109.925 48.2 109.925 48.2 109.925C49.5 109.925 50.7999 109.725 51.9999 109.225C52.3999 113.525 56.0999 116.925 60.4999 116.925H87.8999V152.125H84.3999C82.4999 152.125 80.9999 153.625 80.9999 155.525C80.9999 157.425 82.4999 158.925 84.3999 158.925H98.2C100.1 158.925 101.6 157.425 101.6 155.525C101.6 153.625 100.1 152.125 98.2 152.125H94.7999V116.925H122.3C126.7 116.925 130.4 113.525 130.8 109.225C132 109.625 133.2 109.925 134.6 109.925C135.2 109.925 135.7 109.825 136.2 109.825L160.7 152.125H157.4C155.5 152.125 154 153.625 154 155.525C154 157.425 155.5 158.925 157.4 158.925H171.2C173.1 158.925 174.6 157.425 174.6 155.525C174.6 153.725 173.1 152.125 171.2 152.125ZM51.3999 98.725C51.3999 100.525 49.8999 102.025 48.0999 102.025C46.2999 102.025 44.7999 100.525 44.7999 98.725V67.225C44.7999 65.425 46.2999 63.925 48.0999 63.925C49.8999 63.925 51.3999 65.425 51.3999 67.225V98.725ZM122.9 108.425C122.9 108.725 122.6 109.025 122.3 109.025H94.7999V102.425C94.7999 100.525 93.2999 99.025 91.3999 99.025C89.4999 99.025 87.9999 100.525 87.9999 102.425V109.025H60.5999C60.2999 109.025 59.9999 108.725 59.9999 108.425V63.025C59.9999 62.725 60.2999 62.425 60.5999 62.425H61.7L62.7 62.125L77.4999 58.125H105.9L120.3 62.125L121.3 62.425H122.4C122.7 62.425 123 62.725 123 63.025V108.425H122.9ZM131.3 98.725V67.225C131.3 65.425 132.8 63.925 134.6 63.925C136.4 63.925 137.9 65.425 137.9 67.225V98.725C137.9 100.525 136.4 102.025 134.6 102.025C132.8 102.025 131.3 100.525 131.3 98.725Z" fill="#495FA9"/>
<path fill-rule="evenodd" clip-rule="evenodd" d="M147.9 50.825C149.7 51.525 151.7 52.325 152.5 53.225C153.3 53.925 154 55.525 154.6 57.125C155.1 58.325 156.9 58.325 157.4 57.125C158.1 55.425 158.9 53.725 159.7 52.925C160.5 52.125 162.2 51.425 163.9 50.825C165.2 50.325 165.2 48.625 163.9 48.225C162.2 47.625 160.4 46.825 159.6 46.025C158.8 45.225 158 43.525 157.3 41.925C156.8 40.725 155 40.725 154.5 41.925C153.9 43.525 153.1 45.225 152.3 45.925C151.5 46.725 149.6 47.525 147.8 48.225C146.6 48.725 146.6 50.425 147.9 50.825Z" fill="#DE4875"/>
<path fill-rule="evenodd" clip-rule="evenodd" d="M13.3 106.825C14.2 104.725 15.2 102.425 16.3 101.425C17.3 100.425 19.5 99.425 21.7 98.725C23.3 98.125 23.3 95.925 21.7 95.325C19.5 94.525 17.2 93.525 16.2 92.525C15.2 91.525 14.1 89.325 13.3 87.225C12.7 85.625 10.4 85.625 9.79998 87.225C8.99998 89.325 7.99993 91.425 6.99993 92.425C5.89993 93.425 3.5 94.525 1.2 95.325C-0.4 95.925 -0.4 98.125 1.2 98.725C3.5 99.625 5.9999 100.725 7.0999 101.825C8.0999 102.725 8.99998 104.825 9.79998 106.825C10.4 108.325 12.7 108.425 13.3 106.825Z" fill="#EB7444"/>
<path fill-rule="evenodd" clip-rule="evenodd" d="M139.1 137.325C137.6 136.725 136 136.125 135.3 135.425C134.6 134.725 133.9 133.225 133.3 131.825C132.9 130.725 131.3 130.725 130.8 131.825C130.2 133.225 129.5 134.725 128.8 135.425C128 136.125 126.4 136.825 124.8 137.425C123.7 137.825 123.7 139.325 124.8 139.725C126.4 140.325 128.2 141.025 128.9 141.825C129.6 142.425 130.2 143.825 130.8 145.225C131.2 146.325 132.8 146.325 133.3 145.225C133.9 143.725 134.6 142.225 135.4 141.525C136.1 140.825 137.7 140.225 139.2 139.625C140.2 139.225 140.2 137.725 139.1 137.325Z" fill="#DE4875"/>
<path fill-rule="evenodd" clip-rule="evenodd" d="M29.8999 82.025C29.8999 80.925 28.9999 80.025 27.8999 80.025C26.7999 80.025 25.8999 80.925 25.8999 82.025C25.8999 83.125 26.7999 84.025 27.8999 84.025C28.9999 84.025 29.8999 83.125 29.8999 82.025Z" fill="#495FA9"/>
<path fill-rule="evenodd" clip-rule="evenodd" d="M29.8999 56.025C31.5999 56.025 32.8999 54.725 32.8999 53.025C32.8999 51.325 31.5999 50.025 29.8999 50.025C28.1999 50.025 26.8999 51.325 26.8999 53.025C26.8999 54.625 28.1999 56.025 29.8999 56.025Z" fill="#B44694"/>
<path fill-rule="evenodd" clip-rule="evenodd" d="M62.3999 142.025C60.9999 142.025 59.8999 143.125 59.8999 144.525C59.8999 145.925 60.9999 147.025 62.3999 147.025C63.7999 147.025 64.8999 145.925 64.8999 144.525C64.8999 143.125 63.7999 142.025 62.3999 142.025Z" fill="#495FA9"/>
<path fill-rule="evenodd" clip-rule="evenodd" d="M57.7 8.72496C59.3 9.32496 61.1 10.025 61.8 10.825C62.5 11.425 63.1 12.825 63.7 14.225C64.1 15.325 65.7 15.325 66.2 14.225C66.8 12.725 67.5 11.225 68.3 10.525C69 9.82501 70.5999 9.22499 72.0999 8.62499C73.1999 8.22499 73.1999 6.725 72.0999 6.325C70.5999 5.725 69 5.12498 68.3 4.42498C67.6 3.72498 66.9 2.225 66.3 0.825C65.9 -0.275 64.3 -0.275 63.8 0.825C63.2 2.225 62.5 3.72498 61.8 4.42498C61 5.12498 59.4 5.82498 57.8 6.42498C56.6 6.72498 56.6 8.22496 57.7 8.72496Z" fill="#DE4875"/>
<path fill-rule="evenodd" clip-rule="evenodd" d="M150.9 86.025C150.9 87.725 152.2 89.025 153.9 89.025C155.6 89.025 156.9 87.725 156.9 86.025C156.9 84.325 155.6 83.025 153.9 83.025C152.2 83.025 150.9 84.325 150.9 86.025Z" fill="#495FA9"/>
<path fill-rule="evenodd" clip-rule="evenodd" d="M134.9 38.025C136 38.025 136.9 37.125 136.9 36.025C136.9 34.925 136 34.025 134.9 34.025C133.8 34.025 132.9 34.925 132.9 36.025C132.9 37.125 133.8 38.025 134.9 38.025Z" fill="#495FA9"/>
<path fill-rule="evenodd" clip-rule="evenodd" d="M65.8999 23.025C64.1999 23.025 62.8999 24.325 62.8999 26.025C62.8999 27.725 64.1999 29.025 65.8999 29.025C67.5999 29.025 68.8999 27.725 68.8999 26.025C68.8999 24.325 67.5999 23.025 65.8999 23.025Z" fill="#495FA9"/>
<path fill-rule="evenodd" clip-rule="evenodd" d="M68.0999 130.325C66.5999 129.725 65 129.125 64.3 128.425C63.6 127.725 62.9 126.225 62.3 124.825C61.9 123.725 60.3 123.725 59.8 124.825C59.2 126.225 58.5 127.725 57.8 128.425C57 129.125 55.4 129.825 53.8 130.425C52.7 130.825 52.7 132.325 53.8 132.725C55.4 133.325 57.2 134.025 57.9 134.825C58.6 135.425 59.2 136.825 59.8 138.225C60.2 139.325 61.8 139.325 62.3 138.225C62.9 136.725 63.6 135.225 64.4 134.525C65.1 133.825 66.7 133.225 68.2 132.625C69.2 132.225 69.1999 130.725 68.0999 130.325Z" fill="#DE4875"/>
</svg>
