<svg width="187" height="141" viewBox="0 0 187 141" fill="none" xmlns="http://www.w3.org/2000/svg">
<path fill-rule="evenodd" clip-rule="evenodd" d="M170.9 31.7C169.6 31.2 168.2 30.6 167.6 30.1C167 29.5 166.4 28.2 165.9 27C165.5 26.1 164.2 26.1 163.8 27C163.3 28.2 162.7 29.5 162.1 30C161.5 30.6 160 31.2 158.7 31.7C157.7 32 157.7 33.3 158.7 33.7C160.1 34.2 161.5 34.9 162.2 35.5C162.8 36 163.3 37.2 163.8 38.4C164.2 39.3 165.5 39.3 165.9 38.4C166.4 37.1 167 35.8 167.7 35.3C168.3 34.7 169.6 34.2 170.9 33.7C171.8 33.4 171.8 32.1 170.9 31.7ZM25.1 106.9C23.9 106.5 22.7 106 22.2 105.4C21.7 104.9 21.1 103.8 20.7 102.7C20.4 101.9 19.2 101.9 18.8 102.7C18.4 103.8 17.8 104.9 17.3 105.4C16.7 105.9 15.5 106.5 14.3 106.9C13.4 107.2 13.4 108.3 14.3 108.7C15.5 109.1 16.8 109.7 17.4 110.3C17.9 110.8 18.4 111.8 18.8 112.9C19.1 113.7 20.3 113.7 20.7 112.9C21.2 111.8 21.7 110.6 22.3 110.1C22.8 109.6 24 109.1 25.1 108.7C26 108.4 26 107.2 25.1 106.9ZM60.9 133.5C59.9 133.5 59 134.3 59 135.4C59 136.4 59.8 137.3 60.9 137.3C61.9 137.3 62.8 136.5 62.8 135.4C62.8 134.4 61.9 133.5 60.9 133.5ZM145.4 13.9C144.6 13.9 143.9 14.6 143.9 15.4C143.9 16.2 144.6 16.9 145.4 16.9C146.2 16.9 146.9 16.2 146.9 15.4C146.9 14.6 146.3 13.9 145.4 13.9ZM61.2 18.7C61.2 17.4 60.2 16.4 58.9 16.4C57.6 16.4 56.6 17.4 56.6 18.7C56.6 20 57.6 21 58.9 21C60.2 20.9 61.2 19.9 61.2 18.7Z" fill="#48A5DD"/>
<path fill-rule="evenodd" clip-rule="evenodd" d="M116.8 96.6C117.8 96.6 118.6 95.8 118.6 94.8L122.3 89.3C122.3 88.3 121.5 87.5 120.5 87.5C119.5 87.5 118.7 88.3 118.7 89.3L115 94.8C115 95.8 115.8 96.6 116.8 96.6Z" fill="#DE4875"/>
<path fill-rule="evenodd" clip-rule="evenodd" d="M123.3 96.6C124.3 96.6 125.1 95.8 125.1 94.8L128.8 89.3C128.8 88.3 128 87.5 127 87.5C126 87.5 125.2 88.3 125.2 89.3L121.5 94.8C121.4 95.8 122.3 96.6 123.3 96.6Z" fill="#DE4875"/>
<path fill-rule="evenodd" clip-rule="evenodd" d="M129.7 96.6C130.7 96.6 131.5 95.8 131.5 94.8L135.2 89.3C135.2 88.3 134.4 87.5 133.4 87.5C132.4 87.5 131.6 88.3 131.6 89.3L127.9 94.8C127.9 95.8 128.7 96.6 129.7 96.6Z" fill="#DE4875"/>
<path fill-rule="evenodd" clip-rule="evenodd" d="M52.4002 96.6C53.4002 96.6 54.2002 95.8 54.2002 94.8L57.9002 89.3C57.9002 88.3 57.1001 87.5 56.1001 87.5C55.1001 87.5 54.3002 88.3 54.3002 89.3L50.6001 94.8C50.5001 95.8 51.4002 96.6 52.4002 96.6Z" fill="#DE4875"/>
<path fill-rule="evenodd" clip-rule="evenodd" d="M58.8 96.6C59.8 96.6 60.6 95.8 60.6 94.8L64.3 89.3C64.3 88.3 63.5 87.5 62.5 87.5C61.5 87.5 60.7 88.3 60.7 89.3L57 94.8C57 95.8 57.8 96.6 58.8 96.6Z" fill="#DE4875"/>
<path fill-rule="evenodd" clip-rule="evenodd" d="M65.3 96.6C66.3 96.6 67.1 95.8 67.1 94.8L70.8 89.3C70.8 88.3 70 87.5 69 87.5C68 87.5 67.2001 88.3 67.2001 89.3L63.5 94.8C63.4 95.8 64.3 96.6 65.3 96.6Z" fill="#DE4875"/>
<path d="M92.9001 126.1C75.2001 126.1 58.4001 125.7 45.9001 120.3C31.7001 114.3 24.8 102.6 24.8 84.7C24.8 47 55.4001 16.4 92.9001 16.4C98.9001 16.4 104.9 17.2 110.7 18.8C112.6 19.3 113.7 21.3 113.2 23.2C112.7 25.1 110.7 26.3 108.8 25.7C103.6 24.3 98.3001 23.6 92.9001 23.6C59.3001 23.6 31.9001 51 31.9001 84.8C31.9001 116.6 56.0001 119 92.9001 119C129.7 119 153.9 116.6 153.9 84.8C153.9 77.2001 152.5 69.7 149.8 62.6C149.1 60.7 150 58.7 151.8 57.9C153.6 57.2 155.7 58.1 156.4 59.9C159.5 67.8 161 76.1 161 84.7C161 102.6 154.1 114.3 139.9 120.3C127.4 125.7 110.6 126.1 92.9001 126.1Z" fill="#495FA9"/>
<path d="M142.6 47C141.6 47 140.5 46.5999 139.8 45.6999C136.9 42.1999 133.6 38.9999 129.9 36.1999C128.3 34.9999 128 32.6999 129.2 31.1999C130.4 29.5999 132.7 29.3 134.2 30.5C138.2 33.6 141.9 37.1999 145.2 41.0999C146.5 42.5999 146.3 44.8999 144.7 46.1999C144.2 46.7999 143.4 47 142.6 47Z" fill="#DE4875"/>
<path d="M123.3 78.8C116.2 78.8 106.4 78.8 106.4 68.2C106.4 58.6 114.3 50.3 123.3 50.3C132.3 50.3 140.2 58.7 140.2 68.2C140.1 78.8 130.4 78.8 123.3 78.8ZM123.3 53.8C116.2 53.8 110 60.5 110 68.2C110 74.3 113.9 75.2 123.3 75.2C132.7 75.2 136.6 74.2 136.6 68.2C136.6 60.5 130.4 53.8 123.3 53.8Z" fill="#495FA9"/>
<path d="M61.1 83.8C50.8 83.8 43.8 77.7 43.8 68.7C43.8 58.9 51.9 50.3 61.1 50.3C70.3 50.3 78.4001 58.9 78.4001 68.7C78.4001 77.7 71.4 83.8 61.1 83.8ZM61.1 53.8C53.8 53.8 47.4001 60.7 47.4001 68.6C47.4001 77.1 54.8 80.2 61.1 80.2C67.4 80.2 74.8 77.2 74.8 68.6C74.8 60.7 68.4 53.8 61.1 53.8Z" fill="#495FA9"/>
<path fill-rule="evenodd" clip-rule="evenodd" d="M7.5001 90.8C8.0001 92 9.70011 92 10.2001 90.8C10.8001 89.2 11.7001 87.4999 12.5001 86.6999C13.3001 85.9999 15.0001 85.2 16.6001 84.6C17.8001 84.2 17.8001 82.5 16.6001 82C14.9001 81.4 13.2001 80.6 12.4001 79.9C11.6001 79.1 10.8001 77.5 10.2001 75.9C9.70011 74.7 8.0001 74.7 7.5001 75.9C6.9001 77.5 6.10012 79.1 5.40012 79.8C4.60012 80.6 2.8001 81.4 1.0001 82C-0.199902 82.5 -0.199902 84.1 1.0001 84.6C2.8001 85.3 4.6001 86.1 5.5001 86.9C6.1001 87.7 6.9001 89.3 7.5001 90.8Z" fill="#EB7444"/>
<path fill-rule="evenodd" clip-rule="evenodd" d="M140.6 139.5C140.9 140.3 142.1 140.3 142.5 139.5C143 138.4 143.5 137.2 144.1 136.7C144.6 136.2 145.8 135.7 146.9 135.3C147.8 135 147.8 133.9 146.9 133.5C145.7 133.1 144.5 132.6 144 132C143.5 131.5 142.9 130.4 142.5 129.3C142.2 128.5 141 128.5 140.6 129.3C140.2 130.4 139.6 131.5 139.1 132C138.5 132.5 137.3 133.1 136.1 133.5C135.2 133.8 135.2 134.9 136.1 135.3C137.3 135.7 138.6 136.3 139.2 136.9C139.7 137.4 140.2 138.4 140.6 139.5Z" fill="#DE4875"/>
<path fill-rule="evenodd" clip-rule="evenodd" d="M38.9001 15.1C39.7001 15.1 40.4001 15.8 40.4001 16.6C40.4001 17.4 39.7001 18.1 38.9001 18.1C38.1001 18.1 37.4001 17.4 37.4001 16.6C37.4001 15.8 38.1001 15.1 38.9001 15.1Z" fill="#EB7444"/>
<path fill-rule="evenodd" clip-rule="evenodd" d="M163.4 110.9C165.1 110.9 166.4 112.3 166.4 113.9C166.4 115.6 165 116.9 163.4 116.9C161.7 116.9 160.4 115.5 160.4 113.9C160.3 112.2 161.7 110.9 163.4 110.9Z" fill="#DE4875"/>
<path fill-rule="evenodd" clip-rule="evenodd" d="M12.7001 46.8C14.0001 46.8 15.0001 47.8 15.0001 49.1C15.0001 50.4 14.0001 51.4 12.7001 51.4C11.4001 51.4 10.4001 50.4 10.4001 49.1C10.4001 47.8 11.4001 46.8 12.7001 46.8Z" fill="#EB7444"/>
<path fill-rule="evenodd" clip-rule="evenodd" d="M90.8001 10.8001C91.1001 11.6001 92.3001 11.6001 92.7001 10.8001C93.2001 9.70007 93.7001 8.50002 94.3001 8.00002C94.8001 7.50002 96.0001 7 97.1001 6.6C98.0001 6.3 98.0001 5.20007 97.1001 4.80007C95.9001 4.40007 94.7001 3.90007 94.2001 3.30007C93.7001 2.80007 93.1001 1.7 92.7001 0.6C92.4001 -0.2 91.2001 -0.2 90.8001 0.6C90.4001 1.7 89.8001 2.80007 89.3001 3.30007C88.7001 3.80007 87.5001 4.40007 86.3001 4.80007C85.4001 5.10007 85.4001 6.2 86.3001 6.6C87.5001 7 88.8002 7.59998 89.4002 8.19998C89.9002 8.69998 90.4001 9.70007 90.8001 10.8001Z" fill="#EB7444"/>
<path fill-rule="evenodd" clip-rule="evenodd" d="M101.5 132.6C102.8 132.6 103.8 133.6 103.8 134.9C103.8 136.2 102.8 137.2 101.5 137.2C100.2 137.2 99.2002 136.2 99.2002 134.9C99.2002 133.6 100.2 132.6 101.5 132.6Z" fill="#EB7444"/>
<path fill-rule="evenodd" clip-rule="evenodd" d="M36.4001 136.9C36.7001 137.7 37.9001 137.7 38.3001 136.9C38.8001 135.8 39.3001 134.6 39.9001 134.1C40.4001 133.6 41.6001 133.1 42.7001 132.7C43.6001 132.4 43.6001 131.3 42.7001 130.9C41.5001 130.5 40.3001 130 39.8001 129.4C39.3001 128.9 38.7001 127.8 38.3001 126.7C38.0001 125.9 36.8001 125.9 36.4001 126.7C36.0001 127.8 35.4001 128.9 34.9001 129.4C34.3001 129.9 33.1001 130.5 31.9001 130.9C31.0001 131.2 31.0001 132.3 31.9001 132.7C33.1001 133.1 34.4001 133.7 35.0001 134.3C35.5001 134.8 36.0001 135.8 36.4001 136.9Z" fill="#DE4875"/>
<path fill-rule="evenodd" clip-rule="evenodd" d="M178.2 99.9C178.6 100.8 179.9 100.8 180.3 99.9C180.8 98.6 181.4 97.3 182.1 96.8C182.7 96.2 184 95.6999 185.3 95.1999C186.3 94.8999 186.3 93.5999 185.3 93.1999C184 92.6999 182.6 92.0999 182 91.5999C181.4 90.9999 180.8 89.7 180.3 88.5C179.9 87.6 178.6 87.6 178.2 88.5C177.7 89.7 177.1 91 176.5 91.5C175.9 92.1 174.4 92.6999 173.1 93.1999C172.1 93.4999 172.1 94.7999 173.1 95.1999C174.5 95.6999 175.9 96.4 176.6 97C177.2 97.5 177.8 98.7 178.2 99.9Z" fill="#EB7444"/>
<path fill-rule="evenodd" clip-rule="evenodd" d="M166.3 74.5C167.6 74.5 168.6 75.5 168.6 76.8C168.6 78.1 167.6 79.1 166.3 79.1C165 79.1 164 78.1 164 76.8C164 75.5 165 74.5 166.3 74.5Z" fill="#EB7444"/>
</svg>
