<svg width="174" height="190" viewBox="0 0 174 190" fill="none" xmlns="http://www.w3.org/2000/svg">
<path fill-rule="evenodd" clip-rule="evenodd" d="M111.3 20.3C112.1 18.2 114.4 17.2 116.5 18C130.7 23.4 142.4 33.7 149.6 47.2C150.6 49.1 149.9 51.6 147.9 52.6C147.3 52.9 146.7 53.1 146 53.1C144.6 53.1 143.2 52.3 142.5 51C136.2 39.2 126 30.2 113.6 25.5C111.6 24.7 110.5 22.4 111.3 20.3Z" fill="#DE4875"/>
<path fill-rule="evenodd" clip-rule="evenodd" d="M59.5 139.8H70.9C73.1 139.8 74.9 138 74.9 135.8C74.9 133.6 73.1 131.8 70.9 131.8H59.5C57.3 131.8 55.5 133.6 55.5 135.8C55.5 138 57.3 139.8 59.5 139.8Z" fill="#48A5DD"/>
<path fill-rule="evenodd" clip-rule="evenodd" d="M75.1001 64.2999C72.9001 64.2999 71.1001 66.0999 71.1001 68.2999C71.1001 70.4999 72.9001 72.2999 75.1001 72.2999H86.6001C88.8001 72.2999 90.6001 70.4999 90.6001 68.2999C90.6001 66.0999 88.8001 64.2999 86.6001 64.2999H75.1001Z" fill="#48A5DD"/>
<path fill-rule="evenodd" clip-rule="evenodd" d="M157.5 119.9C163.2 116.9 167 110.9 167 104C167 96.6 162.5 90.2 156.1 87.5C156.7 84 157 80.4 157 76.9C157 72.9 156.6 68.9 155.9 65.1C155.5 62.9 153.4 61.5 151.2 61.9C149 62.3 147.6 64.4 148 66.6C148.6 70 149 73.5 149 77C149 80 148.7 83.1 148.2 86.1H41C40.9 86.1 40.9 86.1 40.8 86.1C40.3 83.1 40 80 40 76.9C40 75.4 40.1 73.8 40.2 72.3H63C65.2 72.3 67 70.5 67 68.3C67 66.1 65.2 64.3 63 64.3H41.5C41.9 62.5 42.4 60.7 43 59C43.2 59 43.4 59.1 43.6 59.1H67.5C69.7 59.1 71.5 57.3 71.5 55.1C71.5 52.9 69.7 51.1 67.5 51.1H46.4C55.6 33.8 73.7 22 94.5 22C96.7 22 98.5 20.2 98.5 18C98.5 15.8 96.7 14 94.5 14C60 14 32 42.2 32 76.9C32 80.6 32.3 84.3 33 87.9C27.1 90.8 23 96.9 23 104C23 111.1 27.1 117.2 33.1 120.2L25.5 132C25.1 132.8 25 133.8 25.1 134.7L28.8 149.9C29 151 29.7 151.9 30.6 152.4L56.4 168.2C56.2 168.8 56 169.5 56 170.1V184C56 187.1 58.5 189.5 61.5 189.5C64.6 189.5 67 187 67 184V174.7L68.3 175.5L73.9 179.8L89.1 189.9H100.5L115.7 179.8L117.8 178.2L121.3 176V183.9C121.3 187 123.8 189.5 126.9 189.5C130 189.5 132.5 187 132.5 183.9V170C132.5 169.7 132.5 169.4 132.4 169.1L159.3 152.3C160.2 151.7 160.8 150.8 161.1 149.8L164.8 134.6C165 133.7 164.9 132.8 164.4 131.9L157.5 119.9ZM134 94H146C151.5 94 156 98.5 156 104C156 109.5 151.5 114 146 114H134V94ZM100.7 94H122.9V114H100.7V94ZM66.1 94H89.7V114H66.1V94ZM44 94H55V114H44C38.5 114 34 109.5 34 104C34 98.5 38.4 94 44 94ZM153.7 146.6L112.9 172H78.1L50.2 155H66C68.2 155 70 153.2 70 151C70 148.8 68.2 147 66 147H39C38.5 147 38 147.1 37.5 147.3L36.3 146.6L34.6 139.9H45.9C48.1 139.9 49.9 138.1 49.9 135.9C49.9 133.7 48.1 131.9 45.9 131.9H34.8L40.6 122.1H40.9H148.9H149.2L156.6 134.5L153.7 146.6Z" fill="#495FA9"/>
<path fill-rule="evenodd" clip-rule="evenodd" d="M167 167C165.2 166.3 163.3 165.5 162.4 164.6C161.5 163.7 160.7 161.9 160 160C159.5 158.7 157.6 158.7 157.1 160C156.4 161.8 155.6 163.6 154.7 164.5C153.8 165.4 151.9 166.3 150 167C148.7 167.5 148.7 169.4 150 169.9C151.7 170.5 153.5 171.3 154.3 172.1C155.2 173 156.2 175.1 156.9 177C157.4 178.3 159.3 178.3 159.8 177C160.5 175.1 161.4 173.1 162.3 172.3C163.1 171.5 165 170.6 166.8 170C168.3 169.4 168.3 167.5 167 167Z" fill="#48A5DD"/>
<path fill-rule="evenodd" clip-rule="evenodd" d="M24.0002 34.2999C25.7002 34.8999 27.3002 35.6999 28.1002 36.3999C29.0002 37.2999 29.9002 39.1999 30.6002 40.9999C31.1002 42.2999 32.9002 42.2999 33.4002 40.9999C34.1002 39.1999 34.9002 37.2999 35.8002 36.4999C36.6002 35.6999 38.4002 34.8999 40.1002 34.2999C41.4002 33.7999 41.4002 31.9999 40.1002 31.4999C38.4002 30.7999 36.6002 29.9999 35.8002 29.1999C35.0002 28.3999 34.2002 26.5999 33.5002 24.8999C33.0002 23.5999 31.2002 23.5999 30.7002 24.8999C30.1002 26.5999 29.3002 28.2999 28.5002 29.0999C27.7002 29.8999 25.9002 30.7999 24.1002 31.3999C22.7002 31.9999 22.7002 33.7999 24.0002 34.2999Z" fill="#48A5DD"/>
<path fill-rule="evenodd" clip-rule="evenodd" d="M133.8 9.09998C135.2 9.59998 136.6 10.3 137.2 11C137.9 11.8 138.7 13.5 139.3 15.1C139.7 16.2 141.2 16.2 141.6 15.1C142.2 13.5 142.9 11.9 143.6 11.1C144.3 10.4 145.7 9.69998 147.2 9.09998C148.3 8.69998 148.3 7.09998 147.2 6.59998C145.8 5.99998 144.3 5.29998 143.6 4.59998C142.9 3.89998 142.2 2.29998 141.7 0.799976C141.3 -0.300024 139.8 -0.300024 139.4 0.799976C138.9 2.29998 138.2 3.89998 137.5 4.59998C136.8 5.29998 135.3 6.09998 133.8 6.69998C132.7 7.09998 132.7 8.69998 133.8 9.09998Z" fill="#B44694"/>
<path fill-rule="evenodd" clip-rule="evenodd" d="M15.2001 120.7C13.8001 120.1 12.3001 119.4 11.6001 118.7C10.9001 118 10.2001 116.4 9.70012 114.9C9.30012 113.8 7.80013 113.8 7.40013 114.9C6.90013 116.4 6.20011 118 5.50011 118.7C4.80011 119.4 3.3001 120.2 1.8001 120.8C0.700098 121.2 0.700098 122.8 1.8001 123.3C3.2001 123.8 4.60012 124.5 5.20012 125.2C5.90012 126 6.7001 127.7 7.3001 129.3C7.7001 130.4 9.20009 130.4 9.60009 129.3C10.2001 127.7 10.9001 126.1 11.6001 125.3C12.3001 124.6 13.7001 123.9 15.2001 123.3C16.2001 122.7 16.3001 121.1 15.2001 120.7Z" fill="#B44694"/>
<path fill-rule="evenodd" clip-rule="evenodd" d="M30 166C28.3 166 27 167.3 27 169C27 170.7 28.3 172 30 172C31.7 172 33 170.7 33 169C33 167.3 31.6 166 30 166Z" fill="#DE4875"/>
<path fill-rule="evenodd" clip-rule="evenodd" d="M171.5 122C170.1 122 169 123.1 169 124.5C169 125.9 170.1 127 171.5 127C172.9 127 174 125.9 174 124.5C174 123.1 172.9 122 171.5 122Z" fill="#DE4875"/>
<path fill-rule="evenodd" clip-rule="evenodd" d="M19.5 57C18.7 57 18 57.7 18 58.5C18 59.3 18.7 60 19.5 60C20.3 60 21 59.3 21 58.5C21 57.7 20.3 57 19.5 57Z" fill="#DE4875"/>
<path fill-rule="evenodd" clip-rule="evenodd" d="M105 8C106.7 8 108 6.7 108 5C108 3.3 106.7 2 105 2C103.3 2 102 3.3 102 5C102 6.7 103.3 8 105 8Z" fill="#EB7444"/>
</svg>
