<svg width="198" height="169" viewBox="0 0 198 169" fill="none" xmlns="http://www.w3.org/2000/svg">
<path d="M188.1 74.9999L174.9 73.4999C173.7 69.1999 172.1 64.9999 170.1 61.0999L181.6 47.1999C181.7 47.0999 181.7 47.0999 181.8 46.9999C183.3 44.9999 184.2 42.5999 184.6 39.9999C184.9 37.7999 183.4 35.6999 181.3 35.3999C179.1 35.0999 177.1 36.5999 176.7 38.7999C176.5 40.0999 176.1 41.1999 175.4 42.1999L174 43.8999C167.4 32.6999 155.8 25.8999 148.7 22.5999C151 19.7999 155.5 18.7999 160.1 20.0999C162.2 20.6999 164.5 19.4999 165.1 17.2999C165.7 15.1999 164.5 12.8999 162.3 12.2999C154.3 9.99994 146.1 12.2999 141.9 18.0999L133.4 29.2999C133.3 29.4999 133.1 29.6999 133 29.8999C127 27.9999 120.7 26.9999 114.2 26.9999C110.4 26.9999 106.7 27.3999 102.9 27.9999C100.1 21.7999 93.8 17.4999 86.5 17.4999C78.4 17.4999 71.6001 22.7999 69.3 30.0999L57.2 29.9999C56.9 29.9999 56.6 29.9999 56.3 30.0999L39.1 33.7999C38.2 33.9999 37.4 34.4999 36.8 35.1999L23.8 51.8999C22.8 51.0999 21.6 50.6999 20.3 50.6999H6.40002C3.30002 50.6999 0.900024 53.1999 0.900024 56.1999C0.900024 59.2999 3.40002 61.6999 6.40002 61.6999H15.9L10.6 68.5999L9.90002 69.6999L8.90002 70.9999C8.60002 71.3999 8.39995 71.7999 8.19995 72.1999L0.5 83.7999V95.1999L8 106.4C8 107.3 8.30002 108.2 8.90002 108.9L14.3 115.8H6.5C3.4 115.8 0.900024 118.3 0.900024 121.4C0.900024 124.5 3.4 127 6.5 127H20.4C21.2 127 21.9 126.8 22.6 126.5L36.9 144.8C37.5 145.5 38.2999 146 39.2 146.2L56.4 149.9C56.7 150 57 150 57.2 150L69.7 149.9C72.2999 156.7 78.8 161.5 86.5 161.5C93.8 161.5 100 157.2 102.9 151C106.6 151.7 110.4 152 114.2 152C118.2 152 122.2 151.6 126 150.9C132.2 149.7 138.2 147.6 143.8 144.6C157.3 137.4 167.6 125.7 173 111.5C173.4 110.5 173.7 109.6 174 108.6L188.1 107C193.4 106.9 197.7 102.4 197.7 96.9999V84.8999C197.7 79.4999 193.4 75.0999 188.1 74.9999ZM67 141.9L59.2 142V129.8C59.2 127.6 57.4 125.8 55.2 125.8C53 125.8 51.2 127.6 51.2 129.8V140.7L43.3 139C43.7001 138.4 44 137.6 44 136.8V109.7C44 107.5 42.2 105.7 40 105.7C37.8 105.7 36 107.5 36 109.7V130.8L18.5 108.3V71.6999L42.2 41.2999L57.6 37.9999L67 38.0999V141.9ZM96.5 140.5C96.5 146 92 150.5 86.5 150.5C81 150.5 76.5 146 76.5 140.5V128.5H96.5V140.5ZM96.5 117.4H76.5V95.1999H96.5V117.4ZM96.5 84.1999H76.5V60.5999H96.5V84.1999ZM96.5 49.4999H76.5V38.4999C76.5 32.9999 81 28.4999 86.5 28.4999C92 28.4999 96.5 32.9999 96.5 38.4999V49.4999ZM143.6 29.0999C149.9 31.8999 162.9 38.7999 168.4 50.4999L165.7 53.7999C159.4 44.7999 150.8 37.5999 140.7 32.8999L143.6 29.0999ZM165.5 108.6C160.8 121 151.8 131.2 140 137.5C140 137.5 140 137.5 139.9 137.5V116C139.9 113.8 138.1 112 135.9 112C133.7 112 131.9 113.8 131.9 116V140C131.9 140.3 131.9 140.6 132 140.9C130.2 141.5 128.5 142 126.6 142.4V120.5C126.6 118.3 124.8 116.5 122.6 116.5C120.4 116.5 118.6 118.3 118.6 120.5V143.6C114 144 109.4 143.8 104.8 143V35.7999C107.8 35.2999 110.9 34.9999 114 34.9999C144.3 34.9999 168.9 59.3999 168.9 89.4999C169 96.0999 167.8 102.5 165.5 108.6ZM189.8 97.0999C189.8 98.1999 188.9 99.0999 187.8 99.0999L176 100.4C176.6 96.7999 177 93.1999 177 89.4999C177 86.8999 176.8 84.1999 176.5 81.6999L187.4 82.8999H187.8C188.9 82.8999 189.8 83.7999 189.8 84.8999V97.0999Z" fill="#495FA9"/>
<path fill-rule="evenodd" clip-rule="evenodd" d="M34.5 152.5C32.7 151.8 30.9 151 30 150.1C29.1 149.2 28.2 147.3 27.5 145.4C27 144.1 25.1 144.1 24.6 145.4C24 147.1 23.2 148.9 22.4 149.7C21.5 150.6 19.4 151.6 17.5 152.3C16.2 152.8 16.2 154.7 17.5 155.2C19.4 155.9 21.4 156.8 22.2 157.7C23 158.5 23.9 160.4 24.5 162.2C25 163.6 26.9 163.6 27.4 162.2C28.1 160.4 28.9001 158.5 29.8001 157.6C30.7001 156.7 32.5 155.9 34.4 155.2C35.8 155 35.8 153 34.5 152.5Z" fill="#48A5DD"/>
<path fill-rule="evenodd" clip-rule="evenodd" d="M182.5 142.1C180.8 141.5 179.1 140.7 178.3 139.9C177.5 139.1 176.6 137.3 176 135.5C175.5 134.2 173.7 134.2 173.2 135.5C172.6 137.2 171.8 138.8 171.1 139.6C170.2 140.5 168.3 141.4 166.5 142.1C165.2 142.6 165.2 144.4 166.5 144.9C168.3 145.6 170.2 146.4 171 147.3C171.8 148.1 172.6 149.9 173.2 151.6C173.7 152.9 175.5 152.9 176 151.6C176.7 149.9 177.5 148.1 178.3 147.3C179.1 146.5 180.9 145.7 182.6 145C183.8 144.4 183.8 142.6 182.5 142.1Z" fill="#48A5DD"/>
<path fill-rule="evenodd" clip-rule="evenodd" d="M124.3 16.1C125.9 16.7 127.5 17.4 128.3 18.1C129 18.8 129.7 20.2 130.3 21.7C130.7 22.8 132.3 22.8 132.8 21.7C133.4 20.3 134.1 18.8 134.8 18.1C135.5 17.4 137.1 16.7 138.6 16.2C139.7 15.8 139.7 14.3 138.6 13.9C137.1 13.4 135.5 12.7 134.8 12C134.1 11.3 133.3 9.79998 132.7 8.29998C132.3 7.19998 130.7 7.19998 130.2 8.29998C129.7 9.69998 129 11.1 128.3 11.7C127.5 12.4 125.8 13.2 124.2 13.8C123.2 14.2 123.2 15.7 124.3 16.1Z" fill="#48A5DD"/>
<path fill-rule="evenodd" clip-rule="evenodd" d="M53.3 9.09998C54.9 9.69998 56.5 10.4 57.3 11.1C58 11.8 58.7 13.2 59.3 14.7C59.7 15.8 61.3 15.8 61.8 14.7C62.4 13.3 63.1 11.8 63.8 11.1C64.5 10.4 66.1 9.69998 67.6 9.19998C68.7 8.79998 68.7 7.29997 67.6 6.89997C66.1 6.39997 64.5 5.69998 63.8 4.99998C63.1 4.29998 62.2999 2.79998 61.6999 1.29998C61.2999 0.199976 59.6999 0.199976 59.1999 1.29998C58.6999 2.69998 58 4.09998 57.3 4.69998C56.5 5.39998 54.7999 6.19997 53.1999 6.79997C52.1999 7.19997 52.2 8.69998 53.3 9.09998Z" fill="#B44694"/>
<path fill-rule="evenodd" clip-rule="evenodd" d="M21.5 27.5C23.2 27.5 24.5 26.2 24.5 24.5C24.5 22.8 23.2 21.5 21.5 21.5C19.8 21.5 18.5 22.8 18.5 24.5C18.5 26.2 19.8 27.5 21.5 27.5Z" fill="#B44694"/>
<path fill-rule="evenodd" clip-rule="evenodd" d="M66 163.5C64.6 163.5 63.5 164.6 63.5 166C63.5 167.4 64.6 168.5 66 168.5C67.4 168.5 68.5 167.4 68.5 166C68.5 164.6 67.4 163.5 66 163.5Z" fill="#EB7444"/>
<path fill-rule="evenodd" clip-rule="evenodd" d="M110 13.5C110.8 13.5 111.5 12.8 111.5 12C111.5 11.2 110.8 10.5 110 10.5C109.2 10.5 108.5 11.2 108.5 12C108.5 12.8 109.2 13.5 110 13.5Z" fill="#EB7444"/>
<path fill-rule="evenodd" clip-rule="evenodd" d="M134.5 158.5C132.8 158.5 131.5 159.8 131.5 161.5C131.5 163.2 132.8 164.5 134.5 164.5C136.2 164.5 137.5 163.2 137.5 161.5C137.5 159.8 136.1 158.5 134.5 158.5Z" fill="#48A5DD"/>
<path fill-rule="evenodd" clip-rule="evenodd" d="M169.8 25.2C172.3 26.5 173.3 27.6 174.3 29.1C175.1 30.3 176.4 31 177.7 31C178.4 31 179.2 30.8 179.8 30.4C181.7 29.2 182.3 26.7 181.1 24.8C179.3 21.9 177 19.8 173.5 18C171.5 17 169.1 17.7 168.1 19.7C167.1 21.8 167.8 24.2 169.8 25.2Z" fill="#DE4875"/>
<path fill-rule="evenodd" clip-rule="evenodd" d="M51.2 104.8V116.2C51.2 118.4 53 120.2 55.2 120.2C57.4 120.2 59.2 118.4 59.2 116.2V104.8C59.2 102.6 57.4 100.8 55.2 100.8C53 100.8 51.2 102.5 51.2 104.8Z" fill="#EB7444"/>
<path fill-rule="evenodd" clip-rule="evenodd" d="M122.7 93C120.5 93 118.7 94.8 118.7 97V108.5C118.7 110.7 120.5 112.5 122.7 112.5C124.9 112.5 126.7 110.7 126.7 108.5V97C126.7 94.8 125 93 122.7 93Z" fill="#EB7444"/>
</svg>
