<svg width="209" height="184" viewBox="0 0 209 184" fill="none" xmlns="http://www.w3.org/2000/svg">
<path fill-rule="evenodd" clip-rule="evenodd" d="M194.1 50.9C193.4 48.8 191.1 47.7 189 48.4C186.9 49.1 185.8 51.4 186.5 53.5C190.8 66 190.5 79.6 185.5 91.8C182.6 98.9 178.4 105 173.3 110.1C173.1 109.6 172.8 109.2 172.4 108.8C163.8 100 151.2 86.3 140.7 70.7C129.5 54.1 120.2 35.5 114.4 22.9C114.1 22.2 113.6 21.7 113.1 21.3C121.6 17.6 131.2 16 140.8 17C143 17.2 145 15.7 145.2 13.5C145.4 11.3 143.9 9.30001 141.7 9.10001C114 6.00001 87.4001 22 76.9001 47.8C74.0001 55.1 72.5001 62.6 72.4001 70L18.8001 75.7C16.6001 75.9 15.0001 77.9 15.3001 80.1C15.4001 80.7 15.5001 81.2 15.8001 81.7C16.6001 83 18.1001 83.9 19.7001 83.7L72.8001 78C73.8001 87 76.7001 95.7 81.4001 103.5L24.4001 141.6C22.6001 142.8 22.1001 145.3 23.3001 147.2C24.1001 148.4 25.3001 149 26.6001 149C27.4001 149 28.1001 148.8 28.8001 148.3L85.9001 110.1C92.4001 118.4 101.1 125.1 111.5 129.4H111.6L89.9001 178.3C89.0001 180.3 89.9001 182.7 92.0001 183.6C92.5001 183.8 93.1001 183.9 93.6001 183.9C95.2001 183.9 96.6001 183 97.3001 181.5L119.3 131.9C124.5 133.2 129.7 133.9 134.9 133.9C159.6 133.9 183.1 119.1 193 94.8C198.6 80.8 199 65.2 194.1 50.9ZM134.9 126C128.1 126 121.2 124.7 114.5 122C105.6 118.4 98.2001 112.7 92.6001 105.7L102.7 98.9C104.5 97.7 105 95.2 103.8 93.3C102.6 91.4 100.1 90.9 98.3001 92.2L88.0001 99.1C79.7001 84.9 77.8001 67.2 84.4001 50.9C85.5001 48.1 86.9001 45.4 88.5001 42.8C94.2001 55.1 102.7 71.8 113 87C123.5 102.6 136 116.6 144.2 125.2C141.1 125.7 138 126 134.9 126ZM153.1 122.8C145.4 115 131.2 99.7 119.6 82.5C108.6 66.2 99.7001 48.3 94.2001 36.1C94.1001 35.9 94.0001 35.7 93.8001 35.5C97.6001 31.2 102 27.5 106.8 24.6C106.8 25.2 106.9 25.7 107.2 26.2C113.1 39.1 122.6 58.1 134.1 75.1C145 91.2 157.9 105.4 166.8 114.4C167.1 114.7 167.4 114.9 167.7 115C163.2 118.4 158.3 121 153.1 122.8Z" fill="#495FA9"/>
<path fill-rule="evenodd" clip-rule="evenodd" d="M153.8 15.5C154.7 13.5 157.1 12.6 159.1 13.4C169.7 18.1 178.8 25.6 185.4 35.3C186.7 37.1 186.2 39.6 184.4 40.9C183.7 41.4 182.9 41.6 182.1 41.6C180.8 41.6 179.6 41 178.8 39.9C173 31.5 165.1 24.9 155.9 20.8C153.8 19.9 152.9 17.5 153.8 15.5Z" fill="#48A5DD"/>
<path fill-rule="evenodd" clip-rule="evenodd" d="M207.3 146.9C204.3 148.1 201.1 149.5 199.7 151C198.2 152.6 196.7 156 195.4 159.3C194.5 161.6 191.3 161.7 190.4 159.3C189.1 155.9 187.5 152.4 186 150.8C184.6 149.4 181.7 148 178.7 146.9C176.4 146 176.4 142.7 178.7 141.8C181.8 140.6 185.1 139 186.5 137.5C187.9 136 189.3 132.8 190.5 129.7C191.4 127.4 194.6 127.4 195.4 129.7C196.6 132.9 198 136.1 199.5 137.6C201 139.1 204.1 140.6 207.2 141.8C209.5 142.7 209.5 146 207.3 146.9Z" fill="#E35962"/>
<path fill-rule="evenodd" clip-rule="evenodd" d="M53.2 21.6C55.3 20.7 57.6 19.7 58.6 18.6C59.6 17.6 60.6 15.4 61.3 13.2C61.9 11.6 64.1 11.6 64.7 13.2C65.5 15.4 66.5 17.7 67.5 18.7C68.5 19.7 70.7 20.8 72.8 21.6C74.4 22.2 74.4 24.5 72.8 25.1C70.7 26 68.6 27 67.6 28C66.6 29.1 65.5 31.5 64.7 33.8C64.1 35.4 61.9 35.4 61.3 33.8C60.4 31.5 59.3 29 58.2 27.9C57.3 26.9 55.2 26 53.2 25.2C51.6 24.5 51.6 22.2 53.2 21.6Z" fill="#E35962"/>
<path fill-rule="evenodd" clip-rule="evenodd" d="M176.8 7.69998C178.3 7.09998 179.8 6.39998 180.5 5.59998C181.2 4.89998 181.8 3.29998 182.4 1.79998C182.8 0.699976 184.3 0.699976 184.7 1.79998C185.3 3.29998 185.9 4.89998 186.6 5.59998C187.3 6.29998 188.8 6.99998 190.2 7.59998C191.3 7.99998 191.3 9.59998 190.2 10.1C188.8 10.7 187.3 11.4 186.6 12.1C185.9 12.9 185.2 14.5 184.6 16.1C184.2 17.2 182.7 17.2 182.3 16.1C181.7 14.5 181 12.7 180.2 12C179.6 11.3 178.2 10.7 176.8 10.1C175.7 9.69998 175.7 8.09998 176.8 7.69998Z" fill="#AB4795"/>
<path fill-rule="evenodd" clip-rule="evenodd" d="M14.2001 116.2C12.8001 116.8 11.3001 117.5 10.6001 118.2C9.9001 119 9.2001 120.6 8.6001 122.2C8.2001 123.3 6.7001 123.3 6.3001 122.2C5.7001 120.6 5.0001 118.8 4.2001 118.1C3.6001 117.4 2.2001 116.8 0.800098 116.2C-0.299902 115.8 -0.299902 114.2 0.800098 113.7C2.3001 113.1 3.8001 112.4 4.5001 111.6C5.2001 110.9 5.8001 109.3 6.4001 107.8C6.8001 106.7 8.3001 106.7 8.7001 107.8C9.3001 109.3 9.9001 110.9 10.6001 111.6C11.3001 112.3 12.8001 113 14.2001 113.6C15.3001 114.1 15.2001 115.7 14.2001 116.2Z" fill="#AB4795"/>
<path fill-rule="evenodd" clip-rule="evenodd" d="M88 148C88 149.1 87.1 150 86 150C84.9 150 84 149.1 84 148C84 146.9 84.9 146 86 146C87.1 146 88 146.9 88 148Z" fill="#48A4DC"/>
<path fill-rule="evenodd" clip-rule="evenodd" d="M163 143C163 145.2 161.2 147 159 147C156.8 147 155 145.2 155 143C155 140.8 156.8 139 159 139C161.2 139 163 140.8 163 143Z" fill="#EB7444"/>
<path d="M99 14C100.657 14 102 12.6569 102 11C102 9.34315 100.657 8 99 8C97.3431 8 96 9.34315 96 11C96 12.6569 97.3431 14 99 14Z" fill="#48A4DC"/>
<path fill-rule="evenodd" clip-rule="evenodd" d="M39 49.5C39 48.1 40.1 47 41.5 47C42.9 47 44 48.1 44 49.5C44 50.9 42.9 52 41.5 52C40.1 52 39 50.9 39 49.5Z" fill="#48A4DC"/>
</svg>
