<svg width="157" height="139" viewBox="0 0 157 139" fill="none" xmlns="http://www.w3.org/2000/svg">
<path fill-rule="evenodd" clip-rule="evenodd" d="M127.1 93.3L118.1 71.3H100.2L83.2 50.3H106.9C109.2 50.3 111 48.5 111 46.2C111 43.9 109.1 42.1001 106.9 42.1001H66.2C66.2 41.7001 66.3001 41.4 66.3001 41C66.3001 31.7 58.7 24.1001 49.3 24.1001C39.9 24.1001 32.3 31.7 32.3 41C32.3 50.3 39.9001 57.8999 49.2001 57.8999V89.7C49.2001 92 51.1 93.8 53.3 93.8C55.6 93.8 57.4001 92 57.4001 89.7V73.7L80.6 90.5L80.5001 90.6001L84.2 93.1001L87.3001 95.3999L87.4001 95.3L96.6 101.5L92.2 122.1C91.7 124.3 93.2001 126.5 95.4001 127C95.7001 127.1 96.0001 127.1 96.3001 127.1C98.2001 127.1 99.9001 125.8 100.4 123.8L105.9 97.8L92.6 88.8999L100 79.7H112.3L119.2 96.5C120.1 98.6 122.5 99.6001 124.6 98.8C126.9 97.8 127.9 95.4 127.1 93.3ZM49.4001 49.6001C44.6001 49.6001 40.7001 45.6999 40.7001 40.8999C40.7001 36.0999 44.6001 32.2 49.4001 32.2C54.2001 32.2 58.1 36.0999 58.1 40.8999C58.1 45.6999 54.1001 49.6001 49.4001 49.6001ZM86.0001 84L57.6 63.3999V56L64.8001 50.2H72.6L92.9001 75.3L86.0001 84Z" fill="#495FA9"/>
<path fill-rule="evenodd" clip-rule="evenodd" d="M31.3 4.1001C30.5 4.1001 29.8 4.8001 29.8 5.6001C29.8 6.4001 30.5 7.1001 31.3 7.1001C32.1 7.1001 32.8 6.4001 32.8 5.6001C32.8 4.8001 32.2 4.1001 31.3 4.1001ZM3.10004 64.8C1.80004 64.8 0.800049 65.8001 0.800049 67.1001C0.800049 68.4001 1.80004 69.3999 3.10004 69.3999C4.40004 69.3999 5.40009 68.4001 5.40009 67.1001C5.40009 65.8001 4.30004 64.8 3.10004 64.8ZM152.7 53.5C151.4 53.5 150.4 54.5 150.4 55.8C150.4 57.1 151.4 58.1001 152.7 58.1001C154 58.1001 155 57.1 155 55.8C155 54.5 153.9 53.5 152.7 53.5ZM124.8 11.8999C124 11.8999 123.3 12.5999 123.3 13.3999C123.3 14.1999 124 14.8999 124.8 14.8999C125.6 14.8999 126.3 14.1999 126.3 13.3999C126.3 12.5999 125.7 11.8999 124.8 11.8999Z" fill="#495FA9"/>
<path fill-rule="evenodd" clip-rule="evenodd" d="M155.7 79.1C154.4 79.6 153.1 80.0999 152.5 80.6999C151.9 81.2999 151.2 82.6 150.7 83.8C150.3 84.7 149 84.7 148.6 83.8C148.1 82.6 147.6 81.3999 147 80.8999C146.3 80.2999 144.9 79.6 143.5 79.1C142.5 78.7 142.5 77.5 143.5 77.1C144.8 76.6 146.3 75.9999 146.9 75.3999C147.5 74.7999 148.1 73.5999 148.6 72.3999C149 71.4999 150.3 71.4999 150.7 72.3999C151.2 73.5999 151.8 74.9 152.4 75.5C153 76.1 154.4 76.7 155.7 77.1C156.6 77.4 156.6 78.7 155.7 79.1Z" fill="#48A5DD"/>
<path fill-rule="evenodd" clip-rule="evenodd" d="M145.8 111.9C145.8 113.6 144.4 114.9 142.8 114.9C141.1 114.9 139.8 113.5 139.8 111.9C139.8 110.2 141.2 108.9 142.8 108.9C144.4 108.9 145.8 110.2 145.8 111.9Z" fill="#495FA9"/>
<path fill-rule="evenodd" clip-rule="evenodd" d="M137.3 44.6999C136 45.1999 134.7 45.7 134.1 46.3C133.5 46.9 132.8 48.1999 132.3 49.3999C131.9 50.2999 130.6 50.2999 130.2 49.3999C129.7 48.1999 129.2 47 128.6 46.5C127.9 45.9 126.5 45.1999 125.1 44.6999C124.1 44.2999 124.1 43.0999 125.1 42.6999C126.4 42.1999 127.9 41.6 128.5 41C129.1 40.4 129.7 39.2 130.2 38C130.6 37.1 131.9 37.1 132.3 38C132.8 39.2 133.4 40.5 134 41.1C134.6 41.7 136 42.2999 137.3 42.6999C138.2 42.9999 138.2 44.2999 137.3 44.6999Z" fill="#495FA9"/>
<path fill-rule="evenodd" clip-rule="evenodd" d="M96.4 6.60012C95.3 7.00012 94.1 7.50002 93.6 8.00002C93 8.50002 92.5 9.70007 92 10.8001C91.7 11.6001 90.5 11.6001 90.1 10.8001C89.7 9.80007 89.1999 8.69998 88.6999 8.19998C88.0999 7.59998 86.8 7.10012 85.6 6.60012C84.7 6.30012 84.8 5.20007 85.6 4.80007C86.8 4.40007 88.1 3.80007 88.6 3.30007C89.1 2.80007 89.7 1.7 90.1 0.6C90.4 -0.2 91.6 -0.2 92 0.6C92.4 1.7 93 2.80007 93.5 3.30007C94 3.80007 95.2 4.30007 96.4 4.80007C97.3 5.10007 97.3 6.30012 96.4 6.60012Z" fill="#48A5DD"/>
<path fill-rule="evenodd" clip-rule="evenodd" d="M53.3 7.8999C52 7.8999 51 6.9001 51 5.6001C51 4.3001 52 3.30005 53.3 3.30005C54.6 3.30005 55.6 4.3001 55.6 5.6001C55.6 6.9001 54.6 7.8999 53.3 7.8999Z" fill="#DE4875"/>
<path fill-rule="evenodd" clip-rule="evenodd" d="M32.5 91.6C31.4 92 30.2001 92.4999 29.7001 92.9999C29.1001 93.4999 28.6 94.7 28.1 95.8C27.8 96.6 26.6001 96.6 26.2001 95.8C25.8001 94.8 25.3 93.6999 24.8 93.1999C24.2 92.5999 22.9001 92.1 21.7001 91.6C20.8001 91.3 20.9001 90.2 21.7001 89.8C22.9001 89.4 24.2001 88.8 24.7001 88.3C25.2001 87.8 25.8001 86.7 26.2001 85.6C26.5001 84.8 27.7 84.8 28.1 85.6C28.5 86.7 29.1 87.8 29.6 88.3C30.1 88.8 31.3 89.3 32.5 89.8C33.4 90.2 33.3 91.3 32.5 91.6Z" fill="#DE4875"/>
<path fill-rule="evenodd" clip-rule="evenodd" d="M18.9001 48.6002C17.3001 49.2002 15.6 49.9 14.8 50.7C14 51.5 13.2 53.1001 12.5 54.8001C12 56.0001 10.3 56.0001 9.80002 54.8001C9.20002 53.3001 8.50002 51.7001 7.80002 51.0001C7.00002 50.2001 5.10002 49.4 3.30002 48.7C2.10002 48.2 2.10002 46.6002 3.30002 46.1002C5.00002 45.5002 6.80005 44.7 7.70005 43.9C8.50005 43.2 9.20006 41.5001 9.90006 40.0001C10.4001 38.8001 12.1 38.8001 12.6 40.0001C13.2 41.6001 14 43.3001 14.8 44.0001C15.6 44.8001 17.3 45.5002 19 46.1002C20.1 46.5002 20.1001 48.2002 18.9001 48.6002Z" fill="#DE4875"/>
<path fill-rule="evenodd" clip-rule="evenodd" d="M34.4001 75.3999C34.4001 74.3999 35.2001 73.5 36.3001 73.5C37.3001 73.5 38.2001 74.2999 38.2001 75.3999C38.2001 76.3999 37.4001 77.3 36.3001 77.3C35.2001 77.3 34.4001 76.3999 34.4001 75.3999Z" fill="#495FA9"/>
<path fill-rule="evenodd" clip-rule="evenodd" d="M34.3 122.9C35.5 122.5 36.8 121.9 37.3 121.4C37.8 120.9 38.4 119.8 38.8 118.7C39.1 117.9 40.3 117.9 40.7 118.7C41.1 119.8 41.7 120.9 42.2 121.4C42.7 121.9 43.9 122.4 45.1 122.9C46 123.2 45.9 124.4 45.1 124.7C44 125.1 42.8 125.6 42.3 126.1C41.7 126.6 41.2 127.8 40.7 128.9C40.4 129.7 39.2 129.7 38.8 128.9C38.4 127.9 37.9 126.8 37.4 126.3C36.8 125.7 35.5 125.2 34.3 124.7C33.4 124.4 33.4 123.2 34.3 122.9Z" fill="#EB7444"/>
<path fill-rule="evenodd" clip-rule="evenodd" d="M78.8 118.6C80.1 118.6 81.1 119.6 81.1 120.9C81.1 122.2 80.1 123.2 78.8 123.2C77.5 123.2 76.5 122.2 76.5 120.9C76.5 119.6 77.6 118.6 78.8 118.6Z" fill="#48A5DD"/>
<path fill-rule="evenodd" clip-rule="evenodd" d="M115.5 131.5C116.7 131.1 118 130.5 118.5 130C119 129.5 119.6 128.4 120 127.3C120.3 126.5 121.5 126.5 121.9 127.3C122.3 128.4 122.9 129.5 123.4 130C123.9 130.5 125.1 131 126.3 131.5C127.2 131.8 127.1 133 126.3 133.3C125.2 133.7 124 134.2 123.5 134.7C122.9 135.2 122.4 136.4 121.9 137.5C121.6 138.3 120.4 138.3 120 137.5C119.6 136.5 119.1 135.4 118.6 134.9C118 134.3 116.7 133.8 115.5 133.3C114.6 133 114.6 131.8 115.5 131.5Z" fill="#DE4875"/>
</svg>
