<svg width="199" height="151" viewBox="0 0 199 151" fill="none" xmlns="http://www.w3.org/2000/svg">
<path fill-rule="evenodd" clip-rule="evenodd" d="M112.4 71C110.9 71.9 110.4 73.8 111.3 75.3C111.8 76.1 111.9 77.1 111.7 78C111.5 78.9 110.9 79.7 110 80.2L99.5999 86.2C97.8999 87.2 95.7 86.6 94.7 84.9L88.7 74.5C88.2 73.7 88.0999 72.7 88.2999 71.8C88.4999 70.9 89.0999 70.1 89.9999 69.6C91.4999 68.7 91.9999 66.8 91.0999 65.3C90.1999 63.8 88.2999 63.3 86.7999 64.1C84.4999 65.4 82.9 67.5 82.2 70.1C81.5 72.6 81.9 75.3 83.2 77.5L89.2 87.9C91 91 94.3 92.8 97.7 92.8C99.4 92.8 101 92.4 102.6 91.5L113 85.5C115.3 84.2 116.9 82.1 117.6 79.5C118.3 77 117.9 74.3 116.6 72.1C115.8 70.7 113.9 70.2 112.4 71Z" fill="#495FA9"/>
<path fill-rule="evenodd" clip-rule="evenodd" d="M97.2999 58.2C95.7999 59.1 95.2999 61 96.1999 62.5C97.0999 64 98.9999 64.5 100.5 63.7C102.2 62.7 104.4 63.3 105.4 65C106 66 107 66.6 108.1 66.6C108.6 66.6 109.2 66.5 109.7 66.2C111.2 65.3 111.7 63.4 110.8 61.9C108 57.1 102 55.5 97.2999 58.2Z" fill="#495FA9"/>
<path fill-rule="evenodd" clip-rule="evenodd" d="M197.6 27.4001L189.9 14.1001C188.3 11.4001 185.5 9.80005 182.5 9.80005C181.1 9.80005 179.6 10.2001 178.2 10.9001L116.2 46.7001C112.1 49.1001 110.7 54.3 113.1 58.3L120.8 71.6001C122.4 74.3001 125.2 75.9001 128.2 75.9001C129.6 75.9001 131.1 75.5 132.5 74.8L194.5 39.0001C198.6 36.7001 200 31.5001 197.6 27.4001ZM151.5 54.7001L143.3 40.5001L159.6 31.1001L167.8 45.3L151.5 54.7001ZM128.5 67.9001C128.4 68.0001 128.3 68.0001 128.2 68.0001C128.1 68.0001 127.9 68.0001 127.7 67.7001L120 54.4001C120 54.4001 119.9 54.2001 119.9 54.0001C120 53.8001 120.1 53.7001 120.1 53.7001L137.2 43.9001L145.4 58.1001L128.5 67.9001ZM190.8 31.8C190.7 32 190.6 32.1001 190.6 32.1001L173.7 41.8L165.5 27.6001L182.4 17.9001C182.5 17.8001 182.6 17.8 182.7 17.8C182.8 17.8 183 17.8001 183.2 18.1001L190.9 31.4001C190.8 31.5001 190.8 31.6 190.8 31.8Z" fill="#495FA9"/>
<path fill-rule="evenodd" clip-rule="evenodd" d="M79.1999 78.0001C77.5999 75.3001 74.7999 73.7001 71.7999 73.7001C70.3999 73.7001 68.8999 74.1 67.4999 74.8L5.49991 110.6C1.39991 113 -6.27041e-05 118.2 2.39994 122.2L10.0999 135.5C11.6999 138.2 14.4999 139.8 17.4999 139.8C18.8999 139.8 20.3999 139.4 21.7999 138.7L83.7999 102.9C87.8999 100.5 89.2999 95.3 86.8999 91.3L79.1999 78.0001ZM38.9999 119.5L30.7999 105.3L47.0999 95.9001L55.2999 110.1L38.9999 119.5ZM17.6999 131.8C17.5999 131.9 17.4999 131.9 17.3999 131.9C17.2999 131.9 17.0999 131.9 16.8999 131.6L9.19993 118.3C9.19993 118.3 9.09989 118.1 9.09989 117.9C9.19989 117.7 9.2999 117.6 9.2999 117.6L24.6999 108.7L32.8999 122.9L17.6999 131.8ZM79.9999 95.7001C79.8999 95.9001 79.7999 96.0001 79.7999 96.0001L61.2999 106.7L53.0999 92.5001L71.5999 81.8C71.6999 81.7 71.7999 81.7001 71.8999 81.7001C71.9999 81.7001 72.1999 81.7001 72.3999 82.0001L80.0999 95.3C79.9999 95.4 79.9999 95.5001 79.9999 95.7001Z" fill="#495FA9"/>
<path fill-rule="evenodd" clip-rule="evenodd" d="M112 95.5001C115 93.8001 116.7 90.8001 117.1 87.7001L102.7 96.0001C105.5 97.3001 109 97.2001 112 95.5001Z" fill="#48A5DD"/>
<path fill-rule="evenodd" clip-rule="evenodd" d="M85.9999 25.7C87.6999 26.3 89.4 27.1 90.2 27.8C91 28.6 91.8999 30.3 92.4999 32C92.9999 33.2 94.7999 33.2 95.2999 32C95.8999 30.4 96.7 28.9 97.4 28.1C98.3 27.3 100.2 26.4 102 25.7C103.3 25.2 103.3 23.5 102 23.1C100.2 22.5 98.2999 21.6 97.4999 20.8C96.6999 20 95.8999 18.4 95.2999 16.8C94.7999 15.6 92.9999 15.6 92.4999 16.8C91.7999 18.4 91 20.1 90.2 20.9C89.4 21.7 87.6 22.5 85.9 23.1C84.7 23.5 84.6999 25.2 85.9999 25.7Z" fill="#48A5DD"/>
<path fill-rule="evenodd" clip-rule="evenodd" d="M193.8 80.2C191.5 79.4 189.1 78.3 188 77.3C187 76.3 186 74.2 185.2 72.1C184.6 70.5 182.3 70.5 181.7 72.1C180.9 74.2 179.8 76.4 178.8 77.4C177.8 78.4 175.5 79.4 173.3 80.2C171.7 80.8 171.7 83 173.3 83.6C175.5 84.4 177.7 85.4 178.7 86.3C179.8 87.3 180.8 89.5 181.7 91.7C182.3 93.3 184.6 93.2 185.2 91.7C186 89.7 186.9 87.6 187.9 86.7C189 85.6 191.5 84.5 193.8 83.6C195.4 83 195.4 80.8 193.8 80.2Z" fill="#DE4875"/>
<path fill-rule="evenodd" clip-rule="evenodd" d="M6.69994 98.1C7.09994 99.2 8.69994 99.2 9.19994 98.1C9.69994 96.7 10.3999 95.3 11.0999 94.7C11.8999 94 13.5999 93.2 15.1999 92.6C16.2999 92.2 16.2999 90.7 15.1999 90.3C13.5999 89.7 11.9999 89 11.1999 88.3C10.4999 87.6 9.79994 86.2 9.19994 84.7C8.79994 83.6 7.19994 83.6 6.69994 84.7C6.09994 86.1 5.39994 87.6 4.69994 88.3C3.99994 89 2.39995 89.7 0.899951 90.2C-0.200049 90.6 -0.200049 92.1 0.899951 92.5C2.39995 93 3.99994 93.7 4.69994 94.4C5.39994 95.1 6.09994 96.6 6.69994 98.1Z" fill="#48A5DD"/>
<path fill-rule="evenodd" clip-rule="evenodd" d="M65.0998 142.2C63.4998 141.6 61.8998 140.9 61.0998 140.2C60.3998 139.5 59.6998 138.1 59.0998 136.6C58.6998 135.5 57.0998 135.5 56.5998 136.6C55.9998 138 55.2998 139.5 54.5998 140.2C53.8998 140.9 52.2999 141.6 50.7999 142.1C49.6999 142.5 49.6999 144 50.7999 144.4C52.2999 144.9 53.8998 145.6 54.5998 146.3C55.2998 147 56.0999 148.5 56.6999 150C57.0999 151.1 58.6999 151.1 59.1999 150C59.6999 148.6 60.3998 147.2 61.0998 146.6C61.8998 145.9 63.5999 145.1 65.1999 144.5C66.2999 144.1 66.2998 142.6 65.0998 142.2Z" fill="#DE4875"/>
<path fill-rule="evenodd" clip-rule="evenodd" d="M174 67.9C174 66.8 173.1 65.9 172 65.9C170.9 65.9 170 66.8 170 67.9C170 69 170.9 69.9 172 69.9C173.1 69.9 174 69 174 67.9Z" fill="#DE4875"/>
<path fill-rule="evenodd" clip-rule="evenodd" d="M51 77.9C53.2 77.9 55 76.1 55 73.9C55 71.7 53.2 69.9 51 69.9C48.8 69.9 47 71.7 47 73.9C47 76.1 48.8 77.9 51 77.9Z" fill="#EB7444"/>
<path fill-rule="evenodd" clip-rule="evenodd" d="M145 88.9C143.3 88.9 142 90.2 142 91.9C142 93.6 143.3 94.9 145 94.9C146.7 94.9 148 93.6 148 91.9C148 90.2 146.7 88.9 145 88.9Z" fill="#EB7444"/>
<path fill-rule="evenodd" clip-rule="evenodd" d="M79.5 120.9C78.1 120.9 77 122 77 123.4C77 124.8 78.1 125.9 79.5 125.9C80.9 125.9 82 124.8 82 123.4C82 122 80.9 120.9 79.5 120.9Z" fill="#DE4875"/>
<path fill-rule="evenodd" clip-rule="evenodd" d="M132.8 10.5C134.3 11 135.9 11.7 136.6 12.4C137.3 13.1 138.1 14.6 138.7 16.1C139.1 17.2 140.7 17.2 141.2 16.1C141.7 14.7 142.4 13.3 143.1 12.7C143.9 12 145.6 11.2 147.2 10.6C148.3 10.2 148.3 8.69998 147.2 8.29998C145.6 7.69998 144 6.99998 143.2 6.29998C142.5 5.59998 141.8 4.2 141.2 2.7C140.8 1.6 139.2 1.6 138.7 2.7C138.1 4.1 137.4 5.59998 136.7 6.29998C136 6.99998 134.4 7.7 132.9 8.2C131.7 8.6 131.7 10.1 132.8 10.5Z" fill="#EB7444"/>
<path fill-rule="evenodd" clip-rule="evenodd" d="M30 76.9C31.7 76.9 33 75.6 33 73.9C33 72.2 31.7 70.9 30 70.9C28.3 70.9 27 72.2 27 73.9C27 75.6 28.3 76.9 30 76.9Z" fill="#DE4875"/>
<path fill-rule="evenodd" clip-rule="evenodd" d="M78 51.9C79.1 51.9 80 51 80 49.9C80 48.8 79.1 47.9 78 47.9C76.9 47.9 76 48.8 76 49.9C76 51 76.9 51.9 78 51.9Z" fill="#DE4875"/>
<path fill-rule="evenodd" clip-rule="evenodd" d="M168 6.90002C169.7 6.90002 171 5.60002 171 3.90002C171 2.20002 169.7 0.900024 168 0.900024C166.3 0.900024 165 2.20002 165 3.90002C165 5.50002 166.3 6.90002 168 6.90002Z" fill="#DE4875"/>
<path fill-rule="evenodd" clip-rule="evenodd" d="M109.1 121.2C107.5 120.6 105.9 119.9 105.1 119.2C104.4 118.5 103.7 117.1 103.1 115.6C102.7 114.5 101.1 114.5 100.6 115.6C99.9998 117 99.2998 118.5 98.5998 119.2C97.8998 119.9 96.2999 120.6 94.7999 121.1C93.6999 121.5 93.6999 123 94.7999 123.4C96.2999 123.9 97.8998 124.6 98.5998 125.3C99.2998 126 100.1 127.5 100.7 129C101.1 130.1 102.7 130.1 103.2 129C103.7 127.6 104.4 126.2 105.1 125.6C105.9 124.9 107.6 124.1 109.2 123.5C110.3 123.1 110.3 121.6 109.1 121.2Z" fill="#48A5DD"/>
</svg>
