<svg width="186" height="162" viewBox="0 0 186 162" fill="none" xmlns="http://www.w3.org/2000/svg">
<path d="M65.5 97.9C68.5376 97.9 71 95.4376 71 92.4C71 89.3625 68.5376 86.9 65.5 86.9C62.4624 86.9 60 89.3625 60 92.4C60 95.4376 62.4624 97.9 65.5 97.9Z" fill="#E35962"/>
<path fill-rule="evenodd" clip-rule="evenodd" d="M75.7 90.7001C76.3 90.7001 76.9 90.6001 77.5 90.3001C77.6 90.2001 80.5999 88.7001 85.7999 85.1001C87.3999 84.0001 88.1 81.9001 87.4 80.2001C86.4 77.8001 83.5 77.0001 81.5 78.4001C76.7 81.7001 74 83.1001 73.9 83.2001C71.9 84.2001 71.2 86.6001 72.2 88.6001C72.8 90.0001 74.2 90.7001 75.7 90.7001Z" fill="#E35962"/>
<path fill-rule="evenodd" clip-rule="evenodd" d="M185.4 57.7C184.8 55.6 182.7 54.3 180.5 54.8L137.1 66.1C136.4 64.4 135.7 62.7 134.8 61L155.6 48.5C157.5 47.4 158.1 44.9 157 43C155.9 41.1 153.4 40.5 151.5 41.6L130.7 54.1C120.2 38.9 102.7 28.9 82.9 28.9C73.6 28.9 64.8 31.1 57 35L46 17.5C44.6 15.3 41.4 14.9 39.5 17.1C38.4 18.4 38.4 20.4 39.3 21.8L50.1 39C35 49.5 25 67 25 86.9C25 93.6 26.2 100.1 28.3 106.1L2.99997 116.6C0.999974 117.5 -3.23057e-05 119.8 0.899968 121.8C1.79997 123.8 4.09998 124.8 6.09998 123.9L31.5 113.3C32.4 115.1 33.4 116.8 34.5 118.4L10.3 140.1C8.59996 141.6 8.49997 144.1 9.89997 145.8C11.4 147.5 13.9 147.6 15.5 146.2L39.3 124.9C49.9 137.1 65.6 144.9 83 144.9C115 144.9 141 118.9 141 86.9C141 82.4 140.5 78 139.5 73.8L182.6 62.6C184.7 62 186 59.8 185.4 57.7ZM105.2 131.7L96.4 126.3C99.9 124.2 103.8 121.9 108.3 119.3C108.5 119.2 108.6 119.1 108.8 119L110.1 128.9C108.5 129.9 106.9 130.8 105.2 131.7ZM104.3 112.3C98.3 115.8 93.1 118.8 88.8 121.5L84.9 119.1L78.4 110.8C83.1 107.7 88 104.7 92.9 101.8C95.9 100.1 98.9 98.4 101.9 96.9C102 97.2 102.1 97.4 102.2 97.7L107.2 107.1L107.6 110.4C106.5 111 105.4 111.6 104.3 112.3ZM54.3 127.8C59.3 124 65.3 119.7 71.7 115.2C71.8 115.3 71.9 115.5 72 115.6L79 124.6C79.3 125 79.6 125.3 80.1 125.5L81.3 126.3C74.6 130.7 70.8 133.5 69.1 134.9C63.7 133.3 58.7 130.9 54.3 127.8ZM115 105.3C114.9 104.8 114.8 104.4 114.6 104L109.2 94C109.1 93.8 109 93.6 108.8 93.4C117.5 89.1 125.9 85.5 132.8 82.8C132.9 84.2 133 85.6 133 87C133 90.4 132.6 93.8 132 97.1C130.3 97.8 126.5 99.8 115.1 106.3L115 105.3ZM33 86.9C33 86.5 33 86.2 33 85.8C34.8 84 41.2 77.8 50.7 70.3C50.7 70.7 50.9 71.1 51 71.5L54.9 79.9C46.9 85.2 39.6 90.5 33.7 95.1C33.2 92.4 33 89.7 33 86.9ZM56.7 44.9C56.7 44.7 56.6 44.6 56.6 44.4C57.9 43.6 59.3 42.8 60.8 42.1C61.1 42.5 61.4 42.9 61.9 43.3L68.8 48.1C64.9 50.4 61.1 52.9 57.6 55.3L56.7 44.9ZM61.7 75.5L58.6 68.8L58.3 64.6C63.7 60.7 69.7 56.8 76.1 53.1L81.6 56.9L85.2 62C81.2 64.1 77.1 66.3 73 68.6C69.1 70.8 65.4 73.1 61.7 75.5ZM92.4 58.5L87.7 51.8C87.4 51.4 87.1 51.1 86.7 50.8L84 48.9C90.3 45.8 96.9 43.2 103.6 41.3C107.7 43.2 111.6 45.6 115 48.5C109 50.9 101 54.3 92.4 58.5ZM90.2 37.4C85.5 39.3 80.9 41.4 76.5 43.7L69.4 38.8C73.7 37.6 78.3 36.9 83 36.9C85.4 36.9 87.9 37.1 90.2 37.4ZM49.1 50.2L49.9 60.7C43.9 65.2 38.8 69.5 35 72.9C37.6 64.1 42.5 56.3 49.1 50.2ZM35.9 103.5C46.1 95.7 61.2 84.7 77 75.6C93.8 65.9 111.6 58.5 121.3 54.7C122.3 55.8 123.2 57 124 58.2L119 61.2C117.1 62.3 116.5 64.8 117.6 66.7C118.7 68.6 121.2 69.2 123.1 68.1L128 65.1C129.5 68.1 130.6 71.3 131.5 74.6C120.1 79.1 104.2 86 88.9 94.8C73.4 103.8 58.5 114.4 48 122.4C42.6 117.2 38.4 110.7 35.9 103.5ZM80 136.8C82.3 135.2 85.2 133.3 88.8 131L95.7 135.3C91.6 136.4 87.4 136.9 83 136.9C82 136.9 81 136.8 80 136.8ZM117.4 123.1L116.3 114.6C121.7 111.5 125.6 109.3 128.4 107.8C125.7 113.6 122 118.8 117.4 123.1Z" fill="#495FA9"/>
<path fill-rule="evenodd" clip-rule="evenodd" d="M125.2 133.6C120.1 137.1 106.7 145.3 106.6 145.4C104.7 146.6 104.1 149 105.3 150.9C106.1 152.1 107.4 152.8 108.7 152.8C109.4 152.8 110.1 152.6 110.8 152.2C111.4 151.9 124.7 143.6 129.9 140.1C131.9 138.7 132.3 135.8 130.4 133.9C129 132.6 126.8 132.5 125.2 133.6Z" fill="#B44694"/>
<path fill-rule="evenodd" clip-rule="evenodd" d="M166.5 41.4C167.2 41.4 167.9 41.2 168.5 40.8L176.4 36.1001C178 35.1001 178.9 33.1 178.3 31.3C177.4 28.8 174.6 27.9001 172.5 29.2001L164.6 33.9C162.9 34.9 162 37 162.8 38.9C163.4 40.5 164.9 41.4 166.5 41.4Z" fill="#E35962"/>
<path fill-rule="evenodd" clip-rule="evenodd" d="M126 25.8C127.8 26.5 129.6 27.3001 130.5 28.2001C131.4 29.1001 132.3 31 133 32.9C133.5 34.2 135.4 34.2 135.9 32.9C136.5 31.2 137.3 29.4 138.1 28.6C139 27.7 141.1 26.7 143 26C144.3 25.5 144.3 23.6 143 23.1C141.1 22.4 139.1 21.5 138.3 20.6C137.5 19.8 136.6 17.9 136 16.1C135.5 14.7 133.6 14.7 133.1 16.1C132.4 17.9 131.6 19.8001 130.7 20.7001C129.8 21.6001 128 22.4 126.1 23.1C124.7 23.4 124.7 25.3 126 25.8Z" fill="#EB7444"/>
<path fill-rule="evenodd" clip-rule="evenodd" d="M5.00009 31.3C6.70009 31.9 8.4001 32.7 9.2001 33.5C10.0001 34.3 10.9001 36.1 11.5001 37.9C12.0001 39.2 13.8001 39.2 14.3001 37.9C14.9001 36.2 15.7001 34.6 16.4001 33.8C17.3001 32.9 19.2001 32 21.0001 31.3C22.3001 30.8 22.3001 29 21.0001 28.5C19.2001 27.8 17.3001 27 16.5001 26.1C15.7001 25.3 14.9001 23.5 14.3001 21.8C13.8001 20.5 12.0001 20.5 11.5001 21.8C10.8001 23.5 10.0001 25.3 9.2001 26.1C8.4001 26.9 6.60008 27.7 4.90008 28.4C3.70008 29 3.70009 30.8 5.00009 31.3Z" fill="#DE4875"/>
<path fill-rule="evenodd" clip-rule="evenodd" d="M176.1 114.2C174.5 113.6 172.9 112.9 172.1 112.2C171.4 111.5 170.7 110.1 170.1 108.6C169.7 107.5 168.1 107.5 167.6 108.6C167 110 166.3 111.5 165.6 112.2C164.9 112.9 163.3 113.6 161.8 114.1C160.7 114.5 160.7 116 161.8 116.4C163.3 116.9 164.9 117.6 165.6 118.3C166.3 119 167.1 120.5 167.7 122C168.1 123.1 169.7 123.1 170.2 122C170.7 120.6 171.4 119.2 172.1 118.6C172.9 117.9 174.6 117.1 176.2 116.5C177.3 116.1 177.3 114.6 176.1 114.2Z" fill="#48A5DD"/>
<path fill-rule="evenodd" clip-rule="evenodd" d="M44.0999 152.2C42.4999 151.6 40.8999 150.9 40.0999 150.2C39.3999 149.5 38.6999 148.1 38.0999 146.6C37.6999 145.5 36.0999 145.5 35.5999 146.6C34.9999 148 34.2999 149.5 33.5999 150.2C32.8999 150.9 31.2999 151.6 29.7999 152.1C28.6999 152.5 28.6999 154 29.7999 154.4C31.2999 154.9 32.8999 155.6 33.5999 156.3C34.2999 157 35.0999 158.5 35.6999 160C36.0999 161.1 37.6999 161.1 38.1999 160C38.6999 158.6 39.3999 157.2 40.0999 156.6C40.8999 155.9 42.5999 155.1 44.1999 154.5C45.2999 154.1 45.2999 152.6 44.0999 152.2Z" fill="#EB7444"/>
<path fill-rule="evenodd" clip-rule="evenodd" d="M142 144.9C140.3 144.9 139 146.2 139 147.9C139 149.6 140.3 150.9 142 150.9C143.7 150.9 145 149.6 145 147.9C145 146.2 143.7 144.9 142 144.9Z" fill="#DE4875"/>
<path fill-rule="evenodd" clip-rule="evenodd" d="M73.5 20.9C74.9 20.9 76 19.8 76 18.4C76 17 74.9 15.9 73.5 15.9C72.1 15.9 71 17 71 18.4C71 19.8 72.1 20.9 73.5 20.9Z" fill="#DE4875"/>
<path fill-rule="evenodd" clip-rule="evenodd" d="M79.5 158.9C78.7 158.9 78 159.6 78 160.4C78 161.2 78.7 161.9 79.5 161.9C80.3 161.9 81 161.2 81 160.4C81 159.5 80.3 158.9 79.5 158.9Z" fill="#EB7444"/>
<path fill-rule="evenodd" clip-rule="evenodd" d="M39 6.90002C40.7 6.90002 42 5.60002 42 3.90002C42 2.20002 40.7 0.900024 39 0.900024C37.3 0.900024 36 2.20002 36 3.90002C36 5.50002 37.3 6.90002 39 6.90002Z" fill="#4369B0"/>
<path d="M4 92.9C5.65685 92.9 7 91.5569 7 89.9C7 88.2432 5.65685 86.9 4 86.9C2.34315 86.9 1 88.2432 1 89.9C1 91.5569 2.34315 92.9 4 92.9Z" fill="#4369B0"/>
<path fill-rule="evenodd" clip-rule="evenodd" d="M150 83.9C148.3 83.9 147 85.2 147 86.9C147 88.6 148.3 89.9 150 89.9C151.7 89.9 153 88.6 153 86.9C153 85.2 151.7 83.9 150 83.9Z" fill="#DE4875"/>
</svg>
