<svg width="222" height="151" viewBox="0 0 222 151" fill="none" xmlns="http://www.w3.org/2000/svg">
<path fill-rule="evenodd" clip-rule="evenodd" d="M133.1 74.7C135 73.6 135.7 71.1 134.6 69.2L130.9 62.7C129.8 60.8 127.4 60.1 125.4 61.2C123.5 62.3 122.8 64.8 123.9 66.7L127.6 73.2C128.3 74.5 129.7 75.2 131.1 75.2C131.8 75.3 132.5 75.1 133.1 74.7Z" fill="#EB7444"/>
<path fill-rule="evenodd" clip-rule="evenodd" d="M118.9 83L123 80.6C124.9 79.5 125.6 77 124.5 75.1C123.4 73.2 121 72.5 119 73.6L111.4 78C110.5 78.5 109.8 79.4001 109.5 80.4001C109.2 81.4001 109.4 82.5001 109.9 83.4001L111.4 86.1L101.3 91.9001L94.7 80.4001L117.3 67.2C119.2 66.1 119.9 63.6 118.8 61.7C117.7 59.8 115.3 59.1 113.3 60.2L87.2 75.4001C85.3 76.5001 84.6 79.0001 85.7 80.9001L96.3 99.3001C96.8 100.2 97.7 100.9 98.7 101.2C99 101.3 99.4 101.3 99.7 101.3C100.4 101.3 101.1 101.1 101.7 100.8L118.7 91C120.6 89.9 121.3 87.4 120.2 85.5L118.9 83Z" fill="#495FA9"/>
<path fill-rule="evenodd" clip-rule="evenodd" d="M220.1 18.4L212.4 5.09998C210.8 2.39998 208 0.800049 205 0.800049C203.6 0.800049 202.1 1.20002 200.7 1.90002L138.6 37.7C134.5 40.1 133.1 45.3 135.5 49.3L143.2 62.6C144.8 65.3 147.6 66.9 150.6 66.9C152 66.9 153.5 66.5 154.9 65.8L217 30C221.1 27.7 222.5 22.5 220.1 18.4ZM174 45.7L165.8 31.5L182.1 22.1L190.3 36.3L174 45.7ZM151 58.9C150.9 59 150.8 59 150.7 59C150.6 59 150.4 59 150.2 58.7L142.5 45.4C142.5 45.4 142.4 45.2 142.4 45C142.5 44.8 142.6 44.7 142.6 44.7L159.7 34.9L167.9 49.1L151 58.9ZM213.3 22.8C213.2 23 213.1 23.1 213.1 23.1L196.2 32.8L188 18.6L204.9 8.90002C205 8.80002 205.1 8.80005 205.2 8.80005C205.3 8.80005 205.5 8.79998 205.7 9.09998L213.4 22.4C213.3 22.5 213.3 22.6 213.3 22.8Z" fill="#495FA9"/>
<path fill-rule="evenodd" clip-rule="evenodd" d="M86.4001 102.3L78.7001 89C77.1001 86.3 74.3001 84.7 71.3001 84.7C69.9001 84.7 68.4001 85.1 67.0001 85.8L4.9001 121.6C0.800105 124 -0.599932 129.2 1.80007 133.2L9.50008 146.5C11.1001 149.2 13.9001 150.8 16.9001 150.8C18.3001 150.8 19.8001 150.4 21.2001 149.7L83.3001 113.9C87.3001 111.6 88.7001 106.4 86.4001 102.3ZM38.5001 130.5L30.3001 116.3L46.6001 106.9L54.8001 121.1L38.5001 130.5ZM17.2001 142.8C17.1001 142.9 17.0001 142.9 16.9001 142.9C16.8001 142.9 16.6001 142.9 16.4001 142.6L8.70009 129.3C8.70009 129.3 8.60006 129.1 8.60006 128.9C8.70006 128.7 8.80007 128.6 8.80007 128.6L24.2001 119.7L32.4001 133.9L17.2001 142.8ZM79.5001 106.7C79.4001 106.9 79.3001 107 79.3001 107L60.7001 117.7L52.5001 103.5L71.0001 92.8C71.1001 92.7 71.2001 92.7 71.3001 92.7C71.4001 92.7 71.6001 92.7 71.8001 93L79.5001 106.3C79.5001 106.4 79.6001 106.5 79.5001 106.7Z" fill="#495FA9"/>
<path fill-rule="evenodd" clip-rule="evenodd" d="M85.6 67.6L116.8 49.6C118.7 48.5 119.4 46 118.3 44.1C117.2 42.2 114.7 41.5 112.8 42.6L81.6 60.6C79.7 61.7 79 64.2 80.1 66.1C81.2 68 83.7 68.7 85.6 67.6Z" fill="#EB7444"/>
<path fill-rule="evenodd" clip-rule="evenodd" d="M110.5 105.9C107.7 105.9 105.5 108.1 105.5 110.9C105.5 113.7 107.7 115.9 110.5 115.9C113.3 115.9 115.5 113.7 115.5 110.9C115.5 108.1 113.3 105.9 110.5 105.9Z" fill="#495FA9"/>
<path fill-rule="evenodd" clip-rule="evenodd" d="M135.5 80.9C132.7 80.9 130.5 83.1 130.5 85.9C130.5 88.7 132.7 90.9 135.5 90.9C138.3 90.9 140.5 88.7 140.5 85.9C140.5 83.1 138.3 80.9 135.5 80.9Z" fill="#48A5DD"/>
<path fill-rule="evenodd" clip-rule="evenodd" d="M206.5 64.9C204.6 64.2 202.6 63.3 201.8 62.4C201 61.6 200.1 59.7 199.5 57.9C199 56.5 197.1 56.5 196.6 57.9C195.9 59.7 195.1 61.6 194.2 62.5C193.3 63.4 191.5 64.2 189.6 64.9C188.3 65.4 188.3 67.3 189.6 67.8C191.4 68.5 193.2 69.2999 194.1 70.1999C195 71.0999 195.9 73 196.6 74.9C197.1 76.2 199 76.2 199.5 74.9C200.1 73.2 200.9 71.3999 201.7 70.5999C202.6 69.6999 204.7 68.7 206.6 68C207.8 67.3 207.8 65.4 206.5 64.9Z" fill="#48A5DD"/>
<path fill-rule="evenodd" clip-rule="evenodd" d="M54.5001 30.3001C56.2001 30.9001 57.9001 31.7 58.7001 32.5C59.5001 33.3 60.4001 35.1 61.0001 36.9C61.5001 38.2 63.3001 38.2 63.8001 36.9C64.4001 35.2 65.2001 33.6001 65.9001 32.8001C66.8001 31.9001 68.7001 31.0001 70.5001 30.3001C71.8001 29.8001 71.8001 28 70.5001 27.5C68.7001 26.8 66.8001 26 66.0001 25.1C65.2001 24.3 64.4001 22.5001 63.8001 20.8001C63.3001 19.5001 61.5001 19.5001 61.0001 20.8001C60.3001 22.5001 59.5001 24.3 58.7001 25.1C57.9001 25.9 56.1001 26.7 54.4001 27.4C53.2001 28 53.2001 29.8001 54.5001 30.3001Z" fill="#DE4875"/>
<path fill-rule="evenodd" clip-rule="evenodd" d="M11.4001 78.5C12.9001 79 14.5001 79.7001 15.2001 80.4001C15.9001 81.1001 16.7001 82.6 17.3001 84.1C17.7001 85.2 19.3001 85.2 19.8001 84.1C20.3001 82.7 21.0001 81.3 21.7001 80.7C22.5001 80 24.2001 79.2 25.8001 78.6C26.9001 78.2 26.9001 76.7001 25.8001 76.3001C24.2001 75.7001 22.6001 75.0001 21.8001 74.3001C21.1001 73.6001 20.4001 72.2 19.8001 70.7C19.4001 69.6 17.8001 69.6 17.3001 70.7C16.7001 72.1 16.0001 73.6001 15.3001 74.3001C14.6001 75.0001 13.0001 75.7 11.5001 76.2C10.2001 76.6 10.2001 78.1 11.4001 78.5Z" fill="#48A5DD"/>
<path fill-rule="evenodd" clip-rule="evenodd" d="M99.7001 131.2C98.1001 130.6 96.5001 129.9 95.7001 129.2C95.0001 128.5 94.3001 127.1 93.7001 125.6C93.3001 124.5 91.7001 124.5 91.2001 125.6C90.6001 127 89.9001 128.5 89.2001 129.2C88.5001 129.9 86.9001 130.6 85.4001 131.1C84.3001 131.5 84.3001 133 85.4001 133.4C86.9001 133.9 88.5001 134.6 89.2001 135.3C89.9001 136 90.7 137.5 91.3 139C91.7 140.1 93.3 140.1 93.8 139C94.3 137.6 95.0001 136.2 95.7001 135.6C96.5001 134.9 98.2 134.1 99.8 133.5C100.8 133.1 100.8 131.6 99.7001 131.2Z" fill="#DE4875"/>
<path fill-rule="evenodd" clip-rule="evenodd" d="M172.5 136.9C170.8 136.9 169.5 138.2 169.5 139.9C169.5 141.6 170.8 142.9 172.5 142.9C174.2 142.9 175.5 141.6 175.5 139.9C175.5 138.2 174.2 136.9 172.5 136.9Z" fill="#EB7444"/>
<path fill-rule="evenodd" clip-rule="evenodd" d="M84 44.9C85.4 44.9 86.5 43.8 86.5 42.4C86.5 41 85.4 39.9 84 39.9C82.6 39.9 81.5 41 81.5 42.4C81.5 43.8 82.6 44.9 84 44.9Z" fill="#495FA9"/>
<path fill-rule="evenodd" clip-rule="evenodd" d="M124 120.9C123.2 120.9 122.5 121.6 122.5 122.4C122.5 123.2 123.2 123.9 124 123.9C124.8 123.9 125.5 123.2 125.5 122.4C125.5 121.5 124.8 120.9 124 120.9Z" fill="#495FA9"/>
<path fill-rule="evenodd" clip-rule="evenodd" d="M40.5 21.9C42.2 21.9 43.5 20.6 43.5 18.9C43.5 17.2 42.2 15.9 40.5 15.9C38.8 15.9 37.5 17.2 37.5 18.9C37.5 20.5 38.8 21.9 40.5 21.9Z" fill="#495FA9"/>
<path fill-rule="evenodd" clip-rule="evenodd" d="M25.5 98.9C25.5 100.6 26.8 101.9 28.5 101.9C30.2 101.9 31.5 100.6 31.5 98.9C31.5 97.2 30.2 95.9 28.5 95.9C26.8 95.9 25.5 97.2 25.5 98.9Z" fill="#495FA9"/>
<path fill-rule="evenodd" clip-rule="evenodd" d="M164.5 73.9C162.8 73.9 161.5 75.2 161.5 76.9C161.5 78.6 162.8 79.9 164.5 79.9C166.2 79.9 167.5 78.6 167.5 76.9C167.5 75.2 166.2 73.9 164.5 73.9Z" fill="#495FA9"/>
</svg>
