<svg width="147" height="190" viewBox="0 0 147 190" fill="none" xmlns="http://www.w3.org/2000/svg">
<path fill-rule="evenodd" clip-rule="evenodd" d="M85 112C82.8 112 81 113.8 81 116V132.8H59V100.3L62 72.8H77.9L78 73.3C78.2 75.5 80.2 77.1 82.4 76.8C84.6 76.6 86.2 74.6 85.9 72.4L84.4 59V25.1999V24.6999C84.4 24.3999 83.5 18.0999 80.4 10.1999C78.5 5.39992 76.1 2.99999 73.9 1.89999V1.69992L73 1.49997C71.9 1.09997 70.9 0.899991 70.2 0.899991C68.4 0.699991 63 1.09992 59.4 10.1999C56.3 18.0999 55.4 24.3999 55.4 24.6999V25V59.0999L50.9 99.6999V189.9H88.9V116C89 113.8 87.2 112 85 112ZM81 140.9V170.9H59V140.9H81ZM62.9 64.9L63.5 59.8V32.9H76.5V59.4L77.1 64.9H62.9ZM69.4 9.19992L70.2 8.99997C70.6 9.19997 71.7 10.0999 73 13.1999C75.1 18.4999 76 22.9 76.3 24.8H63.5C63.8 23 64.7 18.4999 66.9 13.1999C68 10.6999 68.9 9.69992 69.4 9.19992ZM59 181.9V178.9H81V181.9H59Z" fill="#495FA9"/>
<path fill-rule="evenodd" clip-rule="evenodd" d="M82.9001 82.7C80.8001 83 79.4 85.1001 79.6 87.3001L80.6 96.6C80.8 98.8 82.8001 100.4 85.0001 100.1C87.2001 99.8 88.8001 97.9 88.5001 95.7L87.4001 86.2C87.2001 84 85.1001 82.3 82.9001 82.7Z" fill="#DE4875"/>
<path fill-rule="evenodd" clip-rule="evenodd" d="M78.3001 105C79.4001 103.9 78.8001 102.1 77.3001 101.9L74.5 101.5C73.9 101.4 73.4 101 73.1 100.5L71.8001 98C71.1001 96.6 69.2 96.6 68.5 98L67.2 100.5C66.9 101 66.4001 101.4 65.8001 101.5L63 101.9C61.5 102.1 60.9 104 62 105L64 107C64.4 107.4 64.6 108 64.5 108.6L64 111.4C63.7 112.9 65.3 114.1 66.7 113.3L69.2 112C69.7 111.7 70.4 111.7 70.9 112L73.4 113.3C74.8 114 76.3 112.9 76.1 111.4L75.6 108.6C75.5 108 75.7 107.4 76.1 107L78.3001 105Z" fill="#DE4875"/>
<path fill-rule="evenodd" clip-rule="evenodd" d="M8.19998 138.8C8.69998 140.2 10.6 140.2 11.1 138.8C11.8 136.9 12.7 135 13.6 134.1C14.4 133.3 16.3 132.4 18.1 131.7C19.4 131.2 19.4 129.3 18.1 128.8C16.3 128.1 14.4 127.2 13.5 126.4C12.6 125.5 11.8 123.7 11.1 121.8C10.6 120.5 8.69998 120.5 8.19998 121.8C7.49998 123.6 6.70005 125.5 5.90005 126.3C5.00005 127.2 2.99998 128.1 1.19998 128.8C-0.100019 129.3 -0.200019 131.2 1.19998 131.7C3.09998 132.5 5.20001 133.4 6.10001 134.3C6.70001 135.3 7.49998 137.1 8.19998 138.8Z" fill="#EB7444"/>
<path fill-rule="evenodd" clip-rule="evenodd" d="M124.1 55.5C122.4 54.8 120.6 54 119.8 53.2C119 52.4 118.2 50.6 117.5 48.9C117 47.6 115.2 47.6 114.7 48.9C114.1 50.6 113.3 52.4 112.5 53.2C111.7 54.1 109.8 54.9 108 55.6C106.7 56.1 106.7 57.9 108 58.4C109.8 59.1 111.8 60 112.6 60.9C113.4 61.7 114.1 63.3 114.7 65C115.2 66.3 117 66.3 117.5 65C118.2 63.2 119 61.4 119.8 60.6C120.6 59.8 122.3 59 124 58.4C125.3 57.8 125.3 56 124.1 55.5Z" fill="#EB7444"/>
<path fill-rule="evenodd" clip-rule="evenodd" d="M145.2 127.2C143.7 126.6 142.1 126 141.4 125.3C140.7 124.6 140 123.1 139.4 121.7C139 120.6 137.4 120.6 136.9 121.7C136.3 123.1 135.6 124.6 134.9 125.3C134.1 126 132.5 126.7 130.9 127.3C129.8 127.7 129.8 129.2 130.9 129.6C132.5 130.2 134.3 130.9 135 131.7C135.7 132.3 136.3 133.7 136.9 135.1C137.3 136.2 138.9 136.2 139.4 135.1C140 133.6 140.7 132.1 141.5 131.4C142.2 130.7 143.8 130.1 145.3 129.5C146.3 129.1 146.3 127.6 145.2 127.2Z" fill="#48A5DD"/>
<path fill-rule="evenodd" clip-rule="evenodd" d="M36.2 80.2C34.7 79.6 33.1001 79.0001 32.4001 78.3001C31.7001 77.6001 31.0001 76.1 30.4001 74.7C30.0001 73.6 28.4001 73.6 27.9001 74.7C27.3001 76.1 26.6001 77.6001 25.9001 78.3001C25.1001 79.0001 23.5001 79.7001 21.9001 80.3001C20.8001 80.7001 20.8001 82.2 21.9001 82.6C23.5001 83.2 25.3 83.9 26 84.7C26.7 85.3 27.3001 86.7 27.9001 88.1C28.3001 89.2 29.9001 89.2 30.4001 88.1C31.0001 86.6 31.7 85.1001 32.5 84.4001C33.2 83.7001 34.8001 83.1 36.3001 82.5C37.3001 82.1 37.3 80.6 36.2 80.2Z" fill="#48A5DD"/>
<path fill-rule="evenodd" clip-rule="evenodd" d="M47 59.9C45.3 59.9 44 61.2 44 62.9C44 64.6 45.3 65.9 47 65.9C48.7 65.9 50 64.6 50 62.9C50 61.2 48.7 59.9 47 59.9Z" fill="#B44694"/>
<path fill-rule="evenodd" clip-rule="evenodd" d="M95.5 66.9C94.1 66.9 93 68 93 69.4C93 70.8 94.1 71.9 95.5 71.9C96.9 71.9 98 70.8 98 69.4C98 68 96.9 66.9 95.5 66.9Z" fill="#495FA9"/>
<path d="M117.5 158.9C118.328 158.9 119 158.228 119 157.4C119 156.572 118.328 155.9 117.5 155.9C116.672 155.9 116 156.572 116 157.4C116 158.228 116.672 158.9 117.5 158.9Z" fill="#495FA9"/>
<path fill-rule="evenodd" clip-rule="evenodd" d="M97 17.9C95.3 17.9 94 19.2 94 20.9C94 22.6 95.3 23.9 97 23.9C98.7 23.9 100 22.6 100 20.9C100 19.2 98.7 17.9 97 17.9Z" fill="#495FA9"/>
<path fill-rule="evenodd" clip-rule="evenodd" d="M110 109.9C108.3 109.9 107 111.2 107 112.9C107 114.6 108.3 115.9 110 115.9C111.7 115.9 113 114.6 113 112.9C113 111.2 111.7 109.9 110 109.9Z" fill="#495FA9"/>
<path fill-rule="evenodd" clip-rule="evenodd" d="M25 104.9C23.3 104.9 22 106.2 22 107.9C22 109.6 23.3 110.9 25 110.9C26.7 110.9 28 109.6 28 107.9C28 106.2 26.7 104.9 25 104.9Z" fill="#495FA9"/>
<path fill-rule="evenodd" clip-rule="evenodd" d="M20.2 167.2C18.7 166.6 17.1001 166 16.4001 165.3C15.7001 164.6 15.0001 163.1 14.4001 161.7C14.0001 160.6 12.4001 160.6 11.9001 161.7C11.3001 163.1 10.6001 164.6 9.90007 165.3C9.10007 166 7.50007 166.7 5.90007 167.3C4.80007 167.7 4.80007 169.2 5.90007 169.6C7.50007 170.2 9.30005 170.9 10 171.7C10.7 172.3 11.3001 173.7 11.9001 175.1C12.3001 176.2 13.9001 176.2 14.4001 175.1C15.0001 173.6 15.7 172.1 16.5 171.4C17.2 170.7 18.8001 170.1 20.3001 169.5C21.3001 169.1 21.3 167.6 20.2 167.2Z" fill="#48A5DD"/>
<path fill-rule="evenodd" clip-rule="evenodd" d="M26.5 153.9C25.7 153.9 25 154.6 25 155.4C25 156.2 25.7 156.9 26.5 156.9C27.3 156.9 28 156.2 28 155.4C28 154.5 27.3 153.9 26.5 153.9Z" fill="#495FA9"/>
<path fill-rule="evenodd" clip-rule="evenodd" d="M126 171.9C124.3 171.9 123 173.2 123 174.9C123 176.6 124.3 177.9 126 177.9C127.7 177.9 129 176.6 129 174.9C129 173.2 127.7 171.9 126 171.9Z" fill="#B44694"/>
</svg>
