<svg width="152" height="174" viewBox="0 0 152 174" fill="none" xmlns="http://www.w3.org/2000/svg">
<path fill-rule="evenodd" clip-rule="evenodd" d="M120.9 99.2C120.4 97.5 118.9 96.3 117.1 96.3H43.6C41.8 96.3 40.2 97.6 39.7 99.3L25.3001 157.3C25.0001 158.5 25.3 159.8 26 160.7C26.8 161.7 27.9 162.2 29.1 162.2H132.8C134 162.2 135.2 161.6 136 160.6C136.8 159.6 137 158.3 136.7 157.1L120.9 99.2ZM34.3001 154.3L39.1 135.2C39.4 135.3 39.7 135.3 40.1 135.3H67.1C69.3 135.3 71.1 133.5 71.1 131.3C71.1 129.1 69.3 127.3 67.1 127.3H41.1L42.3001 122.3H52.1C54.3 122.3 56.1 120.5 56.1 118.3C56.1 116.1 54.3 114.3 52.1 114.3H44.3001L46.8001 104.3H114.1L127.7 154.3H34.3001Z" fill="#495FA9"/>
<path fill-rule="evenodd" clip-rule="evenodd" d="M18.5 146.8C16.7 146.1 14.9 145.3 14 144.4C13.1 143.5 12.2 141.6 11.5 139.7C11 138.4 9.1 138.4 8.6 139.7C8 141.4 7.20005 143.2 6.40005 144C5.50005 144.9 3.40002 145.9 1.50002 146.6C0.200024 147.1 0.200024 149 1.50002 149.5C3.40002 150.2 5.39998 151.1 6.19998 152C6.99998 152.8 7.90002 154.7 8.50002 156.5C9.00002 157.9 10.9 157.9 11.4 156.5C12.1 154.7 12.9001 152.8 13.8001 151.9C14.7001 151 16.5 150.2 18.4 149.5C19.8 149.2 19.8 147.3 18.5 146.8Z" fill="#B44694"/>
<path fill-rule="evenodd" clip-rule="evenodd" d="M150.5 113.4C148.8 112.8 147.1 112 146.3 111.2C145.5 110.4 144.6 108.6 144 106.8C143.5 105.5 141.7 105.5 141.2 106.8C140.6 108.5 139.8 110.1 139.1 110.9C138.2 111.8 136.3 112.7 134.5 113.4C133.2 113.9 133.2 115.7 134.5 116.2C136.3 116.9 138.2 117.7 139 118.6C139.8 119.4 140.6 121.2 141.2 122.9C141.7 124.2 143.5 124.2 144 122.9C144.7 121.2 145.5 119.4 146.3 118.6C147.1 117.8 148.9 117 150.6 116.3C151.8 115.7 151.8 113.8 150.5 113.4Z" fill="#48A5DD"/>
<path fill-rule="evenodd" clip-rule="evenodd" d="M29.4001 72.4C31.0001 73 32.6001 73.7 33.4001 74.4C34.1001 75.1 34.8001 76.5 35.4001 78C35.8001 79.1 37.4001 79.1 37.9001 78C38.5001 76.6 39.2001 75.1 39.9001 74.4C40.6001 73.7 42.2 73 43.7 72.5C44.8 72.1 44.8 70.6 43.7 70.2C42.2 69.7 40.6001 69 39.9001 68.3C39.2001 67.6 38.4001 66.1 37.8001 64.6C37.4001 63.5 35.8001 63.5 35.3001 64.6C34.8001 66 34.1001 67.4 33.4001 68C32.6001 68.7 30.9001 69.5 29.3001 70.1C28.2001 70.5 28.2001 72 29.4001 72.4Z" fill="#48A5DD"/>
<path fill-rule="evenodd" clip-rule="evenodd" d="M108.4 38.4C110 39 111.6 39.7 112.4 40.4C113.1 41.1 113.8 42.5 114.4 44C114.8 45.1 116.4 45.1 116.9 44C117.5 42.6 118.2 41.1 118.9 40.4C119.6 39.7 121.2 39 122.7 38.5C123.8 38.1 123.8 36.6 122.7 36.2C121.2 35.7 119.6 35 118.9 34.3C118.2 33.6 117.4 32.1 116.8 30.6C116.4 29.5 114.8 29.5 114.3 30.6C113.8 32 113.1 33.4 112.4 34C111.6 34.7 109.9 35.5 108.3 36.1C107.2 36.5 107.2 38 108.4 38.4Z" fill="#B44694"/>
<path fill-rule="evenodd" clip-rule="evenodd" d="M44.5 45.8001C46.2 45.8001 47.5 44.5 47.5 42.8C47.5 41.1 46.2 39.8 44.5 39.8C42.8 39.8 41.5 41.1 41.5 42.8C41.5 44.4 42.8 45.8001 44.5 45.8001Z" fill="#EB7444"/>
<path fill-rule="evenodd" clip-rule="evenodd" d="M54 165.8C52.6 165.8 51.5 166.9 51.5 168.3C51.5 169.7 52.6 170.8 54 170.8C55.4 170.8 56.5 169.7 56.5 168.3C56.5 166.9 55.4 165.8 54 165.8Z" fill="#B44694"/>
<path d="M98 15.8C98.8284 15.8 99.5 15.1285 99.5 14.3C99.5 13.4716 98.8284 12.8 98 12.8C97.1716 12.8 96.5 13.4716 96.5 14.3C96.5 15.1285 97.1716 15.8 98 15.8Z" fill="#EB7444"/>
<path fill-rule="evenodd" clip-rule="evenodd" d="M118.5 167.8C116.8 167.8 115.5 169.1 115.5 170.8C115.5 172.5 116.8 173.8 118.5 173.8C120.2 173.8 121.5 172.5 121.5 170.8C121.5 169.1 120.2 167.8 118.5 167.8Z" fill="#48A5DD"/>
<path fill-rule="evenodd" clip-rule="evenodd" d="M119.5 62.8C119.5 64.5 120.8 65.8 122.5 65.8C124.2 65.8 125.5 64.5 125.5 62.8C125.5 61.1 124.2 59.8 122.5 59.8C120.8 59.8 119.5 61.1 119.5 62.8Z" fill="#EB7444"/>
<path fill-rule="evenodd" clip-rule="evenodd" d="M43.6999 87.4001C44.3999 88.6001 45.6999 89.3 47.0999 89.3H114.9C116.3 89.3 117.6 88.6001 118.3 87.4001C119 86.2001 119.1 84.8 118.5 83.5L113.5 73.3C112.5 71.3 110.1 70.5 108.2 71.5C106.2 72.5 105.4 74.9 106.4 76.8L108.6 81.3H53.5999L71.0999 45.3001H89.0999C89.6999 45.3001 90.3 45.1001 90.9 44.9001L93.3 49.7C94.3 51.7 96.6999 52.5 98.5999 51.5C100.6 50.5 101.4 48.1 100.4 46.2L98.0999 41.4001V25.3C98.0999 25 98.0999 24.7001 98 24.4001L93 3.40005C92.5999 1.60005 90.9999 0.300049 89.0999 0.300049H72.9999C71.1999 0.300049 69.4999 1.60005 69.0999 3.40005L64.0999 24.4001C63.9999 24.7001 63.9999 25 63.9999 25.3V41.4001L43.4999 83.6001C42.8999 84.7001 42.9999 86.2001 43.6999 87.4001ZM76.1999 8.30005H85.8L89.9 25.8V37.5C89.6 37.4001 89.3 37.4001 88.9 37.4001H71.9V25.7001L76.1999 8.30005Z" fill="#495FA9"/>
<path fill-rule="evenodd" clip-rule="evenodd" d="M98.5 60.7L100.9 65.7C101.6 67.1 103 67.9 104.5 67.9C105.1 67.9 105.7 67.8 106.2 67.5C108.2 66.5 109 64.1 108 62.2L105.6 57.2C104.6 55.2 102.2 54.4 100.3 55.4C98.3 56.3 97.5 58.7 98.5 60.7Z" fill="#EB7444"/>
<path fill-rule="evenodd" clip-rule="evenodd" d="M66 114.3H63C60.8 114.3 59 116.1 59 118.3C59 120.5 60.8 122.3 63 122.3H66C68.2 122.3 70 120.5 70 118.3C70 116 68.2 114.3 66 114.3Z" fill="#EB7444"/>
</svg>
