<svg width="183" height="144" viewBox="0 0 183 144" fill="none" xmlns="http://www.w3.org/2000/svg">
<path fill-rule="evenodd" clip-rule="evenodd" d="M94 115.7C119.4 115.7 140 95.2999 140 70.2C140 45.1 119.4 24.7 94 24.7C68.6 24.7 48 45.1 48 70.2C48 95.2999 68.6 115.7 94 115.7ZM93.2 34.4C113 34.4 129 50.3 129 70C129 89.7 113 105.6 93.2 105.6C73.4 105.6 57.4 89.7 57.4 70C57.4 50.4 73.4 34.4 93.2 34.4Z" fill="#495FA9"/>
<path fill-rule="evenodd" clip-rule="evenodd" d="M138.1 101.6C137.2 100.9 136.1 100.6 135 100.8C133.9 101 132.9 101.6 132.3 102.5C123.7 114.8 109.4 121.8 93.2 121.8C77.1 121.8 63 114.9 54.3 102.9C53.7 102 52.7 101.4 51.6 101.3C50.5 101.2 49.4 101.5 48.5 102.2C41 108.4 32 120 32 139.8C32 142 33.8 143.8 36 143.8H151C153.2 143.8 155 142 155 139.8C155 119.5 145.8 107.8 138.1 101.6ZM40.1 135.7C41 123.8 45.7 116 50.5 110.9C60.8 122.9 76 129.6 93.1 129.6C110.4 129.6 125.7 122.7 136 110.5C141 115.6 145.9 123.5 146.8 135.6H40.1V135.7Z" fill="#495FA9"/>
<path fill-rule="evenodd" clip-rule="evenodd" d="M36 61.7V83.7C36 85.9 37.8 87.7 40 87.7C42.2 87.7 44 85.9 44 83.7V61.7C44 59.5 42.2 57.7 40 57.7C37.8 57.7 36 59.5 36 61.7Z" fill="#495FA9"/>
<path fill-rule="evenodd" clip-rule="evenodd" d="M148 57.7C145.8 57.7 144 59.5 144 61.7V83.7C144 85.9 145.8 87.7 148 87.7C150.2 87.7 152 85.9 152 83.7V61.7C152 59.5 150.2 57.7 148 57.7Z" fill="#495FA9"/>
<path fill-rule="evenodd" clip-rule="evenodd" d="M30.0001 25.5C31.7001 26.1 33.4001 26.9 34.2001 27.6C35.0001 28.4 35.9001 30.1 36.5001 31.8C37.0001 33 38.8001 33 39.3001 31.8C39.9001 30.2 40.7001 28.7 41.4001 27.9C42.3001 27.1 44.2001 26.2 46.0001 25.5C47.3001 25 47.3001 23.3 46.0001 22.9C44.2001 22.3 42.3001 21.4 41.5001 20.6C40.7001 19.8 39.9001 18.2 39.3001 16.6C38.8001 15.4 37.0001 15.4 36.5001 16.6C35.8001 18.2 35.0001 19.8999 34.2001 20.6999C33.4001 21.4999 31.6001 22.3 29.9001 22.9C28.7001 23.3 28.7001 25.1 30.0001 25.5Z" fill="#EB7444"/>
<path fill-rule="evenodd" clip-rule="evenodd" d="M171.1 112.5C171.9 110.5 172.8 108.4 173.8 107.5C174.9 106.4 177.4 105.3 179.7 104.4C181.3 103.8 181.3 101.6 179.7 101C177.4 100.2 175 99.1 173.9 98.1C172.9 97.1 171.9 95.0001 171.1 92.9001C170.5 91.3001 168.2 91.3001 167.6 92.9001C166.8 95.0001 165.7 97.2 164.7 98.2C163.7 99.2 161.4 100.2 159.2 101C157.6 101.6 157.6 103.8 159.2 104.4C161.4 105.2 163.6 106.2 164.6 107.1C165.7 108.1 166.7 110.3 167.6 112.5C168.2 114.1 170.5 114.1 171.1 112.5Z" fill="#48A5DD"/>
<path fill-rule="evenodd" clip-rule="evenodd" d="M136.8 32.4001C138.3 32.9001 139.9 33.6001 140.6 34.3001C141.3 35.0001 142.1 36.5 142.7 38C143.1 39.1 144.7 39.1 145.2 38C145.7 36.6 146.4 35.2 147.1 34.6C147.9 33.9 149.6 33.1 151.2 32.5C152.3 32.1 152.3 30.6 151.2 30.2C149.6 29.6 148 28.9 147.2 28.2C146.5 27.5 145.8 26.1 145.2 24.6C144.8 23.5 143.2 23.5 142.7 24.6C142.1 26 141.4 27.5 140.7 28.2C140 28.9 138.4 29.6 136.9 30.1C135.7 30.4 135.7 32.0001 136.8 32.4001Z" fill="#DE4875"/>
<path fill-rule="evenodd" clip-rule="evenodd" d="M34 107.5C34.8 106.8 36.5 106 38.1 105.4C39.2 105 39.2 103.5 38.1 103.1C36.5 102.5 34.9 101.8 34.1 101.1C33.4 100.4 32.7 99 32.1 97.5C31.7 96.4 30.1 96.4 29.6 97.5C29 98.9 28.3 100.4 27.6 101.1C26.9 101.8 25.3 102.5 23.8 103C22.7 103.4 22.7 104.9 23.8 105.3C25.3 105.8 26.9 106.5 27.6 107.2C28.3 107.9 29.1 109.4 29.7 110.9C30.1 112 31.7 112 32.2 110.9C32.7 109.5 33.3 108.1 34 107.5Z" fill="#DE4875"/>
<path fill-rule="evenodd" clip-rule="evenodd" d="M17 64.7C15.9 64.7 15 65.6 15 66.7C15 67.8 15.9 68.7 17 68.7C18.1 68.7 19 67.8 19 66.7C19 65.6 18.1 64.7 17 64.7Z" fill="#495FA9"/>
<path fill-rule="evenodd" clip-rule="evenodd" d="M14 126.7C11.8 126.7 10 128.5 10 130.7C10 132.9 11.8 134.7 14 134.7C16.2 134.7 18 132.9 18 130.7C18 128.5 16.2 126.7 14 126.7Z" fill="#EB7444"/>
<path fill-rule="evenodd" clip-rule="evenodd" d="M172 49.7C173.7 49.7 175 48.4 175 46.7C175 45 173.7 43.7 172 43.7C170.3 43.7 169 45 169 46.7C169 48.4 170.3 49.7 172 49.7Z" fill="#495FA9"/>
<path fill-rule="evenodd" clip-rule="evenodd" d="M138.5 132.7C139.9 132.7 141 131.6 141 130.2C141 128.8 139.9 127.7 138.5 127.7C137.1 127.7 136 128.8 136 130.2C136 131.6 137.1 132.7 138.5 132.7Z" fill="#495FA9"/>
<path fill-rule="evenodd" clip-rule="evenodd" d="M157.1 7.00005C155.5 6.40005 153.9 5.70005 153.1 5.00005C152.4 4.30005 151.7 2.90007 151.1 1.40007C150.7 0.300073 149.1 0.300073 148.6 1.40007C148 2.80007 147.3 4.30005 146.6 5.00005C145.9 5.70005 144.3 6.40007 142.8 6.90007C141.7 7.30007 141.7 8.8 142.8 9.2C144.3 9.7 145.9 10.4 146.6 11.1C147.3 11.8 148.1 13.3001 148.7 14.8001C149.1 15.9001 150.7 15.9001 151.2 14.8001C151.7 13.4001 152.4 12.0001 153.1 11.4001C153.9 10.7001 155.6 9.9001 157.2 9.3001C158.3 9.0001 158.3 7.50005 157.1 7.00005Z" fill="#544E9E"/>
<path fill-rule="evenodd" clip-rule="evenodd" d="M52 120.7C50.3 120.7 49 122 49 123.7C49 125.4 50.3 126.7 52 126.7C53.7 126.7 55 125.4 55 123.7C55 122.1 53.7 120.7 52 120.7Z" fill="#48A5DD"/>
<path fill-rule="evenodd" clip-rule="evenodd" d="M30 49.7C31.1 49.7 32 48.8 32 47.7C32 46.6 31.1 45.7 30 45.7C28.9 45.7 28 46.6 28 47.7C28 48.8 28.9 49.7 30 49.7Z" fill="#495FA9"/>
<path fill-rule="evenodd" clip-rule="evenodd" d="M102 10.7C103.7 10.7 105 9.39995 105 7.69995C105 5.99995 103.7 4.69995 102 4.69995C100.3 4.69995 99 5.99995 99 7.69995C99 9.29995 100.3 10.7 102 10.7Z" fill="#495FA9"/>
<path fill-rule="evenodd" clip-rule="evenodd" d="M181.1 135.1C179.5 134.5 177.9 133.8 177.1 133.1C176.4 132.4 175.7 131 175.1 129.5C174.7 128.4 173.1 128.4 172.6 129.5C172 130.9 171.3 132.4 170.6 133.1C169.9 133.8 168.3 134.5 166.8 135C165.7 135.4 165.7 136.9 166.8 137.3C168.3 137.8 169.9 138.5 170.6 139.2C171.3 139.9 172.1 141.4 172.7 142.9C173.1 144 174.7 144 175.2 142.9C175.7 141.5 176.4 140.1 177.1 139.5C177.9 138.8 179.6 138 181.2 137.4C182.3 137 182.3 135.5 181.1 135.1Z" fill="#DE4875"/>
<path fill-rule="evenodd" clip-rule="evenodd" d="M18 82.9C16.2 82.3 14.3 81.4 13.5 80.6C12.7 79.8 11.9 78.2 11.3 76.6C10.8 75.4 9.00002 75.4 8.50002 76.6C7.80002 78.2 7.00004 79.8999 6.20004 80.6999C5.40004 81.4999 3.60005 82.3 1.90005 82.9C0.600049 83.4 0.600049 85.1 1.90005 85.5C3.60005 86.1 5.3 86.9 6.1 87.6C6.9 88.4 7.80005 90.1 8.40005 91.8C8.90005 93 10.7 93 11.2 91.8C11.8 90.2 12.6 88.7 13.3 87.9C14.2 87.1 16.1 86.2 17.9 85.5C19.3 85.1 19.3 83.4 18 82.9Z" fill="#48A5DD"/>
<path fill-rule="evenodd" clip-rule="evenodd" d="M93.6 46.7C93.7 46.8 93.9 46.7 94 46.7C107 46.7 117.5 56.9 118.2 69.6H118.3C118.5 71 119.7 72.1 121.1 72.1C122.7 72.1 124 70.8 124 69.2C124 68.8 123.9 68.5 123.8 68.2C122.5 52.9 109.7 41 94 41C93.9 41 93.7 41 93.6 41C92.2 41.2 91.1 42.4 91.1 43.8C91.1 45.3 92.2 46.5 93.6 46.7Z" fill="#48A5DD"/>
<path fill-rule="evenodd" clip-rule="evenodd" d="M84 47.7C85.7 47.7 87 46.4 87 44.7C87 43 85.7 41.7 84 41.7C82.3 41.7 81 43 81 44.7C81 46.3 82.3 47.7 84 47.7Z" fill="#48A5DD"/>
</svg>
