<svg width="142" height="181" viewBox="0 0 142 181" fill="none" xmlns="http://www.w3.org/2000/svg">
<path d="M120 116.7C119.2 114.6 116.9 113.6 114.9 114.4C112.8 115.2 111.8 117.5 112.6 119.5L124.8 152.1L103.9 160H45.2L24.3 152.1L52.5 76.6H96.5L98.9 82.9C99.7 85 102 86 104 85.2C106.1 84.4 107.1 82.1 106.3 80.1L102 68.6H46.9L13.9 156.8L43.6 168H105.2L134.9 156.8L120 116.7ZM99.9 60V27L96 22L91.9 0H57.1L53 22L49.1 27V60H76.8H99.9ZM63.7 8H85.3L87.2 18.4H61.7L63.7 8ZM57 29.8L60.1 25.8C60.4 25.9 60.6 25.9 60.9 25.9H87.9C88.2 25.9 88.5 25.9 88.7 25.8L91.8 29.8V32.5H57V29.8ZM57 52V39.9H91.9V52H76.7H57ZM52.6 181H96.5V171.7H52.6V181Z" fill="#495FA9"/>
<path fill-rule="evenodd" clip-rule="evenodd" d="M132.2 161C131.6 162.7 130.8 164.4 130.1 165.2C129.3 166 127.6 166.9 125.9 167.5C124.7 168 124.7 169.8 125.9 170.3C127.5 170.9 129 171.7 129.8 172.4C130.6 173.3 131.5 175.2 132.2 177C132.7 178.3 134.4 178.3 134.8 177C135.4 175.2 136.3 173.3 137.1 172.5C137.9 171.7 139.5 170.9 141.1 170.3C142.3 169.8 142.3 168 141.1 167.5C139.5 166.8 137.8 166 137 165.2C136.2 164.4 135.4 162.6 134.8 160.9C134.3 159.7 132.6 159.7 132.2 161Z" fill="#544E9E"/>
<path fill-rule="evenodd" clip-rule="evenodd" d="M107.8 61.1C109.2 61.6 110.6 62.3 111.2 63C111.9 63.8 112.7 65.5 113.3 67.1C113.7 68.2 115.2 68.2 115.6 67.1C116.2 65.5 116.9 63.9 117.6 63.1C118.3 62.4 119.7 61.7 121.2 61.1C122.3 60.7 122.3 59.1 121.2 58.6C119.8 58 118.3 57.3 117.6 56.6C116.9 55.9 116.2 54.3 115.7 52.8C115.3 51.7 113.8 51.7 113.4 52.8C112.9 54.3 112.2 55.9 111.5 56.6C110.8 57.3 109.3 58.1 107.8 58.7C106.7 59.1 106.7 60.7 107.8 61.1Z" fill="#48A5DD"/>
<path fill-rule="evenodd" clip-rule="evenodd" d="M15.2 119.7C13.8 119.1 12.3 118.4 11.6 117.7C10.9 117 10.2 115.4 9.7 113.9C9.3 112.8 7.80001 112.8 7.40001 113.9C6.90001 115.4 6.19999 117 5.49999 117.7C4.79999 118.4 3.29998 119.2 1.79998 119.8C0.699976 120.2 0.699976 121.8 1.79998 122.3C3.19998 122.8 4.6 123.5 5.2 124.2C5.9 125 6.69998 126.7 7.29998 128.3C7.69998 129.4 9.19996 129.4 9.59996 128.3C10.2 126.7 10.9 125.1 11.6 124.3C12.3 123.6 13.7 122.9 15.2 122.3C16.2 121.7 16.3 120.1 15.2 119.7Z" fill="#B44694"/>
<path fill-rule="evenodd" clip-rule="evenodd" d="M38 176C36.9 176 36 176.9 36 178C36 179.1 36.9 180 38 180C39.1 180 40 179.1 40 178C40 176.9 39.1 176 38 176Z" fill="#DE4875"/>
<path fill-rule="evenodd" clip-rule="evenodd" d="M17.5 63C18.9 63 20 61.9 20 60.5C20 59.1 18.9 58 17.5 58C16.1 58 15 59.1 15 60.5C15 61.9 16.1 63 17.5 63Z" fill="#DE4875"/>
<path fill-rule="evenodd" clip-rule="evenodd" d="M25.2 23.1C27.2 23.9 29.3 24.8 30.2 25.8C31.3 26.9 32.4 29.4 33.3 31.7C33.9 33.3 36.1 33.3 36.7 31.7C37.5 29.4 38.6 27 39.6 25.9C40.6 24.9 42.7 23.9 44.8 23.1C46.4 22.5 46.4 20.2 44.8 19.6C42.7 18.8 40.5 17.7 39.5 16.7C38.5 15.7 37.5 13.4 36.7 11.2C36.1 9.6 33.9 9.6 33.3 11.2C32.5 13.4 31.5 15.6 30.6 16.6C29.6 17.7 27.4 18.7 25.2 19.6C23.6 20.2 23.6 22.5 25.2 23.1Z" fill="#EB7444"/>
<path fill-rule="evenodd" clip-rule="evenodd" d="M131 106C133.2 106 135 104.2 135 102C135 99.8 133.2 98 131 98C128.8 98 127 99.8 127 102C127 104.2 128.8 106 131 106Z" fill="#EB7444"/>
<path fill-rule="evenodd" clip-rule="evenodd" d="M27 101C28.7 101 30 99.7 30 98C30 96.3 28.7 95 27 95C25.3 95 24 96.3 24 98C24 99.7 25.3 101 27 101Z" fill="#EB7444"/>
<path fill-rule="evenodd" clip-rule="evenodd" d="M81.5 95H69.4C65.2 95 61.8 98.4 61.7 102.6L58.9 130.8C58.9 130.9 58.9 131.1 58.9 131.2C58.9 135.5 62.3 139 66.6 139H84.2C88.4 139 91.9 135.5 91.9 131.2C91.9 131.1 91.9 130.9 91.9 130.8L89.1 102.6C89.1 98.4 85.7 95 81.5 95ZM67 130.9L69.7 103.2V103.1H81.2V103.2L83.9 130.9H67Z" fill="#48A5DD"/>
<path fill-rule="evenodd" clip-rule="evenodd" d="M111 92.4999C110.2 90.3999 107.9 89.3999 105.9 90.1999C103.8 90.9999 102.8 93.2999 103.6 95.2999L108.1 107.2C108.7 108.8 110.2 109.8 111.8 109.8C112.3 109.8 112.7 109.7 113.2 109.5C115.3 108.7 116.3 106.4 115.5 104.4L111 92.4999Z" fill="#48A5DD"/>
</svg>
