<svg width="190" height="157" viewBox="0 0 190 157" fill="none" xmlns="http://www.w3.org/2000/svg">
<path fill-rule="evenodd" clip-rule="evenodd" d="M188.6 88.9001C187 89.5001 185.2 90.2 184.5 91C183.8 91.6 183.2 93.0001 182.6 94.4001C182.2 95.5001 180.6 95.5001 180.1 94.4001C179.5 92.9001 178.8 91.4 178 90.7C177.3 90 175.7 89.4001 174.2 88.8001C173.1 88.4001 173.1 86.9 174.2 86.5C175.7 85.9 177.3 85.3 178 84.6C178.7 83.9 179.4 82.4 180 81C180.4 79.9 182 79.9 182.5 81C183.1 82.4 183.8 83.9 184.5 84.6C185.3 85.3 186.9 86 188.5 86.6C189.7 87 189.8 88.5001 188.6 88.9001Z" fill="#DE4875"/>
<path fill-rule="evenodd" clip-rule="evenodd" d="M184.1 63.7L175.5 48.9C175.1 48.2 174.4 47.7 173.7 47.5C172.9 47.3 172.1 47.4001 171.4 47.8001L119.6 77.6C118.2 78.4 117.7 80.2 118.5 81.7L127.1 96.5C127.5 97.2 128.2 97.7 128.9 97.9C129.2 98 129.4 98 129.7 98C130.2 98 130.7 97.9 131.2 97.6L183 67.8001C184.4 66.9001 184.9 65.1 184.1 63.7ZM130.8 90.9L125.2 81.3001L171.8 54.5L177.4 64.1L130.8 90.9Z" fill="#495FA9"/>
<path fill-rule="evenodd" clip-rule="evenodd" d="M170.9 40.5L162.3 25.7C161.9 25 161.2 24.5001 160.5 24.3001C159.7 24.1001 158.9 24.2 158.2 24.6L106.4 54.4001C105 55.2001 104.5 57 105.3 58.5L113.9 73.3001C114.3 74.0001 114.9 74.5 115.7 74.7C116 74.8 116.2 74.8001 116.5 74.8001C117 74.8001 117.5 74.7001 118 74.4001L169.8 44.6C171.2 43.8 171.7 41.9 170.9 40.5ZM117.6 67.7L112 58.1L158.6 31.3001L164.2 40.9001L117.6 67.7Z" fill="#495FA9"/>
<path fill-rule="evenodd" clip-rule="evenodd" d="M146.6 16.9001C145 17.5001 143.2 18.2 142.5 19C141.8 19.6 141.2 21.0001 140.6 22.4001C140.2 23.5001 138.6 23.5001 138.1 22.4001C137.5 20.9001 136.8 19.4 136 18.7C135.3 18 133.7 17.4001 132.2 16.8001C131.1 16.4001 131.1 14.9 132.2 14.5C133.7 13.9 135.3 13.3 136 12.6C136.7 11.9 137.4 10.4 138 9.00005C138.4 7.90005 140 7.90005 140.5 9.00005C141.1 10.4 141.8 11.9 142.5 12.6C143.3 13.3 144.9 14 146.5 14.6C147.7 15 147.8 16.5001 146.6 16.9001Z" fill="#B44694"/>
<path fill-rule="evenodd" clip-rule="evenodd" d="M113.5 36.2C111.8 36.2 110.5 34.9 110.5 33.2C110.5 31.5 111.8 30.2 113.5 30.2C115.2 30.2 116.5 31.5 116.5 33.2C116.5 34.9 115.1 36.2 113.5 36.2Z" fill="#DC6D40"/>
<path fill-rule="evenodd" clip-rule="evenodd" d="M112 5.19995C110.6 5.19995 109.5 4.09995 109.5 2.69995C109.5 1.29995 110.6 0.199951 112 0.199951C113.4 0.199951 114.5 1.29995 114.5 2.69995C114.5 4.09995 113.3 5.19995 112 5.19995Z" fill="#48A5DD"/>
<path fill-rule="evenodd" clip-rule="evenodd" d="M107.1 78.8001L94.9001 57.7C94.2001 56.4 92.5001 56 91.2001 56.7L77.1001 64.8001C75.8001 65.5001 75.4001 67.2 76.1001 68.5L88.3001 89.6C89.0001 90.9 90.7001 91.3 92.0001 90.6L106.1 82.5C107.4 81.8 107.8 80.1001 107.1 78.8001ZM91.7001 84.6L82.2001 68.2L91.6001 62.8001L101.1 79.2L91.7001 84.6Z" fill="#495FA9"/>
<path fill-rule="evenodd" clip-rule="evenodd" d="M89.9001 40.9999C85.7001 33.6999 76.4001 31.2 69.1001 35.4C61.8001 39.6 59.3001 48.8999 63.5001 56.1999C65.8001 60.1999 69.8001 62.9999 74.5001 63.5999C75.1001 63.6999 75.7001 63.6 76.2001 63.3L89.7001 55.4999C90.2001 55.1999 90.6001 54.6999 90.9001 54.1999C92.6001 49.8999 92.3001 45.0999 89.9001 40.9999ZM86.2001 51.4L74.5001 58.1999C71.9001 57.5999 69.7001 55.8999 68.3001 53.5999C65.6001 48.8999 67.2001 42.8999 71.9001 40.1999C76.6001 37.4999 82.6001 39.1 85.3001 43.8C86.6001 46.1 86.9001 48.8 86.2001 51.4Z" fill="#48A5DD"/>
<path fill-rule="evenodd" clip-rule="evenodd" d="M69.5 25.2C67.8 25.2 66.5 23.9 66.5 22.2C66.5 20.5 67.8 19.2 69.5 19.2C71.2 19.2 72.5 20.5 72.5 22.2C72.5 23.9 71.1 25.2 69.5 25.2Z" fill="#495FA9"/>
<path fill-rule="evenodd" clip-rule="evenodd" d="M42.5 72.2C40.8 72.2 39.5 70.9 39.5 69.2C39.5 67.5 40.8 66.2 42.5 66.2C44.2 66.2 45.5 67.5 45.5 69.2C45.5 70.9 44.1 72.2 42.5 72.2Z" fill="#495FA9"/>
<path fill-rule="evenodd" clip-rule="evenodd" d="M27.4999 53.6C25.6999 54.3 23.6999 55.2 22.8999 56.1C22.0999 56.9 21.3999 58.5 20.7999 60.2C20.2999 61.5 18.4999 61.5 17.9999 60.2C17.2999 58.4 16.4999 56.6001 15.6999 55.8001C14.8999 55.0001 13.1999 54.2 11.4999 53.6C10.1999 53.1 10.1999 51.3001 11.4999 50.8001C13.1999 50.1001 14.9999 49.3 15.7999 48.5C16.5999 47.7 17.3999 45.9 18.0999 44.2C18.5999 42.9 20.3999 42.9 20.8999 44.2C21.4999 45.9 22.2999 47.7 23.0999 48.5C23.8999 49.4 25.7999 50.2 27.5999 50.9C28.7999 51.3 28.7999 53.1 27.4999 53.6Z" fill="#DE4875"/>
<path fill-rule="evenodd" clip-rule="evenodd" d="M15.6 125.6C16.7 126 16.7 127.5 15.6 127.9C14 128.5 12.2 129.2 11.5 130C10.8 130.6 10.2 132 9.6 133.4C9.2 134.5 7.6 134.5 7.1 133.4C6.5 131.9 5.8 130.4 5 129.7C4.3 129 2.7 128.4 1.2 127.8C0.1 127.4 0.1 125.9 1.2 125.5C2.7 124.9 4.3 124.3 5 123.6C5.7 122.9 6.4 121.4 7 120C7.4 118.9 9 118.9 9.5 120C10.1 121.4 10.8 122.9 11.5 123.6C12.4 124.3 14 125 15.6 125.6Z" fill="#48A5DD"/>
<path fill-rule="evenodd" clip-rule="evenodd" d="M79.3999 90.8001L70.7999 76C70.3999 75.3 69.7999 74.8 68.9999 74.6C68.1999 74.4 67.3999 74.5 66.6999 74.9L14.8999 104.7C14.1999 105.1 13.6999 105.7 13.4999 106.5C13.2999 107.3 13.3999 108.1 13.7999 108.8L22.3999 123.6C22.9999 124.6 23.9999 125.1 24.9999 125.1C25.4999 125.1 25.9999 125 26.4999 124.7L78.2999 94.9C79.6999 94 80.1999 92.2001 79.3999 90.8001ZM26.0999 118L20.4999 108.4L67.0999 81.6L72.6999 91.2L26.0999 118Z" fill="#495FA9"/>
<path fill-rule="evenodd" clip-rule="evenodd" d="M92.6 113.9L84 99.0999C83.2 97.6999 81.3 97.2 79.9 98L28.1 127.8C26.7 128.6 26.2 130.4 27 131.9L35.6 146.7C36 147.4 36.7 147.9 37.4 148.1C37.7 148.2 37.9 148.2 38.2 148.2C38.7 148.2 39.2 148.1 39.7 147.8L91.5 118C92.2 117.6 92.7 117 92.9 116.2C93.1 115.4 93 114.6 92.6 113.9ZM39.3 141.1L33.7 131.4L80.3 104.6L85.9 114.2L39.3 141.1Z" fill="#495FA9"/>
<path fill-rule="evenodd" clip-rule="evenodd" d="M57.5 150.2C59.2 150.2 60.5 151.5 60.5 153.2C60.5 154.9 59.2 156.2 57.5 156.2C55.8 156.2 54.5 154.9 54.5 153.2C54.5 151.5 55.8 150.2 57.5 150.2Z" fill="#EB7444"/>
<path fill-rule="evenodd" clip-rule="evenodd" d="M87 139.2C87.8 139.2 88.5 139.9 88.5 140.7C88.5 141.5 87.8 142.2 87 142.2C86.2 142.2 85.5 141.5 85.5 140.7C85.5 139.9 86.1 139.2 87 139.2Z" fill="#495FA9"/>
<path fill-rule="evenodd" clip-rule="evenodd" d="M132.5 116.1L115.6 86.8001C115.3 86.3001 114.8 85.8 114.2 85.6L109.3 83.8001C108.5 83.5001 107.7 83.6 107 84L93 92C92.3 92.4 91.9 93.1001 91.7 93.8001L90.6 99.1C90.5 99.7 90.6 100.4 90.9 101L107.8 130.3C108.5 131.6 110.2 132 111.5 131.3L131.4 119.8C132.8 119 133.2 117.4 132.5 116.1ZM111.2 125.3L96.2 99.3001L96.8 96.2L108.6 89.4L111.4 90.5L126.5 116.6L111.2 125.3Z" fill="#495FA9"/>
<path fill-rule="evenodd" clip-rule="evenodd" d="M139 135.2C139.8 135.2 140.5 135.9 140.5 136.7C140.5 137.5 139.8 138.2 139 138.2C138.2 138.2 137.5 137.5 137.5 136.7C137.5 135.9 138.1 135.2 139 135.2Z" fill="#48A5DD"/>
<path fill-rule="evenodd" clip-rule="evenodd" d="M142.5 104.2C144.2 104.2 145.5 105.5 145.5 107.2C145.5 108.9 144.2 110.2 142.5 110.2C140.8 110.2 139.5 108.9 139.5 107.2C139.5 105.5 140.8 104.2 142.5 104.2Z" fill="#DC6D40"/>
<path fill-rule="evenodd" clip-rule="evenodd" d="M162.5 117.2C164.3 116.5 166.2 115.6 167.1 114.8C168 113.9 168.8 112.1 169.5 110.2C170 108.9 171.9 108.9 172.4 110.2C173.1 112 173.9 113.9 174.7 114.7C175.6 115.6 177.6 116.5 179.4 117.2C180.7 117.7 180.8 119.6 179.4 120.1C177.5 120.9 175.4 121.8 174.5 122.7C173.7 123.5 172.9 125.3 172.3 127C171.8 128.4 169.9 128.4 169.4 127C168.7 125.1 167.8 123.2 166.9 122.3C166.1 121.5 164.2 120.6 162.4 119.9C161.1 119.7 161.1 117.7 162.5 117.2Z" fill="#DC6D40"/>
</svg>
