<svg width="177" height="192" viewBox="0 0 177 192" fill="none" xmlns="http://www.w3.org/2000/svg">
<path d="M143 50.7C140.8 50.7 139 52.5 139 54.7V59.9H124C121.8 59.9 120 61.7 120 63.9V86.9C120 89.1 121.8 90.9 124 90.9H139V109.9H49V95.9H62C64.2 95.9 66 94.1 66 91.9C66 89.7 64.2 87.9 62 87.9H49V82.9H69C71.2 82.9 73 81.1 73 78.9C73 76.7 71.2 74.9 69 74.9H49V71.9H62C64.2 71.9 66 70.1 66 67.9C66 65.7 64.2 63.9 62 63.9H49V56.3L68.4 35.9H94C96.2 35.9 98 34.1 98 31.9C98 29.7 96.2 27.9 94 27.9H75.9L81.9 21.6C83.6 19.7 89.1 14.9 94.1 14.9C99.1 14.9 104.4 19.7 106 21.5C107.5 23.2 110 23.3 111.6 21.9C113.3 20.4 113.4 17.9 112 16.3C111.2 15.3 103.6 6.90002 94.1 6.90002C84.8 6.90002 77 15.1 76 16.2L42.1 52C41.4 52.7 41 53.7 41 54.8V132C41 134.2 42.8 136 45 136H143C145.2 136 147 134.2 147 132V54.7C147 52.5 145.2 50.7 143 50.7ZM128 82.9V67.9H139V82.9H128ZM49 128V117.9H139V128H49Z" fill="#495FA9"/>
<path d="M114.5 30.5001L124.4 40.9001H77C74.8 40.9001 73 42.7001 73 44.9001C73 47.1001 74.8 48.9001 77 48.9001H132.3C132.8 49.2001 133.4 49.3001 134 49.3001C135 49.3001 136 48.9001 136.8 48.2001C137.8 47.2001 138.2 45.8001 138 44.5001C137.9 43.1001 137 42.0001 135.9 41.4001L120.3 25.0001C118.8 23.4001 116.2 23.3001 114.6 24.8001C113.1 26.3001 113 28.9001 114.5 30.5001Z" fill="#48A5DD"/>
<path d="M106.5 142.3C105.8 141.8 104.9 141.5 104.1 141.5H85.2002C84.3002 141.5 83.5002 141.8 82.8002 142.3C82.0002 142.9 62.6002 158.2 58.5002 187.3C58.3002 188.4 58.7002 189.6 59.4002 190.5C60.2002 191.4 61.3002 191.9 62.4002 191.9H127C128.2 191.9 129.3 191.4 130 190.5C130.8 189.6 131.1 188.5 130.9 187.3C126.7 158.2 107.3 142.9 106.5 142.3ZM67.0002 183.9C68.4002 177.3 70.7002 171.7 73.2002 166.9H88.0002C90.2002 166.9 92.0002 165.1 92.0002 162.9C92.0002 160.7 90.2002 158.9 88.0002 158.9H78.2002C81.7002 154.1 85.0002 150.9 86.5002 149.5H102.5C105 151.7 111.7 158.3 116.8 168.9H106C103.8 168.9 102 170.7 102 172.9C102 175.1 103.8 176.9 106 176.9H120.2C120.9 179.1 121.6 181.4 122.1 183.9H67.0002Z" fill="#495FA9"/>
<path d="M51.5001 152.4C49.7001 151.7 47.9001 150.9 47.0001 150C46.1001 149.1 45.2001 147.2 44.5001 145.3C44.0001 144 42.1001 144 41.6001 145.3C41.0001 147 40.2001 148.8 39.4001 149.6C38.5001 150.5 36.4001 151.5 34.5001 152.2C33.2001 152.7 33.2001 154.6 34.5001 155.1C36.4001 155.8 38.4001 156.7 39.2001 157.6C40.0001 158.4 40.9001 160.3 41.5001 162.1C42.0001 163.5 43.9001 163.5 44.4001 162.1C45.1001 160.3 45.9002 158.4 46.8001 157.5C47.7001 156.6 49.5001 155.8 51.4001 155.1C52.8001 154.8 52.8001 152.9 51.5001 152.4Z" fill="#495FA9"/>
<path d="M172.5 147C170.8 146.4 169.1 145.6 168.3 144.8C167.5 144 166.6 142.2 166 140.4C165.5 139.1 163.7 139.1 163.2 140.4C162.6 142.1 161.8 143.7 161.1 144.5C160.2 145.4 158.3 146.3 156.5 147C155.2 147.5 155.2 149.3 156.5 149.8C158.3 150.5 160.2 151.3 161 152.2C161.8 153 162.6 154.8 163.2 156.5C163.7 157.8 165.5 157.8 166 156.5C166.7 154.8 167.5 153 168.3 152.2C169.1 151.4 170.9 150.6 172.6 149.9C173.8 149.3 173.8 147.5 172.5 147Z" fill="#E35962"/>
<path d="M15.7001 61.7C14.2001 61.2 12.6001 60.5 11.9001 59.8C11.2001 59.1 10.4001 57.6 9.8001 56.1C9.4001 55 7.8001 55 7.3001 56.1C6.8001 57.5 6.1001 58.9 5.4001 59.5C4.6001 60.2 2.9001 61 1.3001 61.6C0.200098 62 0.200098 63.5 1.3001 63.9C2.9001 64.5 4.5001 65.2 5.3001 65.9C6.0001 66.6 6.7001 68 7.3001 69.5C7.7001 70.6 9.3001 70.6 9.8001 69.5C10.4001 68.1 11.1001 66.6 11.8001 65.9C12.5001 65.2 14.1001 64.5 15.6001 64C16.8001 63.6 16.8001 62.1 15.7001 61.7Z" fill="#E35962"/>
<path d="M157.4 51C159 51.6 160.6 52.3 161.4 53C162.1 53.7 162.8 55.1 163.4 56.6C163.8 57.7 165.4 57.7 165.9 56.6C166.5 55.2 167.2 53.7 167.9 53C168.6 52.3 170.2 51.6 171.7 51.1C172.8 50.7 172.8 49.2 171.7 48.8C170.2 48.3 168.6 47.6 167.9 46.9C167.2 46.2 166.4 44.7 165.8 43.2C165.4 42.1 163.8 42.1 163.3 43.2C162.8 44.6 162.1 46 161.4 46.6C160.6 47.3 158.9 48.1 157.3 48.7C156.2 49.1 156.2 50.6 157.4 51Z" fill="#495FA9"/>
<path d="M47.5 36.4C49.2 36.4 50.5 35.1 50.5 33.4C50.5 31.7 49.2 30.4 47.5 30.4C45.8 30.4 44.5 31.7 44.5 33.4C44.5 35.1 45.8 36.4 47.5 36.4Z" fill="#EB7444"/>
<path d="M17 177.4C15.6 177.4 14.5 178.5 14.5 179.9C14.5 181.3 15.6 182.4 17 182.4C18.4 182.4 19.5 181.3 19.5 179.9C19.5 178.5 18.4 177.4 17 177.4Z" fill="#EB7444"/>
<path d="M112 3.40002C112.8 3.40002 113.5 2.70002 113.5 1.90002C113.5 1.10002 112.8 0.400024 112 0.400024C111.2 0.400024 110.5 1.10002 110.5 1.90002C110.5 2.70002 111.2 3.40002 112 3.40002Z" fill="#EB7444"/>
<path d="M138.5 177.4C140.157 177.4 141.5 176.057 141.5 174.4C141.5 172.743 140.157 171.4 138.5 171.4C136.843 171.4 135.5 172.743 135.5 174.4C135.5 176.057 136.843 177.4 138.5 177.4Z" fill="#E35962"/>
<path d="M173.5 91.4C175.157 91.4 176.5 90.0569 176.5 88.4C176.5 86.7432 175.157 85.4 173.5 85.4C171.843 85.4 170.5 86.7432 170.5 88.4C170.5 90.0569 171.843 91.4 173.5 91.4Z" fill="#EB7444"/>
<path d="M19.5 113.4C21.1569 113.4 22.5 112.057 22.5 110.4C22.5 108.743 21.1569 107.4 19.5 107.4C17.8431 107.4 16.5 108.743 16.5 110.4C16.5 112.057 17.8431 113.4 19.5 113.4Z" fill="#E35962"/>
<path d="M75 87.9C72.8 87.9 71 89.7 71 91.9C71 94.1 72.8 95.9 75 95.9H81C83.2 95.9 85 94.1 85 91.9C85 89.7 83.2 87.9 81 87.9H75Z" fill="#48A5DD"/>
</svg>
