<svg width="18" height="18" viewBox="0 0 18 18" fill="none" xmlns="http://www.w3.org/2000/svg">
<path d="M9 1.5V2.33333V1.5ZM9 15.6667V16.5V15.6667ZM16.5 9H15.6667H16.5ZM2.33333 9H1.5H2.33333ZM14.3033 14.3033L13.7142 13.7142L14.3033 14.3033ZM4.28583 4.28583L3.69667 3.69667L4.28583 4.28583ZM14.3033 3.69667L13.7142 4.28583L14.3033 3.69667ZM4.28583 13.7142L3.69667 14.3033L4.28583 13.7142ZM12.3333 9C12.3333 9.88405 11.9821 10.7319 11.357 11.357C10.7319 11.9821 9.88405 12.3333 9 12.3333C8.11594 12.3333 7.2681 11.9821 6.64298 11.357C6.01786 10.7319 5.66667 9.88405 5.66667 9C5.66667 8.11594 6.01786 7.2681 6.64298 6.64298C7.2681 6.01786 8.11594 5.66667 9 5.66667C9.88405 5.66667 10.7319 6.01786 11.357 6.64298C11.9821 7.2681 12.3333 8.11594 12.3333 9V9Z" stroke="#ADBBCF" stroke-width="2" stroke-linecap="round" stroke-linejoin="round"/>
</svg>
