<svg width="20" height="20" viewBox="0 0 20 20" fill="none" xmlns="http://www.w3.org/2000/svg">
<path d="M7.24999 9.99998L9.08332 11.8333L12.75 8.16665L7.24999 9.99998ZM6.18207 3.30557C6.8396 3.25309 7.46383 2.99455 7.9659 2.56674C8.53324 2.08298 9.25441 1.81726 9.99998 1.81726C10.7456 1.81726 11.4667 2.08298 12.0341 2.56674C12.5361 2.99455 13.1604 3.25309 13.8179 3.30557C14.5611 3.36469 15.2589 3.68674 15.7861 4.21391C16.3132 4.74109 16.6353 5.43888 16.6944 6.18207C16.7469 6.8396 17.0054 7.46383 17.4332 7.9659C17.917 8.53324 18.1827 9.25441 18.1827 9.99998C18.1827 10.7456 17.917 11.4667 17.4332 12.0341C17.0054 12.5361 16.7469 13.1604 16.6944 13.8179C16.6353 14.5611 16.3132 15.2589 15.7861 15.7861C15.2589 16.3132 14.5611 16.6353 13.8179 16.6944C13.1604 16.7469 12.5361 17.0054 12.0341 17.4332C11.4667 17.917 10.7456 18.1827 9.99998 18.1827C9.25441 18.1827 8.53324 17.917 7.9659 17.4332C7.46383 17.0054 6.8396 16.7469 6.18207 16.6944C5.43888 16.6353 4.74109 16.3132 4.21391 15.7861C3.68674 15.2589 3.36469 14.5611 3.30557 13.8179C3.25309 13.1604 2.99455 12.5361 2.56674 12.0341C2.08298 11.4667 1.81726 10.7456 1.81726 9.99998C1.81726 9.25441 2.08298 8.53324 2.56674 7.9659C2.99455 7.46383 3.25309 6.8396 3.30557 6.18207C3.36469 5.43888 3.68674 4.74109 4.21391 4.21391C4.74109 3.68674 5.43888 3.36469 6.18207 3.30557V3.30557Z" stroke="#ADBBCF" stroke-width="2" stroke-linecap="round" stroke-linejoin="round"/>
</svg>
