<svg width="19" height="19" viewBox="0 0 19 19" fill="none" xmlns="http://www.w3.org/2000/svg">
<path d="M16.625 10.4936C14.3612 11.4089 11.9418 11.878 9.5 11.875C6.98013 11.875 4.57583 11.3842 2.375 10.4936H16.625ZM12.6667 4.75001V3.16668C12.6667 2.74675 12.4999 2.34402 12.2029 2.04709C11.906 1.75016 11.5033 1.58334 11.0833 1.58334H7.91667C7.49674 1.58334 7.09401 1.75016 6.79708 2.04709C6.50015 2.34402 6.33333 2.74675 6.33333 3.16668V4.75001H12.6667ZM9.5 9.50001H9.50792H9.5ZM3.95833 15.8333H15.0417C15.4616 15.8333 15.8643 15.6665 16.1613 15.3696C16.4582 15.0727 16.625 14.6699 16.625 14.25V6.33334C16.625 5.91342 16.4582 5.51069 16.1613 5.21376C15.8643 4.91683 15.4616 4.75001 15.0417 4.75001H3.95833C3.53841 4.75001 3.13568 4.91683 2.83875 5.21376C2.54181 5.51069 2.375 5.91342 2.375 6.33334V14.25C2.375 14.6699 2.54181 15.0727 2.83875 15.3696C3.13568 15.6665 3.53841 15.8333 3.95833 15.8333Z" stroke="#ADBBCF" stroke-width="2" stroke-linecap="round" stroke-linejoin="round"/>
</svg>
